<?xml version="1.0" encoding="UTF-8"?>
<svg version="1.1" xmlns="http://www.w3.org/2000/svg" width="419" height="247">
<path d="M0 0 C138.27 0 276.54 0 419 0 C419 81.51 419 163.02 419 247 C280.73 247 142.46 247 0 247 C0 165.49 0 83.98 0 0 Z " fill="#A5C63B" transform="translate(0,0)"/>
<path d="M0 0 C13.2 0 26.4 0 40 0 C33.58808769 8.54921642 33.58808769 8.54921642 29.45800781 12.56152344 C20.14432283 21.75557214 16.62372139 31.77715701 16.5 44.8125 C16.80381225 59.44285648 22.7921351 70.68330925 33 81 C34.86949128 82.72755594 36.77926642 84.39050146 38.71875 86.0390625 C41.42654913 88.36665696 44.06010426 90.77022786 46.6875 93.1875 C47.1935376 93.65244873 47.6995752 94.11739746 48.22094727 94.59643555 C50.92071863 97.07961842 53.61547893 99.56819501 56.30859375 102.05859375 C57.41403194 103.08076221 58.51950065 104.10289768 59.625 105.125 C60.4461731 105.8842981 60.4461731 105.8842981 61.28393555 106.65893555 C65.29028897 110.35807721 69.33674164 114.01011059 73.3984375 117.6484375 C77.02356615 120.92520544 80.6072281 124.24629759 84.18359375 127.57617188 C87.04757001 130.23350681 89.94822154 132.8369762 92.8984375 135.3984375 C97.72281472 139.60061178 102.35596169 143.99539339 107 148.39453125 C110.93769146 152.1091894 114.94365157 155.71887207 119.03125 159.26757812 C122.25605268 162.10527651 125.37446222 165.05395017 128.5 168 C132.91245719 172.13985626 137.34514148 176.23023011 141.9296875 180.1796875 C146.47810412 184.17886135 150.88594391 188.33766708 155.32861328 192.45361328 C162.36318768 198.96208454 169.42296626 205.44541445 176.5859375 211.8125 C178.20494652 213.27956319 179.79377295 214.78058736 181.3515625 216.3125 C192.88682867 227.43445045 204.9246981 231.4582667 220.765625 231.2109375 C232.45759745 230.79373496 241.99040452 225.30855394 250 217 C250.80179688 216.20980469 251.60359375 215.41960937 252.4296875 214.60546875 C256.80081258 210.28322206 261.03271024 205.92201281 265.03125 201.25390625 C267.5897848 198.32479002 270.23047301 195.47640056 272.875 192.625 C276.44438426 188.77405425 279.99646113 184.91122339 283.5 181 C287.47530054 176.56379505 291.51207668 172.18745602 295.55859375 167.81640625 C298.56410722 164.56616903 301.54559609 161.2969435 304.5 158 C307.96489833 154.13337433 311.47304568 150.30986214 315 146.5 C319.28227279 141.87380193 323.52207859 137.21321325 327.73046875 132.51953125 C332.58556409 127.12962334 337.50779542 121.80048195 342.41601562 116.45898438 C347.13225563 111.32526255 351.84282591 106.18752843 356.5 101 C362.08919783 94.77430989 367.75524058 88.61946922 373.41601562 82.45898438 C375.73599346 79.93364197 378.0539554 77.40652418 380.3671875 74.875 C382.05239695 73.03477128 383.74448746 71.20080579 385.4453125 69.375 C398.23421686 55.50229018 404.03348477 43.69328075 403.390625 24.671875 C402.76111015 14.65541726 397.88599571 7.84799428 392 0 C400.91 0 409.82 0 419 0 C419 81.51 419 163.02 419 247 C280.73 247 142.46 247 0 247 C0 165.49 0 83.98 0 0 Z " fill="#FEFEFE" transform="translate(0,0)"/>
<path d="M0 0 C1.59605185 -0.00742845 3.19209148 -0.01811956 4.7881012 -0.03189087 C8.12012157 -0.04803077 11.4488796 -0.02481794 14.78051758 0.02685547 C19.0236676 0.08950601 23.25915996 0.05345779 27.50202847 -0.01244164 C30.79454329 -0.05245965 34.08528289 -0.0394239 37.3778553 -0.01103592 C38.94015504 -0.00376764 40.50262317 -0.01245666 42.06472588 -0.038311 C49.48044477 -0.13413533 55.6680942 0.00514105 61.31647587 5.33032799 C63.47521595 7.61187267 65.45506005 10.02928757 67.44140625 12.4609375 C68.70452965 13.63816139 69.98993729 14.79307923 71.31640625 15.8984375 C74.89857266 18.95942806 78.36240112 22.13223702 81.81640625 25.3359375 C86.4738322 29.65244601 91.16365517 33.92791856 95.89453125 38.1640625 C97.78968527 39.87318913 99.67433896 41.59086202 101.55078125 43.3203125 C102.0830835 43.81072021 102.61538574 44.30112793 103.16381836 44.80639648 C104.67038087 46.19637562 106.17508914 47.58836373 107.6796875 48.98046875 C110.19889646 51.24312461 112.77396913 53.37654674 115.44140625 55.4609375 C114.1431715 59.27656145 112.69173767 61.53184629 109.75390625 64.2734375 C107.09031231 66.83678866 104.54060218 69.40894295 102.12890625 72.2109375 C99.20949862 75.60036313 96.21870336 78.91793973 93.19140625 82.2109375 C92.72387939 82.71963379 92.25635254 83.22833008 91.7746582 83.75244141 C90.81325178 84.79776845 89.85157915 85.84285071 88.88964844 86.88769531 C86.52948927 89.45156343 84.17230823 92.01815745 81.81640625 94.5859375 C81.35709717 95.08649658 80.89778809 95.58705566 80.42456055 96.1027832 C77.59967688 99.18543562 74.79514955 102.2853211 72.00390625 105.3984375 C67.94639141 109.9230044 63.82736238 114.38819181 59.68310547 118.83325195 C57.0467046 121.6722895 54.53342162 124.54493276 52.12890625 127.5859375 C47.88670327 132.12410812 43.6457585 133.58716711 37.56640625 134.0859375 C32.19249915 133.96305853 29.32114903 131.62601624 25.44921875 128.08984375 C23.38531353 126.41543037 22.0347355 125.87377691 19.44140625 125.4609375 C17.585867 127.45967929 15.73170235 129.45965471 13.87890625 131.4609375 C13.32823486 132.05527588 12.77756348 132.64961426 12.21020508 133.26196289 C9.28817709 136.42559449 6.41835262 139.61635955 3.62890625 142.8984375 C-5.11995097 152.99491821 -5.11995097 152.99491821 -11.828125 153.69921875 C-17.63987111 153.8688396 -21.01839479 153.46063658 -25.55859375 149.4609375 C-30.27065127 144.11211544 -31.12570084 140.67880383 -31 133.59765625 C-30.22979789 128.12445012 -27.31064644 125.33959319 -23.55859375 121.4609375 C-22.31180691 120.12686184 -21.0672129 118.79073512 -19.82421875 117.453125 C-16.5942352 113.98444586 -13.333773 110.54667291 -10.05151367 107.12744141 C-7.34487236 104.244026 -7.34487236 104.244026 -6.62109375 100.5234375 C-7.93788963 97.62648657 -10.04802885 96.3591695 -12.55859375 94.4609375 C-13.21859375 93.4709375 -13.87859375 92.4809375 -14.55859375 91.4609375 C-18.04982556 92.02647181 -19.4149862 93.04824582 -21.62109375 95.7734375 C-24.72323878 99.48529138 -27.91103671 103.08743304 -31.18359375 106.6484375 C-31.63871338 107.14706299 -32.09383301 107.64568848 -32.56274414 108.15942383 C-42.74281628 119.26177102 -42.74281628 119.26177102 -47.30078125 119.76171875 C-48.85152344 119.76751953 -48.85152344 119.76751953 -50.43359375 119.7734375 C-51.46226563 119.79019531 -52.4909375 119.80695313 -53.55078125 119.82421875 C-58.28450177 119.25248367 -61.39375689 117.09876611 -64.30859375 113.3984375 C-67.2561796 109.55020042 -67.79579614 107.63094095 -67.99609375 102.8359375 C-68.05667969 101.83304687 -68.11726563 100.83015625 -68.1796875 99.796875 C-66.71071626 91.90692886 -59.29972207 85.83361379 -53.93359375 80.2109375 C-53.27875 79.51742187 -52.62390625 78.82390625 -51.94921875 78.109375 C-49.39456776 75.40992598 -46.84486338 72.73508496 -44.16015625 70.1640625 C-42.32075626 68.44663706 -42.32075626 68.44663706 -41.55859375 65.4609375 C-42.15285156 65.203125 -42.74710938 64.9453125 -43.359375 64.6796875 C-45.73610075 63.36256773 -47.02644948 62.04749816 -48.74609375 59.9609375 C-49.25527344 59.3525 -49.76445313 58.7440625 -50.2890625 58.1171875 C-53.33251584 54.14665146 -53.37411742 50.07461463 -53.36328125 45.1875 C-51.74986561 37.71566253 -45.84705893 32.68652793 -40.55859375 27.4609375 C-39.8625 26.749375 -39.16640625 26.0378125 -38.44921875 25.3046875 C-37.35138239 24.19677925 -36.24268905 23.09947431 -35.12109375 22.015625 C-33.40969983 20.31278805 -31.82803051 18.53455904 -30.24609375 16.7109375 C-29.68938492 16.08659821 -29.13267609 15.46225891 -28.55909729 14.81900024 C-26.49064038 12.44960345 -26.49064038 12.44960345 -24.59312439 9.69100952 C-17.43620585 0.37008672 -10.91869168 -0.18044365 0 0 Z " fill="#FEFEFD" transform="translate(169.55859375,-1.4609375)"/>
<path d="M0 0 C4.88861961 2.78132241 10.10222838 6.55972136 12 12 C13.04981274 17.57900483 12.57501237 21.84210839 9.4375 26.625 C4.64824433 32.81479464 -0.86595917 38.4302945 -6.28125 44.0703125 C-9.37622861 47.30551407 -12.33140143 50.63957193 -15.26318359 54.02246094 C-18.68778381 57.92171055 -22.27606483 61.66993997 -25.83789062 65.44335938 C-29.21563651 69.03854062 -32.4566907 72.68300117 -35.54077148 76.53491211 C-38.9906382 79.99863139 -42.56495267 80.36610912 -47.3125 80.5 C-51.74903078 80.4302902 -54.64543712 80.22123773 -58.125 77.375 C-62.80623514 72.39174969 -64.33682624 67.98650683 -64.30078125 61.24609375 C-63.43905257 54.81110684 -59.78725882 51.29425934 -55.4375 46.8125 C-54.15818347 45.46938852 -52.87953717 44.12563833 -51.6015625 42.78125 C-50.67005371 41.80671875 -50.67005371 41.80671875 -49.71972656 40.8125 C-47.54129833 38.51655292 -45.42034242 36.17328351 -43.3125 33.8125 C-39.65087196 29.7177034 -35.95808598 25.65278249 -32.23242188 21.61621094 C-29.83665416 19.01828988 -27.46655147 16.40342257 -25.13671875 13.74609375 C-10.51784692 -2.82967455 -10.51784692 -2.82967455 0 0 Z " fill="#FDFEFC" transform="translate(298,61)"/>
<path d="M0 0 C22.77 0 45.54 0 69 0 C69 20.49810175 67.93648268 32.59527598 57 49 C54.12726813 49.44058872 52.60987261 49.39725203 50.15405273 47.79760742 C49.58630127 47.23920166 49.0185498 46.6807959 48.43359375 46.10546875 C47.46679688 45.17444336 47.46679688 45.17444336 46.48046875 44.22460938 C45.80628906 43.55236328 45.13210938 42.88011719 44.4375 42.1875 C43.00966089 40.80542496 41.58127071 39.42391903 40.15234375 38.04296875 C39.44964355 37.35638184 38.74694336 36.66979492 38.02294922 35.96240234 C35.23082139 33.25384291 32.37567781 30.61927178 29.5 28 C28.53964844 27.12214844 27.57929688 26.24429687 26.58984375 25.33984375 C24.43250741 23.39075707 22.25916922 21.46688891 20.0625 19.5625 C16.38675942 16.36755249 12.78004379 13.1003478 9.1875 9.8125 C8.34167358 9.04498413 8.34167358 9.04498413 7.47875977 8.26196289 C4.61786382 5.63169414 2.35029994 3.13373325 0 0 Z " fill="#FDFEFB" transform="translate(235,0)"/>
<path d="M0 0 C14.52 0 29.04 0 44 0 C37.25693161 8.99075786 37.25693161 8.99075786 33.9375 12.1875 C31.67383852 14.36970396 29.53308914 16.52385121 27.4375 18.875 C23.64771749 22.17891295 19.84312863 22.81192565 14.9375 23.3125 C9.82942119 22.76908736 6.47306326 20.79898096 3.1875 16.9375 C-1.66579224 10.42022184 0 11.05229125 0 0 Z " fill="#FDFEFC" transform="translate(104,0)"/>
<path d="M0 0 C0.99 0.33 1.98 0.66 3 1 C1.89205078 2.19882813 1.89205078 2.19882813 0.76171875 3.421875 C-12.02009427 17.25236452 -12.02009427 17.25236452 -24.6875 31.1875 C-25.40550781 31.98285156 -26.12351563 32.77820313 -26.86328125 33.59765625 C-28.33786682 35.2555541 -29.79252301 36.93131864 -31.23046875 38.62109375 C-31.93816406 39.44738281 -32.64585937 40.27367187 -33.375 41.125 C-34.31472656 42.24261719 -34.31472656 42.24261719 -35.2734375 43.3828125 C-37 45 -37 45 -40 45 C-42.68767578 47.43750025 -42.68767578 47.43750025 -45 50 C-45.66 49.67 -46.32 49.34 -47 49 C-46.59273682 48.56768066 -46.18547363 48.13536133 -45.76586914 47.68994141 C-35.3750336 36.65360174 -35.3750336 36.65360174 -25.18359375 25.43359375 C-22.11757231 22.01654302 -19.00351074 18.64421073 -15.8894043 15.27099609 C-13.36916595 12.53084714 -10.92851007 9.74886576 -8.5625 6.875 C-6.19939012 4.22370599 -5.0388291 3.46202116 -2 2 C-1.34 1.34 -0.68 0.68 0 0 Z " fill="#B2CF56" transform="translate(274,70)"/>
<path d="M0 0 C0.721875 0.00257812 1.44375 0.00515625 2.1875 0.0078125 C2.909375 0.00523438 3.63125 0.00265625 4.375 0 C6.1875 0.1328125 6.1875 0.1328125 7.1875 1.1328125 C7.375 4.0703125 7.375 4.0703125 7.1875 7.1328125 C5.1875 9.1328125 5.1875 9.1328125 2.1875 9.3828125 C-0.8125 9.1328125 -0.8125 9.1328125 -2.8125 7.1328125 C-3 4.0703125 -3 4.0703125 -2.8125 1.1328125 C-1.8125 0.1328125 -1.8125 0.1328125 0 0 Z " fill="#AACA45" transform="translate(280.8125,-0.1328125)"/>
<path d="M0 0 C1.32 0.33 2.64 0.66 4 1 C0.66666667 4.33333333 -2.66666667 7.66666667 -6 11 C-6.99 10.67 -7.98 10.34 -9 10 C-6.03 6.7 -3.06 3.4 0 0 Z " fill="#B7D35C" transform="translate(189,123)"/>
<path d="M0 0 C0.72574219 0.103125 1.45148438 0.20625 2.19921875 0.3125 C-0.22705644 2.8358262 -2.75450332 5.23007567 -5.36328125 7.5625 C-6.23146484 8.34367188 -6.23146484 8.34367188 -7.1171875 9.140625 C-8.80078125 10.3125 -8.80078125 10.3125 -11.80078125 10.3125 C-10.42267283 8.63114767 -9.02258118 6.96779519 -7.61328125 5.3125 C-6.83597656 4.384375 -6.05867187 3.45625 -5.2578125 2.5 C-2.80078125 0.3125 -2.80078125 0.3125 0 0 Z " fill="#B1CE54" transform="translate(150.80078125,-0.3125)"/>
<path d="M0 0 C0.99 0.33 1.98 0.66 3 1 C-0.96 4.96 -4.92 8.92 -9 13 C-9.66 12.67 -10.32 12.34 -11 12 C-7.37 8.04 -3.74 4.08 0 0 Z " fill="#B0CD52" transform="translate(40,0)"/>
<path d="M0 0 C1.32 0.33 2.64 0.66 4 1 C4.33 1.66 4.66 2.32 5 3 C4.278125 3.061875 3.55625 3.12375 2.8125 3.1875 C-0.84657625 4.24456647 -2.49211602 6.20550071 -5 9 C-5.66 8.67 -6.32 8.34 -7 8 C-4.69 5.36 -2.38 2.72 0 0 Z " fill="#B9D366" transform="translate(152,89)"/>
</svg>
