<svg width="500" height="500" version="1.1" xmlns="http://www.w3.org/2000/svg" desc="Created with imagetracer.js version 1.2.6" ><path fill="rgb(160,194,49)" stroke="rgb(160,194,49)" stroke-width="1" opacity="0.9450980392156862" d="M 418.5 66 L 419.5 68 L 418.5 66 Z " /><path fill="rgb(160,194,49)" stroke="rgb(160,194,49)" stroke-width="1" opacity="0.9450980392156862" d="M 80.5 67 L 79.5 69 L 80.5 67 Z " /><path fill="rgb(160,194,49)" stroke="rgb(160,194,49)" stroke-width="1" opacity="0.9450980392156862" d="M 422.5 69 L 429.5 77 L 422.5 69 Z " /><path fill="rgb(160,194,49)" stroke="rgb(160,194,49)" stroke-width="1" opacity="0.9450980392156862" d="M 431.5 79 L 433.5 82 L 431.5 79 Z " /><path fill="rgb(160,194,49)" stroke="rgb(160,194,49)" stroke-width="1" opacity="0.9450980392156862" d="M 193.5 97 L 194 99.5 L 193 99.5 L 193.5 97 Z " /><path fill="rgb(160,194,49)" stroke="rgb(160,194,49)" stroke-width="1" opacity="0.9450980392156862" d="M 307.5 97 L 308 99.5 L 307 99.5 L 307.5 97 Z " /><path fill="rgb(160,194,49)" stroke="rgb(160,194,49)" stroke-width="1" opacity="0.9450980392156862" d="M 442.5 102 L 443 104.5 L 442 104.5 L 442.5 102 Z " /><path fill="rgb(160,194,49)" stroke="rgb(160,194,49)" stroke-width="1" opacity="0.9450980392156862" d="M 196.5 105 L 197.5 107 L 196.5 105 Z " /><path fill="rgb(160,194,49)" stroke="rgb(160,194,49)" stroke-width="1" opacity="0.9450980392156862" d="M 443.5 109 L 444 390.5 L 443 390.5 L 443.5 109 Z " /><path fill="rgb(160,194,49)" stroke="rgb(160,194,49)" stroke-width="1" opacity="0.9450980392156862" d="M 244.5 113 L 248 113.5 L 244.5 114 L 244.5 113 Z " /><path fill="rgb(160,194,49)" stroke="rgb(160,194,49)" stroke-width="1" opacity="0.9450980392156862" d="M 206.5 123 L 205.5 125 L 206.5 123 Z " /><path fill="rgb(160,194,49)" stroke="rgb(160,194,49)" stroke-width="1" opacity="0.9450980392156862" d="M 197.5 129 L 196.5 131 L 197.5 129 Z " /><path fill="rgb(160,194,49)" stroke="rgb(160,194,49)" stroke-width="1" opacity="0.9450980392156862" d="M 305.5 131 L 307.5 134 L 305.5 131 Z " /><path fill="rgb(160,194,49)" stroke="rgb(160,194,49)" stroke-width="1" opacity="0.9450980392156862" d="M 193.5 132 L 191.5 135 L 193.5 132 Z " /><path fill="rgb(160,194,49)" stroke="rgb(160,194,49)" stroke-width="1" opacity="0.9450980392156862" d="M 184.5 141 L 181.5 145 L 184.5 141 Z " /><path fill="rgb(160,194,49)" stroke="rgb(160,194,49)" stroke-width="1" opacity="0.9450980392156862" d="M 318.5 144 L 320.5 147 L 318.5 144 Z " /><path fill="rgb(160,194,49)" stroke="rgb(160,194,49)" stroke-width="1" opacity="0.9450980392156862" d="M 179.5 147 L 178.5 149 L 179.5 147 Z " /><path fill="rgb(160,194,49)" stroke="rgb(160,194,49)" stroke-width="1" opacity="0.9450980392156862" d="M 214.5 149 L 215.5 151 L 214.5 149 Z " /><path fill="rgb(160,194,49)" stroke="rgb(160,194,49)" stroke-width="1" opacity="0.9450980392156862" d="M 286.5 149 L 285.5 151 L 286.5 149 Z " /><path fill="rgb(160,194,49)" stroke="rgb(160,194,49)" stroke-width="1" opacity="0.9450980392156862" d="M 296.5 153 L 297 155.5 L 296 155.5 L 296.5 153 Z " /><path fill="rgb(160,194,49)" stroke="rgb(160,194,49)" stroke-width="1" opacity="0.9450980392156862" d="M 215.5 158 L 213.5 161 L 215.5 158 Z " /><path fill="rgb(160,194,49)" stroke="rgb(160,194,49)" stroke-width="1" opacity="0.9450980392156862" d="M 285.5 158 L 286.5 160 L 285.5 158 Z " /><path fill="rgb(160,194,49)" stroke="rgb(160,194,49)" stroke-width="1" opacity="0.9450980392156862" d="M 337.5 189 L 338 191.5 L 337 191.5 L 337.5 189 Z " /><path fill="rgb(160,194,49)" stroke="rgb(160,194,49)" stroke-width="1" opacity="0.9450980392156862" d="M 138.5 194 L 141 194.5 L 138.5 195 L 138.5 194 Z " /><path fill="rgb(160,194,49)" stroke="rgb(160,194,49)" stroke-width="1" opacity="0.9450980392156862" d="M 360.5 194 L 363 194.5 L 360.5 195 L 360.5 194 Z " /><path fill="rgb(160,194,49)" stroke="rgb(160,194,49)" stroke-width="1" opacity="0.9450980392156862" d="M 150.5 198 L 154.5 203 L 150.5 198 Z " /><path fill="rgb(160,194,49)" stroke="rgb(160,194,49)" stroke-width="1" opacity="0.9450980392156862" d="M 350.5 198 L 346.5 203 L 350.5 198 Z " /><path fill="rgb(160,194,49)" stroke="rgb(160,194,49)" stroke-width="1" opacity="0.9450980392156862" d="M 164.5 200 L 337 200.5 L 164.5 201 L 164.5 200 Z " /><path fill="rgb(160,194,49)" stroke="rgb(160,194,49)" stroke-width="1" opacity="0.9450980392156862" d="M 118.5 309 L 119.5 311 L 118.5 309 Z " /><path fill="rgb(160,194,49)" stroke="rgb(160,194,49)" stroke-width="1" opacity="0.9450980392156862" d="M 154.5 311 L 151.5 315 L 154.5 311 Z " /><path fill="rgb(160,194,49)" stroke="rgb(160,194,49)" stroke-width="1" opacity="0.9450980392156862" d="M 346.5 311 L 349.5 315 L 346.5 311 Z " /><path fill="rgb(160,194,49)" stroke="rgb(160,194,49)" stroke-width="1" opacity="0.9450980392156862" d="M 136.5 319 L 139 319.5 L 136.5 320 L 136.5 319 Z " /><path fill="rgb(160,194,49)" stroke="rgb(160,194,49)" stroke-width="1" opacity="0.9450980392156862" d="M 333.5 338 L 328.5 344 L 333.5 338 Z " /><path fill="rgb(160,194,49)" stroke="rgb(160,194,49)" stroke-width="1" opacity="0.9450980392156862" d="M 260.5 390 L 261 393.5 L 260 393.5 L 260.5 390 Z " /><path fill="rgb(160,194,49)" stroke="rgb(160,194,49)" stroke-width="1" opacity="0.9450980392156862" d="M 240.5 391 L 241 393.5 L 240 393.5 L 240.5 391 Z " /><path fill="rgb(160,194,49)" stroke="rgb(160,194,49)" stroke-width="1" opacity="0.9450980392156862" d="M 57.5 394 L 58 396.5 L 57 396.5 L 57.5 394 Z " /><path fill="rgb(160,194,49)" stroke="rgb(160,194,49)" stroke-width="1" opacity="0.9450980392156862" d="M 442.5 395 L 443 397.5 L 442 397.5 L 442.5 395 Z " /><path fill="rgb(160,194,49)" stroke="rgb(160,194,49)" stroke-width="1" opacity="0.9450980392156862" d="M 237.5 401 L 236.5 403 L 237.5 401 Z " /><path fill="rgb(160,194,49)" stroke="rgb(160,194,49)" stroke-width="1" opacity="0.9450980392156862" d="M 263.5 401 L 264.5 403 L 263.5 401 Z " /><path fill="rgb(160,194,49)" stroke="rgb(160,194,49)" stroke-width="1" opacity="0.9450980392156862" d="M 200.5 403 L 204.5 408 L 200.5 403 Z " /><path fill="rgb(160,194,49)" stroke="rgb(160,194,49)" stroke-width="1" opacity="0.9450980392156862" d="M 300.5 403 L 296.5 408 L 300.5 403 Z " /><path fill="rgb(160,194,49)" stroke="rgb(160,194,49)" stroke-width="1" opacity="0.9450980392156862" d="M 433.5 418 L 432.5 420 L 433.5 418 Z " /><path fill="rgb(160,194,49)" stroke="rgb(160,194,49)" stroke-width="1" opacity="0.9450980392156862" d="M 431.5 421 L 428.5 425 L 431.5 421 Z " /><path fill="rgb(160,194,49)" stroke="rgb(160,194,49)" stroke-width="1" opacity="0.9450980392156862" d="M 69.5 422 L 76.5 430 L 69.5 422 Z " /><path fill="rgb(160,194,49)" stroke="rgb(160,194,49)" stroke-width="1" opacity="0.9450980392156862" d="M 425.5 427 L 422.5 431 L 425.5 427 Z " /><path fill="rgb(160,194,49)" stroke="rgb(160,194,49)" stroke-width="1" opacity="0.9450980392156862" d="M 79.5 431 L 80.5 433 L 79.5 431 Z " /><path fill="rgb(160,194,49)" stroke="rgb(160,194,49)" stroke-width="1" opacity="0.9450980392156862" d="M 419.5 432 L 418.5 434 L 419.5 432 Z " /><path fill="rgb(160,194,49)" stroke="rgb(160,194,49)" stroke-width="1" opacity="0.9450980392156862" d="M 85.5 435 L 86.5 437 L 85.5 435 Z " /><path fill="rgb(160,194,49)" stroke="rgb(160,194,49)" stroke-width="1" opacity="0.9450980392156862" d="M 396.5 442 L 399 442.5 L 396.5 443 L 396.5 442 Z " /><path fill="rgb(160,194,49)" stroke="rgb(160,194,49)" stroke-width="1" opacity="0.9450980392156862" d="M 109.5 443 L 391 443.5 L 109.5 444 L 109.5 443 Z " /><path fill="rgb(0,0,0)" stroke="rgb(0,0,0)" stroke-width="1" opacity="0" d="M 0 0 L 500 0 L 500 500 L 0 500 L 0 0 Z M 106 56 L 91 60 L 78 68 Q 61 81 56 105 L 56 396 Q 59 412 68 423 Q 80 438 103 444 L 398 444 L 416 437 L 428 428 L 436 418 Q 442 409 444 397 L 444 105 L 441 93 L 432 78 Q 420 60 395 56 L 106 56 Z " /><path fill="rgb(0,0,0)" stroke="rgb(0,0,0)" stroke-width="1" opacity="0" d="M 196.5 96 L 200 98.5 L 212 122 L 229.5 116 L 244.5 115 L 245.5 114 L 255.5 114 L 256.5 115 L 265.5 115 Q 268.4 117.6 274.5 117 L 287.5 122 L 300 99.5 L 303.5 96 L 307 98.5 L 293 124.5 Q 305.6 131.4 315 141.5 Q 324.6 151.9 331 165.5 L 335 177.5 L 337 191.5 L 335.5 193 L 165.5 193 Q 162.5 191.5 164 185.5 Q 170.6 150.6 194.5 133 L 208 124.5 L 194 98.5 L 196.5 96 Z M 211 147 L 205 149 L 203 155 L 205 160 L 209 162 L 215 161 Q 219 159 218 152 Q 216 147 211 147 Z M 290 147 L 287 148 L 283 153 L 284 159 L 289 162 L 295 161 L 298 156 L 296 149 L 290 147 Z " /><path fill="rgb(0,0,0)" stroke="rgb(0,0,0)" stroke-width="1" opacity="0" d="M 135.5 195 Q 150.1 195.9 156 205.5 L 159 214.5 L 159 299.5 Q 156.9 309.9 149.5 315 L 143.5 318 Q 138.8 316.8 137.5 319 L 128.5 317 L 121 311.5 L 116 302.5 L 116 212.5 Q 117.7 204.2 123.5 200 L 130.5 196 L 135.5 195 Z " /><path fill="rgb(0,0,0)" stroke="rgb(0,0,0)" stroke-width="1" opacity="0" d="M 361.5 195 Q 375.7 194.8 381 203.5 L 385 211.5 L 385 302.5 L 377.5 314 Q 371.9 320.4 357.5 318 Q 350.1 315.4 346 309.5 L 342 298.5 L 342 214.5 Q 343.6 203.6 351.5 199 L 361.5 195 Z " /><path fill="rgb(0,0,0)" stroke="rgb(0,0,0)" stroke-width="1" opacity="0" d="M 165.5 201 L 337 201 L 337 328.5 Q 335 338.5 327.5 343 Q 319.3 349 304 347 L 304 394.5 Q 301.5 403.5 294.5 408 Q 289.4 412.3 278.5 411 Q 270.8 408.8 266 403.5 L 262 396.5 L 261 391.5 L 261 347 L 240 347 L 240 392.5 Q 238.1 401.1 232.5 406 L 226.5 410 L 214.5 411 Q 204.5 409 200 401.5 L 197 394.5 L 197 347 L 178.5 346 Q 171 343 167 336.5 L 164 328.5 L 164 202.5 L 165.5 201 Z " /><path fill="rgb(164,198,57)" stroke="rgb(164,198,57)" stroke-width="1" opacity="1" d="M 105.5 57 L 394.5 57 Q 418.8 61.7 431 78.5 Q 440.1 88.9 443 105.5 L 443 394.5 Q 439.2 415.2 426.5 427 Q 414.7 438.7 395.5 443 L 103.5 443 Q 80.5 437 68 420.5 L 61 408.5 L 57 393.5 L 57 106.5 Q 61.4 81.4 78.5 69 L 91.5 61 L 105.5 57 Z M 196 95 L 193 98 L 206 124 L 194 132 Q 170 150 163 186 Q 161 192 165 194 L 337 194 L 338 193 L 337 182 L 333 168 L 321 147 Q 310 132 294 124 L 307 102 L 308 98 Q 307 94 303 95 Q 293 106 288 120 L 285 120 L 272 115 L 256 114 L 255 113 L 245 113 L 244 114 L 230 115 L 214 121 L 201 98 Q 200 94 196 95 Z M 135 194 L 125 198 Q 117 202 115 212 L 115 303 L 118 310 L 128 318 L 137 320 L 145 319 L 152 315 Q 158 310 160 300 L 160 215 L 159 210 L 155 203 Q 149 194 135 194 Z M 361 194 L 351 198 L 344 206 L 341 217 L 341 274 L 342 275 L 342 294 L 341 295 L 342 305 L 346 312 L 357 319 Q 362 318 364 320 L 371 319 L 377 316 Q 384 312 386 303 L 386 212 L 380 200 L 371 195 L 361 194 Z M 165 200 L 163 202 L 163 327 L 163 329 L 167 339 Q 175 351 196 348 L 196 396 L 200 404 Q 205 410 214 412 Q 225 414 231 409 Q 239 404 241 394 L 241 348 L 260 348 L 260 394 L 263 402 Q 268 409 278 412 L 288 412 L 297 408 Q 303 404 305 396 L 305 348 Q 320 350 329 344 Q 336 339 338 329 L 338 202 L 337 200 L 165 200 Z " /><path fill="rgb(164,198,57)" stroke="rgb(164,198,57)" stroke-width="1" opacity="1" d="M 210.5 148 L 216 151.5 L 217 155.5 L 212.5 161 Q 206.3 161.7 205 157.5 Q 203.5 150.5 207.5 149 L 210.5 148 Z " /><path fill="rgb(164,198,57)" stroke="rgb(164,198,57)" stroke-width="1" opacity="1" d="M 290.5 148 L 295 150.5 L 296 157.5 Q 294.7 161.7 288.5 161 L 284 154.5 L 287.5 149 L 290.5 148 Z " /><path fill="rgb(165,197,60)" stroke="rgb(165,197,60)" stroke-width="1" opacity="0.7764705882352941" d="M 77.5 69 L 74.5 73 L 77.5 69 Z " /><path fill="rgb(165,197,60)" stroke="rgb(165,197,60)" stroke-width="1" opacity="0.7764705882352941" d="M 72.5 74 L 69.5 78 L 72.5 74 Z " /><path fill="rgb(165,197,60)" stroke="rgb(165,197,60)" stroke-width="1" opacity="0.7764705882352941" d="M 430.5 77 L 431.5 79 L 430.5 77 Z " /><path fill="rgb(165,197,60)" stroke="rgb(165,197,60)" stroke-width="1" opacity="0.7764705882352941" d="M 67.5 80 L 66.5 82 L 67.5 80 Z " /><path fill="rgb(165,197,60)" stroke="rgb(165,197,60)" stroke-width="1" opacity="0.7764705882352941" d="M 56.5 111 L 57 387.5 L 56 387.5 L 56.5 111 Z " /><path fill="rgb(165,197,60)" stroke="rgb(165,197,60)" stroke-width="1" opacity="0.7764705882352941" d="M 248.5 113 L 254 113.5 L 248.5 114 L 248.5 113 Z " /><path fill="rgb(165,197,60)" stroke="rgb(165,197,60)" stroke-width="1" opacity="0.7764705882352941" d="M 261.5 114 L 264 114.5 L 261.5 115 L 261.5 114 Z " /><path fill="rgb(165,197,60)" stroke="rgb(165,197,60)" stroke-width="1" opacity="0.7764705882352941" d="M 308.5 134 L 317.5 144 L 308.5 134 Z " /><path fill="rgb(165,197,60)" stroke="rgb(165,197,60)" stroke-width="1" opacity="0.7764705882352941" d="M 190.5 135 L 185.5 141 L 190.5 135 Z " /><path fill="rgb(165,197,60)" stroke="rgb(165,197,60)" stroke-width="1" opacity="0.7764705882352941" d="M 320.5 147 L 321.5 149 L 320.5 147 Z " /><path fill="rgb(165,197,60)" stroke="rgb(165,197,60)" stroke-width="1" opacity="0.7764705882352941" d="M 206.5 149 L 205.5 151 L 206.5 149 Z " /><path fill="rgb(165,197,60)" stroke="rgb(165,197,60)" stroke-width="1" opacity="0.7764705882352941" d="M 294.5 149 L 295.5 151 L 294.5 149 Z " /><path fill="rgb(165,197,60)" stroke="rgb(165,197,60)" stroke-width="1" opacity="0.7764705882352941" d="M 163.5 187 L 164 193 L 336.5 193 L 337.5 192 L 336.5 194 L 164.5 194 L 163 192.5 L 163.5 187 Z " /><path fill="rgb(165,197,60)" stroke="rgb(165,197,60)" stroke-width="1" opacity="0.7764705882352941" d="M 124.5 198 L 123.5 200 L 124.5 198 Z " /><path fill="rgb(165,197,60)" stroke="rgb(165,197,60)" stroke-width="1" opacity="0.7764705882352941" d="M 163.5 201 L 164 326.5 L 163 326.5 L 163.5 201 Z " /><path fill="rgb(165,197,60)" stroke="rgb(165,197,60)" stroke-width="1" opacity="0.7764705882352941" d="M 337.5 201 L 338 327.5 L 337 327.5 L 337.5 201 Z " /><path fill="rgb(165,197,60)" stroke="rgb(165,197,60)" stroke-width="1" opacity="0.7764705882352941" d="M 120.5 202 L 119.5 204 L 120.5 202 Z " /><path fill="rgb(165,197,60)" stroke="rgb(165,197,60)" stroke-width="1" opacity="0.7764705882352941" d="M 380.5 202 L 381.5 204 L 380.5 202 Z " /><path fill="rgb(165,197,60)" stroke="rgb(165,197,60)" stroke-width="1" opacity="0.7764705882352941" d="M 159.5 216 L 160 297.5 L 159 297.5 L 159.5 216 Z " /><path fill="rgb(165,197,60)" stroke="rgb(165,197,60)" stroke-width="1" opacity="0.7764705882352941" d="M 341.5 216 L 342 273.5 L 341 273.5 L 341.5 216 Z " /><path fill="rgb(165,197,60)" stroke="rgb(165,197,60)" stroke-width="1" opacity="0.7764705882352941" d="M 341.5 294 L 342 296.5 L 341 296.5 L 341.5 294 Z " /><path fill="rgb(165,197,60)" stroke="rgb(165,197,60)" stroke-width="1" opacity="0.7764705882352941" d="M 381.5 310 L 380.5 312 L 381.5 310 Z " /><path fill="rgb(165,197,60)" stroke="rgb(165,197,60)" stroke-width="1" opacity="0.7764705882352941" d="M 122.5 313 L 123.5 315 L 122.5 313 Z " /><path fill="rgb(165,197,60)" stroke="rgb(165,197,60)" stroke-width="1" opacity="0.7764705882352941" d="M 168.5 339 L 171.5 343 L 168.5 339 Z " /><path fill="rgb(165,197,60)" stroke="rgb(165,197,60)" stroke-width="1" opacity="0.7764705882352941" d="M 184.5 347 L 196 347.5 L 184.5 348 L 184.5 347 Z " /><path fill="rgb(165,197,60)" stroke="rgb(165,197,60)" stroke-width="1" opacity="0.7764705882352941" d="M 241.5 347 L 259.5 347 L 261 348.5 L 260.5 390 L 260 348 L 241 348 L 241 390.5 L 240 390.5 L 240 348.5 L 241.5 347 Z " /><path fill="rgb(165,197,60)" stroke="rgb(165,197,60)" stroke-width="1" opacity="0.7764705882352941" d="M 305.5 347 L 316 347.5 L 305.5 348 L 305.5 347 Z " /><path fill="rgb(165,197,60)" stroke="rgb(165,197,60)" stroke-width="1" opacity="0.7764705882352941" d="M 232.5 406 L 231.5 408 L 232.5 406 Z " /><path fill="rgb(165,197,60)" stroke="rgb(165,197,60)" stroke-width="1" opacity="0.7764705882352941" d="M 268.5 406 L 269.5 408 L 268.5 406 Z " /><path fill="rgb(165,197,60)" stroke="rgb(165,197,60)" stroke-width="1" opacity="0.7764705882352941" d="M 214.5 411 L 217 411.5 L 214.5 412 L 214.5 411 Z " /><path fill="rgb(165,197,60)" stroke="rgb(165,197,60)" stroke-width="1" opacity="0.7764705882352941" d="M 220.5 411 L 223 411.5 L 220.5 412 L 220.5 411 Z " /><path fill="rgb(165,197,60)" stroke="rgb(165,197,60)" stroke-width="1" opacity="0.7764705882352941" d="M 278.5 411 L 282 411.5 L 278.5 412 L 278.5 411 Z " /><path fill="rgb(165,197,60)" stroke="rgb(165,197,60)" stroke-width="1" opacity="0.7764705882352941" d="M 284.5 411 L 287 411.5 L 284.5 412 L 284.5 411 Z " /><path fill="rgb(165,197,60)" stroke="rgb(165,197,60)" stroke-width="1" opacity="0.7764705882352941" d="M 77.5 430 L 78.5 432 L 77.5 430 Z " /><path fill="rgb(165,197,60)" stroke="rgb(165,197,60)" stroke-width="1" opacity="0.7764705882352941" d="M 421.5 431 L 420.5 433 L 421.5 431 Z " /><path fill="rgb(168,195,60)" stroke="rgb(168,195,60)" stroke-width="1" opacity="0.3843137254901961" d="M 105.5 56 L 395 56.5 L 105.5 57 L 105.5 56 Z " /><path fill="rgb(168,195,60)" stroke="rgb(168,195,60)" stroke-width="1" opacity="0.3843137254901961" d="M 96.5 58 L 99 58.5 L 96.5 59 L 96.5 58 Z " /><path fill="rgb(168,195,60)" stroke="rgb(168,195,60)" stroke-width="1" opacity="0.3843137254901961" d="M 90.5 60 L 92 60.5 L 89.5 62 L 90.5 60 Z " /><path fill="rgb(168,195,60)" stroke="rgb(168,195,60)" stroke-width="1" opacity="0.3843137254901961" d="M 408.5 60 L 415 63.5 L 413.5 63 L 408.5 61 L 408.5 60 Z " /><path fill="rgb(168,195,60)" stroke="rgb(168,195,60)" stroke-width="1" opacity="0.3843137254901961" d="M 86.5 62 L 88 62.5 L 85.5 64 L 86.5 62 Z " /><path fill="rgb(168,195,60)" stroke="rgb(168,195,60)" stroke-width="1" opacity="0.3843137254901961" d="M 83.5 64 L 82.5 66 L 69.5 77 L 77.5 68 L 83.5 64 Z " /><path fill="rgb(168,195,60)" stroke="rgb(168,195,60)" stroke-width="1" opacity="0.3843137254901961" d="M 418.5 65 L 432 77.5 L 421.5 68 L 418.5 65 Z " /><path fill="rgb(168,195,60)" stroke="rgb(168,195,60)" stroke-width="1" opacity="0.3843137254901961" d="M 68.5 78 L 66.5 81 L 68.5 78 Z " /><path fill="rgb(168,195,60)" stroke="rgb(168,195,60)" stroke-width="1" opacity="0.3843137254901961" d="M 432.5 79 Q 438.7 84.8 441 94.5 L 440 94.5 Q 437 84.8 432.5 79 Z " /><path fill="rgb(168,195,60)" stroke="rgb(168,195,60)" stroke-width="1" opacity="0.3843137254901961" d="M 65.5 82 L 65 83.5 L 63.5 86 L 64 84.5 L 65.5 82 Z " /><path fill="rgb(168,195,60)" stroke="rgb(168,195,60)" stroke-width="1" opacity="0.3843137254901961" d="M 197.5 95 L 203 102.5 L 201 101.5 L 197.5 95 Z " /><path fill="rgb(168,195,60)" stroke="rgb(168,195,60)" stroke-width="1" opacity="0.3843137254901961" d="M 195.5 96 L 194.5 98 L 195.5 96 Z " /><path fill="rgb(168,195,60)" stroke="rgb(168,195,60)" stroke-width="1" opacity="0.3843137254901961" d="M 302.5 96 L 300.5 99 L 302.5 96 Z " /><path fill="rgb(168,195,60)" stroke="rgb(168,195,60)" stroke-width="1" opacity="0.3843137254901961" d="M 305.5 96 L 306.5 98 L 305.5 96 Z " /><path fill="rgb(168,195,60)" stroke="rgb(168,195,60)" stroke-width="1" opacity="0.3843137254901961" d="M 304.5 103 L 304 104.5 L 302.5 107 L 303 105.5 L 304.5 103 Z " /><path fill="rgb(168,195,60)" stroke="rgb(168,195,60)" stroke-width="1" opacity="0.3843137254901961" d="M 56.5 104 L 57 110.5 L 56 110.5 L 56.5 104 Z " /><path fill="rgb(168,195,60)" stroke="rgb(168,195,60)" stroke-width="1" opacity="0.3843137254901961" d="M 203.5 104 L 205 106.5 L 203 105.5 L 203.5 104 Z " /><path fill="rgb(168,195,60)" stroke="rgb(168,195,60)" stroke-width="1" opacity="0.3843137254901961" d="M 297.5 104 L 297 105.5 L 295.5 108 L 296 106.5 L 297.5 104 Z " /><path fill="rgb(168,195,60)" stroke="rgb(168,195,60)" stroke-width="1" opacity="0.3843137254901961" d="M 443.5 104 L 444 106.5 L 443 106.5 L 443.5 104 Z " /><path fill="rgb(168,195,60)" stroke="rgb(168,195,60)" stroke-width="1" opacity="0.3843137254901961" d="M 198.5 107 L 203 114.5 L 201 113.5 L 198.5 107 Z " /><path fill="rgb(168,195,60)" stroke="rgb(168,195,60)" stroke-width="1" opacity="0.3843137254901961" d="M 299.5 112 L 299 113.5 L 297.5 116 L 298 114.5 L 299.5 112 Z " /><path fill="rgb(168,195,60)" stroke="rgb(168,195,60)" stroke-width="1" opacity="0.3843137254901961" d="M 292.5 113 L 291.5 115 L 292.5 113 Z " /><path fill="rgb(168,195,60)" stroke="rgb(168,195,60)" stroke-width="1" opacity="0.3843137254901961" d="M 208.5 114 L 212 119.5 L 210 118.5 L 208.5 114 Z " /><path fill="rgb(168,195,60)" stroke="rgb(168,195,60)" stroke-width="1" opacity="0.3843137254901961" d="M 238.5 114 L 245 114.5 L 238.5 115 L 238.5 114 Z " /><path fill="rgb(168,195,60)" stroke="rgb(168,195,60)" stroke-width="1" opacity="0.3843137254901961" d="M 256.5 114 L 261 114.5 L 256.5 115 L 256.5 114 Z " /><path fill="rgb(168,195,60)" stroke="rgb(168,195,60)" stroke-width="1" opacity="0.3843137254901961" d="M 232.5 115 L 235 115.5 L 232.5 116 L 232.5 115 Z " /><path fill="rgb(168,195,60)" stroke="rgb(168,195,60)" stroke-width="1" opacity="0.3843137254901961" d="M 270.5 116 L 273 116.5 L 270.5 117 L 270.5 116 Z " /><path fill="rgb(168,195,60)" stroke="rgb(168,195,60)" stroke-width="1" opacity="0.3843137254901961" d="M 288.5 120 L 287.5 122 L 286 121.5 L 288.5 120 Z " /><path fill="rgb(168,195,60)" stroke="rgb(168,195,60)" stroke-width="1" opacity="0.3843137254901961" d="M 294.5 121 L 293.5 123 L 294.5 121 Z " /><path fill="rgb(168,195,60)" stroke="rgb(168,195,60)" stroke-width="1" opacity="0.3843137254901961" d="M 206.5 124 L 208 124.5 L 205.5 126 L 206.5 124 Z " /><path fill="rgb(168,195,60)" stroke="rgb(168,195,60)" stroke-width="1" opacity="0.3843137254901961" d="M 293.5 124 L 297 126.5 L 295.5 126 L 293.5 124 Z " /><path fill="rgb(168,195,60)" stroke="rgb(168,195,60)" stroke-width="1" opacity="0.3843137254901961" d="M 201.5 127 L 199.5 130 Q 188.4 135.9 181.5 146 L 194.5 132 L 201.5 127 Z " /><path fill="rgb(168,195,60)" stroke="rgb(168,195,60)" stroke-width="1" opacity="0.3843137254901961" d="M 298.5 127 L 299.5 129 L 298.5 127 Z " /><path fill="rgb(168,195,60)" stroke="rgb(168,195,60)" stroke-width="1" opacity="0.3843137254901961" d="M 301.5 129 L 310 136.5 L 304.5 132 L 301.5 129 Z " /><path fill="rgb(168,195,60)" stroke="rgb(168,195,60)" stroke-width="1" opacity="0.3843137254901961" d="M 315.5 142 L 319.5 147 L 315.5 142 Z " /><path fill="rgb(168,195,60)" stroke="rgb(168,195,60)" stroke-width="1" opacity="0.3843137254901961" d="M 180.5 147 L 178.5 150 L 180.5 147 Z " /><path fill="rgb(168,195,60)" stroke="rgb(168,195,60)" stroke-width="1" opacity="0.3843137254901961" d="M 289.5 147 L 292 147.5 L 289.5 148 L 289.5 147 Z " /><path fill="rgb(168,195,60)" stroke="rgb(168,195,60)" stroke-width="1" opacity="0.3843137254901961" d="M 214.5 148 Q 219.2 149.3 218 156.5 L 217 156.5 L 217 151.5 L 214.5 148 Z " /><path fill="rgb(168,195,60)" stroke="rgb(168,195,60)" stroke-width="1" opacity="0.3843137254901961" d="M 286.5 148 L 284.5 151 L 286.5 148 Z " /><path fill="rgb(168,195,60)" stroke="rgb(168,195,60)" stroke-width="1" opacity="0.3843137254901961" d="M 320.5 148 L 322.5 151 L 320.5 148 Z " /><path fill="rgb(168,195,60)" stroke="rgb(168,195,60)" stroke-width="1" opacity="0.3843137254901961" d="M 177.5 151 L 176.5 153 L 177.5 151 Z " /><path fill="rgb(168,195,60)" stroke="rgb(168,195,60)" stroke-width="1" opacity="0.3843137254901961" d="M 283.5 152 L 284 156.5 L 283 156.5 L 283.5 152 Z " /><path fill="rgb(168,195,60)" stroke="rgb(168,195,60)" stroke-width="1" opacity="0.3843137254901961" d="M 323.5 152 L 324.5 154 L 323.5 152 Z " /><path fill="rgb(168,195,60)" stroke="rgb(168,195,60)" stroke-width="1" opacity="0.3843137254901961" d="M 325.5 155 L 328 158.5 L 326 157.5 L 325.5 155 Z " /><path fill="rgb(168,195,60)" stroke="rgb(168,195,60)" stroke-width="1" opacity="0.3843137254901961" d="M 174.5 156 L 173.5 158 L 174.5 156 Z " /><path fill="rgb(168,195,60)" stroke="rgb(168,195,60)" stroke-width="1" opacity="0.3843137254901961" d="M 216.5 158 L 214.5 161 L 216.5 158 Z " /><path fill="rgb(168,195,60)" stroke="rgb(168,195,60)" stroke-width="1" opacity="0.3843137254901961" d="M 284.5 158 L 286.5 161 L 284.5 158 Z " /><path fill="rgb(168,195,60)" stroke="rgb(168,195,60)" stroke-width="1" opacity="0.3843137254901961" d="M 205.5 159 Q 207.8 161.8 213 161.5 L 208.5 162 L 205.5 159 Z " /><path fill="rgb(168,195,60)" stroke="rgb(168,195,60)" stroke-width="1" opacity="0.3843137254901961" d="M 295.5 159 L 294.5 161 L 295.5 159 Z " /><path fill="rgb(168,195,60)" stroke="rgb(168,195,60)" stroke-width="1" opacity="0.3843137254901961" d="M 288.5 161 L 293 161.5 L 288.5 162 L 288.5 161 Z " /><path fill="rgb(168,195,60)" stroke="rgb(168,195,60)" stroke-width="1" opacity="0.3843137254901961" d="M 165.5 177 L 166 179.5 L 165 179.5 L 165.5 177 Z " /><path fill="rgb(168,195,60)" stroke="rgb(168,195,60)" stroke-width="1" opacity="0.3843137254901961" d="M 335.5 179 L 336 181.5 L 335 181.5 L 335.5 179 Z " /><path fill="rgb(168,195,60)" stroke="rgb(168,195,60)" stroke-width="1" opacity="0.3843137254901961" d="M 164.5 182 L 165 184.5 L 164 184.5 L 164.5 182 Z " /><path fill="rgb(168,195,60)" stroke="rgb(168,195,60)" stroke-width="1" opacity="0.3843137254901961" d="M 336.5 185 L 337 189.5 L 336 189.5 L 336.5 185 Z " /><path fill="rgb(168,195,60)" stroke="rgb(168,195,60)" stroke-width="1" opacity="0.3843137254901961" d="M 132.5 195 L 135 195.5 L 132.5 196 L 132.5 195 Z " /><path fill="rgb(168,195,60)" stroke="rgb(168,195,60)" stroke-width="1" opacity="0.3843137254901961" d="M 140.5 195 L 143 195.5 L 140.5 196 L 140.5 195 Z " /><path fill="rgb(168,195,60)" stroke="rgb(168,195,60)" stroke-width="1" opacity="0.3843137254901961" d="M 358.5 195 L 361 195.5 L 358.5 196 L 358.5 195 Z " /><path fill="rgb(168,195,60)" stroke="rgb(168,195,60)" stroke-width="1" opacity="0.3843137254901961" d="M 366.5 195 L 369 195.5 L 366.5 196 L 366.5 195 Z " /><path fill="rgb(168,195,60)" stroke="rgb(168,195,60)" stroke-width="1" opacity="0.3843137254901961" d="M 144.5 196 Q 152.4 198.1 156 204.5 L 149.5 199 L 144.5 197 L 144.5 196 Z " /><path fill="rgb(168,195,60)" stroke="rgb(168,195,60)" stroke-width="1" opacity="0.3843137254901961" d="M 355.5 196 L 357 196.5 Q 350.1 198.6 346.5 204 L 351.5 198 L 355.5 196 Z " /><path fill="rgb(168,195,60)" stroke="rgb(168,195,60)" stroke-width="1" opacity="0.3843137254901961" d="M 125.5 198 L 124.5 200 L 125.5 198 Z " /><path fill="rgb(168,195,60)" stroke="rgb(168,195,60)" stroke-width="1" opacity="0.3843137254901961" d="M 377.5 199 L 379.5 202 L 377.5 199 Z " /><path fill="rgb(168,195,60)" stroke="rgb(168,195,60)" stroke-width="1" opacity="0.3843137254901961" d="M 122.5 200 L 121.5 202 L 122.5 200 Z " /><path fill="rgb(168,195,60)" stroke="rgb(168,195,60)" stroke-width="1" opacity="0.3843137254901961" d="M 120.5 203 L 118.5 206 L 120.5 203 Z " /><path fill="rgb(168,195,60)" stroke="rgb(168,195,60)" stroke-width="1" opacity="0.3843137254901961" d="M 381.5 204 L 382.5 206 L 381.5 204 Z " /><path fill="rgb(168,195,60)" stroke="rgb(168,195,60)" stroke-width="1" opacity="0.3843137254901961" d="M 344.5 206 L 345 207.5 L 343.5 210 L 343 208.5 L 344.5 206 Z " /><path fill="rgb(168,195,60)" stroke="rgb(168,195,60)" stroke-width="1" opacity="0.3843137254901961" d="M 158.5 211 L 159 213.5 L 158 213.5 L 158.5 211 Z " /><path fill="rgb(168,195,60)" stroke="rgb(168,195,60)" stroke-width="1" opacity="0.3843137254901961" d="M 342.5 211 L 343 213.5 L 342 213.5 L 342.5 211 Z " /><path fill="rgb(168,195,60)" stroke="rgb(168,195,60)" stroke-width="1" opacity="0.3843137254901961" d="M 115.5 213 L 116 299.5 L 115 299.5 L 115.5 213 Z " /><path fill="rgb(168,195,60)" stroke="rgb(168,195,60)" stroke-width="1" opacity="0.3843137254901961" d="M 385.5 213 L 386 300.5 L 385 300.5 L 385.5 213 Z " /><path fill="rgb(168,195,60)" stroke="rgb(168,195,60)" stroke-width="1" opacity="0.3843137254901961" d="M 342.5 299 L 343 302.5 L 342 302.5 L 342.5 299 Z " /><path fill="rgb(168,195,60)" stroke="rgb(168,195,60)" stroke-width="1" opacity="0.3843137254901961" d="M 158.5 300 L 159 302.5 L 158 302.5 L 158.5 300 Z " /><path fill="rgb(168,195,60)" stroke="rgb(168,195,60)" stroke-width="1" opacity="0.3843137254901961" d="M 157.5 304 L 158 305.5 L 155.5 309 L 156 307.5 L 157.5 304 Z " /><path fill="rgb(168,195,60)" stroke="rgb(168,195,60)" stroke-width="1" opacity="0.3843137254901961" d="M 343.5 304 L 346 308.5 L 344 307.5 L 343.5 304 Z " /><path fill="rgb(168,195,60)" stroke="rgb(168,195,60)" stroke-width="1" opacity="0.3843137254901961" d="M 117.5 306 L 121 310.5 L 118 308.5 L 117.5 306 Z " /><path fill="rgb(168,195,60)" stroke="rgb(168,195,60)" stroke-width="1" opacity="0.3843137254901961" d="M 383.5 306 L 383 307.5 L 380.5 311 L 382 308.5 L 383.5 306 Z " /><path fill="rgb(168,195,60)" stroke="rgb(168,195,60)" stroke-width="1" opacity="0.3843137254901961" d="M 154.5 310 L 150.5 315 L 154.5 310 Z " /><path fill="rgb(168,195,60)" stroke="rgb(168,195,60)" stroke-width="1" opacity="0.3843137254901961" d="M 346.5 310 L 350.5 315 L 346.5 310 Z " /><path fill="rgb(168,195,60)" stroke="rgb(168,195,60)" stroke-width="1" opacity="0.3843137254901961" d="M 379.5 312 L 378.5 314 L 379.5 312 Z " /><path fill="rgb(168,195,60)" stroke="rgb(168,195,60)" stroke-width="1" opacity="0.3843137254901961" d="M 124.5 314 L 125.5 316 L 124.5 314 Z " /><path fill="rgb(168,195,60)" stroke="rgb(168,195,60)" stroke-width="1" opacity="0.3843137254901961" d="M 376.5 314 L 375.5 316 L 376.5 314 Z " /><path fill="rgb(168,195,60)" stroke="rgb(168,195,60)" stroke-width="1" opacity="0.3843137254901961" d="M 148.5 315 L 147.5 317 L 144.5 318 L 144.5 317 L 148.5 315 Z " /><path fill="rgb(168,195,60)" stroke="rgb(168,195,60)" stroke-width="1" opacity="0.3843137254901961" d="M 352.5 315 L 357 317.5 L 355.5 318 L 352.5 315 Z " /><path fill="rgb(168,195,60)" stroke="rgb(168,195,60)" stroke-width="1" opacity="0.3843137254901961" d="M 132.5 318 L 137 318.5 L 132.5 319 L 132.5 318 Z " /><path fill="rgb(168,195,60)" stroke="rgb(168,195,60)" stroke-width="1" opacity="0.3843137254901961" d="M 138.5 318 L 143 318.5 L 138.5 319 L 138.5 318 Z " /><path fill="rgb(168,195,60)" stroke="rgb(168,195,60)" stroke-width="1" opacity="0.3843137254901961" d="M 358.5 318 L 369 318.5 L 358.5 319 L 358.5 318 Z " /><path fill="rgb(168,195,60)" stroke="rgb(168,195,60)" stroke-width="1" opacity="0.3843137254901961" d="M 167.5 337 L 173.5 344 L 167.5 337 Z " /><path fill="rgb(168,195,60)" stroke="rgb(168,195,60)" stroke-width="1" opacity="0.3843137254901961" d="M 333.5 337 L 327.5 344 L 325.5 345 L 326.5 343 L 333.5 337 Z " /><path fill="rgb(168,195,60)" stroke="rgb(168,195,60)" stroke-width="1" opacity="0.3843137254901961" d="M 179.5 346 L 183 346.5 L 179.5 347 L 179.5 346 Z " /><path fill="rgb(168,195,60)" stroke="rgb(168,195,60)" stroke-width="1" opacity="0.3843137254901961" d="M 318.5 346 L 321 346.5 L 318.5 347 L 318.5 346 Z " /><path fill="rgb(168,195,60)" stroke="rgb(168,195,60)" stroke-width="1" opacity="0.3843137254901961" d="M 196.5 347 L 197 391.5 L 196 391.5 L 196.5 347 Z " /><path fill="rgb(168,195,60)" stroke="rgb(168,195,60)" stroke-width="1" opacity="0.3843137254901961" d="M 304.5 347 L 305 391.5 L 304 391.5 L 304.5 347 Z " /><path fill="rgb(168,195,60)" stroke="rgb(168,195,60)" stroke-width="1" opacity="0.3843137254901961" d="M 56.5 388 L 57 395.5 L 56 395.5 L 56.5 388 Z " /><path fill="rgb(168,195,60)" stroke="rgb(168,195,60)" stroke-width="1" opacity="0.3843137254901961" d="M 261.5 392 L 262 394.5 L 261 394.5 L 261.5 392 Z " /><path fill="rgb(168,195,60)" stroke="rgb(168,195,60)" stroke-width="1" opacity="0.3843137254901961" d="M 443.5 393 L 444 396.5 L 443 396.5 L 443.5 393 Z " /><path fill="rgb(168,195,60)" stroke="rgb(168,195,60)" stroke-width="1" opacity="0.3843137254901961" d="M 57.5 398 L 58 400.5 L 57 400.5 L 57.5 398 Z " /><path fill="rgb(168,195,60)" stroke="rgb(168,195,60)" stroke-width="1" opacity="0.3843137254901961" d="M 236.5 401 L 235.5 403 L 236.5 401 Z " /><path fill="rgb(168,195,60)" stroke="rgb(168,195,60)" stroke-width="1" opacity="0.3843137254901961" d="M 264.5 401 L 265.5 403 L 264.5 401 Z " /><path fill="rgb(168,195,60)" stroke="rgb(168,195,60)" stroke-width="1" opacity="0.3843137254901961" d="M 200.5 402 L 205.5 408 L 200.5 402 Z " /><path fill="rgb(168,195,60)" stroke="rgb(168,195,60)" stroke-width="1" opacity="0.3843137254901961" d="M 300.5 402 L 295.5 408 L 300.5 402 Z " /><path fill="rgb(168,195,60)" stroke="rgb(168,195,60)" stroke-width="1" opacity="0.3843137254901961" d="M 441.5 402 L 442 404.5 L 441 404.5 L 441.5 402 Z " /><path fill="rgb(168,195,60)" stroke="rgb(168,195,60)" stroke-width="1" opacity="0.3843137254901961" d="M 234.5 404 L 233.5 406 L 234.5 404 Z " /><path fill="rgb(168,195,60)" stroke="rgb(168,195,60)" stroke-width="1" opacity="0.3843137254901961" d="M 266.5 404 L 267.5 406 L 266.5 404 Z " /><path fill="rgb(168,195,60)" stroke="rgb(168,195,60)" stroke-width="1" opacity="0.3843137254901961" d="M 231.5 406 L 229.5 409 L 227.5 410 L 228.5 408 L 231.5 406 Z " /><path fill="rgb(168,195,60)" stroke="rgb(168,195,60)" stroke-width="1" opacity="0.3843137254901961" d="M 269.5 406 L 275 409.5 L 273.5 410 L 269.5 406 Z " /><path fill="rgb(168,195,60)" stroke="rgb(168,195,60)" stroke-width="1" opacity="0.3843137254901961" d="M 60.5 408 L 64 414.5 L 62 413.5 L 60.5 408 Z " /><path fill="rgb(168,195,60)" stroke="rgb(168,195,60)" stroke-width="1" opacity="0.3843137254901961" d="M 211.5 410 L 214 410.5 L 211.5 411 L 211.5 410 Z " /><path fill="rgb(168,195,60)" stroke="rgb(168,195,60)" stroke-width="1" opacity="0.3843137254901961" d="M 217.5 411 L 220 411.5 L 217.5 412 L 217.5 411 Z " /><path fill="rgb(168,195,60)" stroke="rgb(168,195,60)" stroke-width="1" opacity="0.3843137254901961" d="M 437.5 413 L 437 414.5 L 433.5 420 L 435 417.5 L 437.5 413 Z " /><path fill="rgb(168,195,60)" stroke="rgb(168,195,60)" stroke-width="1" opacity="0.3843137254901961" d="M 64.5 416 L 68 420.5 L 65 418.5 L 64.5 416 Z " /><path fill="rgb(168,195,60)" stroke="rgb(168,195,60)" stroke-width="1" opacity="0.3843137254901961" d="M 432.5 421 L 428.5 426 L 432.5 421 Z " /><path fill="rgb(168,195,60)" stroke="rgb(168,195,60)" stroke-width="1" opacity="0.3843137254901961" d="M 68.5 422 L 77.5 432 L 68.5 422 Z " /><path fill="rgb(168,195,60)" stroke="rgb(168,195,60)" stroke-width="1" opacity="0.3843137254901961" d="M 426.5 427 L 428 427.5 L 421.5 433 L 426.5 427 Z " /><path fill="rgb(168,195,60)" stroke="rgb(168,195,60)" stroke-width="1" opacity="0.3843137254901961" d="M 79.5 432 L 84 435.5 L 82.5 435 L 79.5 432 Z " /><path fill="rgb(168,195,60)" stroke="rgb(168,195,60)" stroke-width="1" opacity="0.3843137254901961" d="M 419.5 433 L 418.5 435 L 419.5 433 Z " /><path fill="rgb(168,195,60)" stroke="rgb(168,195,60)" stroke-width="1" opacity="0.3843137254901961" d="M 416.5 435 L 415.5 437 L 413.5 438 L 414.5 436 L 416.5 435 Z " /><path fill="rgb(168,195,60)" stroke="rgb(168,195,60)" stroke-width="1" opacity="0.3843137254901961" d="M 85.5 436 L 92 439.5 L 90.5 440 Q 85.9 438.8 85.5 436 Z " /><path fill="rgb(168,195,60)" stroke="rgb(168,195,60)" stroke-width="1" opacity="0.3843137254901961" d="M 102.5 443 L 107 443.5 L 102.5 444 L 102.5 443 Z " /><path fill="rgb(168,195,60)" stroke="rgb(168,195,60)" stroke-width="1" opacity="0.3843137254901961" d="M 393.5 443 L 398 443.5 L 393.5 444 L 393.5 443 Z " /></svg>