<svg width="500" height="500" version="1.1" xmlns="http://www.w3.org/2000/svg" desc="Created with imagetracer.js version 1.2.6" ><path fill="rgb(0,0,0)" stroke="rgb(0,0,0)" stroke-width="1" opacity="0" d="M 0 0 L 500 0 L 500 500 L 0 500 L 0 0 Z M 232 53 L 231 54 L 211 56 L 175 67 Q 142 80 119 102 Q 92 125 75 158 Q 66 174 60 195 L 53 230 L 53 269 L 60 306 Q 74 351 102 382 Q 124 406 154 423 L 172 432 L 191 439 L 229 447 L 271 447 L 272 446 L 279 446 L 295 443 L 310 439 Q 351 425 381 399 Q 410 373 428 337 L 441 302 L 447 269 L 447 232 L 440 195 Q 426 149 398 119 Q 368 83 321 65 L 290 56 L 278 55 L 277 54 Q 270 56 269 53 L 232 53 Z " /><path fill="rgb(0,0,0)" stroke="rgb(0,0,0)" stroke-width="1" opacity="0" d="M 144.5 193 Q 161.8 191.7 169 200.5 L 172 205.5 L 173 211.5 Q 170.8 212.7 172 217.5 L 165.5 227 Q 162.5 229.8 157 229 L 162 211.5 L 160 204.5 L 155.5 200 L 144.5 200 L 131 208 L 131 210 Q 128.3 208.9 129 211.5 L 121 221.5 L 115 236.5 L 114 241.5 L 114 260.5 L 119 274.5 L 124.5 280 Q 130.3 284.7 142.5 283 Q 153.6 279.6 160 271.5 L 168 259.5 L 176 240.5 L 181.5 234 L 188.5 229 L 199.5 228 L 204 231.5 L 205 236 L 208 234.5 L 212.5 229 L 219.5 228 Q 222.5 228.5 222 232.5 L 216 251.5 L 213 272.5 L 214 276 L 219.5 276 L 225 270.5 L 232 257.5 L 237 239.5 L 237 231.5 L 239.5 229 L 244.5 228 L 248 230.5 L 249 232.5 L 249 243.5 Q 246.8 244.7 248 249.5 L 250 248.5 Q 254.8 237.8 263.5 231 Q 267 227 275.5 228 L 280 233.5 L 280 246.5 L 277 255.5 L 276 267.5 L 275 268.5 L 276 273 L 279.5 274 L 285 271 L 294 254.5 L 296 245.5 L 296 237.5 Q 297.3 231.8 301.5 229 L 309.5 228 L 311 230.5 L 310 231.5 L 310 259.5 L 312 270.5 L 314.5 274 L 320 270.5 Q 327.9 261.9 332 249.5 L 326 244.5 Q 321.2 239.3 323 227.5 L 328.5 219 Q 331.2 216.2 337.5 217 L 343 221.5 L 344 232.5 L 340 247 Q 350.3 247.2 355 240.5 L 360.5 233 L 369.5 228 L 377.5 228 L 383 232.5 L 384.5 236 L 388.5 231 Q 390.7 227.2 397.5 228 Q 400.8 228.8 400 233.5 L 392 262.5 L 392 274.5 Q 392.5 277.5 396.5 277 L 401 273.5 L 406 264.5 L 406 262 L 409 263.5 Q 408.1 276.1 399.5 281 L 392.5 284 L 387.5 284 L 381 279.5 L 379 273 L 375 275.5 L 370.5 281 L 363.5 284 L 358.5 284 Q 352.4 282.6 350 277.5 L 348 272.5 L 348 256.5 L 350 248.5 L 348.5 249 Q 344.6 252.3 337 251 Q 329.8 268.1 316.5 280 Q 313.7 283.7 307.5 284 L 304 281.5 L 299 270.5 L 298 259.5 L 296.5 258 Q 291.7 271.2 282.5 280 Q 278.7 283.7 271.5 284 L 264 278.5 L 262 267.5 L 267 245.5 L 267 240.5 L 264.5 239 L 257 245.5 L 246 264.5 L 241 281.5 L 239.5 283 L 235.5 284 L 231 281.5 L 229 276.5 L 230 274.5 L 228.5 272 L 221.5 280 Q 217.5 284 209.5 284 L 202 278.5 L 199.5 272 L 196 278 L 188.5 283 L 180.5 284 L 173 279.5 L 168.5 267 Q 162.8 277.8 153.5 285 L 138.5 292 L 127.5 292 Q 115 289.5 108 281.5 L 100 265.5 Q 101.3 260.8 99 259.5 L 99 242.5 Q 103.9 216.4 121.5 203 L 133.5 196 L 144.5 193 Z M 334 223 L 331 227 Q 329 239 335 243 L 338 231 L 337 225 L 334 223 Z M 197 235 L 195 236 Q 186 244 183 258 L 183 272 L 187 276 L 193 275 L 201 262 L 204 250 L 203 238 Q 202 234 197 235 Z M 376 235 L 374 236 L 368 242 L 361 260 Q 359 272 366 276 L 371 275 Q 376 271 378 265 L 382 252 L 382 240 L 381 238 Q 380 234 376 235 Z " /><path fill="rgb(2,192,204)" stroke="rgb(2,192,204)" stroke-width="1" opacity="0.996078431372549" d="M 231.5 54 L 246.5 54 L 247 56 L 249.5 56 L 263 64 L 264.5 67 Q 266.8 66.3 266 68.5 L 273 78.5 L 275 92.5 L 274 94.5 L 275 98.5 L 266 119.5 L 248.5 139 L 246 140.5 Q 246.8 142.8 244.5 142 L 242 143 L 240.5 146 L 237 147 Q 238.1 149.7 235.5 149 L 220.5 159 L 215.5 160 L 204.5 166 L 179.5 172 L 176.5 171 Q 173.2 173.7 166.5 173 L 165.5 172 L 148.5 171 Q 141.7 166.3 131.5 165 L 116 153.5 L 105 137.5 L 101 123.5 L 104 118.5 L 103.5 117 L 104.5 118 L 119 103.5 L 118.5 102 L 119.5 103 L 123.5 99 L 149 81.5 L 148.5 80 L 150.5 80 L 166 72.5 L 165.5 71 L 167.5 72 L 194.5 61 L 210.5 57 L 230.5 55 L 231.5 54 Z " /><path fill="rgb(2,192,204)" stroke="rgb(2,192,204)" stroke-width="1" opacity="0.996078431372549" d="M 238.5 229 L 237.5 231 L 238.5 229 Z " /><path fill="rgb(7,185,205)" stroke="rgb(7,185,205)" stroke-width="1" opacity="0.996078431372549" d="M 244.5 53 L 277.5 55 L 301.5 60 L 310 63 L 313 71.5 L 314 81.5 L 313 82.5 L 313 95.5 L 310 101.5 L 310 105.5 L 302 118.5 L 302 122.5 L 298 130.5 L 284.5 146 L 274 154.5 Q 274.8 156.8 272.5 156 L 263 164.5 Q 263.8 166.8 261.5 166 L 255.5 171 L 240 178 Q 241.3 181 237.5 180 L 230.5 184 L 227.5 184 L 222.5 188 L 213.5 190 L 207.5 194 L 199.5 195 L 191.5 199 L 187.5 199 L 180.5 202 L 171 203 L 165.5 196 Q 157.8 191.7 145.5 192 L 133.5 195 L 123.5 201 Q 100.8 194.2 87 178.5 L 75 162.5 L 75 160.5 L 83 146.5 L 82.5 145 L 84 145.5 Q 91.3 131.8 101.5 121 L 102 122.5 L 101 126.5 L 109 144.5 L 117.5 155 Q 125.3 157.8 129.5 164 L 140.5 167 L 145.5 170 L 153.5 172 L 171.5 173 L 178.5 171 L 181.5 172 L 189.5 169 L 195.5 169 Q 198.5 166 204.5 166 L 215.5 160 L 220.5 159 L 237 149 Q 235.9 146.3 238.5 147 L 242 144.5 Q 241.3 142.3 243.5 143 L 246 142 L 247.5 139 L 259 128.5 L 266 119.5 L 272 107.5 L 275 95.5 L 274 93.5 L 275 88.5 L 273 78.5 L 266 67 L 263 65.5 Q 263.8 63.3 261.5 64 Q 256.1 57.6 247 56 Q 248.3 53 244.5 54 L 244.5 53 Z " /><path fill="rgb(7,185,205)" stroke="rgb(7,185,205)" stroke-width="1" opacity="0.996078431372549" d="M 125.5 97 L 124.5 99 L 125.5 97 Z " /><path fill="rgb(7,185,205)" stroke="rgb(7,185,205)" stroke-width="1" opacity="0.996078431372549" d="M 114.5 107 L 109.5 113 L 114.5 107 Z " /><path fill="rgb(7,185,205)" stroke="rgb(7,185,205)" stroke-width="1" opacity="0.996078431372549" d="M 144.5 201 Q 155.7 198.8 159 204.5 L 158.5 206 L 147.5 206 L 139 204.5 L 144.5 201 Z " /><path fill="rgb(12,179,207)" stroke="rgb(12,179,207)" stroke-width="1" opacity="0.984313725490196" d="M 239.5 53 L 244 53.5 L 239.5 54 L 239.5 53 Z " /><path fill="rgb(12,179,207)" stroke="rgb(12,179,207)" stroke-width="1" opacity="0.984313725490196" d="M 254.5 53 L 261 53.5 L 254.5 54 L 254.5 53 Z " /><path fill="rgb(12,179,207)" stroke="rgb(12,179,207)" stroke-width="1" opacity="0.984313725490196" d="M 283.5 55 L 284.5 57 L 283.5 55 Z " /><path fill="rgb(12,179,207)" stroke="rgb(12,179,207)" stroke-width="1" opacity="0.984313725490196" d="M 210.5 56 L 209.5 58 L 210.5 56 Z " /><path fill="rgb(12,179,207)" stroke="rgb(12,179,207)" stroke-width="1" opacity="0.984313725490196" d="M 297.5 58 L 298.5 60 L 297.5 58 Z " /><path fill="rgb(12,179,207)" stroke="rgb(12,179,207)" stroke-width="1" opacity="0.984313725490196" d="M 198.5 59 L 197.5 61 L 198.5 59 Z " /><path fill="rgb(12,179,207)" stroke="rgb(12,179,207)" stroke-width="1" opacity="0.984313725490196" d="M 194.5 60 L 193.5 62 L 194.5 60 Z " /><path fill="rgb(12,179,207)" stroke="rgb(12,179,207)" stroke-width="1" opacity="0.984313725490196" d="M 191.5 61 L 190.5 63 L 191.5 61 Z " /><path fill="rgb(12,179,207)" stroke="rgb(12,179,207)" stroke-width="1" opacity="0.984313725490196" d="M 188.5 62 L 187.5 64 L 188.5 62 Z " /><path fill="rgb(12,179,207)" stroke="rgb(12,179,207)" stroke-width="1" opacity="0.984313725490196" d="M 310 63 L 316.5 65 L 318 64.5 Q 317.3 66.8 319.5 66 L 335.5 73 L 337 72.5 L 337 74.5 L 337 90.5 Q 333.8 93.8 335 101.5 Q 331.3 105.3 331 112.5 L 328 116.5 L 326 124.5 L 312.5 145 Q 310.3 144.3 311 146.5 L 296 166 L 256.5 189 L 250.5 190 L 241.5 195 L 221.5 201 L 211.5 206 L 204.5 207 L 192.5 212 L 183.5 213 L 178.5 216 L 173 216 L 172 205.5 L 166.5 198 L 159 194.5 L 160.5 194 Q 167.7 195.8 171 201.5 Q 170.1 204.9 175.5 203 L 187.5 199 L 191.5 199 L 199.5 195 L 207.5 194 L 213.5 190 L 222.5 188 L 227.5 184 L 230.5 184 L 232.5 182 L 240 180 Q 238.9 177.3 241.5 178 L 263 166 L 265.5 162 L 274 156 L 276.5 152 L 294 136.5 L 294 134.5 L 298 130.5 L 302 122.5 L 303 116.5 L 310 105.5 L 310 101.5 L 313 95.5 Q 311.7 85.2 314 78.5 L 312 67.5 L 310 63 Z " /><path fill="rgb(12,179,207)" stroke="rgb(12,179,207)" stroke-width="1" opacity="0.984313725490196" d="M 177.5 66 L 176.5 68 L 177.5 66 Z " /><path fill="rgb(12,179,207)" stroke="rgb(12,179,207)" stroke-width="1" opacity="0.984313725490196" d="M 170.5 69 L 169.5 71 L 167.5 72 L 168.5 70 L 170.5 69 Z " /><path fill="rgb(12,179,207)" stroke="rgb(12,179,207)" stroke-width="1" opacity="0.984313725490196" d="M 154.5 77 L 153.5 79 L 152 78.5 L 154.5 77 Z " /><path fill="rgb(12,179,207)" stroke="rgb(12,179,207)" stroke-width="1" opacity="0.984313725490196" d="M 140.5 85 L 137.5 89 L 136 88.5 L 140.5 85 Z " /><path fill="rgb(12,179,207)" stroke="rgb(12,179,207)" stroke-width="1" opacity="0.984313725490196" d="M 133.5 90 L 135 90.5 L 132.5 92 L 133.5 90 Z " /><path fill="rgb(12,179,207)" stroke="rgb(12,179,207)" stroke-width="1" opacity="0.984313725490196" d="M 129.5 93 L 131 93.5 L 128.5 95 L 129.5 93 Z " /><path fill="rgb(12,179,207)" stroke="rgb(12,179,207)" stroke-width="1" opacity="0.984313725490196" d="M 125.5 96 L 127 96.5 L 123.5 99 L 125.5 96 Z " /><path fill="rgb(12,179,207)" stroke="rgb(12,179,207)" stroke-width="1" opacity="0.984313725490196" d="M 120.5 101 L 115.5 107 L 109 112.5 L 102.5 120 L 104 117.5 L 106.5 114 Q 108.8 114.8 108 112.5 L 120.5 101 Z " /><path fill="rgb(12,179,207)" stroke="rgb(12,179,207)" stroke-width="1" opacity="0.984313725490196" d="M 99.5 122 L 100 123.5 L 98 124.5 L 99.5 122 Z " /><path fill="rgb(12,179,207)" stroke="rgb(12,179,207)" stroke-width="1" opacity="0.984313725490196" d="M 95.5 128 L 94.5 130 L 93 129.5 L 95.5 128 Z " /><path fill="rgb(12,179,207)" stroke="rgb(12,179,207)" stroke-width="1" opacity="0.984313725490196" d="M 87.5 139 L 86.5 141 L 87.5 139 Z " /><path fill="rgb(12,179,207)" stroke="rgb(12,179,207)" stroke-width="1" opacity="0.984313725490196" d="M 74.5 161 Q 82.2 174.8 93.5 185 Q 105.8 195.7 123.5 201 Q 130.6 194.1 143.5 193 L 143.5 194 L 133.5 196 L 115 208 L 112 214 L 110 214 L 110 216 Q 107.3 214.9 108 217.5 L 106.5 220 L 84.5 209 Q 77.9 202.2 69 199 L 63 191.5 L 63 188.5 L 74.5 161 Z " /><path fill="rgb(12,179,207)" stroke="rgb(12,179,207)" stroke-width="1" opacity="0.984313725490196" d="M 145.5 192 L 153 192.5 L 145.5 193 L 145.5 192 Z " /><path fill="rgb(12,179,207)" stroke="rgb(12,179,207)" stroke-width="1" opacity="0.984313725490196" d="M 155.5 193 L 158 193.5 L 155.5 194 L 155.5 193 Z " /><path fill="rgb(12,179,207)" stroke="rgb(12,179,207)" stroke-width="1" opacity="0.984313725490196" d="M 144.5 200 L 155.5 200 L 160 204.5 L 161 206.5 L 161 208.5 L 160 216.5 Q 162.5 218 159 219.5 L 158.5 221 L 155.5 220 L 135.5 224 L 133.5 224 L 131.5 225 L 129.5 225 L 122 224 L 121 221.5 L 123 221.5 L 126 214 L 129 212.5 Q 127.9 209.2 130.5 210 Q 135.5 203 144.5 200 Z M 145 201 L 139 205 L 148 206 L 159 206 L 159 205 Q 156 199 145 201 Z " /><path fill="rgb(12,179,207)" stroke="rgb(12,179,207)" stroke-width="1" opacity="0.984313725490196" d="M 172.5 217 L 171.5 219 L 172.5 217 Z " /><path fill="rgb(18,171,209)" stroke="rgb(18,171,209)" stroke-width="1" opacity="0.984313725490196" d="M 233.5 53 L 239 53.5 L 233.5 54 L 233.5 53 Z " /><path fill="rgb(18,171,209)" stroke="rgb(18,171,209)" stroke-width="1" opacity="0.984313725490196" d="M 261.5 53 L 264 53.5 L 261.5 54 L 261.5 53 Z " /><path fill="rgb(18,171,209)" stroke="rgb(18,171,209)" stroke-width="1" opacity="0.984313725490196" d="M 224.5 54 L 228 54.5 L 224.5 55 L 224.5 54 Z " /><path fill="rgb(18,171,209)" stroke="rgb(18,171,209)" stroke-width="1" opacity="0.984313725490196" d="M 217.5 55 L 220 55.5 L 217.5 56 L 217.5 55 Z " /><path fill="rgb(18,171,209)" stroke="rgb(18,171,209)" stroke-width="1" opacity="0.984313725490196" d="M 279.5 55 L 283 55.5 L 279.5 56 L 279.5 55 Z " /><path fill="rgb(18,171,209)" stroke="rgb(18,171,209)" stroke-width="1" opacity="0.984313725490196" d="M 211.5 56 L 214 56.5 L 211.5 57 L 211.5 56 Z " /><path fill="rgb(18,171,209)" stroke="rgb(18,171,209)" stroke-width="1" opacity="0.984313725490196" d="M 285.5 56 L 289 56.5 L 285.5 57 L 285.5 56 Z " /><path fill="rgb(18,171,209)" stroke="rgb(18,171,209)" stroke-width="1" opacity="0.984313725490196" d="M 290.5 57 L 294 57.5 L 290.5 58 L 290.5 57 Z " /><path fill="rgb(18,171,209)" stroke="rgb(18,171,209)" stroke-width="1" opacity="0.984313725490196" d="M 304.5 60 L 307 61.5 L 305.5 61 L 304.5 60 Z " /><path fill="rgb(18,171,209)" stroke="rgb(18,171,209)" stroke-width="1" opacity="0.984313725490196" d="M 308.5 61 L 309.5 63 L 308.5 61 Z " /><path fill="rgb(18,171,209)" stroke="rgb(18,171,209)" stroke-width="1" opacity="0.984313725490196" d="M 311.5 62 L 312.5 64 L 311.5 62 Z " /><path fill="rgb(18,171,209)" stroke="rgb(18,171,209)" stroke-width="1" opacity="0.984313725490196" d="M 314.5 63 L 315.5 65 L 314.5 63 Z " /><path fill="rgb(18,171,209)" stroke="rgb(18,171,209)" stroke-width="1" opacity="0.984313725490196" d="M 179.5 65 L 181 65.5 L 178.5 67 L 179.5 65 Z " /><path fill="rgb(18,171,209)" stroke="rgb(18,171,209)" stroke-width="1" opacity="0.984313725490196" d="M 322.5 66 L 323.5 68 L 322.5 66 Z " /><path fill="rgb(18,171,209)" stroke="rgb(18,171,209)" stroke-width="1" opacity="0.984313725490196" d="M 331.5 70 L 332.5 72 L 331.5 70 Z " /><path fill="rgb(18,171,209)" stroke="rgb(18,171,209)" stroke-width="1" opacity="0.984313725490196" d="M 163.5 72 L 165 72.5 L 159.5 75 L 159.5 74 L 163.5 72 Z " /><path fill="rgb(18,171,209)" stroke="rgb(18,171,209)" stroke-width="1" opacity="0.984313725490196" d="M 336.5 73 L 341.5 76 L 343 75.5 L 344.5 78 L 346.5 79 L 348 78.5 Q 347.3 80.8 349.5 80 L 370 94 Q 371 99.3 368 101.5 L 368 106.5 L 363 117.5 L 363 120.5 Q 355.8 129.3 352 141.5 L 339.5 160 Q 337.3 159.3 338 161.5 L 335.5 165 L 332 167.5 Q 332.5 172.5 328.5 173 L 326 174.5 L 325 178 L 319 180 Q 320.3 183.3 315.5 182 L 312 184 Q 313.1 186.7 310.5 186 L 299.5 193 L 294 194 Q 295.1 196.7 292.5 196 L 279.5 204 L 274.5 205 L 272.5 205 L 270.5 205 L 266.5 209 L 259.5 210 L 256.5 213 L 235.5 221 L 203.5 230 Q 202.1 226.4 196.5 227 L 193.5 228 L 191.5 227 L 191 229 L 187.5 229 L 179 235.5 Q 181.3 236.7 178.5 238 L 174.5 237 L 158.5 240 L 155.5 242 L 148.5 242 L 138.5 245 L 132.5 245 L 127.5 247 Q 119.5 246.3 115 248 L 114 242.5 L 117 230.5 L 122.5 220 L 123 221.5 L 122 224 L 129.5 225 L 132.5 224 L 134.5 223 L 138.5 224 L 141.5 222 L 149.5 222 L 157.5 220 L 159 220.5 L 159.5 219 L 160 220.5 Q 156.2 223.3 157 229 Q 165 230 168 224.5 L 173 217.5 L 172 213.5 L 173 213.5 L 173 216 L 178.5 216 L 183.5 213 L 192.5 212 L 204.5 207 L 214.5 205 L 221.5 201 L 233.5 198 L 248.5 192 L 250.5 190 L 256.5 189 L 296 166 L 296 164.5 L 306 154.5 L 311 145 L 315 142.5 L 316 138.5 L 326 124.5 L 328 116.5 L 331 112.5 Q 331.3 105.3 335 101.5 Q 333.8 93.8 337 90.5 L 337 74.5 L 336.5 73 Z " /><path fill="rgb(18,171,209)" stroke="rgb(18,171,209)" stroke-width="1" opacity="0.984313725490196" d="M 157.5 75 L 156.5 77 L 157.5 75 Z " /><path fill="rgb(18,171,209)" stroke="rgb(18,171,209)" stroke-width="1" opacity="0.984313725490196" d="M 145.5 82 L 147 82.5 L 144.5 84 L 145.5 82 Z " /><path fill="rgb(18,171,209)" stroke="rgb(18,171,209)" stroke-width="1" opacity="0.984313725490196" d="M 122.5 99 L 121.5 101 L 122.5 99 Z " /><path fill="rgb(18,171,209)" stroke="rgb(18,171,209)" stroke-width="1" opacity="0.984313725490196" d="M 101.5 120 L 100.5 122 L 101.5 120 Z " /><path fill="rgb(18,171,209)" stroke="rgb(18,171,209)" stroke-width="1" opacity="0.984313725490196" d="M 97.5 125 L 94.5 129 L 97.5 125 Z " /><path fill="rgb(18,171,209)" stroke="rgb(18,171,209)" stroke-width="1" opacity="0.984313725490196" d="M 93.5 130 L 91.5 133 L 93.5 130 Z " /><path fill="rgb(18,171,209)" stroke="rgb(18,171,209)" stroke-width="1" opacity="0.984313725490196" d="M 90.5 134 L 89.5 136 L 90.5 134 Z " /><path fill="rgb(18,171,209)" stroke="rgb(18,171,209)" stroke-width="1" opacity="0.984313725490196" d="M 88.5 137 L 86.5 140 L 88.5 137 Z " /><path fill="rgb(18,171,209)" stroke="rgb(18,171,209)" stroke-width="1" opacity="0.984313725490196" d="M 84.5 142 L 85 143.5 L 83 144.5 L 84.5 142 Z " /><path fill="rgb(18,171,209)" stroke="rgb(18,171,209)" stroke-width="1" opacity="0.984313725490196" d="M 81.5 147 L 82 148.5 L 79 150.5 L 81.5 147 Z " /><path fill="rgb(18,171,209)" stroke="rgb(18,171,209)" stroke-width="1" opacity="0.984313725490196" d="M 78.5 152 L 79 153.5 L 77.5 156 L 77 154.5 L 78.5 152 Z " /><path fill="rgb(18,171,209)" stroke="rgb(18,171,209)" stroke-width="1" opacity="0.984313725490196" d="M 62.5 191 L 69 199 Q 77.9 202.2 84.5 209 L 106.5 220 L 108.5 216 L 109 217.5 Q 99.4 229.4 98.5 250 L 66.5 240 L 54 232 L 55 229.5 L 55 221.5 L 57 211.5 L 56.5 210 Q 59.5 210.9 58 206.5 L 62.5 191 Z " /><path fill="rgb(18,171,209)" stroke="rgb(18,171,209)" stroke-width="1" opacity="0.984313725490196" d="M 128.5 212 L 127.5 214 L 128.5 212 Z " /><path fill="rgb(18,171,209)" stroke="rgb(18,171,209)" stroke-width="1" opacity="0.984313725490196" d="M 160.5 214 L 161 216.5 L 160 216.5 L 160.5 214 Z " /><path fill="rgb(18,171,209)" stroke="rgb(18,171,209)" stroke-width="1" opacity="0.984313725490196" d="M 124.5 217 L 123.5 219 L 124.5 217 Z " /><path fill="rgb(28,156,212)" stroke="rgb(28,156,212)" stroke-width="1" opacity="0.9803921568627451" d="M 324.5 67 L 327 68.5 L 325.5 68 L 324.5 67 Z " /><path fill="rgb(28,156,212)" stroke="rgb(28,156,212)" stroke-width="1" opacity="0.9803921568627451" d="M 343.5 76 L 347 78.5 L 345.5 78 L 343.5 76 Z " /><path fill="rgb(28,156,212)" stroke="rgb(28,156,212)" stroke-width="1" opacity="0.9803921568627451" d="M 348.5 79 L 359.5 85 L 380 101.5 L 382.5 105 L 383.5 104 L 397 117.5 L 396 118.5 L 399 121.5 L 404 127.5 L 404 130.5 L 390 156.5 L 383 165.5 L 381 170.5 L 373 179.5 L 373 182 L 369 184.5 L 366.5 189 L 364 190.5 L 361.5 195 L 358 197.5 L 351.5 206 Q 349.8 203.2 348 207.5 L 347.5 209 L 345.5 208 L 342.5 212 L 340.5 212 L 338.5 212 L 326.5 220 L 325.5 219 L 320.5 224 L 318.5 225 Q 317 222.5 315.5 226 L 312 227.5 L 311.5 229 Q 310 225.5 303.5 227 L 298 230.5 L 297 234 Q 292.8 233 291.5 236 L 289.5 236 L 281 239 L 281 233.5 L 279 233 L 279 231.5 L 278 229 Q 275.6 227.3 269.5 228 Q 260.8 231.3 256 238.5 Q 256.8 240.8 254.5 240 L 249.5 243 L 249 238.5 L 249 236.5 Q 249.8 230.7 246.5 229 L 241.5 228 L 236 231.5 L 237 239.5 L 235 243.5 L 235.5 245 Q 232.9 244.2 234 247.5 L 234.5 249 Q 231.9 248.2 233 251.5 L 232 254 L 216 257 L 218 249.5 L 218 247.5 L 222 230.5 Q 221 227 215.5 228 Q 209.8 229.3 207.5 234 L 205 234 L 201.5 229 L 196 227.5 L 199.5 227 L 203.5 230 L 246.5 217 L 256.5 213 L 259.5 210 L 266.5 209 L 273.5 204 L 276.5 205 L 294 196 Q 292.8 193 296.5 194 L 312 186 Q 310.9 183.3 313.5 184 Q 314.8 181 319 182 Q 317.8 179 321.5 180 L 325 178 L 327.5 173 L 332 169.5 Q 331.5 165.5 334.5 165 L 337 163.5 L 338 160 L 341 158.5 L 352 141.5 Q 355.8 129.3 363 120.5 L 363 117.5 L 368 106.5 L 368 101.5 Q 371 99.3 370 94 L 348.5 80 L 348.5 79 Z " /><path fill="rgb(28,156,212)" stroke="rgb(28,156,212)" stroke-width="1" opacity="0.9803921568627451" d="M 74.5 160 L 74 161.5 L 73.5 163 L 73 161.5 L 74.5 160 Z " /><path fill="rgb(28,156,212)" stroke="rgb(28,156,212)" stroke-width="1" opacity="0.9803921568627451" d="M 65.5 180 L 66 181.5 L 64.5 185 L 64 182.5 L 65.5 180 Z " /><path fill="rgb(28,156,212)" stroke="rgb(28,156,212)" stroke-width="1" opacity="0.9803921568627451" d="M 62.5 189 L 63 190.5 L 60.5 197 L 60 194.5 L 62.5 189 Z " /><path fill="rgb(28,156,212)" stroke="rgb(28,156,212)" stroke-width="1" opacity="0.9803921568627451" d="M 59.5 198 L 60 200.5 L 59 200.5 L 59.5 198 Z " /><path fill="rgb(28,156,212)" stroke="rgb(28,156,212)" stroke-width="1" opacity="0.9803921568627451" d="M 58.5 202 L 59 205.5 L 57 206.5 L 58.5 202 Z " /><path fill="rgb(28,156,212)" stroke="rgb(28,156,212)" stroke-width="1" opacity="0.9803921568627451" d="M 54.5 228 L 55 229.5 L 54 232 L 66.5 240 L 83.5 246 L 94.5 248 L 99 250.5 L 99 252.5 L 100 265.5 L 104 274.5 L 103.5 276 L 105 276.5 L 105 278.5 Q 105.9 281.5 101.5 280 L 99.5 280 L 97.5 281 L 95.5 281 L 93.5 280 L 91.5 281 L 88.5 280 L 85.5 281 L 83.5 280 L 82.5 281 L 74.5 281 L 72.5 281 L 67.5 280 L 56 282 L 55 270.5 L 53 268.5 L 54 267.5 L 54 253.5 L 53 252.5 L 53 239.5 Q 55.5 238 54 232.5 L 53 230.5 L 54.5 228 Z " /><path fill="rgb(28,156,212)" stroke="rgb(28,156,212)" stroke-width="1" opacity="0.9803921568627451" d="M 187.5 229 L 186.5 231 L 187.5 229 Z " /><path fill="rgb(28,156,212)" stroke="rgb(28,156,212)" stroke-width="1" opacity="0.9803921568627451" d="M 182.5 232 L 184 232.5 L 178 237.5 Q 171.4 246.9 168 259.5 L 159.5 270 L 145.5 273 L 143.5 273 L 125.5 277 L 123.5 277 L 121 275.5 L 119 271 Q 116.3 272.1 117 269.5 Q 112 260.5 114 244.5 L 115 244.5 Q 113.3 249.8 118.5 248 L 119.5 247 L 127.5 247 L 132.5 245 L 138.5 245 L 148.5 242 L 155.5 242 L 158.5 240 L 168.5 238 L 173.5 238 L 177.5 237 L 182.5 232 Z " /><path fill="rgb(28,156,212)" stroke="rgb(28,156,212)" stroke-width="1" opacity="0.9803921568627451" d="M 196.5 235 Q 202 234 203 237.5 L 204 247.5 L 201 257.5 L 201.5 259 Q 199.3 258.3 200 260.5 L 200.5 262 L 198.5 262 L 184 265 L 183 257 L 185 256.5 L 184 254.5 L 192 238 L 194 238 Q 192.9 235.3 195.5 236 L 196.5 235 Z " /><path fill="rgb(28,156,212)" stroke="rgb(28,156,212)" stroke-width="1" opacity="0.9803921568627451" d="M 264 239 L 266 239.5 L 265.5 241 Q 267.8 240.3 267 242.5 L 259 246 L 262.5 240 L 264 240.5 L 264 239 Z " /><path fill="rgb(28,156,212)" stroke="rgb(28,156,212)" stroke-width="1" opacity="0.9803921568627451" d="M 252.5 243 L 249.5 247 Q 246.5 245.5 249.5 244 Q 251 246.5 252.5 243 Z " /><path fill="rgb(28,156,212)" stroke="rgb(28,156,212)" stroke-width="1" opacity="0.9803921568627451" d="M 255.5 248 L 254.5 250 L 255.5 248 Z " /><path fill="rgb(54,127,216)" stroke="rgb(54,127,216)" stroke-width="1" opacity="0.9137254901960784" d="M 411.5 137 L 412.5 139 L 411.5 137 Z " /><path fill="rgb(54,127,216)" stroke="rgb(54,127,216)" stroke-width="1" opacity="0.9137254901960784" d="M 413.5 140 L 414.5 142 L 413.5 140 Z " /><path fill="rgb(54,127,216)" stroke="rgb(54,127,216)" stroke-width="1" opacity="0.9137254901960784" d="M 415.5 143 Q 431.4 164.1 439 193.5 L 438 193.5 L 431 172.5 L 415.5 143 Z " /><path fill="rgb(54,127,216)" stroke="rgb(54,127,216)" stroke-width="1" opacity="0.9137254901960784" d="M 439.5 195 L 441 200.5 L 440 200.5 L 439.5 195 Z " /><path fill="rgb(54,127,216)" stroke="rgb(54,127,216)" stroke-width="1" opacity="0.9137254901960784" d="M 344.5 225 L 345 231.5 L 344 231.5 L 344.5 225 Z " /><path fill="rgb(54,127,216)" stroke="rgb(54,127,216)" stroke-width="1" opacity="0.9137254901960784" d="M 369.5 227 Q 378.4 225.9 382 229 L 384.5 235 L 389.5 229 Q 391.8 226.3 397.5 227 L 401 229.5 L 401 233.5 L 397.5 244 L 397 241.5 Q 400 237.5 400 230.5 Q 399 227 393.5 228 L 387 232.5 L 384.5 236 L 379.5 229 Q 376.3 226.7 369.5 228 L 358 235.5 L 352.5 243 Q 348.2 247.8 340 247 Q 338.5 243.3 341.5 244 L 341.5 246 L 347.5 245 L 356 237.5 L 361.5 231 L 369.5 227 Z " /><path fill="rgb(54,127,216)" stroke="rgb(54,127,216)" stroke-width="1" opacity="0.9137254901960784" d="M 343.5 234 L 344 236.5 L 341.5 241 L 342 239.5 L 343.5 234 Z " /><path fill="rgb(54,127,216)" stroke="rgb(54,127,216)" stroke-width="1" opacity="0.9137254901960784" d="M 375.5 235 Q 380.3 234.3 381 237.5 L 382 239.5 L 382 251.5 L 380.5 256 L 380 252.5 L 381 251.5 L 381 239.5 L 378.5 236 Q 372.1 236.1 370 240.5 Q 361.5 251 361.5 270 L 361 259.5 L 368 241.5 L 373.5 236 L 375.5 235 Z " /><path fill="rgb(54,127,216)" stroke="rgb(54,127,216)" stroke-width="1" opacity="0.9137254901960784" d="M 335.5 239 L 336 240.5 L 334 241.5 L 335.5 239 Z " /><path fill="rgb(54,127,216)" stroke="rgb(54,127,216)" stroke-width="1" opacity="0.9137254901960784" d="M 310.5 241 L 311 259.5 L 310 259.5 L 310.5 241 Z " /><path fill="rgb(54,127,216)" stroke="rgb(54,127,216)" stroke-width="1" opacity="0.9137254901960784" d="M 325.5 244 L 332 249.5 Q 327.3 263.8 317.5 273 L 314.5 274 L 312 268.5 L 313 268.5 L 314 273 L 322 266.5 L 331 249 L 329.5 249 L 325.5 244 Z " /><path fill="rgb(54,127,216)" stroke="rgb(54,127,216)" stroke-width="1" opacity="0.9137254901960784" d="M 396.5 245 L 397 247.5 L 395.5 252 L 395 248.5 L 396.5 245 Z " /><path fill="rgb(54,127,216)" stroke="rgb(54,127,216)" stroke-width="1" opacity="0.9137254901960784" d="M 248.5 247 L 249.5 249 Q 246.7 249.7 248.5 247 Z " /><path fill="rgb(54,127,216)" stroke="rgb(54,127,216)" stroke-width="1" opacity="0.9137254901960784" d="M 349.5 248 L 350 251.5 L 348 256.5 L 348 272.5 Q 349.7 279.3 355 282.5 L 353.5 282 L 350 279.5 L 347 272.5 L 347 256.5 L 349 250.5 L 347.5 251 L 338.5 252 L 337 253.5 Q 329.3 270.8 315.5 282 L 310.5 284 L 310.5 283 Q 318.6 280.1 323 273.5 Q 332 263.6 337 251 Q 345.8 252.5 349.5 248 Z " /><path fill="rgb(54,127,216)" stroke="rgb(54,127,216)" stroke-width="1" opacity="0.9137254901960784" d="M 394.5 253 L 395 255.5 L 394 255.5 L 394.5 253 Z " /><path fill="rgb(54,127,216)" stroke="rgb(54,127,216)" stroke-width="1" opacity="0.9137254901960784" d="M 292.5 256 L 292 257.5 L 291 261.5 L 285 271 L 278.5 274 L 276 273 L 276.5 270 L 278.5 273 Q 284.6 271.6 287 266.5 L 292.5 256 Z " /><path fill="rgb(54,127,216)" stroke="rgb(54,127,216)" stroke-width="1" opacity="0.9137254901960784" d="M 379.5 257 L 380 259.5 L 378.5 262 L 378 260.5 L 379.5 257 Z " /><path fill="rgb(54,127,216)" stroke="rgb(54,127,216)" stroke-width="1" opacity="0.9137254901960784" d="M 393.5 257 L 394 260.5 L 393 260.5 L 393.5 257 Z " /><path fill="rgb(54,127,216)" stroke="rgb(54,127,216)" stroke-width="1" opacity="0.9137254901960784" d="M 296.5 258 Q 298.9 260.1 298 265.5 L 297 265.5 L 296.5 260 Q 291.9 273.9 281.5 282 L 274.5 284 L 274.5 283 Q 282.9 282.4 286 276.5 L 296.5 258 Z " /><path fill="rgb(54,127,216)" stroke="rgb(54,127,216)" stroke-width="1" opacity="0.9137254901960784" d="M 53.5 259 L 54 261.5 L 53 261.5 L 53.5 259 Z " /><path fill="rgb(54,127,216)" stroke="rgb(54,127,216)" stroke-width="1" opacity="0.9137254901960784" d="M 276.5 260 L 277 262.5 L 276 262.5 L 276.5 260 Z " /><path fill="rgb(54,127,216)" stroke="rgb(54,127,216)" stroke-width="1" opacity="0.9137254901960784" d="M 311.5 261 L 312 266.5 L 311 266.5 L 311.5 261 Z " /><path fill="rgb(54,127,216)" stroke="rgb(54,127,216)" stroke-width="1" opacity="0.9137254901960784" d="M 392.5 262 L 393 264.5 L 392 264.5 L 392.5 262 Z " /><path fill="rgb(54,127,216)" stroke="rgb(54,127,216)" stroke-width="1" opacity="0.9137254901960784" d="M 377.5 263 L 378 264.5 Q 375.8 271.3 370.5 275 L 373 271.5 L 377.5 263 Z " /><path fill="rgb(54,127,216)" stroke="rgb(54,127,216)" stroke-width="1" opacity="0.9137254901960784" d="M 298.5 267 Q 299.7 277.3 305.5 283 L 307 283.5 L 305.5 284 Q 298.3 278.2 298.5 267 Z " /><path fill="rgb(54,127,216)" stroke="rgb(54,127,216)" stroke-width="1" opacity="0.9137254901960784" d="M 54.5 271 L 55 275.5 L 54 275.5 L 54.5 271 Z " /><path fill="rgb(54,127,216)" stroke="rgb(54,127,216)" stroke-width="1" opacity="0.9137254901960784" d="M 262.5 271 Q 262.5 280 268.5 283 L 271 283.5 L 268.5 284 L 264 280.5 Q 260.9 276.9 262.5 271 Z " /><path fill="rgb(54,127,216)" stroke="rgb(54,127,216)" stroke-width="1" opacity="0.9137254901960784" d="M 362.5 271 L 365.5 275 L 369 275.5 L 365.5 276 L 362 272.5 L 362.5 271 Z " /><path fill="rgb(54,127,216)" stroke="rgb(54,127,216)" stroke-width="1" opacity="0.9137254901960784" d="M 228.5 272 Q 228.6 279.4 232.5 283 L 235 283.5 L 232.5 284 L 230 281.5 L 227 273.5 L 228.5 272 Z " /><path fill="rgb(54,127,216)" stroke="rgb(54,127,216)" stroke-width="1" opacity="0.9137254901960784" d="M 243.5 273 L 244 274.5 L 242.5 278 L 242 275.5 L 243.5 273 Z " /><path fill="rgb(54,127,216)" stroke="rgb(54,127,216)" stroke-width="1" opacity="0.9137254901960784" d="M 377.5 273 Q 379.8 272.3 379 274.5 L 377 274.5 L 373.5 279 L 375 276.5 L 377.5 273 Z " /><path fill="rgb(54,127,216)" stroke="rgb(54,127,216)" stroke-width="1" opacity="0.9137254901960784" d="M 220.5 274 L 219.5 276 L 218 275.5 L 220.5 274 Z " /><path fill="rgb(54,127,216)" stroke="rgb(54,127,216)" stroke-width="1" opacity="0.9137254901960784" d="M 197.5 275 L 198 276.5 L 190.5 283 L 194.5 278 L 197 276.5 L 197.5 275 Z " /><path fill="rgb(54,127,216)" stroke="rgb(54,127,216)" stroke-width="1" opacity="0.9137254901960784" d="M 224.5 277 L 220.5 282 L 214.5 284 L 214.5 283 Q 221.5 282 224.5 277 Z " /><path fill="rgb(54,127,216)" stroke="rgb(54,127,216)" stroke-width="1" opacity="0.9137254901960784" d="M 55.5 279 L 56 281.5 L 55 281.5 L 55.5 279 Z " /><path fill="rgb(54,127,216)" stroke="rgb(54,127,216)" stroke-width="1" opacity="0.9137254901960784" d="M 202.5 279 L 209 283.5 L 206.5 284 L 202.5 279 Z " /><path fill="rgb(54,127,216)" stroke="rgb(54,127,216)" stroke-width="1" opacity="0.9137254901960784" d="M 241.5 279 L 242 281.5 Q 241.5 284.5 237.5 284 L 237.5 283 L 241 281.5 L 241.5 279 Z " /><path fill="rgb(54,127,216)" stroke="rgb(54,127,216)" stroke-width="1" opacity="0.9137254901960784" d="M 181.5 284 L 184 284.5 L 181.5 285 L 181.5 284 Z " /><path fill="rgb(54,127,216)" stroke="rgb(54,127,216)" stroke-width="1" opacity="0.9137254901960784" d="M 210.5 284 L 213 284.5 L 210.5 285 L 210.5 284 Z " /><path fill="rgb(54,127,216)" stroke="rgb(54,127,216)" stroke-width="1" opacity="0.9137254901960784" d="M 56.5 285 L 57 288.5 L 56 288.5 L 56.5 285 Z " /><path fill="rgb(54,127,216)" stroke="rgb(54,127,216)" stroke-width="1" opacity="0.9137254901960784" d="M 57.5 290 L 59 297.5 L 58 297.5 L 57.5 290 Z " /><path fill="rgb(54,127,216)" stroke="rgb(54,127,216)" stroke-width="1" opacity="0.9137254901960784" d="M 60.5 302 L 66 320.5 L 65 320.5 L 60 305.5 L 60.5 302 Z " /><path fill="rgb(41,138,217)" stroke="rgb(41,138,217)" stroke-width="1" opacity="0.9490196078431372" d="M 380.5 102 L 383.5 106 L 380.5 102 Z " /><path fill="rgb(41,138,217)" stroke="rgb(41,138,217)" stroke-width="1" opacity="0.9490196078431372" d="M 393.5 115 L 406 128.5 L 406 131 L 409 132.5 Q 407.9 135.8 410.5 135 L 412.5 139 L 414 139.5 Q 411.8 140.8 414.5 142 L 416 142.5 L 416 144.5 L 421 152.5 L 415 159.5 L 414 163.5 L 405 175.5 L 405 177.5 L 400 182.5 L 397.5 188 L 394 190.5 L 384.5 204 L 381 206.5 L 377.5 212 L 373 215.5 L 368.5 221 L 367 221.5 L 368 222.5 L 364.5 226 L 343 241.5 L 342 243.5 L 345 244.5 L 342.5 246 L 342 244 L 340 243.5 Q 343.7 240.7 344 234.5 Q 341.5 233 345 231.5 L 345 225.5 L 339.5 218 L 332.5 217 L 326 221.5 L 322 230.5 L 323 235.5 Q 322.5 241.5 326 243.5 L 325 244.5 L 329.5 249 L 331 249.5 L 329.5 250 L 327 248.5 Q 327.8 251.1 324.5 250 L 322.5 249 L 311.5 256 L 310 232.5 L 311 229.5 Q 309.5 226.5 303.5 228 L 298 232.5 Q 294.9 236.9 296 245.5 L 293 253.5 L 294 254.5 L 291 257.5 L 290 262 L 282.5 265 L 281.5 263 L 276.5 266 L 277 262.5 L 277 256.5 L 280 246.5 L 280.5 233 L 281 239 L 290.5 235 Q 292 237.5 293.5 234 Q 297.9 235.5 297 232.5 L 299.5 229 Q 302.5 226 309.5 227 L 312 228.5 L 313.5 226 L 317.5 224 L 319.5 224 L 325.5 219 Q 327 221.5 328.5 218 L 341.5 211 L 343 211.5 L 345.5 208 L 347.5 209 L 350.5 205 L 352 205.5 L 360.5 195 L 363 193.5 L 365.5 189 L 368 187.5 L 371.5 182 Q 374.1 182.8 373 179.5 L 381 170.5 L 383 165.5 L 390 156.5 L 404 130.5 L 404 127.5 L 393.5 115 Z " /><path fill="rgb(41,138,217)" stroke="rgb(41,138,217)" stroke-width="1" opacity="0.9490196078431372" d="M 333 223 L 337 224.5 L 338 228.5 L 337 231.5 Q 337.9 238.9 334 241.5 L 334.5 243 Q 328.9 238.6 331 226.5 L 333 223 Z " /><path fill="rgb(41,138,217)" stroke="rgb(41,138,217)" stroke-width="1" opacity="0.9490196078431372" d="M 54.5 224 L 55 227.5 L 54 227.5 L 54.5 224 Z " /><path fill="rgb(41,138,217)" stroke="rgb(41,138,217)" stroke-width="1" opacity="0.9490196078431372" d="M 236.5 231 L 237 234.5 L 236 234.5 L 236.5 231 Z " /><path fill="rgb(41,138,217)" stroke="rgb(41,138,217)" stroke-width="1" opacity="0.9490196078431372" d="M 53.5 232 L 54 238.5 L 53 238.5 L 53.5 232 Z " /><path fill="rgb(41,138,217)" stroke="rgb(41,138,217)" stroke-width="1" opacity="0.9490196078431372" d="M 254.5 240 L 250.5 245 Q 247.5 243.5 250.5 242 L 254.5 240 Z " /><path fill="rgb(41,138,217)" stroke="rgb(41,138,217)" stroke-width="1" opacity="0.9490196078431372" d="M 263.5 240 L 262.5 242 L 263.5 240 Z " /><path fill="rgb(41,138,217)" stroke="rgb(41,138,217)" stroke-width="1" opacity="0.9490196078431372" d="M 259.5 243 L 259 244.5 Q 258.3 246.8 260.5 246 L 266.5 243 L 267 245.5 L 262 265.5 L 262 267.5 L 261.5 270 L 257.5 270 L 255.5 269 L 246.5 272 L 244 271 Q 248.9 254.7 259.5 243 Z " /><path fill="rgb(41,138,217)" stroke="rgb(41,138,217)" stroke-width="1" opacity="0.9490196078431372" d="M 234.5 245 L 235 247.5 L 234 247.5 L 234.5 245 Z " /><path fill="rgb(41,138,217)" stroke="rgb(41,138,217)" stroke-width="1" opacity="0.9490196078431372" d="M 248.5 246 L 251 246.5 Q 248.9 249.8 248.5 246 Z " /><path fill="rgb(41,138,217)" stroke="rgb(41,138,217)" stroke-width="1" opacity="0.9490196078431372" d="M 217.5 249 L 218 250.5 L 216.5 255 L 216 251.5 L 217.5 249 Z " /><path fill="rgb(41,138,217)" stroke="rgb(41,138,217)" stroke-width="1" opacity="0.9490196078431372" d="M 233.5 249 L 234 251.5 Q 230.1 265.1 221.5 274 L 215.5 276 L 213 271.5 L 213 269.5 L 215.5 256 L 219.5 257 L 223.5 255 L 232 254 L 233.5 249 Z " /><path fill="rgb(41,138,217)" stroke="rgb(41,138,217)" stroke-width="1" opacity="0.9490196078431372" d="M 202.5 251 L 203 254.5 L 201.5 258 L 201 255.5 L 202.5 251 Z " /><path fill="rgb(41,138,217)" stroke="rgb(41,138,217)" stroke-width="1" opacity="0.9490196078431372" d="M 53.5 253 L 54 258.5 L 53 258.5 L 53.5 253 Z " /><path fill="rgb(41,138,217)" stroke="rgb(41,138,217)" stroke-width="1" opacity="0.9490196078431372" d="M 183.5 259 L 184 265 L 198.5 262 L 200 260.5 L 200.5 259 L 201 260.5 Q 198.4 269.4 192.5 275 L 186.5 276 L 183 271.5 L 183.5 259 Z " /><path fill="rgb(41,138,217)" stroke="rgb(41,138,217)" stroke-width="1" opacity="0.9490196078431372" d="M 53.5 262 L 54 267.5 L 53 267.5 L 53.5 262 Z " /><path fill="rgb(41,138,217)" stroke="rgb(41,138,217)" stroke-width="1" opacity="0.9490196078431372" d="M 165.5 262 L 165 263.5 L 155.5 276 L 142.5 283 L 131.5 283 Q 123.2 280.9 119 274.5 L 118 271.5 L 119 271.5 L 122.5 277 L 124.5 276 L 126.5 276 L 141.5 274 L 144.5 272 L 146.5 272 L 156.5 271 L 162 267.5 L 165.5 262 Z " /><path fill="rgb(41,138,217)" stroke="rgb(41,138,217)" stroke-width="1" opacity="0.9490196078431372" d="M 295 262 Q 298 261 297 264 Q 294 265 295 262 Z " /><path fill="rgb(41,138,217)" stroke="rgb(41,138,217)" stroke-width="1" opacity="0.9490196078431372" d="M 168.5 267 L 170 269.5 L 170 271.5 Q 170.9 278.6 175.5 282 L 181 284.5 L 167.5 288 L 154.5 289 L 147.5 292 L 145.5 292 L 131.5 293 L 125.5 296 L 122.5 295 L 116.5 298 L 111.5 297 L 110.5 298 L 101.5 298 L 98.5 300 Q 93.8 298.7 92.5 301 L 90.5 301 L 85.5 302 L 82.5 301 L 80.5 302 L 78.5 301 L 76.5 301 L 74.5 302 L 72.5 301 L 61.5 303 L 59 301.5 L 60 299.5 L 56 284.5 L 56.5 283 L 55 282.5 L 68.5 280 L 72.5 281 L 74.5 281 Q 81.3 282.3 84.5 280 L 87.5 281 L 90.5 280 L 92.5 281 L 94.5 281 L 96.5 280 L 98.5 280 L 100.5 279 L 105 280 L 104 277.5 L 107 279.5 L 111.5 285 L 122.5 291 L 138.5 292 Q 154.5 287.5 163 275.5 L 168.5 267 Z " /><path fill="rgb(41,138,217)" stroke="rgb(41,138,217)" stroke-width="1" opacity="0.9490196078431372" d="M 198.5 273 L 201 274 Q 200.1 280.3 205 282.5 L 201.5 280 L 192.5 282 L 194.5 279 L 197 277.5 L 196.5 276 L 198 276.5 L 198.5 273 Z " /><path fill="rgb(41,138,217)" stroke="rgb(41,138,217)" stroke-width="1" opacity="0.9490196078431372" d="M 226 274 Q 229 272.8 228 276.5 L 228.5 278 L 226 276.5 L 223.5 280 L 225 277.5 L 226 274 Z " /><path fill="rgb(41,138,217)" stroke="rgb(41,138,217)" stroke-width="1" opacity="0.9490196078431372" d="M 185.5 283 L 188 283.5 L 184.5 285 L 185.5 283 Z " /><path fill="rgb(52,118,225)" stroke="rgb(52,118,225)" stroke-width="1" opacity="0.996078431372549" d="M 420.5 153 Q 432.1 169.4 437 192.5 L 429 202.5 L 428 206 L 424 208.5 L 420.5 214 Q 418.3 213.3 419 215.5 L 409.5 227 Q 407.3 226.3 408 228.5 L 404.5 233 L 401.5 235 Q 402.4 229.6 399.5 228 L 393.5 227 L 385 233.5 L 384.5 235 L 382 229 Q 378.4 225.9 369.5 227 Q 360.8 229.8 356 236.5 L 351.5 242 L 343.5 246 L 343.5 245 L 345 244.5 L 342 243.5 L 345.5 239 L 368 222.5 L 367.5 221 L 373 216.5 L 376.5 212 L 380 209.5 L 383.5 204 L 386 202.5 L 396.5 188 L 399 186.5 L 400 182.5 L 405 177.5 L 405 175.5 L 414 163.5 L 415 159.5 L 420.5 153 Z " /><path fill="rgb(52,118,225)" stroke="rgb(52,118,225)" stroke-width="1" opacity="0.996078431372549" d="M 375.5 236 Q 379.3 235.3 380 237.5 L 381 239.5 L 381 251.5 L 380 257 L 376 258.5 L 373.5 262 L 367 266.5 L 365.5 269 L 362.5 271 L 362 259.5 Q 364.6 245.1 373.5 237 L 375.5 236 Z " /><path fill="rgb(52,118,225)" stroke="rgb(52,118,225)" stroke-width="1" opacity="0.996078431372549" d="M 327.5 248 L 331 250.5 Q 325.9 264.4 315.5 273 Q 313.3 273.8 314 271.5 L 312 267.5 L 311 256.5 L 323.5 249 L 327 250 L 327.5 248 Z " /><path fill="rgb(52,118,225)" stroke="rgb(52,118,225)" stroke-width="1" opacity="0.996078431372549" d="M 348.5 250 L 349 251.5 L 347 256.5 L 347 272.5 L 350 278.5 L 337 286 Q 338.1 288.7 335.5 288 L 328.5 292 L 326.5 292 L 313.5 298 L 306.5 299 L 304.5 301 L 302.5 301 L 298.5 302 L 296.5 302 L 289.5 304 L 287.5 304 L 283.5 306 L 278.5 305 L 268.5 309 L 264.5 307 L 255.5 310 L 253.5 310 L 250.5 311 L 248.5 311 L 244.5 312 L 240.5 312 L 237.5 313 Q 236 310.5 230.5 312 L 227.5 313 L 222.5 314 L 221 313.5 Q 221.9 316.9 216.5 315 L 212.5 314 L 200.5 317 L 198.5 316 L 192.5 318 L 181.5 318 L 175.5 320 L 157.5 322 L 149.5 325 L 136.5 326 L 127.5 329 L 120.5 329 L 118.5 331 L 111.5 331 L 99.5 334 L 97.5 333 L 91.5 335 L 76.5 335 L 73 336 Q 65.3 322 61 303.5 L 62.5 302 Q 70 303.5 73.5 301 L 75.5 301 L 77.5 302 L 79.5 301 L 81.5 301 L 83.5 302 L 85.5 302 Q 90.1 302.6 91.5 300 L 93.5 300 Q 99.5 301 101.5 298 L 115.5 297 Q 117 299.5 118.5 296 L 124.5 295 L 126.5 296 L 131.5 293 Q 141.4 294.4 146.5 291 L 149.5 292 L 154.5 289 L 184.5 285 L 194.5 281 L 201.5 280 Q 204.6 284.9 212.5 285 Q 221.1 283.1 226 277.5 L 226.5 276 L 232.5 284 Q 240.2 285.8 242 281.5 L 242 278.5 L 245.5 271 L 248.5 272 L 255.5 269 L 257.5 270 L 260.5 269 L 262 270.5 Q 261.1 278.9 265.5 282 Q 268.7 285.8 277.5 284 Q 285 281 289 274.5 L 294 264 Q 297.7 262.5 297 265.5 L 300 276.5 L 305.5 284 L 308.5 285 L 315.5 282 L 326 271.5 L 338.5 252 Q 345.5 253 348.5 250 Z " /><path fill="rgb(52,118,225)" stroke="rgb(52,118,225)" stroke-width="1" opacity="0.996078431372549" d="M 287.5 262 L 289 262.5 L 281.5 272 L 278.5 273 Q 275.4 271.6 276 266.5 L 281.5 263 L 282.5 265 L 287.5 262 Z " /><path fill="rgb(66,99,229)" stroke="rgb(66,99,229)" stroke-width="1" opacity="0.9921568627450981" d="M 437.5 191 L 442 203.5 L 446 225 L 443 226.5 L 435.5 237 L 432 239.5 L 422.5 251 L 419 253.5 Q 419.8 255.8 417.5 255 L 414.5 259 L 412 260.5 L 408.5 270 L 408 268.5 L 409 263.5 L 406 262 L 400 275 L 394.5 277 L 392 274.5 L 392 265.5 L 395 253.5 L 394.5 252 Q 397.5 252.9 396 248.5 L 399 238.5 L 401 236.5 L 400 234.5 Q 401.8 236.1 403.5 233 L 407 230.5 L 408 227 L 413 223.5 Q 418 220 419 214 L 423 211.5 L 426.5 206 Q 428.8 206.8 428 204.5 L 437.5 191 Z " /><path fill="rgb(66,99,229)" stroke="rgb(66,99,229)" stroke-width="1" opacity="0.9921568627450981" d="M 377.5 257 Q 380.1 256.2 379 259.5 Q 376.1 269.1 369.5 275 Q 364 276 363 272.5 L 364.5 269 L 367 267.5 L 369.5 264 L 376 259.5 L 377.5 257 Z " /><path fill="rgb(66,99,229)" stroke="rgb(66,99,229)" stroke-width="1" opacity="0.9921568627450981" d="M 406.5 273 L 406 274.5 L 404.5 277 L 405 275.5 L 406.5 273 Z " /><path fill="rgb(66,99,229)" stroke="rgb(66,99,229)" stroke-width="1" opacity="0.9921568627450981" d="M 377.5 274 L 383.5 282 L 387 283 L 385.5 286 L 380 289 L 378.5 292 L 375.5 294 L 370 297 Q 371.5 300.8 368.5 300 L 360 305 L 358.5 308 L 350 313.5 Q 350.8 315.8 348.5 315 L 345.5 316 L 328 325.5 L 327.5 327 L 325.5 326 L 314 332 L 313.5 330 L 303.5 335 L 301.5 335 L 293.5 339 L 291.5 339 L 289.5 340 L 287.5 339 L 282.5 340 L 278.5 343 L 275.5 342 L 264.5 346 L 262.5 346 L 256.5 348 L 254.5 347 L 250.5 349 L 246 348 L 245.5 350 L 242.5 349 L 238.5 350 L 236.5 350 Q 231.8 348.7 230.5 351 L 228.5 350 L 222.5 352 L 218.5 352 L 213.5 351 L 208.5 352 L 206.5 351 L 202.5 352 L 200.5 352 L 193.5 353 L 191.5 352 L 189.5 353 L 185.5 352 L 174.5 354 L 170.5 353 L 169.5 354 L 161.5 354 L 147.5 357 L 141.5 357 L 135.5 359 L 128.5 359 L 126.5 361 L 115.5 362 L 114.5 363 L 110.5 363 L 103.5 364 L 101.5 366 L 91.5 366 L 90.5 367 L 90 364.5 L 89.5 363 L 88 363.5 Q 90.2 362.3 87.5 361 L 86 360.5 Q 88.3 359.3 85.5 358 L 84 357.5 L 84.5 356 L 82 354.5 L 82.5 353 L 81 353 L 81 350 Q 78.3 351.1 79 348.5 L 70 330.5 L 71 330.5 L 73 336 L 76.5 335 L 91.5 335 L 98.5 333 L 100.5 333 L 118.5 331 L 120.5 329 L 127.5 329 L 136.5 326 L 149.5 325 L 157.5 322 L 163.5 322 L 181.5 318 L 192.5 318 L 199.5 316 L 203.5 317 L 215.5 314 L 221 315 L 221.5 313 L 224.5 314 L 228.5 312 L 230.5 312 Q 236 310.5 237.5 313 L 241.5 311 L 244.5 312 L 249.5 310 L 251.5 311 L 254.5 309 L 256.5 310 L 264.5 307 L 268.5 309 L 278.5 305 L 282.5 305 L 284.5 306 L 288.5 303 L 290.5 303 L 297.5 301 L 300.5 302 L 303.5 300 Q 305 302.5 306.5 299 L 313.5 298 L 327.5 291 L 329.5 291 L 337 288 Q 335.9 285.3 338.5 286 L 349.5 279 Q 352.5 285.5 363.5 284 L 366.5 283 L 377 275.5 L 377.5 274 Z " /><path fill="rgb(66,99,229)" stroke="rgb(66,99,229)" stroke-width="1" opacity="0.9921568627450981" d="M 402.5 278 L 401.5 280 L 402.5 278 Z " /><path fill="rgb(66,99,229)" stroke="rgb(66,99,229)" stroke-width="1" opacity="0.9921568627450981" d="M 93.5 370 L 94.5 372 L 93.5 370 Z " /><path fill="rgb(84,79,231)" stroke="rgb(84,79,231)" stroke-width="1" opacity="0.9921568627450981" d="M 444.5 225 L 446 225.5 L 446 232.5 L 447 233.5 L 447 268.5 L 446 269.5 L 446 277.5 L 444.5 284 L 443.5 282 L 437 287.5 L 434.5 291 L 430 293.5 L 425.5 299 L 422 300 L 417.5 306 L 412 309.5 L 409.5 313 L 398.5 319 L 379.5 334 L 378.5 333 L 374.5 337 L 357.5 347 L 356.5 346 L 353.5 349 L 351.5 349 L 346.5 353 Q 345 350.5 343.5 354 L 327.5 361 L 325.5 360 L 315.5 364 L 315.5 362 L 309 365 L 308.5 363 L 303.5 366 L 303.5 364 L 293.5 367 L 291.5 367 L 281.5 370 L 281.5 368 L 276.5 370 L 274.5 370 L 261.5 373 L 257.5 371 L 253.5 373 L 249.5 373 L 246.5 374 L 244.5 373 L 241.5 374 L 238.5 372 L 234.5 374 L 234 372 L 228.5 374 L 228 372 L 220.5 374 L 220 372 L 215.5 371 L 210.5 373 L 210 371 L 204.5 372 L 201.5 371 L 199.5 372 L 194.5 371 L 193 371.5 Q 193.8 369.3 191.5 370 L 187 371 Q 188.3 367.3 182.5 369 L 172.5 371 L 170 370 Q 171.3 366.7 166.5 368 Q 165.3 370.3 160.5 369 L 158.5 369 L 152.5 369 L 137.5 372 L 129.5 372 L 121.5 375 L 115.5 375 L 106.5 380 L 102 380 L 101.5 378 Q 100.3 380.3 99 377.5 Q 101.8 375.8 97.5 374 L 95 372.5 L 93.5 369 L 91 367.5 L 91.5 366 L 101.5 366 L 103.5 364 L 110.5 363 L 111.5 364 L 115.5 362 L 126.5 361 L 128.5 359 L 135.5 359 L 141.5 357 L 173.5 353 L 177.5 354 L 188.5 352 L 190.5 353 L 192.5 352 L 196.5 353 L 201.5 351 L 205.5 352 L 207.5 351 L 212.5 352 L 214.5 351 L 218.5 352 L 222.5 352 L 229.5 350 L 231.5 350 Q 236.2 351.2 237.5 349 L 241.5 350 L 244.5 349 L 246 349.5 Q 245.1 346.5 249.5 348 L 251.5 348 L 255.5 347 L 257.5 347 L 263.5 345 L 265.5 346 L 277.5 342 L 279.5 342 L 282.5 340 L 288.5 339 L 290.5 339 L 292.5 338 Q 294 340.5 295.5 337 L 302.5 334 L 305.5 335 L 313.5 330 L 314 332 L 326.5 326 L 328 326.5 L 329.5 324 L 346.5 315 L 348.5 315 Q 350.8 315.8 350 313.5 L 360 306.5 Q 359.3 304.3 361.5 305 Q 364.4 300.8 370 300 Q 368.5 296.2 371.5 297 L 377 294 Q 375.9 291.3 378.5 292 L 380 289 L 387.5 284 Q 398.5 284.5 403 278.5 Q 402.3 276.3 404.5 277 L 410 267.5 L 410 263.5 L 413.5 259 L 416 257.5 L 417.5 255 Q 419.8 255.8 419 253.5 L 424 249.5 L 434.5 237 L 437 235.5 L 444.5 225 Z " /><path fill="rgb(84,79,231)" stroke="rgb(84,79,231)" stroke-width="1" opacity="0.9921568627450981" d="M 443.5 285 L 444 288.5 L 443 288.5 L 443.5 285 Z " /><path fill="rgb(84,79,231)" stroke="rgb(84,79,231)" stroke-width="1" opacity="0.9921568627450981" d="M 442.5 291 L 443 293.5 L 442 293.5 L 442.5 291 Z " /><path fill="rgb(84,79,231)" stroke="rgb(84,79,231)" stroke-width="1" opacity="0.9921568627450981" d="M 85.5 358 L 86.5 360 L 85.5 358 Z " /><path fill="rgb(84,79,231)" stroke="rgb(84,79,231)" stroke-width="1" opacity="0.9921568627450981" d="M 87.5 361 L 90 364.5 L 89 364.5 L 87.5 361 Z " /><path fill="rgb(84,79,231)" stroke="rgb(84,79,231)" stroke-width="1" opacity="0.9921568627450981" d="M 104.5 383 L 109.5 389 L 104.5 383 Z " /><path fill="rgb(84,79,231)" stroke="rgb(84,79,231)" stroke-width="1" opacity="0.9921568627450981" d="M 114.5 393 L 115.5 395 L 114.5 393 Z " /><path fill="rgb(86,61,242)" stroke="rgb(86,61,242)" stroke-width="1" opacity="0.9921568627450981" d="M 408.5 313 L 404.5 318 Q 402.3 317.3 403 319.5 L 401 323 L 393 327.5 Q 394.1 330.8 391.5 330 L 383 336.5 L 381.5 339 L 372 344.5 L 370.5 347 L 361 351.5 Q 363.3 352.8 360.5 354 L 351.5 358 L 345.5 363 L 329.5 371 L 326.5 374 L 316.5 379 L 308 381 Q 309.1 383.7 306.5 383 L 303.5 386 L 297.5 389 L 294.5 389 L 291.5 392 L 268.5 402 L 265.5 402 L 246.5 409 L 224.5 414 L 222.5 414 L 188.5 422 L 183.5 421 L 179.5 423 L 166 423 Q 167.1 425.7 164.5 425 L 161.5 427 L 159 425.5 L 161 424.5 L 158.5 424 L 156.5 424 L 140.5 415 L 119 399 Q 120.1 396.3 117.5 397 L 114.5 393 L 110 389.5 L 97 374.5 L 102 378.5 Q 101.1 381.9 106.5 380 L 115.5 375 L 121.5 375 L 129.5 372 L 145.5 371 L 159.5 368 Q 160.8 370.3 165.5 369 L 170 368 Q 168.9 370.7 171.5 370 L 174.5 371 L 187 369 Q 185.7 372.3 190.5 371 L 193 370 L 193.5 372 L 198.5 371 L 200.5 372 L 203.5 371 L 207.5 372 L 210 371 L 210.5 373 L 217.5 371 L 220 372 L 220.5 374 L 228 372 L 228.5 374 L 234 372 L 234.5 374 L 240 372 Q 238.9 374.7 241.5 374 L 244.5 373 L 246.5 374 L 250.5 372 L 254.5 372 L 257.5 371 L 261.5 373 Q 270.5 373 275.5 369 L 277.5 369 L 281.5 368 L 281.5 370 L 292.5 366 L 296.5 367 L 303.5 364 L 303.5 366 L 308.5 363 L 309 365 L 315.5 362 L 318.5 363 L 326.5 360 L 328.5 360 Q 338.9 357.9 345.5 352 L 347.5 352 L 356.5 346 L 358.5 347 L 378.5 333 L 380.5 334 L 386.5 328 L 408.5 313 Z " /><path fill="rgb(86,61,242)" stroke="rgb(86,61,242)" stroke-width="1" opacity="0.9921568627450981" d="M 93.5 369 L 94.5 371 L 93.5 369 Z " /><path fill="rgb(111,43,238)" stroke="rgb(111,43,238)" stroke-width="1" opacity="0.9921568627450981" d="M 443.5 282 L 444 284.5 L 439 307.5 L 432 327.5 Q 419.6 355.4 402 377 Q 399.3 375.9 400 378.5 L 380.5 399 L 351.5 420 L 330.5 431 L 302.5 441 L 278.5 446 L 276.5 446 Q 271 444.5 269.5 447 L 230.5 447 L 197.5 441 L 177.5 433 Q 176 435.5 174.5 432 L 162 426.5 L 166 425 L 166.5 423 L 179.5 423 L 188.5 420 L 188.5 422 L 202.5 418 L 211.5 417 L 215.5 415 L 219.5 415 L 223.5 413 L 227.5 414 L 268.5 402 L 287.5 394 L 294.5 389 L 297.5 389 L 308 383 Q 306.8 380 310.5 381 L 337.5 368 L 362 352.5 L 361.5 351 L 372 345.5 L 373.5 343 L 383 337.5 L 386.5 333 L 393 330 Q 392.3 326.2 395.5 325 L 401 323 L 403 318 L 404.5 318 L 413 309.5 Q 412.3 307.3 414.5 308 L 430 294.5 Q 429.3 292.3 431.5 293 L 437 288.5 L 440.5 284 L 443.5 282 Z " /><path fill="rgb(111,43,238)" stroke="rgb(111,43,238)" stroke-width="1" opacity="0.9921568627450981" d="M 158.5 424 L 161 424.5 L 158.5 425 L 158.5 424 Z " /></svg>