<svg width="500" height="500" version="1.1" xmlns="http://www.w3.org/2000/svg" desc="Created with imagetracer.js version 1.2.6" ><path fill="rgb(0,0,0)" stroke="rgb(0,0,0)" stroke-width="1" opacity="0" d="M 0 0 L 500 0 L 500 500 L 0 500 L 0 0 Z M 231 50 L 198 56 L 172 65 Q 141 78 118 99 Q 90 123 72 157 Q 63 173 57 194 L 50 229 L 50 270 L 57 307 Q 71 351 98 382 Q 117 404 143 420 L 174 436 L 194 443 L 201 444 L 202 445 L 202 312 L 202 311 L 161 311 L 161 250 L 202 250 L 202 209 L 203 208 L 204 194 L 207 181 L 212 168 L 220 155 Q 231 139 251 132 L 272 126 L 290 125 L 291 124 L 306 124 L 307 125 L 328 126 L 342 129 L 343 132 Q 344 136 342 138 L 342 170 L 343 171 L 342 182 Q 344 183 342 184 L 334 184 L 333 183 L 305 184 L 289 190 L 279 201 L 276 208 L 274 218 L 274 250 L 339 250 L 328 310 L 328 311 L 274 311 L 274 449 L 303 444 L 327 436 Q 358 422 383 401 Q 410 377 428 344 L 436 327 L 442 310 L 448 285 L 449 271 L 450 270 L 450 234 L 449 233 L 447 212 L 442 192 Q 428 147 400 117 Q 368 80 319 61 L 295 54 L 278 51 L 271 51 L 270 50 L 231 50 Z " /><path fill="rgb(23,108,242)" stroke="rgb(23,108,242)" stroke-width="1" opacity="0.4588235294117647" d="M 230.5 50 L 239 50.5 L 230.5 51 L 230.5 50 Z " /><path fill="rgb(23,108,242)" stroke="rgb(23,108,242)" stroke-width="1" opacity="0.4588235294117647" d="M 261.5 50 L 270 50.5 L 261.5 51 L 261.5 50 Z " /><path fill="rgb(23,108,242)" stroke="rgb(23,108,242)" stroke-width="1" opacity="0.4588235294117647" d="M 221.5 51 L 227 51.5 L 221.5 52 L 221.5 51 Z " /><path fill="rgb(23,108,242)" stroke="rgb(23,108,242)" stroke-width="1" opacity="0.4588235294117647" d="M 272.5 51 L 278 51.5 L 272.5 52 L 272.5 51 Z " /><path fill="rgb(23,108,242)" stroke="rgb(23,108,242)" stroke-width="1" opacity="0.4588235294117647" d="M 215.5 52 L 219 52.5 L 215.5 53 L 215.5 52 Z " /><path fill="rgb(23,108,242)" stroke="rgb(23,108,242)" stroke-width="1" opacity="0.4588235294117647" d="M 280.5 52 L 284 52.5 L 280.5 53 L 280.5 52 Z " /><path fill="rgb(23,108,242)" stroke="rgb(23,108,242)" stroke-width="1" opacity="0.4588235294117647" d="M 210.5 53 L 214 53.5 L 210.5 54 L 210.5 53 Z " /><path fill="rgb(23,108,242)" stroke="rgb(23,108,242)" stroke-width="1" opacity="0.4588235294117647" d="M 286.5 53 L 290 53.5 L 286.5 54 L 286.5 53 Z " /><path fill="rgb(23,108,242)" stroke="rgb(23,108,242)" stroke-width="1" opacity="0.4588235294117647" d="M 205.5 54 L 208 54.5 L 205.5 55 L 205.5 54 Z " /><path fill="rgb(23,108,242)" stroke="rgb(23,108,242)" stroke-width="1" opacity="0.4588235294117647" d="M 291.5 54 L 295 54.5 L 291.5 55 L 291.5 54 Z " /><path fill="rgb(23,108,242)" stroke="rgb(23,108,242)" stroke-width="1" opacity="0.4588235294117647" d="M 201.5 55 L 204 55.5 L 201.5 56 L 201.5 55 Z " /><path fill="rgb(23,108,242)" stroke="rgb(23,108,242)" stroke-width="1" opacity="0.4588235294117647" d="M 296.5 55 L 299 55.5 L 296.5 56 L 296.5 55 Z " /><path fill="rgb(23,108,242)" stroke="rgb(23,108,242)" stroke-width="1" opacity="0.4588235294117647" d="M 197.5 56 L 200 56.5 L 197.5 57 L 197.5 56 Z " /><path fill="rgb(23,108,242)" stroke="rgb(23,108,242)" stroke-width="1" opacity="0.4588235294117647" d="M 300.5 56 L 303 56.5 L 300.5 57 L 300.5 56 Z " /><path fill="rgb(23,108,242)" stroke="rgb(23,108,242)" stroke-width="1" opacity="0.4588235294117647" d="M 187.5 59 L 190 59.5 L 185.5 61 L 185.5 60 L 187.5 59 Z " /><path fill="rgb(23,108,242)" stroke="rgb(23,108,242)" stroke-width="1" opacity="0.4588235294117647" d="M 310.5 59 L 321 62.5 L 319.5 63 L 310.5 60 L 310.5 59 Z " /><path fill="rgb(23,108,242)" stroke="rgb(23,108,242)" stroke-width="1" opacity="0.4588235294117647" d="M 176.5 63 L 178 63.5 L 174.5 65 L 174.5 64 L 176.5 63 Z " /><path fill="rgb(23,108,242)" stroke="rgb(23,108,242)" stroke-width="1" opacity="0.4588235294117647" d="M 322.5 63 L 326 64.5 L 324.5 65 L 322.5 63 Z " /><path fill="rgb(23,108,242)" stroke="rgb(23,108,242)" stroke-width="1" opacity="0.4588235294117647" d="M 171.5 65 L 173 65.5 L 167.5 68 L 167.5 67 L 171.5 65 Z " /><path fill="rgb(23,108,242)" stroke="rgb(23,108,242)" stroke-width="1" opacity="0.4588235294117647" d="M 327.5 65 L 335 68.5 L 333.5 69 L 327.5 66 L 327.5 65 Z " /><path fill="rgb(23,108,242)" stroke="rgb(23,108,242)" stroke-width="1" opacity="0.4588235294117647" d="M 155.5 73 L 154.5 75 L 148.5 78 L 149.5 76 L 155.5 73 Z " /><path fill="rgb(23,108,242)" stroke="rgb(23,108,242)" stroke-width="1" opacity="0.4588235294117647" d="M 344.5 73 L 350 76.5 L 348.5 76 Q 344.5 75.5 344.5 73 Z " /><path fill="rgb(23,108,242)" stroke="rgb(23,108,242)" stroke-width="1" opacity="0.4588235294117647" d="M 351.5 77 L 355 79.5 L 353.5 79 L 351.5 77 Z " /><path fill="rgb(23,108,242)" stroke="rgb(23,108,242)" stroke-width="1" opacity="0.4588235294117647" d="M 146.5 78 L 145.5 80 L 125.5 94 L 128.5 90 L 146.5 78 Z " /><path fill="rgb(23,108,242)" stroke="rgb(23,108,242)" stroke-width="1" opacity="0.4588235294117647" d="M 356.5 80 L 367 87.5 L 364.5 86 L 357.5 82 L 356.5 80 Z " /><path fill="rgb(23,108,242)" stroke="rgb(23,108,242)" stroke-width="1" opacity="0.4588235294117647" d="M 368.5 88 L 376 94.5 L 372.5 92 L 368.5 88 Z " /><path fill="rgb(23,108,242)" stroke="rgb(23,108,242)" stroke-width="1" opacity="0.4588235294117647" d="M 123.5 94 L 118.5 100 L 99 118.5 L 85.5 136 L 87 133.5 Q 99.8 113.8 117.5 99 L 123.5 94 Z " /><path fill="rgb(23,108,242)" stroke="rgb(23,108,242)" stroke-width="1" opacity="0.4588235294117647" d="M 377.5 95 L 400 116.5 L 409 127.5 L 404 123.5 Q 395.1 109.9 382.5 100 L 377.5 95 Z " /><path fill="rgb(23,108,242)" stroke="rgb(23,108,242)" stroke-width="1" opacity="0.4588235294117647" d="M 281.5 124 L 290 124.5 L 281.5 125 L 281.5 124 Z " /><path fill="rgb(23,108,242)" stroke="rgb(23,108,242)" stroke-width="1" opacity="0.4588235294117647" d="M 306.5 124 L 314 124.5 L 306.5 125 L 306.5 124 Z " /><path fill="rgb(23,108,242)" stroke="rgb(23,108,242)" stroke-width="1" opacity="0.4588235294117647" d="M 274.5 125 L 278 125.5 L 274.5 126 L 274.5 125 Z " /><path fill="rgb(23,108,242)" stroke="rgb(23,108,242)" stroke-width="1" opacity="0.4588235294117647" d="M 318.5 125 L 325 125.5 L 318.5 126 L 318.5 125 Z " /><path fill="rgb(23,108,242)" stroke="rgb(23,108,242)" stroke-width="1" opacity="0.4588235294117647" d="M 268.5 126 L 271 126.5 L 268.5 127 L 268.5 126 Z " /><path fill="rgb(23,108,242)" stroke="rgb(23,108,242)" stroke-width="1" opacity="0.4588235294117647" d="M 328.5 126 L 332 126.5 L 328.5 127 L 328.5 126 Z " /><path fill="rgb(23,108,242)" stroke="rgb(23,108,242)" stroke-width="1" opacity="0.4588235294117647" d="M 263.5 127 L 266 127.5 L 263.5 128 L 263.5 127 Z " /><path fill="rgb(23,108,242)" stroke="rgb(23,108,242)" stroke-width="1" opacity="0.4588235294117647" d="M 334.5 127 L 338 127.5 L 334.5 128 L 334.5 127 Z " /><path fill="rgb(23,108,242)" stroke="rgb(23,108,242)" stroke-width="1" opacity="0.4588235294117647" d="M 259.5 128 L 262 128.5 L 251.5 132 L 251.5 131 L 259.5 128 Z " /><path fill="rgb(23,108,242)" stroke="rgb(23,108,242)" stroke-width="1" opacity="0.4588235294117647" d="M 339.5 128 L 343 129.5 L 342.5 131 L 342 129 Q 338.7 129.8 339.5 128 Z " /><path fill="rgb(23,108,242)" stroke="rgb(23,108,242)" stroke-width="1" opacity="0.4588235294117647" d="M 409.5 129 L 414 134.5 L 411 132.5 L 409.5 129 Z " /><path fill="rgb(23,108,242)" stroke="rgb(23,108,242)" stroke-width="1" opacity="0.4588235294117647" d="M 248.5 132 L 250 132.5 L 236.5 140 L 238.5 137 L 248.5 132 Z " /><path fill="rgb(23,108,242)" stroke="rgb(23,108,242)" stroke-width="1" opacity="0.4588235294117647" d="M 414.5 136 L 415.5 138 L 414.5 136 Z " /><path fill="rgb(23,108,242)" stroke="rgb(23,108,242)" stroke-width="1" opacity="0.4588235294117647" d="M 84.5 137 L 83 139.5 L 81.5 142 L 82 140.5 L 84.5 137 Z " /><path fill="rgb(23,108,242)" stroke="rgb(23,108,242)" stroke-width="1" opacity="0.4588235294117647" d="M 342.5 137 L 343 169.5 L 342 169.5 L 342.5 137 Z " /><path fill="rgb(23,108,242)" stroke="rgb(23,108,242)" stroke-width="1" opacity="0.4588235294117647" d="M 416.5 139 L 420 143.5 L 418 142.5 L 416.5 139 Z " /><path fill="rgb(23,108,242)" stroke="rgb(23,108,242)" stroke-width="1" opacity="0.4588235294117647" d="M 234.5 140 L 233.5 142 L 234.5 140 Z " /><path fill="rgb(23,108,242)" stroke="rgb(23,108,242)" stroke-width="1" opacity="0.4588235294117647" d="M 231.5 142 L 220.5 154 L 231.5 142 Z " /><path fill="rgb(23,108,242)" stroke="rgb(23,108,242)" stroke-width="1" opacity="0.4588235294117647" d="M 80.5 143 L 79.5 145 L 80.5 143 Z " /><path fill="rgb(23,108,242)" stroke="rgb(23,108,242)" stroke-width="1" opacity="0.4588235294117647" d="M 420.5 145 L 423 148.5 L 421 147.5 L 420.5 145 Z " /><path fill="rgb(23,108,242)" stroke="rgb(23,108,242)" stroke-width="1" opacity="0.4588235294117647" d="M 78.5 146 L 78 147.5 L 75.5 152 L 76 150.5 L 78.5 146 Z " /><path fill="rgb(23,108,242)" stroke="rgb(23,108,242)" stroke-width="1" opacity="0.4588235294117647" d="M 423.5 150 L 434 170.5 L 433 170.5 L 423.5 150 Z " /><path fill="rgb(23,108,242)" stroke="rgb(23,108,242)" stroke-width="1" opacity="0.4588235294117647" d="M 73.5 155 L 73 156.5 L 68.5 166 L 68 164.5 L 73.5 155 Z " /><path fill="rgb(23,108,242)" stroke="rgb(23,108,242)" stroke-width="1" opacity="0.4588235294117647" d="M 219.5 155 L 218 157.5 L 216.5 160 L 217 158.5 L 219.5 155 Z " /><path fill="rgb(23,108,242)" stroke="rgb(23,108,242)" stroke-width="1" opacity="0.4588235294117647" d="M 215.5 161 L 215 162.5 L 212.5 167 L 213 165.5 L 215.5 161 Z " /><path fill="rgb(23,108,242)" stroke="rgb(23,108,242)" stroke-width="1" opacity="0.4588235294117647" d="M 211.5 168 L 212 169.5 L 210.5 172 L 210 170.5 L 211.5 168 Z " /><path fill="rgb(23,108,242)" stroke="rgb(23,108,242)" stroke-width="1" opacity="0.4588235294117647" d="M 65.5 171 L 66 172.5 L 64.5 175 L 64 173.5 L 65.5 171 Z " /><path fill="rgb(23,108,242)" stroke="rgb(23,108,242)" stroke-width="1" opacity="0.4588235294117647" d="M 434.5 172 L 436 175.5 L 435 175.5 L 434.5 172 Z " /><path fill="rgb(23,108,242)" stroke="rgb(23,108,242)" stroke-width="1" opacity="0.4588235294117647" d="M 209.5 173 L 210 174.5 L 208.5 177 L 208 175.5 L 209.5 173 Z " /><path fill="rgb(23,108,242)" stroke="rgb(23,108,242)" stroke-width="1" opacity="0.4588235294117647" d="M 63.5 176 L 64 177.5 L 62.5 180 L 62 178.5 L 63.5 176 Z " /><path fill="rgb(23,108,242)" stroke="rgb(23,108,242)" stroke-width="1" opacity="0.4588235294117647" d="M 342.5 176 L 343 181.5 L 342 181.5 L 342.5 176 Z " /><path fill="rgb(23,108,242)" stroke="rgb(23,108,242)" stroke-width="1" opacity="0.4588235294117647" d="M 436.5 177 L 438 180.5 L 437 180.5 L 436.5 177 Z " /><path fill="rgb(23,108,242)" stroke="rgb(23,108,242)" stroke-width="1" opacity="0.4588235294117647" d="M 206.5 181 L 207 183.5 L 206 183.5 L 206.5 181 Z " /><path fill="rgb(23,108,242)" stroke="rgb(23,108,242)" stroke-width="1" opacity="0.4588235294117647" d="M 316.5 183 L 333 183.5 L 316.5 184 L 316.5 183 Z " /><path fill="rgb(23,108,242)" stroke="rgb(23,108,242)" stroke-width="1" opacity="0.4588235294117647" d="M 342.5 183 L 343 185 L 339 184.5 L 342.5 183 Z " /><path fill="rgb(23,108,242)" stroke="rgb(23,108,242)" stroke-width="1" opacity="0.4588235294117647" d="M 304.5 184 L 310 184.5 L 304.5 185 L 304.5 184 Z " /><path fill="rgb(23,108,242)" stroke="rgb(23,108,242)" stroke-width="1" opacity="0.4588235294117647" d="M 205.5 185 L 206 187.5 L 205 187.5 L 205.5 185 Z " /><path fill="rgb(23,108,242)" stroke="rgb(23,108,242)" stroke-width="1" opacity="0.4588235294117647" d="M 300.5 185 L 303 185.5 L 300.5 186 L 300.5 185 Z " /><path fill="rgb(23,108,242)" stroke="rgb(23,108,242)" stroke-width="1" opacity="0.4588235294117647" d="M 292.5 188 L 291.5 190 Q 284.2 191.8 281.5 198 L 288.5 190 L 292.5 188 Z " /><path fill="rgb(23,108,242)" stroke="rgb(23,108,242)" stroke-width="1" opacity="0.4588235294117647" d="M 204.5 189 L 205 192.5 L 204 192.5 L 204.5 189 Z " /><path fill="rgb(23,108,242)" stroke="rgb(23,108,242)" stroke-width="1" opacity="0.4588235294117647" d="M 441.5 191 L 442 193.5 L 441 193.5 L 441.5 191 Z " /><path fill="rgb(23,108,242)" stroke="rgb(23,108,242)" stroke-width="1" opacity="0.4588235294117647" d="M 57.5 193 L 58 195.5 L 57 195.5 L 57.5 193 Z " /><path fill="rgb(23,108,242)" stroke="rgb(23,108,242)" stroke-width="1" opacity="0.4588235294117647" d="M 203.5 194 L 204 198.5 L 203 198.5 L 203.5 194 Z " /><path fill="rgb(23,108,242)" stroke="rgb(23,108,242)" stroke-width="1" opacity="0.4588235294117647" d="M 443.5 198 L 444 200.5 L 443 200.5 L 443.5 198 Z " /><path fill="rgb(23,108,242)" stroke="rgb(23,108,242)" stroke-width="1" opacity="0.4588235294117647" d="M 280.5 199 L 280 200.5 L 277.5 206 L 277 204.5 L 280.5 199 Z " /><path fill="rgb(23,108,242)" stroke="rgb(23,108,242)" stroke-width="1" opacity="0.4588235294117647" d="M 55.5 200 L 56 202.5 L 55 202.5 L 55.5 200 Z " /><path fill="rgb(23,108,242)" stroke="rgb(23,108,242)" stroke-width="1" opacity="0.4588235294117647" d="M 202.5 201 L 203 207.5 L 202 207.5 L 202.5 201 Z " /><path fill="rgb(23,108,242)" stroke="rgb(23,108,242)" stroke-width="1" opacity="0.4588235294117647" d="M 444.5 202 L 445 204.5 L 444 204.5 L 444.5 202 Z " /><path fill="rgb(23,108,242)" stroke="rgb(23,108,242)" stroke-width="1" opacity="0.4588235294117647" d="M 54.5 204 L 55 207.5 L 54 207.5 L 54.5 204 Z " /><path fill="rgb(23,108,242)" stroke="rgb(23,108,242)" stroke-width="1" opacity="0.4588235294117647" d="M 445.5 206 L 446 209.5 L 445 209.5 L 445.5 206 Z " /><path fill="rgb(23,108,242)" stroke="rgb(23,108,242)" stroke-width="1" opacity="0.4588235294117647" d="M 276.5 207 L 277 209.5 L 276 209.5 L 276.5 207 Z " /><path fill="rgb(23,108,242)" stroke="rgb(23,108,242)" stroke-width="1" opacity="0.4588235294117647" d="M 53.5 209 L 54 212.5 L 53 212.5 L 53.5 209 Z " /><path fill="rgb(23,108,242)" stroke="rgb(23,108,242)" stroke-width="1" opacity="0.4588235294117647" d="M 275.5 211 L 276 214.5 L 275 214.5 L 275.5 211 Z " /><path fill="rgb(23,108,242)" stroke="rgb(23,108,242)" stroke-width="1" opacity="0.4588235294117647" d="M 446.5 211 L 447 214.5 L 446 214.5 L 446.5 211 Z " /><path fill="rgb(23,108,242)" stroke="rgb(23,108,242)" stroke-width="1" opacity="0.4588235294117647" d="M 201.5 212 L 202 249.5 L 201 249.5 L 201.5 212 Z " /><path fill="rgb(23,108,242)" stroke="rgb(23,108,242)" stroke-width="1" opacity="0.4588235294117647" d="M 52.5 214 L 53 217.5 L 52 217.5 L 52.5 214 Z " /><path fill="rgb(23,108,242)" stroke="rgb(23,108,242)" stroke-width="1" opacity="0.4588235294117647" d="M 274.5 217 L 275 249.5 L 274 249.5 L 274.5 217 Z " /><path fill="rgb(23,108,242)" stroke="rgb(23,108,242)" stroke-width="1" opacity="0.4588235294117647" d="M 447.5 217 L 448 220.5 L 447 220.5 L 447.5 217 Z " /><path fill="rgb(23,108,242)" stroke="rgb(23,108,242)" stroke-width="1" opacity="0.4588235294117647" d="M 51.5 220 L 52 224.5 L 51 224.5 L 51.5 220 Z " /><path fill="rgb(23,108,242)" stroke="rgb(23,108,242)" stroke-width="1" opacity="0.4588235294117647" d="M 448.5 224 L 449 229.5 L 448 229.5 L 448.5 224 Z " /><path fill="rgb(23,108,242)" stroke="rgb(23,108,242)" stroke-width="1" opacity="0.4588235294117647" d="M 50.5 228 L 51 235.5 L 50 235.5 L 50.5 228 Z " /><path fill="rgb(23,108,242)" stroke="rgb(23,108,242)" stroke-width="1" opacity="0.4588235294117647" d="M 449.5 233 L 450 240.5 L 449 240.5 L 449.5 233 Z " /><path fill="rgb(23,108,242)" stroke="rgb(23,108,242)" stroke-width="1" opacity="0.4588235294117647" d="M 160.5 250 L 161 311 L 201.5 311 L 202 311.5 L 202 444.5 L 201 444.5 L 201 312.5 L 200.5 312 L 161.5 312 L 160 310.5 L 160.5 250 Z " /><path fill="rgb(23,108,242)" stroke="rgb(23,108,242)" stroke-width="1" opacity="0.4588235294117647" d="M 338.5 254 L 339 257.5 L 338 257.5 L 338.5 254 Z " /><path fill="rgb(23,108,242)" stroke="rgb(23,108,242)" stroke-width="1" opacity="0.4588235294117647" d="M 337.5 259 L 338 262.5 L 337 262.5 L 337.5 259 Z " /><path fill="rgb(23,108,242)" stroke="rgb(23,108,242)" stroke-width="1" opacity="0.4588235294117647" d="M 50.5 261 L 51 269.5 L 50 269.5 L 50.5 261 Z " /><path fill="rgb(23,108,242)" stroke="rgb(23,108,242)" stroke-width="1" opacity="0.4588235294117647" d="M 449.5 262 L 450 269.5 L 449 269.5 L 449.5 262 Z " /><path fill="rgb(23,108,242)" stroke="rgb(23,108,242)" stroke-width="1" opacity="0.4588235294117647" d="M 336.5 265 L 337 268.5 L 336 268.5 L 336.5 265 Z " /><path fill="rgb(23,108,242)" stroke="rgb(23,108,242)" stroke-width="1" opacity="0.4588235294117647" d="M 335.5 270 L 336 273.5 L 335 273.5 L 335.5 270 Z " /><path fill="rgb(23,108,242)" stroke="rgb(23,108,242)" stroke-width="1" opacity="0.4588235294117647" d="M 51.5 273 L 52 277.5 L 51 277.5 L 51.5 273 Z " /><path fill="rgb(23,108,242)" stroke="rgb(23,108,242)" stroke-width="1" opacity="0.4588235294117647" d="M 448.5 273 L 449 277.5 L 448 277.5 L 448.5 273 Z " /><path fill="rgb(23,108,242)" stroke="rgb(23,108,242)" stroke-width="1" opacity="0.4588235294117647" d="M 334.5 276 L 335 279.5 L 334 279.5 L 334.5 276 Z " /><path fill="rgb(23,108,242)" stroke="rgb(23,108,242)" stroke-width="1" opacity="0.4588235294117647" d="M 52.5 281 L 53 284.5 L 52 284.5 L 52.5 281 Z " /><path fill="rgb(23,108,242)" stroke="rgb(23,108,242)" stroke-width="1" opacity="0.4588235294117647" d="M 333.5 281 L 334 284.5 L 333 284.5 L 333.5 281 Z " /><path fill="rgb(23,108,242)" stroke="rgb(23,108,242)" stroke-width="1" opacity="0.4588235294117647" d="M 447.5 281 L 448 284.5 L 447 284.5 L 447.5 281 Z " /><path fill="rgb(23,108,242)" stroke="rgb(23,108,242)" stroke-width="1" opacity="0.4588235294117647" d="M 446.5 286 L 447 289.5 L 446 289.5 L 446.5 286 Z " /><path fill="rgb(23,108,242)" stroke="rgb(23,108,242)" stroke-width="1" opacity="0.4588235294117647" d="M 53.5 287 L 54 289.5 L 53 289.5 L 53.5 287 Z " /><path fill="rgb(23,108,242)" stroke="rgb(23,108,242)" stroke-width="1" opacity="0.4588235294117647" d="M 332.5 287 L 333 290.5 L 332 290.5 L 332.5 287 Z " /><path fill="rgb(23,108,242)" stroke="rgb(23,108,242)" stroke-width="1" opacity="0.4588235294117647" d="M 54.5 292 L 55 294.5 L 54 294.5 L 54.5 292 Z " /><path fill="rgb(23,108,242)" stroke="rgb(23,108,242)" stroke-width="1" opacity="0.4588235294117647" d="M 331.5 292 L 332 295.5 L 331 295.5 L 331.5 292 Z " /><path fill="rgb(23,108,242)" stroke="rgb(23,108,242)" stroke-width="1" opacity="0.4588235294117647" d="M 445.5 292 L 446 294.5 L 445 294.5 L 445.5 292 Z " /><path fill="rgb(23,108,242)" stroke="rgb(23,108,242)" stroke-width="1" opacity="0.4588235294117647" d="M 55.5 296 L 56 298.5 L 55 298.5 L 55.5 296 Z " /><path fill="rgb(23,108,242)" stroke="rgb(23,108,242)" stroke-width="1" opacity="0.4588235294117647" d="M 444.5 296 L 445 298.5 L 444 298.5 L 444.5 296 Z " /><path fill="rgb(23,108,242)" stroke="rgb(23,108,242)" stroke-width="1" opacity="0.4588235294117647" d="M 330.5 298 L 331 301.5 L 330 301.5 L 330.5 298 Z " /><path fill="rgb(23,108,242)" stroke="rgb(23,108,242)" stroke-width="1" opacity="0.4588235294117647" d="M 56.5 300 L 57 302.5 L 56 302.5 L 56.5 300 Z " /><path fill="rgb(23,108,242)" stroke="rgb(23,108,242)" stroke-width="1" opacity="0.4588235294117647" d="M 443.5 300 L 444 302.5 L 443 302.5 L 443.5 300 Z " /><path fill="rgb(23,108,242)" stroke="rgb(23,108,242)" stroke-width="1" opacity="0.4588235294117647" d="M 329.5 303 L 330 306.5 L 329 306.5 L 329.5 303 Z " /><path fill="rgb(23,108,242)" stroke="rgb(23,108,242)" stroke-width="1" opacity="0.4588235294117647" d="M 57.5 304 L 59 309.5 L 58 309.5 L 57.5 304 Z " /><path fill="rgb(23,108,242)" stroke="rgb(23,108,242)" stroke-width="1" opacity="0.4588235294117647" d="M 441.5 307 L 442 309.5 L 437.5 321 L 437 319.5 L 441.5 307 Z " /><path fill="rgb(23,108,242)" stroke="rgb(23,108,242)" stroke-width="1" opacity="0.4588235294117647" d="M 328.5 309 L 329 310.5 L 327.5 312 L 275 312 L 275 447.5 L 277.5 448 L 277.5 449 L 274 448.5 L 274 311 L 327.5 311 L 328.5 309 Z " /><path fill="rgb(23,108,242)" stroke="rgb(23,108,242)" stroke-width="1" opacity="0.4588235294117647" d="M 61.5 317 L 63 320.5 L 62 320.5 L 61.5 317 Z " /><path fill="rgb(23,108,242)" stroke="rgb(23,108,242)" stroke-width="1" opacity="0.4588235294117647" d="M 64.5 325 L 67 330.5 L 66 330.5 L 64.5 325 Z " /><path fill="rgb(23,108,242)" stroke="rgb(23,108,242)" stroke-width="1" opacity="0.4588235294117647" d="M 435.5 325 L 436 326.5 L 432.5 333 L 432 331.5 L 435.5 325 Z " /><path fill="rgb(23,108,242)" stroke="rgb(23,108,242)" stroke-width="1" opacity="0.4588235294117647" d="M 68.5 334 L 75 346.5 L 73 345.5 L 68 335.5 L 68.5 334 Z " /><path fill="rgb(23,108,242)" stroke="rgb(23,108,242)" stroke-width="1" opacity="0.4588235294117647" d="M 430.5 336 L 431 337.5 L 429 338.5 L 430.5 336 Z " /><path fill="rgb(23,108,242)" stroke="rgb(23,108,242)" stroke-width="1" opacity="0.4588235294117647" d="M 427.5 342 L 428 343.5 L 426 344.5 L 427.5 342 Z " /><path fill="rgb(23,108,242)" stroke="rgb(23,108,242)" stroke-width="1" opacity="0.4588235294117647" d="M 425.5 346 L 425 347.5 L 422.5 352 L 423 350.5 L 425.5 346 Z " /><path fill="rgb(23,108,242)" stroke="rgb(23,108,242)" stroke-width="1" opacity="0.4588235294117647" d="M 75.5 348 L 78 351.5 L 76 350.5 L 75.5 348 Z " /><path fill="rgb(23,108,242)" stroke="rgb(23,108,242)" stroke-width="1" opacity="0.4588235294117647" d="M 78.5 353 L 81 356.5 L 79 355.5 L 78.5 353 Z " /><path fill="rgb(23,108,242)" stroke="rgb(23,108,242)" stroke-width="1" opacity="0.4588235294117647" d="M 421.5 353 L 421 354.5 L 412.5 367 L 414 364.5 L 421.5 353 Z " /><path fill="rgb(23,108,242)" stroke="rgb(23,108,242)" stroke-width="1" opacity="0.4588235294117647" d="M 81.5 358 L 87 365.5 L 84 363.5 L 81.5 358 Z " /><path fill="rgb(23,108,242)" stroke="rgb(23,108,242)" stroke-width="1" opacity="0.4588235294117647" d="M 87.5 367 L 93 373.5 L 89 370.5 L 87.5 367 Z " /><path fill="rgb(23,108,242)" stroke="rgb(23,108,242)" stroke-width="1" opacity="0.4588235294117647" d="M 411.5 368 L 410 370.5 Q 398.3 387.8 382.5 401 L 353.5 422 L 354.5 420 Q 380.7 404.7 400 382.5 L 411.5 368 Z " /><path fill="rgb(23,108,242)" stroke="rgb(23,108,242)" stroke-width="1" opacity="0.4588235294117647" d="M 93.5 375 L 97.5 380 L 93.5 375 Z " /><path fill="rgb(23,108,242)" stroke="rgb(23,108,242)" stroke-width="1" opacity="0.4588235294117647" d="M 98.5 381 Q 118.5 404 145 420.5 L 143.5 420 Q 116.5 404 98.5 381 Z " /><path fill="rgb(23,108,242)" stroke="rgb(23,108,242)" stroke-width="1" opacity="0.4588235294117647" d="M 146.5 421 L 152 424.5 L 150.5 424 Q 146.5 423.5 146.5 421 Z " /><path fill="rgb(23,108,242)" stroke="rgb(23,108,242)" stroke-width="1" opacity="0.4588235294117647" d="M 351.5 422 L 350.5 424 L 346.5 426 L 347.5 424 L 351.5 422 Z " /><path fill="rgb(23,108,242)" stroke="rgb(23,108,242)" stroke-width="1" opacity="0.4588235294117647" d="M 155.5 426 L 168 432.5 L 166.5 433 L 156.5 428 L 155.5 426 Z " /><path fill="rgb(23,108,242)" stroke="rgb(23,108,242)" stroke-width="1" opacity="0.4588235294117647" d="M 342.5 427 L 341.5 429 L 340 428.5 L 342.5 427 Z " /><path fill="rgb(23,108,242)" stroke="rgb(23,108,242)" stroke-width="1" opacity="0.4588235294117647" d="M 333.5 431 L 335 431.5 L 322.5 437 L 322.5 436 L 333.5 431 Z " /><path fill="rgb(23,108,242)" stroke="rgb(23,108,242)" stroke-width="1" opacity="0.4588235294117647" d="M 171.5 434 L 178 436.5 L 176.5 437 L 171.5 435 L 171.5 434 Z " /><path fill="rgb(23,108,242)" stroke="rgb(23,108,242)" stroke-width="1" opacity="0.4588235294117647" d="M 179.5 437 L 183 438.5 L 181.5 439 L 179.5 437 Z " /><path fill="rgb(23,108,242)" stroke="rgb(23,108,242)" stroke-width="1" opacity="0.4588235294117647" d="M 319.5 437 L 321 437.5 L 317.5 439 L 317.5 438 L 319.5 437 Z " /><path fill="rgb(23,108,242)" stroke="rgb(23,108,242)" stroke-width="1" opacity="0.4588235294117647" d="M 313.5 439 L 316 439.5 L 307.5 442 L 307.5 441 L 313.5 439 Z " /><path fill="rgb(23,108,242)" stroke="rgb(23,108,242)" stroke-width="1" opacity="0.4588235294117647" d="M 193.5 442 L 196 442.5 L 193.5 443 L 193.5 442 Z " /><path fill="rgb(23,108,242)" stroke="rgb(23,108,242)" stroke-width="1" opacity="0.4588235294117647" d="M 197.5 443 L 200 443.5 L 197.5 444 L 197.5 443 Z " /><path fill="rgb(23,108,242)" stroke="rgb(23,108,242)" stroke-width="1" opacity="0.4588235294117647" d="M 300.5 443 L 303 443.5 L 300.5 444 L 300.5 443 Z " /><path fill="rgb(23,108,242)" stroke="rgb(23,108,242)" stroke-width="1" opacity="0.4588235294117647" d="M 296.5 444 L 299 444.5 L 296.5 445 L 296.5 444 Z " /><path fill="rgb(23,108,242)" stroke="rgb(23,108,242)" stroke-width="1" opacity="0.4588235294117647" d="M 291.5 445 L 294 445.5 L 291.5 446 L 291.5 445 Z " /><path fill="rgb(23,108,242)" stroke="rgb(23,108,242)" stroke-width="1" opacity="0.4588235294117647" d="M 286.5 446 L 290 446.5 L 286.5 447 L 286.5 446 Z " /><path fill="rgb(23,108,242)" stroke="rgb(23,108,242)" stroke-width="1" opacity="0.4588235294117647" d="M 280.5 447 L 284 447.5 L 280.5 448 L 280.5 447 Z " /><path fill="rgb(8,102,255)" stroke="rgb(8,102,255)" stroke-width="1" opacity="0.996078431372549" d="M 239.5 50 L 246 50.5 L 239.5 51 L 239.5 50 Z " /><path fill="rgb(8,102,255)" stroke="rgb(8,102,255)" stroke-width="1" opacity="0.996078431372549" d="M 254.5 50 L 261 50.5 L 254.5 51 L 254.5 50 Z " /><path fill="rgb(8,102,255)" stroke="rgb(8,102,255)" stroke-width="1" opacity="0.996078431372549" d="M 367.5 88 L 368.5 90 L 367.5 88 Z " /><path fill="rgb(8,102,255)" stroke="rgb(8,102,255)" stroke-width="1" opacity="0.996078431372549" d="M 124.5 94 L 122.5 97 L 124.5 94 Z " /><path fill="rgb(8,102,255)" stroke="rgb(8,102,255)" stroke-width="1" opacity="0.996078431372549" d="M 376.5 95 L 377.5 97 L 376.5 95 Z " /><path fill="rgb(8,102,255)" stroke="rgb(8,102,255)" stroke-width="1" opacity="0.996078431372549" d="M 117.5 100 L 115.5 103 L 117.5 100 Z " /><path fill="rgb(8,102,255)" stroke="rgb(8,102,255)" stroke-width="1" opacity="0.996078431372549" d="M 382.5 100 L 387.5 106 L 382.5 100 Z " /><path fill="rgb(8,102,255)" stroke="rgb(8,102,255)" stroke-width="1" opacity="0.996078431372549" d="M 394.5 112 L 398.5 117 L 394.5 112 Z " /><path fill="rgb(8,102,255)" stroke="rgb(8,102,255)" stroke-width="1" opacity="0.996078431372549" d="M 101.5 116 L 99.5 119 L 101.5 116 Z " /><path fill="rgb(8,102,255)" stroke="rgb(8,102,255)" stroke-width="1" opacity="0.996078431372549" d="M 402.5 121 L 403.5 123 L 402.5 121 Z " /><path fill="rgb(8,102,255)" stroke="rgb(8,102,255)" stroke-width="1" opacity="0.996078431372549" d="M 95.5 123 L 94.5 125 L 95.5 123 Z " /><path fill="rgb(8,102,255)" stroke="rgb(8,102,255)" stroke-width="1" opacity="0.996078431372549" d="M 407.5 127 L 408.5 129 L 407.5 127 Z " /><path fill="rgb(8,102,255)" stroke="rgb(8,102,255)" stroke-width="1" opacity="0.996078431372549" d="M 91.5 128 L 90.5 130 L 91.5 128 Z " /><path fill="rgb(8,102,255)" stroke="rgb(8,102,255)" stroke-width="1" opacity="0.996078431372549" d="M 228.5 144 L 223.5 150 L 228.5 144 Z " /><path fill="rgb(8,102,255)" stroke="rgb(8,102,255)" stroke-width="1" opacity="0.996078431372549" d="M 310.5 184 L 313 184.5 L 310.5 185 L 310.5 184 Z " /><path fill="rgb(8,102,255)" stroke="rgb(8,102,255)" stroke-width="1" opacity="0.996078431372549" d="M 336.5 184 L 339 184.5 L 336.5 185 L 336.5 184 Z " /><path fill="rgb(8,102,255)" stroke="rgb(8,102,255)" stroke-width="1" opacity="0.996078431372549" d="M 50.5 236 L 51 238.5 L 50 238.5 L 50.5 236 Z " /><path fill="rgb(8,102,255)" stroke="rgb(8,102,255)" stroke-width="1" opacity="0.996078431372549" d="M 449.5 241 L 450 243.5 L 449 243.5 L 449.5 241 Z " /><path fill="rgb(8,102,255)" stroke="rgb(8,102,255)" stroke-width="1" opacity="0.996078431372549" d="M 50.5 253 L 51 260.5 L 50 260.5 L 50.5 253 Z " /><path fill="rgb(8,102,255)" stroke="rgb(8,102,255)" stroke-width="1" opacity="0.996078431372549" d="M 449.5 257 L 450 261.5 L 449 261.5 L 449.5 257 Z " /><path fill="rgb(8,102,255)" stroke="rgb(8,102,255)" stroke-width="1" opacity="0.996078431372549" d="M 90.5 370 L 91.5 372 L 90.5 370 Z " /><path fill="rgb(8,102,255)" stroke="rgb(8,102,255)" stroke-width="1" opacity="0.996078431372549" d="M 93.5 374 L 95.5 377 L 93.5 374 Z " /><path fill="rgb(8,102,255)" stroke="rgb(8,102,255)" stroke-width="1" opacity="0.996078431372549" d="M 405.5 375 L 403.5 378 L 405.5 375 Z " /><path fill="rgb(8,102,255)" stroke="rgb(8,102,255)" stroke-width="1" opacity="0.996078431372549" d="M 98.5 380 L 101.5 384 L 98.5 380 Z " /><path fill="rgb(8,102,255)" stroke="rgb(8,102,255)" stroke-width="1" opacity="0.996078431372549" d="M 399.5 382 L 395.5 387 L 399.5 382 Z " /><path fill="rgb(8,102,255)" stroke="rgb(8,102,255)" stroke-width="1" opacity="0.996078431372549" d="M 385.5 396 L 382.5 400 L 385.5 396 Z " /><path fill="rgb(8,102,255)" stroke="rgb(8,102,255)" stroke-width="1" opacity="0.996078431372549" d="M 116.5 398 L 118.5 401 L 116.5 398 Z " /><path fill="rgb(8,102,255)" stroke="rgb(8,102,255)" stroke-width="1" opacity="0.996078431372549" d="M 377.5 403 L 376.5 405 L 377.5 403 Z " /><path fill="rgb(8,102,255)" stroke="rgb(8,102,255)" stroke-width="1" opacity="0.996078431372549" d="M 123.5 404 L 124.5 406 L 123.5 404 Z " /><path fill="rgb(8,102,255)" stroke="rgb(8,102,255)" stroke-width="1" opacity="0.996078431372549" d="M 372.5 407 L 371.5 409 L 372.5 407 Z " /><path fill="rgb(8,102,255)" stroke="rgb(8,102,255)" stroke-width="1" opacity="0.996078431372549" d="M 128.5 408 L 129.5 410 L 128.5 408 Z " /><path fill="rgb(8,102,255)" stroke="rgb(8,102,255)" stroke-width="1" opacity="1" d="M 246.5 50 L 270.5 51 L 271.5 52 L 284.5 53 L 299.5 56 L 328.5 66 Q 366.8 83.2 394 111.5 Q 421.5 139.5 437 179.5 L 442 194.5 L 447 216.5 L 448 231.5 L 449 232.5 L 449 243.5 L 450 244.5 L 450 256.5 L 449 257.5 L 449 270.5 L 448 271.5 L 446 290.5 L 442 306.5 L 434 328.5 Q 416.3 368.3 386.5 396 Q 361.8 419.3 328.5 434 L 302.5 443 L 275 448 L 275 312 L 328.5 312 L 329 308.5 L 340 250 L 275 250 L 275 215.5 L 280 200.5 L 287.5 192 L 296.5 187 L 303.5 185 L 335.5 184 L 336.5 185 L 343 185 L 343 128.5 L 339.5 128 L 338.5 127 L 332.5 127 L 325.5 125 L 316.5 125 L 315.5 124 L 280.5 124 L 279.5 125 L 267.5 126 L 250.5 131 Q 234.1 137.6 223 149.5 Q 209 165 204 189.5 L 202 200.5 L 202 209.5 L 201 210.5 L 201 250 L 160 250 L 160 312 L 200.5 312 L 201 312.5 L 201 443.5 L 199.5 443 L 181.5 438 L 149.5 423 Q 122.5 407 102 384.5 Q 76.5 357 62 318.5 L 58 306.5 L 52 278.5 L 50 239.5 L 51 238.5 L 52 220.5 L 57 196.5 L 69 164.5 Q 86.5 128.5 114.5 103 Q 138.9 80.4 171.5 66 L 190.5 59 L 209.5 54 L 228.5 52 L 229.5 51 L 245.5 51 L 246.5 50 Z " /></svg>