<svg width="500" height="500" version="1.1" xmlns="http://www.w3.org/2000/svg" desc="Created with imagetracer.js version 1.2.6" ><path fill="rgb(0,0,0)" stroke="rgb(0,0,0)" stroke-width="1" opacity="0" d="M 0 0 L 500 0 L 500 500 L 0 500 L 0 0 Z M 236 50 L 235 51 L 226 51 L 225 52 L 208 54 L 173 65 Q 136 81 110 107 Q 84 132 68 166 L 56 199 L 50 233 L 50 265 L 51 266 L 52 282 L 57 305 L 63 323 Q 79 362 106 390 Q 130 415 164 431 L 196 443 L 218 448 L 235 449 L 236 450 L 265 450 L 266 449 L 275 449 L 276 448 L 293 446 L 317 439 Q 354 425 382 401 Q 407 378 425 348 Q 435 329 442 308 L 448 282 L 449 266 L 450 265 L 450 240 L 449 239 L 448 220 L 439 184 Q 425 146 401 119 Q 372 85 330 66 Q 311 57 288 53 L 276 52 L 275 51 L 266 51 L 265 50 L 236 50 Z " /><path fill="rgb(0,0,0)" stroke="rgb(0,0,0)" stroke-width="1" opacity="0" d="M 244.5 65 L 269.5 66 L 270.5 67 L 283.5 68 L 304.5 73 L 325.5 81 Q 365.4 99.6 392 131.5 Q 411.2 154.3 423 184.5 L 429 203.5 L 433 223.5 L 435 258.5 L 434 259.5 L 434 270.5 L 430 293.5 L 419 325.5 Q 403.2 359.7 377.5 384 Q 351 409.5 313.5 424 L 278.5 433 L 244.5 435 L 243.5 434 L 228.5 434 L 206.5 430 L 176.5 420 Q 138.2 402.8 112 373.5 Q 89.2 348.3 76 313.5 L 67 278.5 L 66 260.5 L 65 259.5 L 65 237.5 L 66 236.5 L 66 227.5 L 67 226.5 L 68 214.5 L 79 178.5 Q 96.1 139.6 125.5 113 Q 149.2 91.2 181.5 78 L 206.5 70 L 229.5 67 L 230.5 66 L 243.5 66 L 244.5 65 Z M 183 117 L 179 124 L 177 134 L 177 146 L 181 159 L 180 163 L 173 171 L 167 185 L 166 202 L 165 203 L 165 215 L 164 216 L 164 235 L 166 245 Q 170 257 177 266 Q 185 276 198 283 L 227 294 L 230 299 L 230 306 L 226 320 L 223 323 L 212 324 L 211 325 L 194 322 L 184 316 Q 174 309 169 298 Q 163 289 152 286 L 143 286 L 141 288 L 141 291 Q 152 299 159 312 L 170 332 Q 180 345 201 349 L 222 349 L 226 348 L 229 363 L 234 371 Q 241 380 255 383 L 273 382 L 284 376 Q 294 369 297 355 L 297 318 L 293 303 L 295 296 L 301 292 L 316 288 L 337 276 L 350 261 L 356 248 L 359 234 L 359 206 L 358 205 L 357 188 Q 353 171 343 162 L 343 157 L 346 147 L 346 133 L 343 121 L 341 117 L 334 118 L 320 127 L 314 134 Q 310 138 304 140 L 289 136 L 276 135 L 275 134 L 250 134 L 249 135 L 236 136 L 224 140 Q 216 141 213 137 L 211 135 L 199 123 L 190 118 L 183 117 Z " /><path fill="rgb(0,0,0)" stroke="rgb(0,0,0)" stroke-width="1" opacity="0.8" d="M 235.5 50 L 246 50.5 L 235.5 51 L 235.5 50 Z " /><path fill="rgb(0,0,0)" stroke="rgb(0,0,0)" stroke-width="1" opacity="0.8" d="M 254.5 50 L 265 50.5 L 254.5 51 L 254.5 50 Z " /><path fill="rgb(0,0,0)" stroke="rgb(0,0,0)" stroke-width="1" opacity="0.8" d="M 225.5 51 L 229 51.5 L 225.5 52 L 225.5 51 Z " /><path fill="rgb(0,0,0)" stroke="rgb(0,0,0)" stroke-width="1" opacity="0.8" d="M 271.5 51 L 275 51.5 L 271.5 52 L 271.5 51 Z " /><path fill="rgb(0,0,0)" stroke="rgb(0,0,0)" stroke-width="1" opacity="0.8" d="M 218.5 52 L 221 52.5 L 218.5 53 L 218.5 52 Z " /><path fill="rgb(0,0,0)" stroke="rgb(0,0,0)" stroke-width="1" opacity="0.8" d="M 279.5 52 L 282 52.5 L 279.5 53 L 279.5 52 Z " /><path fill="rgb(0,0,0)" stroke="rgb(0,0,0)" stroke-width="1" opacity="0.8" d="M 212.5 53 L 215 53.5 L 212.5 54 L 212.5 53 Z " /><path fill="rgb(0,0,0)" stroke="rgb(0,0,0)" stroke-width="1" opacity="0.8" d="M 285.5 53 L 288 53.5 L 285.5 54 L 285.5 53 Z " /><path fill="rgb(0,0,0)" stroke="rgb(0,0,0)" stroke-width="1" opacity="0.8" d="M 235.5 65 L 244 65.5 L 235.5 66 L 235.5 65 Z " /><path fill="rgb(0,0,0)" stroke="rgb(0,0,0)" stroke-width="1" opacity="0.8" d="M 256.5 65 L 264 65.5 L 256.5 66 L 256.5 65 Z " /><path fill="rgb(0,0,0)" stroke="rgb(0,0,0)" stroke-width="1" opacity="0.8" d="M 226.5 66 L 230 66.5 L 226.5 67 L 226.5 66 Z " /><path fill="rgb(0,0,0)" stroke="rgb(0,0,0)" stroke-width="1" opacity="0.8" d="M 270.5 66 L 274 66.5 L 270.5 67 L 270.5 66 Z " /><path fill="rgb(0,0,0)" stroke="rgb(0,0,0)" stroke-width="1" opacity="0.8" d="M 219.5 67 L 223 67.5 L 219.5 68 L 219.5 67 Z " /><path fill="rgb(0,0,0)" stroke="rgb(0,0,0)" stroke-width="1" opacity="0.8" d="M 277.5 67 L 281 67.5 L 277.5 68 L 277.5 67 Z " /><path fill="rgb(0,0,0)" stroke="rgb(0,0,0)" stroke-width="1" opacity="0.8" d="M 213.5 68 L 216 68.5 L 213.5 69 L 213.5 68 Z " /><path fill="rgb(0,0,0)" stroke="rgb(0,0,0)" stroke-width="1" opacity="0.8" d="M 284.5 68 L 287 68.5 L 284.5 69 L 284.5 68 Z " /><path fill="rgb(0,0,0)" stroke="rgb(0,0,0)" stroke-width="1" opacity="0.8" d="M 347.5 75 L 348.5 77 L 347.5 75 Z " /><path fill="rgb(0,0,0)" stroke="rgb(0,0,0)" stroke-width="1" opacity="0.8" d="M 150.5 76 L 149.5 78 L 150.5 76 Z " /><path fill="rgb(0,0,0)" stroke="rgb(0,0,0)" stroke-width="1" opacity="0.8" d="M 145.5 79 L 144.5 81 L 145.5 79 Z " /><path fill="rgb(0,0,0)" stroke="rgb(0,0,0)" stroke-width="1" opacity="0.8" d="M 354.5 79 L 355.5 81 L 354.5 79 Z " /><path fill="rgb(0,0,0)" stroke="rgb(0,0,0)" stroke-width="1" opacity="0.8" d="M 357.5 81 L 358.5 83 L 357.5 81 Z " /><path fill="rgb(0,0,0)" stroke="rgb(0,0,0)" stroke-width="1" opacity="0.8" d="M 360.5 83 L 361.5 85 L 360.5 83 Z " /><path fill="rgb(0,0,0)" stroke="rgb(0,0,0)" stroke-width="1" opacity="0.8" d="M 136.5 85 L 135.5 87 L 136.5 85 Z " /><path fill="rgb(0,0,0)" stroke="rgb(0,0,0)" stroke-width="1" opacity="0.8" d="M 363.5 85 L 364.5 87 L 363.5 85 Z " /><path fill="rgb(0,0,0)" stroke="rgb(0,0,0)" stroke-width="1" opacity="0.8" d="M 133.5 87 L 132.5 89 L 133.5 87 Z " /><path fill="rgb(0,0,0)" stroke="rgb(0,0,0)" stroke-width="1" opacity="0.8" d="M 366.5 87 L 367.5 89 L 366.5 87 Z " /><path fill="rgb(0,0,0)" stroke="rgb(0,0,0)" stroke-width="1" opacity="0.8" d="M 159.5 88 L 158.5 90 L 159.5 88 Z " /><path fill="rgb(0,0,0)" stroke="rgb(0,0,0)" stroke-width="1" opacity="0.8" d="M 340.5 88 L 341.5 90 L 340.5 88 Z " /><path fill="rgb(0,0,0)" stroke="rgb(0,0,0)" stroke-width="1" opacity="0.8" d="M 130.5 89 L 128.5 92 L 130.5 89 Z " /><path fill="rgb(0,0,0)" stroke="rgb(0,0,0)" stroke-width="1" opacity="0.8" d="M 370.5 90 L 372.5 93 L 370.5 90 Z " /><path fill="rgb(0,0,0)" stroke="rgb(0,0,0)" stroke-width="1" opacity="0.8" d="M 345.5 91 L 346.5 93 L 345.5 91 Z " /><path fill="rgb(0,0,0)" stroke="rgb(0,0,0)" stroke-width="1" opacity="0.8" d="M 125.5 93 L 123.5 96 L 125.5 93 Z " /><path fill="rgb(0,0,0)" stroke="rgb(0,0,0)" stroke-width="1" opacity="0.8" d="M 149.5 94 L 148.5 96 L 149.5 94 Z " /><path fill="rgb(0,0,0)" stroke="rgb(0,0,0)" stroke-width="1" opacity="0.8" d="M 375.5 94 L 377.5 97 L 375.5 94 Z " /><path fill="rgb(0,0,0)" stroke="rgb(0,0,0)" stroke-width="1" opacity="0.8" d="M 146.5 96 L 145.5 98 L 146.5 96 Z " /><path fill="rgb(0,0,0)" stroke="rgb(0,0,0)" stroke-width="1" opacity="0.8" d="M 353.5 96 L 354.5 98 L 353.5 96 Z " /><path fill="rgb(0,0,0)" stroke="rgb(0,0,0)" stroke-width="1" opacity="0.8" d="M 119.5 98 L 116.5 102 L 119.5 98 Z " /><path fill="rgb(0,0,0)" stroke="rgb(0,0,0)" stroke-width="1" opacity="0.8" d="M 143.5 98 L 142.5 100 L 143.5 98 Z " /><path fill="rgb(0,0,0)" stroke="rgb(0,0,0)" stroke-width="1" opacity="0.8" d="M 357.5 99 L 358.5 101 L 357.5 99 Z " /><path fill="rgb(0,0,0)" stroke="rgb(0,0,0)" stroke-width="1" opacity="0.8" d="M 381.5 99 L 386.5 105 L 381.5 99 Z " /><path fill="rgb(0,0,0)" stroke="rgb(0,0,0)" stroke-width="1" opacity="0.8" d="M 139.5 101 L 138.5 103 L 139.5 101 Z " /><path fill="rgb(0,0,0)" stroke="rgb(0,0,0)" stroke-width="1" opacity="0.8" d="M 361.5 102 L 362.5 104 L 361.5 102 Z " /><path fill="rgb(0,0,0)" stroke="rgb(0,0,0)" stroke-width="1" opacity="0.8" d="M 134.5 105 L 133.5 107 L 134.5 105 Z " /><path fill="rgb(0,0,0)" stroke="rgb(0,0,0)" stroke-width="1" opacity="0.8" d="M 365.5 105 L 367.5 108 L 365.5 105 Z " /><path fill="rgb(0,0,0)" stroke="rgb(0,0,0)" stroke-width="1" opacity="0.8" d="M 109.5 107 L 106.5 111 L 109.5 107 Z " /><path fill="rgb(0,0,0)" stroke="rgb(0,0,0)" stroke-width="1" opacity="0.8" d="M 129.5 109 L 126.5 113 L 129.5 109 Z " /><path fill="rgb(0,0,0)" stroke="rgb(0,0,0)" stroke-width="1" opacity="0.8" d="M 371.5 110 L 389.5 129 L 371.5 110 Z " /><path fill="rgb(0,0,0)" stroke="rgb(0,0,0)" stroke-width="1" opacity="0.8" d="M 395.5 113 L 400.5 119 L 395.5 113 Z " /><path fill="rgb(0,0,0)" stroke="rgb(0,0,0)" stroke-width="1" opacity="0.8" d="M 100.5 117 L 97.5 121 L 100.5 117 Z " /><path fill="rgb(0,0,0)" stroke="rgb(0,0,0)" stroke-width="1" opacity="0.8" d="M 182.5 117 L 184 117.5 L 181.5 119 L 182.5 117 Z " /><path fill="rgb(0,0,0)" stroke="rgb(0,0,0)" stroke-width="1" opacity="0.8" d="M 340.5 117 L 341.5 119 L 340.5 117 Z " /><path fill="rgb(0,0,0)" stroke="rgb(0,0,0)" stroke-width="1" opacity="0.8" d="M 327.5 121 L 326.5 123 L 327.5 121 Z " /><path fill="rgb(0,0,0)" stroke="rgb(0,0,0)" stroke-width="1" opacity="0.8" d="M 403.5 122 L 405.5 125 L 403.5 122 Z " /><path fill="rgb(0,0,0)" stroke="rgb(0,0,0)" stroke-width="1" opacity="0.8" d="M 198.5 123 L 199.5 125 L 198.5 123 Z " /><path fill="rgb(0,0,0)" stroke="rgb(0,0,0)" stroke-width="1" opacity="0.8" d="M 324.5 123 L 323.5 125 L 324.5 123 Z " /><path fill="rgb(0,0,0)" stroke="rgb(0,0,0)" stroke-width="1" opacity="0.8" d="M 94.5 124 L 92.5 127 L 94.5 124 Z " /><path fill="rgb(0,0,0)" stroke="rgb(0,0,0)" stroke-width="1" opacity="0.8" d="M 111.5 127 L 108.5 131 L 111.5 127 Z " /><path fill="rgb(0,0,0)" stroke="rgb(0,0,0)" stroke-width="1" opacity="0.8" d="M 178.5 127 L 179 129.5 L 178 129.5 L 178.5 127 Z " /><path fill="rgb(0,0,0)" stroke="rgb(0,0,0)" stroke-width="1" opacity="0.8" d="M 203.5 127 L 210.5 135 L 203.5 127 Z " /><path fill="rgb(0,0,0)" stroke="rgb(0,0,0)" stroke-width="1" opacity="0.8" d="M 319.5 127 L 314.5 133 L 319.5 127 Z " /><path fill="rgb(0,0,0)" stroke="rgb(0,0,0)" stroke-width="1" opacity="0.8" d="M 407.5 127 L 409.5 130 L 407.5 127 Z " /><path fill="rgb(0,0,0)" stroke="rgb(0,0,0)" stroke-width="1" opacity="0.8" d="M 90.5 129 L 89.5 131 L 90.5 129 Z " /><path fill="rgb(0,0,0)" stroke="rgb(0,0,0)" stroke-width="1" opacity="0.8" d="M 88.5 132 L 87.5 134 L 88.5 132 Z " /><path fill="rgb(0,0,0)" stroke="rgb(0,0,0)" stroke-width="1" opacity="0.8" d="M 345.5 132 L 346 136.5 L 345 136.5 L 345.5 132 Z " /><path fill="rgb(0,0,0)" stroke="rgb(0,0,0)" stroke-width="1" opacity="0.8" d="M 392.5 132 L 394.5 135 L 392.5 132 Z " /><path fill="rgb(0,0,0)" stroke="rgb(0,0,0)" stroke-width="1" opacity="0.8" d="M 106.5 133 L 104.5 136 L 106.5 133 Z " /><path fill="rgb(0,0,0)" stroke="rgb(0,0,0)" stroke-width="1" opacity="0.8" d="M 177.5 133 L 178 145.5 L 177 145.5 L 177.5 133 Z " /><path fill="rgb(0,0,0)" stroke="rgb(0,0,0)" stroke-width="1" opacity="0.8" d="M 249.5 134 L 255 134.5 L 249.5 135 L 249.5 134 Z " /><path fill="rgb(0,0,0)" stroke="rgb(0,0,0)" stroke-width="1" opacity="0.8" d="M 269.5 134 L 275 134.5 L 269.5 135 L 269.5 134 Z " /><path fill="rgb(0,0,0)" stroke="rgb(0,0,0)" stroke-width="1" opacity="0.8" d="M 241.5 135 L 244 135.5 L 241.5 136 L 241.5 135 Z " /><path fill="rgb(0,0,0)" stroke="rgb(0,0,0)" stroke-width="1" opacity="0.8" d="M 280.5 135 L 283 135.5 L 280.5 136 L 280.5 135 Z " /><path fill="rgb(0,0,0)" stroke="rgb(0,0,0)" stroke-width="1" opacity="0.8" d="M 413.5 135 L 414.5 137 L 413.5 135 Z " /><path fill="rgb(0,0,0)" stroke="rgb(0,0,0)" stroke-width="1" opacity="0.8" d="M 85.5 136 L 84.5 138 L 85.5 136 Z " /><path fill="rgb(0,0,0)" stroke="rgb(0,0,0)" stroke-width="1" opacity="0.8" d="M 235.5 136 L 238 136.5 L 235.5 137 L 235.5 136 Z " /><path fill="rgb(0,0,0)" stroke="rgb(0,0,0)" stroke-width="1" opacity="0.8" d="M 286.5 136 L 289 136.5 L 286.5 137 L 286.5 136 Z " /><path fill="rgb(0,0,0)" stroke="rgb(0,0,0)" stroke-width="1" opacity="0.8" d="M 213.5 137 L 214.5 139 L 213.5 137 Z " /><path fill="rgb(0,0,0)" stroke="rgb(0,0,0)" stroke-width="1" opacity="0.8" d="M 396.5 137 L 397.5 139 L 396.5 137 Z " /><path fill="rgb(0,0,0)" stroke="rgb(0,0,0)" stroke-width="1" opacity="0.8" d="M 102.5 138 L 101.5 140 L 102.5 138 Z " /><path fill="rgb(0,0,0)" stroke="rgb(0,0,0)" stroke-width="1" opacity="0.8" d="M 415.5 138 L 416.5 140 L 415.5 138 Z " /><path fill="rgb(0,0,0)" stroke="rgb(0,0,0)" stroke-width="1" opacity="0.8" d="M 83.5 139 L 82.5 141 L 83.5 139 Z " /><path fill="rgb(0,0,0)" stroke="rgb(0,0,0)" stroke-width="1" opacity="0.8" d="M 399.5 141 L 400.5 143 L 399.5 141 Z " /><path fill="rgb(0,0,0)" stroke="rgb(0,0,0)" stroke-width="1" opacity="0.8" d="M 417.5 141 L 418.5 143 L 417.5 141 Z " /><path fill="rgb(0,0,0)" stroke="rgb(0,0,0)" stroke-width="1" opacity="0.8" d="M 99.5 142 L 98.5 144 L 99.5 142 Z " /><path fill="rgb(0,0,0)" stroke="rgb(0,0,0)" stroke-width="1" opacity="0.8" d="M 345.5 143 L 346 146.5 L 345 146.5 L 345.5 143 Z " /><path fill="rgb(0,0,0)" stroke="rgb(0,0,0)" stroke-width="1" opacity="0.8" d="M 401.5 144 L 402.5 146 L 401.5 144 Z " /><path fill="rgb(0,0,0)" stroke="rgb(0,0,0)" stroke-width="1" opacity="0.8" d="M 97.5 145 L 96.5 147 L 97.5 145 Z " /><path fill="rgb(0,0,0)" stroke="rgb(0,0,0)" stroke-width="1" opacity="0.8" d="M 78.5 147 L 77.5 149 L 78.5 147 Z " /><path fill="rgb(0,0,0)" stroke="rgb(0,0,0)" stroke-width="1" opacity="0.8" d="M 403.5 147 L 404.5 149 L 403.5 147 Z " /><path fill="rgb(0,0,0)" stroke="rgb(0,0,0)" stroke-width="1" opacity="0.8" d="M 95.5 148 L 94.5 150 L 95.5 148 Z " /><path fill="rgb(0,0,0)" stroke="rgb(0,0,0)" stroke-width="1" opacity="0.8" d="M 344.5 150 L 345 152.5 L 344 152.5 L 344.5 150 Z " /><path fill="rgb(0,0,0)" stroke="rgb(0,0,0)" stroke-width="1" opacity="0.8" d="M 405.5 150 L 406.5 152 L 405.5 150 Z " /><path fill="rgb(0,0,0)" stroke="rgb(0,0,0)" stroke-width="1" opacity="0.8" d="M 93.5 151 L 92.5 153 L 93.5 151 Z " /><path fill="rgb(0,0,0)" stroke="rgb(0,0,0)" stroke-width="1" opacity="0.8" d="M 74.5 154 L 73.5 156 L 74.5 154 Z " /><path fill="rgb(0,0,0)" stroke="rgb(0,0,0)" stroke-width="1" opacity="0.8" d="M 90.5 156 L 89.5 158 L 90.5 156 Z " /><path fill="rgb(0,0,0)" stroke="rgb(0,0,0)" stroke-width="1" opacity="0.8" d="M 342.5 158 L 343 160.5 L 342 160.5 L 342.5 158 Z " /><path fill="rgb(0,0,0)" stroke="rgb(0,0,0)" stroke-width="1" opacity="0.8" d="M 179.5 163 L 176.5 167 L 179.5 163 Z " /><path fill="rgb(0,0,0)" stroke="rgb(0,0,0)" stroke-width="1" opacity="0.8" d="M 346.5 166 L 348.5 169 L 346.5 166 Z " /><path fill="rgb(0,0,0)" stroke="rgb(0,0,0)" stroke-width="1" opacity="0.8" d="M 174.5 169 L 173.5 171 L 174.5 169 Z " /><path fill="rgb(0,0,0)" stroke="rgb(0,0,0)" stroke-width="1" opacity="0.8" d="M 350.5 172 L 351.5 174 L 350.5 172 Z " /><path fill="rgb(0,0,0)" stroke="rgb(0,0,0)" stroke-width="1" opacity="0.8" d="M 167.5 184 L 168 186.5 L 167 186.5 L 167.5 184 Z " /><path fill="rgb(0,0,0)" stroke="rgb(0,0,0)" stroke-width="1" opacity="0.8" d="M 356.5 187 L 357 189.5 L 356 189.5 L 356.5 187 Z " /><path fill="rgb(0,0,0)" stroke="rgb(0,0,0)" stroke-width="1" opacity="0.8" d="M 166.5 192 L 167 195.5 L 166 195.5 L 166.5 192 Z " /><path fill="rgb(0,0,0)" stroke="rgb(0,0,0)" stroke-width="1" opacity="0.8" d="M 357.5 193 L 358 197.5 L 357 197.5 L 357.5 193 Z " /><path fill="rgb(0,0,0)" stroke="rgb(0,0,0)" stroke-width="1" opacity="0.8" d="M 165.5 202 L 166 206.5 L 165 206.5 L 165.5 202 Z " /><path fill="rgb(0,0,0)" stroke="rgb(0,0,0)" stroke-width="1" opacity="0.8" d="M 358.5 205 L 359 212.5 L 358 212.5 L 358.5 205 Z " /><path fill="rgb(0,0,0)" stroke="rgb(0,0,0)" stroke-width="1" opacity="0.8" d="M 445.5 208 L 446 210.5 L 445 210.5 L 445.5 208 Z " /><path fill="rgb(0,0,0)" stroke="rgb(0,0,0)" stroke-width="1" opacity="0.8" d="M 53.5 211 L 54 213.5 L 53 213.5 L 53.5 211 Z " /><path fill="rgb(0,0,0)" stroke="rgb(0,0,0)" stroke-width="1" opacity="0.8" d="M 431.5 214 L 432 216.5 L 431 216.5 L 431.5 214 Z " /><path fill="rgb(0,0,0)" stroke="rgb(0,0,0)" stroke-width="1" opacity="0.8" d="M 164.5 215 L 165 234.5 L 164 234.5 L 164.5 215 Z " /><path fill="rgb(0,0,0)" stroke="rgb(0,0,0)" stroke-width="1" opacity="0.8" d="M 52.5 217 L 53 219.5 L 52 219.5 L 52.5 217 Z " /><path fill="rgb(0,0,0)" stroke="rgb(0,0,0)" stroke-width="1" opacity="0.8" d="M 67.5 217 L 68 219.5 L 67 219.5 L 67.5 217 Z " /><path fill="rgb(0,0,0)" stroke="rgb(0,0,0)" stroke-width="1" opacity="0.8" d="M 447.5 219 L 448 222.5 L 447 222.5 L 447.5 219 Z " /><path fill="rgb(0,0,0)" stroke="rgb(0,0,0)" stroke-width="1" opacity="0.8" d="M 432.5 220 L 433 222.5 L 432 222.5 L 432.5 220 Z " /><path fill="rgb(0,0,0)" stroke="rgb(0,0,0)" stroke-width="1" opacity="0.8" d="M 51.5 223 L 52 226.5 L 51 226.5 L 51.5 223 Z " /><path fill="rgb(0,0,0)" stroke="rgb(0,0,0)" stroke-width="1" opacity="0.8" d="M 66.5 223 L 67 226.5 L 66 226.5 L 66.5 223 Z " /><path fill="rgb(0,0,0)" stroke="rgb(0,0,0)" stroke-width="1" opacity="0.8" d="M 358.5 226 L 359 233.5 L 358 233.5 L 358.5 226 Z " /><path fill="rgb(0,0,0)" stroke="rgb(0,0,0)" stroke-width="1" opacity="0.8" d="M 433.5 227 L 434 230.5 L 433 230.5 L 433.5 227 Z " /><path fill="rgb(0,0,0)" stroke="rgb(0,0,0)" stroke-width="1" opacity="0.8" d="M 448.5 227 L 449 231.5 L 448 231.5 L 448.5 227 Z " /><path fill="rgb(0,0,0)" stroke="rgb(0,0,0)" stroke-width="1" opacity="0.8" d="M 65.5 231 L 66 236.5 L 65 236.5 L 65.5 231 Z " /><path fill="rgb(0,0,0)" stroke="rgb(0,0,0)" stroke-width="1" opacity="0.8" d="M 50.5 232 L 51 238.5 L 50 238.5 L 50.5 232 Z " /><path fill="rgb(0,0,0)" stroke="rgb(0,0,0)" stroke-width="1" opacity="0.8" d="M 434.5 237 L 435 244.5 L 434 244.5 L 434.5 237 Z " /><path fill="rgb(0,0,0)" stroke="rgb(0,0,0)" stroke-width="1" opacity="0.8" d="M 165.5 238 L 166 240.5 L 165 240.5 L 165.5 238 Z " /><path fill="rgb(0,0,0)" stroke="rgb(0,0,0)" stroke-width="1" opacity="0.8" d="M 449.5 239 L 450 247.5 L 449 247.5 L 449.5 239 Z " /><path fill="rgb(0,0,0)" stroke="rgb(0,0,0)" stroke-width="1" opacity="0.8" d="M 50.5 254 L 51 264.5 L 50 264.5 L 50.5 254 Z " /><path fill="rgb(0,0,0)" stroke="rgb(0,0,0)" stroke-width="1" opacity="0.8" d="M 449.5 254 L 450 264.5 L 449 264.5 L 449.5 254 Z " /><path fill="rgb(0,0,0)" stroke="rgb(0,0,0)" stroke-width="1" opacity="0.8" d="M 171.5 256 L 172.5 258 L 171.5 256 Z " /><path fill="rgb(0,0,0)" stroke="rgb(0,0,0)" stroke-width="1" opacity="0.8" d="M 434.5 259 L 435 265.5 L 434 265.5 L 434.5 259 Z " /><path fill="rgb(0,0,0)" stroke="rgb(0,0,0)" stroke-width="1" opacity="0.8" d="M 65.5 260 L 66 265.5 L 65 265.5 L 65.5 260 Z " /><path fill="rgb(0,0,0)" stroke="rgb(0,0,0)" stroke-width="1" opacity="0.8" d="M 349.5 260 L 348.5 262 L 349.5 260 Z " /><path fill="rgb(0,0,0)" stroke="rgb(0,0,0)" stroke-width="1" opacity="0.8" d="M 174.5 261 L 175.5 263 L 174.5 261 Z " /><path fill="rgb(0,0,0)" stroke="rgb(0,0,0)" stroke-width="1" opacity="0.8" d="M 347.5 263 L 346.5 265 L 347.5 263 Z " /><path fill="rgb(0,0,0)" stroke="rgb(0,0,0)" stroke-width="1" opacity="0.8" d="M 177.5 265 L 180.5 269 L 177.5 265 Z " /><path fill="rgb(0,0,0)" stroke="rgb(0,0,0)" stroke-width="1" opacity="0.8" d="M 344.5 267 L 336.5 276 L 344.5 267 Z " /><path fill="rgb(0,0,0)" stroke="rgb(0,0,0)" stroke-width="1" opacity="0.8" d="M 51.5 271 L 52 274.5 L 51 274.5 L 51.5 271 Z " /><path fill="rgb(0,0,0)" stroke="rgb(0,0,0)" stroke-width="1" opacity="0.8" d="M 433.5 271 L 434 274.5 L 433 274.5 L 433.5 271 Z " /><path fill="rgb(0,0,0)" stroke="rgb(0,0,0)" stroke-width="1" opacity="0.8" d="M 448.5 271 L 449 274.5 L 448 274.5 L 448.5 271 Z " /><path fill="rgb(0,0,0)" stroke="rgb(0,0,0)" stroke-width="1" opacity="0.8" d="M 66.5 272 L 67 274.5 L 66 274.5 L 66.5 272 Z " /><path fill="rgb(0,0,0)" stroke="rgb(0,0,0)" stroke-width="1" opacity="0.8" d="M 187.5 275 L 188.5 277 L 187.5 275 Z " /><path fill="rgb(0,0,0)" stroke="rgb(0,0,0)" stroke-width="1" opacity="0.8" d="M 191.5 278 L 192.5 280 L 191.5 278 Z " /><path fill="rgb(0,0,0)" stroke="rgb(0,0,0)" stroke-width="1" opacity="0.8" d="M 52.5 279 L 53 281.5 L 52 281.5 L 52.5 279 Z " /><path fill="rgb(0,0,0)" stroke="rgb(0,0,0)" stroke-width="1" opacity="0.8" d="M 67.5 279 L 68 281.5 L 67 281.5 L 67.5 279 Z " /><path fill="rgb(0,0,0)" stroke="rgb(0,0,0)" stroke-width="1" opacity="0.8" d="M 432.5 279 L 433 281.5 L 432 281.5 L 432.5 279 Z " /><path fill="rgb(0,0,0)" stroke="rgb(0,0,0)" stroke-width="1" opacity="0.8" d="M 447.5 279 L 448 281.5 L 447 281.5 L 447.5 279 Z " /><path fill="rgb(0,0,0)" stroke="rgb(0,0,0)" stroke-width="1" opacity="0.8" d="M 431.5 284 L 432 286.5 L 431 286.5 L 431.5 284 Z " /><path fill="rgb(0,0,0)" stroke="rgb(0,0,0)" stroke-width="1" opacity="0.8" d="M 53.5 285 L 54 287.5 L 53 287.5 L 53.5 285 Z " /><path fill="rgb(0,0,0)" stroke="rgb(0,0,0)" stroke-width="1" opacity="0.8" d="M 142.5 286 L 141.5 288 L 142.5 286 Z " /><path fill="rgb(0,0,0)" stroke="rgb(0,0,0)" stroke-width="1" opacity="0.8" d="M 159.5 289 L 160.5 291 L 159.5 289 Z " /><path fill="rgb(0,0,0)" stroke="rgb(0,0,0)" stroke-width="1" opacity="0.8" d="M 162.5 291 L 168.5 298 L 162.5 291 Z " /><path fill="rgb(0,0,0)" stroke="rgb(0,0,0)" stroke-width="1" opacity="0.8" d="M 143.5 292 L 151.5 301 L 143.5 292 Z " /><path fill="rgb(0,0,0)" stroke="rgb(0,0,0)" stroke-width="1" opacity="0.8" d="M 223.5 292 L 226 293.5 L 224.5 293 L 223.5 292 Z " /><path fill="rgb(0,0,0)" stroke="rgb(0,0,0)" stroke-width="1" opacity="0.8" d="M 298.5 292 L 300 292.5 L 297.5 294 L 298.5 292 Z " /><path fill="rgb(0,0,0)" stroke="rgb(0,0,0)" stroke-width="1" opacity="0.8" d="M 227.5 294 L 228.5 296 L 227.5 294 Z " /><path fill="rgb(0,0,0)" stroke="rgb(0,0,0)" stroke-width="1" opacity="0.8" d="M 169.5 299 L 170.5 301 L 169.5 299 Z " /><path fill="rgb(0,0,0)" stroke="rgb(0,0,0)" stroke-width="1" opacity="0.8" d="M 230.5 300 L 231 303.5 L 230 303.5 L 230.5 300 Z " /><path fill="rgb(0,0,0)" stroke="rgb(0,0,0)" stroke-width="1" opacity="0.8" d="M 153.5 303 L 154.5 305 L 153.5 303 Z " /><path fill="rgb(0,0,0)" stroke="rgb(0,0,0)" stroke-width="1" opacity="0.8" d="M 155.5 306 L 156.5 308 L 155.5 306 Z " /><path fill="rgb(0,0,0)" stroke="rgb(0,0,0)" stroke-width="1" opacity="0.8" d="M 176.5 309 L 181.5 315 L 176.5 309 Z " /><path fill="rgb(0,0,0)" stroke="rgb(0,0,0)" stroke-width="1" opacity="0.8" d="M 161.5 316 L 162.5 318 L 161.5 316 Z " /><path fill="rgb(0,0,0)" stroke="rgb(0,0,0)" stroke-width="1" opacity="0.8" d="M 184.5 316 L 185.5 318 L 184.5 316 Z " /><path fill="rgb(0,0,0)" stroke="rgb(0,0,0)" stroke-width="1" opacity="0.8" d="M 296.5 317 L 297 322.5 L 296 322.5 L 296.5 317 Z " /><path fill="rgb(0,0,0)" stroke="rgb(0,0,0)" stroke-width="1" opacity="0.8" d="M 187.5 318 L 188.5 320 L 187.5 318 Z " /><path fill="rgb(0,0,0)" stroke="rgb(0,0,0)" stroke-width="1" opacity="0.8" d="M 225.5 320 L 223.5 323 L 225.5 320 Z " /><path fill="rgb(0,0,0)" stroke="rgb(0,0,0)" stroke-width="1" opacity="0.8" d="M 203.5 324 L 207 324.5 L 203.5 325 L 203.5 324 Z " /><path fill="rgb(0,0,0)" stroke="rgb(0,0,0)" stroke-width="1" opacity="0.8" d="M 211.5 324 L 216 324.5 L 211.5 325 L 211.5 324 Z " /><path fill="rgb(0,0,0)" stroke="rgb(0,0,0)" stroke-width="1" opacity="0.8" d="M 167.5 327 L 168.5 329 L 167.5 327 Z " /><path fill="rgb(0,0,0)" stroke="rgb(0,0,0)" stroke-width="1" opacity="0.8" d="M 170.5 331 L 178.5 340 L 170.5 331 Z " /><path fill="rgb(0,0,0)" stroke="rgb(0,0,0)" stroke-width="1" opacity="0.8" d="M 412.5 338 L 411.5 340 L 412.5 338 Z " /><path fill="rgb(0,0,0)" stroke="rgb(0,0,0)" stroke-width="1" opacity="0.8" d="M 180.5 340 L 181.5 342 L 180.5 340 Z " /><path fill="rgb(0,0,0)" stroke="rgb(0,0,0)" stroke-width="1" opacity="0.8" d="M 408.5 345 L 407.5 347 L 408.5 345 Z " /><path fill="rgb(0,0,0)" stroke="rgb(0,0,0)" stroke-width="1" opacity="0.8" d="M 92.5 347 L 93.5 349 L 92.5 347 Z " /><path fill="rgb(0,0,0)" stroke="rgb(0,0,0)" stroke-width="1" opacity="0.8" d="M 424.5 347 L 423.5 349 L 424.5 347 Z " /><path fill="rgb(0,0,0)" stroke="rgb(0,0,0)" stroke-width="1" opacity="0.8" d="M 200.5 348 L 203 348.5 L 200.5 349 L 200.5 348 Z " /><path fill="rgb(0,0,0)" stroke="rgb(0,0,0)" stroke-width="1" opacity="0.8" d="M 218.5 348 L 222 348.5 L 218.5 349 L 218.5 348 Z " /><path fill="rgb(0,0,0)" stroke="rgb(0,0,0)" stroke-width="1" opacity="0.8" d="M 94.5 350 L 95.5 352 L 94.5 350 Z " /><path fill="rgb(0,0,0)" stroke="rgb(0,0,0)" stroke-width="1" opacity="0.8" d="M 296.5 351 L 297 354.5 L 296 354.5 L 296.5 351 Z " /><path fill="rgb(0,0,0)" stroke="rgb(0,0,0)" stroke-width="1" opacity="0.8" d="M 96.5 353 L 97.5 355 L 96.5 353 Z " /><path fill="rgb(0,0,0)" stroke="rgb(0,0,0)" stroke-width="1" opacity="0.8" d="M 227.5 354 L 228 356.5 L 227 356.5 L 227.5 354 Z " /><path fill="rgb(0,0,0)" stroke="rgb(0,0,0)" stroke-width="1" opacity="0.8" d="M 402.5 354 L 401.5 356 L 402.5 354 Z " /><path fill="rgb(0,0,0)" stroke="rgb(0,0,0)" stroke-width="1" opacity="0.8" d="M 420.5 354 L 419.5 356 L 420.5 354 Z " /><path fill="rgb(0,0,0)" stroke="rgb(0,0,0)" stroke-width="1" opacity="0.8" d="M 98.5 356 L 99.5 358 L 98.5 356 Z " /><path fill="rgb(0,0,0)" stroke="rgb(0,0,0)" stroke-width="1" opacity="0.8" d="M 400.5 357 L 399.5 359 L 400.5 357 Z " /><path fill="rgb(0,0,0)" stroke="rgb(0,0,0)" stroke-width="1" opacity="0.8" d="M 418.5 357 L 417.5 359 L 418.5 357 Z " /><path fill="rgb(0,0,0)" stroke="rgb(0,0,0)" stroke-width="1" opacity="0.8" d="M 101.5 360 L 102.5 362 L 101.5 360 Z " /><path fill="rgb(0,0,0)" stroke="rgb(0,0,0)" stroke-width="1" opacity="0.8" d="M 398.5 360 L 396.5 363 L 398.5 360 Z " /><path fill="rgb(0,0,0)" stroke="rgb(0,0,0)" stroke-width="1" opacity="0.8" d="M 416.5 360 L 415.5 362 L 416.5 360 Z " /><path fill="rgb(0,0,0)" stroke="rgb(0,0,0)" stroke-width="1" opacity="0.8" d="M 229.5 361 L 232 365.5 L 230 364.5 L 229.5 361 Z " /><path fill="rgb(0,0,0)" stroke="rgb(0,0,0)" stroke-width="1" opacity="0.8" d="M 84.5 362 L 85.5 364 L 84.5 362 Z " /><path fill="rgb(0,0,0)" stroke="rgb(0,0,0)" stroke-width="1" opacity="0.8" d="M 414.5 363 L 413.5 365 L 414.5 363 Z " /><path fill="rgb(0,0,0)" stroke="rgb(0,0,0)" stroke-width="1" opacity="0.8" d="M 104.5 364 L 106.5 367 L 104.5 364 Z " /><path fill="rgb(0,0,0)" stroke="rgb(0,0,0)" stroke-width="1" opacity="0.8" d="M 394.5 365 L 392.5 368 L 394.5 365 Z " /><path fill="rgb(0,0,0)" stroke="rgb(0,0,0)" stroke-width="1" opacity="0.8" d="M 87.5 366 L 88.5 368 L 87.5 366 Z " /><path fill="rgb(0,0,0)" stroke="rgb(0,0,0)" stroke-width="1" opacity="0.8" d="M 412.5 366 L 411.5 368 L 412.5 366 Z " /><path fill="rgb(0,0,0)" stroke="rgb(0,0,0)" stroke-width="1" opacity="0.8" d="M 290.5 368 L 283.5 376 L 290.5 368 Z " /><path fill="rgb(0,0,0)" stroke="rgb(0,0,0)" stroke-width="1" opacity="0.8" d="M 89.5 369 L 90.5 371 L 89.5 369 Z " /><path fill="rgb(0,0,0)" stroke="rgb(0,0,0)" stroke-width="1" opacity="0.8" d="M 108.5 369 L 111.5 373 L 108.5 369 Z " /><path fill="rgb(0,0,0)" stroke="rgb(0,0,0)" stroke-width="1" opacity="0.8" d="M 234.5 370 L 239.5 376 L 234.5 370 Z " /><path fill="rgb(0,0,0)" stroke="rgb(0,0,0)" stroke-width="1" opacity="0.8" d="M 409.5 370 L 407.5 373 L 409.5 370 Z " /><path fill="rgb(0,0,0)" stroke="rgb(0,0,0)" stroke-width="1" opacity="0.8" d="M 389.5 371 L 385.5 376 L 389.5 371 Z " /><path fill="rgb(0,0,0)" stroke="rgb(0,0,0)" stroke-width="1" opacity="0.8" d="M 92.5 373 L 94.5 376 L 92.5 373 Z " /><path fill="rgb(0,0,0)" stroke="rgb(0,0,0)" stroke-width="1" opacity="0.8" d="M 405.5 375 L 404.5 377 L 405.5 375 Z " /><path fill="rgb(0,0,0)" stroke="rgb(0,0,0)" stroke-width="1" opacity="0.8" d="M 116.5 378 L 120.5 383 L 116.5 378 Z " /><path fill="rgb(0,0,0)" stroke="rgb(0,0,0)" stroke-width="1" opacity="0.8" d="M 97.5 379 L 100.5 383 L 97.5 379 Z " /><path fill="rgb(0,0,0)" stroke="rgb(0,0,0)" stroke-width="1" opacity="0.8" d="M 400.5 381 L 396.5 386 L 400.5 381 Z " /><path fill="rgb(0,0,0)" stroke="rgb(0,0,0)" stroke-width="1" opacity="0.8" d="M 254.5 382 L 257 382.5 L 254.5 383 L 254.5 382 Z " /><path fill="rgb(0,0,0)" stroke="rgb(0,0,0)" stroke-width="1" opacity="0.8" d="M 264.5 382 L 268 382.5 L 264.5 383 L 264.5 382 Z " /><path fill="rgb(0,0,0)" stroke="rgb(0,0,0)" stroke-width="1" opacity="0.8" d="M 376.5 384 L 370.5 391 L 376.5 384 Z " /><path fill="rgb(0,0,0)" stroke="rgb(0,0,0)" stroke-width="1" opacity="0.8" d="M 127.5 388 L 131.5 393 L 127.5 388 Z " /><path fill="rgb(0,0,0)" stroke="rgb(0,0,0)" stroke-width="1" opacity="0.8" d="M 106.5 389 L 110.5 394 L 106.5 389 Z " /><path fill="rgb(0,0,0)" stroke="rgb(0,0,0)" stroke-width="1" opacity="0.8" d="M 366.5 393 L 365.5 395 L 366.5 393 Z " /><path fill="rgb(0,0,0)" stroke="rgb(0,0,0)" stroke-width="1" opacity="0.8" d="M 134.5 394 L 135.5 396 L 134.5 394 Z " /><path fill="rgb(0,0,0)" stroke="rgb(0,0,0)" stroke-width="1" opacity="0.8" d="M 386.5 395 L 381.5 401 L 386.5 395 Z " /><path fill="rgb(0,0,0)" stroke="rgb(0,0,0)" stroke-width="1" opacity="0.8" d="M 362.5 396 L 361.5 398 L 362.5 396 Z " /><path fill="rgb(0,0,0)" stroke="rgb(0,0,0)" stroke-width="1" opacity="0.8" d="M 138.5 397 L 139.5 399 L 138.5 397 Z " /><path fill="rgb(0,0,0)" stroke="rgb(0,0,0)" stroke-width="1" opacity="0.8" d="M 116.5 398 L 119.5 402 L 116.5 398 Z " /><path fill="rgb(0,0,0)" stroke="rgb(0,0,0)" stroke-width="1" opacity="0.8" d="M 358.5 399 L 357.5 401 L 358.5 399 Z " /><path fill="rgb(0,0,0)" stroke="rgb(0,0,0)" stroke-width="1" opacity="0.8" d="M 142.5 400 L 143.5 402 L 142.5 400 Z " /><path fill="rgb(0,0,0)" stroke="rgb(0,0,0)" stroke-width="1" opacity="0.8" d="M 355.5 401 L 353.5 404 L 355.5 401 Z " /><path fill="rgb(0,0,0)" stroke="rgb(0,0,0)" stroke-width="1" opacity="0.8" d="M 145.5 402 L 146.5 404 L 145.5 402 Z " /><path fill="rgb(0,0,0)" stroke="rgb(0,0,0)" stroke-width="1" opacity="0.8" d="M 377.5 403 L 375.5 406 L 377.5 403 Z " /><path fill="rgb(0,0,0)" stroke="rgb(0,0,0)" stroke-width="1" opacity="0.8" d="M 123.5 404 L 125.5 407 L 123.5 404 Z " /><path fill="rgb(0,0,0)" stroke="rgb(0,0,0)" stroke-width="1" opacity="0.8" d="M 148.5 404 L 149.5 406 L 148.5 404 Z " /><path fill="rgb(0,0,0)" stroke="rgb(0,0,0)" stroke-width="1" opacity="0.8" d="M 151.5 406 L 152.5 408 L 151.5 406 Z " /><path fill="rgb(0,0,0)" stroke="rgb(0,0,0)" stroke-width="1" opacity="0.8" d="M 346.5 407 L 345.5 409 L 346.5 407 Z " /><path fill="rgb(0,0,0)" stroke="rgb(0,0,0)" stroke-width="1" opacity="0.8" d="M 372.5 407 L 370.5 410 L 372.5 407 Z " /><path fill="rgb(0,0,0)" stroke="rgb(0,0,0)" stroke-width="1" opacity="0.8" d="M 128.5 408 L 130.5 411 L 128.5 408 Z " /><path fill="rgb(0,0,0)" stroke="rgb(0,0,0)" stroke-width="1" opacity="0.8" d="M 156.5 409 L 157.5 411 L 156.5 409 Z " /><path fill="rgb(0,0,0)" stroke="rgb(0,0,0)" stroke-width="1" opacity="0.8" d="M 132.5 411 L 133.5 413 L 132.5 411 Z " /><path fill="rgb(0,0,0)" stroke="rgb(0,0,0)" stroke-width="1" opacity="0.8" d="M 364.5 413 L 363.5 415 L 364.5 413 Z " /><path fill="rgb(0,0,0)" stroke="rgb(0,0,0)" stroke-width="1" opacity="0.8" d="M 361.5 415 L 360.5 417 L 361.5 415 Z " /><path fill="rgb(0,0,0)" stroke="rgb(0,0,0)" stroke-width="1" opacity="0.8" d="M 358.5 417 L 357.5 419 L 358.5 417 Z " /><path fill="rgb(0,0,0)" stroke="rgb(0,0,0)" stroke-width="1" opacity="0.8" d="M 144.5 419 L 145.5 421 L 144.5 419 Z " /><path fill="rgb(0,0,0)" stroke="rgb(0,0,0)" stroke-width="1" opacity="0.8" d="M 149.5 422 L 150.5 424 L 149.5 422 Z " /><path fill="rgb(0,0,0)" stroke="rgb(0,0,0)" stroke-width="1" opacity="0.8" d="M 348.5 423 L 347.5 425 L 348.5 423 Z " /><path fill="rgb(0,0,0)" stroke="rgb(0,0,0)" stroke-width="1" opacity="0.8" d="M 160.5 428 L 161.5 430 L 160.5 428 Z " /><path fill="rgb(0,0,0)" stroke="rgb(0,0,0)" stroke-width="1" opacity="0.8" d="M 293.5 429 L 296 429.5 L 293.5 430 L 293.5 429 Z " /><path fill="rgb(0,0,0)" stroke="rgb(0,0,0)" stroke-width="1" opacity="0.8" d="M 213.5 431 L 216 431.5 L 213.5 432 L 213.5 431 Z " /><path fill="rgb(0,0,0)" stroke="rgb(0,0,0)" stroke-width="1" opacity="0.8" d="M 218.5 432 L 221 432.5 L 218.5 433 L 218.5 432 Z " /><path fill="rgb(0,0,0)" stroke="rgb(0,0,0)" stroke-width="1" opacity="0.8" d="M 224.5 433 L 228 433.5 L 224.5 434 L 224.5 433 Z " /><path fill="rgb(0,0,0)" stroke="rgb(0,0,0)" stroke-width="1" opacity="0.8" d="M 272.5 433 L 275 433.5 L 272.5 434 L 272.5 433 Z " /><path fill="rgb(0,0,0)" stroke="rgb(0,0,0)" stroke-width="1" opacity="0.8" d="M 233.5 434 L 244 434.5 L 233.5 435 L 233.5 434 Z " /><path fill="rgb(0,0,0)" stroke="rgb(0,0,0)" stroke-width="1" opacity="0.8" d="M 255.5 434 L 266 434.5 L 255.5 435 L 255.5 434 Z " /><path fill="rgb(0,0,0)" stroke="rgb(0,0,0)" stroke-width="1" opacity="0.8" d="M 285.5 446 L 288 446.5 L 285.5 447 L 285.5 446 Z " /><path fill="rgb(0,0,0)" stroke="rgb(0,0,0)" stroke-width="1" opacity="0.8" d="M 217.5 447 L 220 447.5 L 217.5 448 L 217.5 447 Z " /><path fill="rgb(0,0,0)" stroke="rgb(0,0,0)" stroke-width="1" opacity="0.8" d="M 279.5 447 L 282 447.5 L 279.5 448 L 279.5 447 Z " /><path fill="rgb(0,0,0)" stroke="rgb(0,0,0)" stroke-width="1" opacity="0.8" d="M 225.5 448 L 228 448.5 L 225.5 449 L 225.5 448 Z " /><path fill="rgb(0,0,0)" stroke="rgb(0,0,0)" stroke-width="1" opacity="0.8" d="M 271.5 448 L 275 448.5 L 271.5 449 L 271.5 448 Z " /><path fill="rgb(0,0,0)" stroke="rgb(0,0,0)" stroke-width="1" opacity="0.8" d="M 235.5 449 L 245 449.5 L 235.5 450 L 235.5 449 Z " /><path fill="rgb(0,0,0)" stroke="rgb(0,0,0)" stroke-width="1" opacity="0.8" d="M 255.5 449 L 265 449.5 L 255.5 450 L 255.5 449 Z " /><path fill="rgb(0,0,0)" stroke="rgb(0,0,0)" stroke-width="1" opacity="1" d="M 246.5 50 L 270.5 51 L 271.5 52 L 290.5 54 L 309.5 59 L 328.5 66 Q 367.7 83.3 395 112.5 Q 421.8 140.2 437 179.5 L 442 194.5 L 447 216.5 L 450 253.5 L 449 254.5 L 449 270.5 L 448 271.5 L 448 278.5 L 445 294.5 Q 440.6 314.1 433 330.5 Q 415.9 368.4 387.5 395 Q 359.8 421.8 320.5 437 L 290.5 446 L 271.5 448 L 270.5 449 L 245.5 450 L 244.5 449 L 220.5 448 L 200.5 444 Q 180 438.5 162.5 430 Q 126.7 411.8 101 383.5 Q 76.2 356.3 62 318.5 L 58 306.5 L 52 278.5 L 50 239.5 L 51 238.5 L 52 220.5 L 57 196.5 L 69 164.5 Q 86.7 127.7 115.5 102 Q 141.3 78.3 176.5 64 L 209.5 54 L 228.5 52 L 229.5 51 L 245.5 51 L 246.5 50 Z M 236 65 L 235 66 L 227 66 L 205 70 L 176 80 Q 150 92 130 109 Q 105 129 89 158 Q 79 174 73 194 L 68 213 L 66 231 L 65 232 L 65 266 L 66 267 L 66 275 L 71 300 L 77 318 Q 91 353 116 379 Q 141 405 178 421 L 205 430 L 234 435 L 266 435 L 303 428 Q 342 415 371 391 Q 396 369 413 339 Q 422 322 428 303 L 433 282 L 434 267 L 435 266 L 435 238 L 434 237 L 434 228 L 428 199 Q 416 157 390 129 Q 362 96 320 78 L 296 70 L 281 67 L 265 66 L 264 65 L 236 65 Z " /><path fill="rgb(0,0,0)" stroke="rgb(0,0,0)" stroke-width="1" opacity="1" d="M 184.5 117 Q 203.8 123.7 214.5 139 Q 218 141.5 225.5 140 L 229.5 138 L 244.5 135 L 268.5 134 L 269.5 135 L 285.5 136 L 299.5 140 L 305.5 140 L 309.5 138 L 322.5 125 L 334.5 118 L 339.5 117 L 344 124.5 L 346 142.5 L 342 160.5 Q 351.9 170.1 356 185.5 L 357 197.5 L 358 198.5 L 359 225.5 L 358 226.5 L 358 237.5 L 354 251.5 Q 347.3 267.3 334.5 277 Q 320.1 288.1 298.5 292 L 294 296.5 L 293 304.5 L 295 308.5 L 296 322.5 L 297 323.5 L 297 350.5 L 295 359.5 L 291 367.5 L 281.5 377 L 270.5 382 L 257.5 383 Q 240.8 380.2 233 368.5 L 228 358.5 L 227 348 L 218.5 348 L 217.5 349 L 203.5 349 L 193.5 347 L 182.5 342 L 169 329.5 L 155 304.5 L 143.5 292 Q 141.3 292.8 142 290.5 L 141 288.5 Q 142.5 284.5 149.5 286 Q 162.8 288.6 169 298.5 Q 173.6 308.4 181.5 315 Q 188.3 321.2 198.5 324 L 215.5 325 L 223.5 323 L 226 320.5 L 231 300.5 L 227.5 294 L 196.5 282 L 181 269.5 Q 170.6 258.9 166 242.5 L 165 237.5 L 165 207.5 L 166 206.5 L 166 196.5 L 167 195.5 L 168 182.5 Q 171.6 170.6 180 163.5 L 181 156.5 L 178 148.5 L 178 130.5 L 182.5 118 L 184.5 117 Z " /></svg>