<?xml version="1.0" encoding="UTF-8"?>
<svg version="1.1" xmlns="http://www.w3.org/2000/svg" width="403" height="247">
<path d="M0 0 C1.15249741 0.00222061 2.30499481 0.00444122 3.49241638 0.00672913 C5.4443264 0.00684242 5.4443264 0.00684242 7.43566895 0.00695801 C8.86661313 0.01206543 10.29755694 0.01728144 11.72850037 0.02259827 C13.18438672 0.02446249 14.64027369 0.02588637 16.09616089 0.02688599 C19.93488791 0.03071086 23.77357731 0.04054088 27.61228943 0.05158997 C31.52667227 0.06180474 35.44106117 0.06638375 39.35545349 0.07142639 C47.04101755 0.08216318 54.72655057 0.09923923 62.41209412 0.12025452 C62.10916443 0.70419983 61.80623474 1.28814514 61.49412537 1.88978577 C58.92730012 7.18096706 57.81752237 11.22820018 59.53709412 16.87025452 C61.31917659 21.41143836 63.40126848 23.91375914 67.59959412 26.43275452 C72.54202141 27.64090341 77.29296597 26.99891741 81.97459412 25.05775452 C86.76283062 21.25172037 90.99321748 16.91251974 94.78709412 12.12025452 C95.32334412 11.46025452 95.85959412 10.80025452 96.41209412 10.12025452 C97.07209412 10.12025452 97.73209412 10.12025452 98.41209412 10.12025452 C98.75240662 9.31587952 98.75240662 9.31587952 99.09959412 8.49525452 C102.59271086 2.17437661 102.59271086 2.17437661 105.41209412 0.12025452 C108.47756658 -0.38379968 111.33573944 -0.24166956 114.41209412 0.12025452 C110.25461618 6.04151097 105.62740696 11.11637327 100.41209412 16.12025452 C98.69736592 17.83498271 97.15758768 19.57878329 95.59959412 21.43275452 C93.00229312 24.48067159 90.24442665 27.28792198 87.41209412 30.12025452 C85.32093006 32.51073412 83.24305924 34.91111184 81.18162537 37.32728577 C80.59768005 37.91896545 80.01373474 38.51064514 79.41209412 39.12025452 C78.75209412 39.12025452 78.09209412 39.12025452 77.41209412 39.12025452 C77.14396912 39.65650452 76.87584412 40.19275452 76.59959412 40.74525452 C75.70783984 42.52876307 74.78601327 44.2972865 73.84959412 46.05775452 C71.64571828 50.75296826 71.10596534 52.85492223 72.34959412 57.99525452 C74.36702409 63.00076474 78.20686108 65.92387786 82.41209412 69.12025452 C81.90079685 73.45483431 80.58303712 75.48091989 77.59959412 78.62025452 C76.79650818 79.4800592 75.99342224 80.33986389 75.16600037 81.22572327 C74.2572113 82.18091858 73.34842224 83.13611389 72.41209412 84.12025452 C70.81552765 85.81531863 69.22334006 87.51422905 67.63597107 89.21791077 C66.59125053 90.33840505 65.54179073 91.45450424 64.48704529 92.56556702 C60.44203472 96.88739438 56.82624371 101.0460604 56.41209412 107.12025452 C56.76515069 112.26342997 57.75782021 116.0374766 61.59959412 119.62025452 C65.77485065 122.71080523 69.23656127 123.43965047 74.43162537 122.91712952 C84.70841613 120.62105374 92.32666403 109.52839008 98.88865662 101.87806702 C101.27853717 99.12051254 103.70895655 96.57765231 106.41209412 94.12025452 C109.41209412 94.12025452 109.41209412 94.12025452 111.78709412 96.30775452 C112.65334412 97.23587952 113.51959412 98.16400452 114.41209412 99.12025452 C115.36084412 99.94525452 116.30959412 100.77025452 117.28709412 101.62025452 C119.41209412 104.12025452 119.41209412 104.12025452 119.22459412 106.93275452 C118.95646912 107.65462952 118.68834412 108.37650452 118.41209412 109.12025452 C117.42209412 109.45025452 116.43209412 109.78025452 115.41209412 110.12025452 C115.41209412 110.78025452 115.41209412 111.44025452 115.41209412 112.12025452 C113.17273482 114.60843151 111.25722357 116.70976307 108.22459412 118.18275452 C106.2796705 118.95953772 106.2796705 118.95953772 105.58396912 120.82728577 C104.05033697 123.82809266 102.01459347 126.16671596 99.84959412 128.74525452 C95.29076343 134.18667482 94.11237021 136.61298983 94.19334412 143.64759827 C94.64327341 148.73340622 97.69784345 151.87028518 101.41209412 155.12025452 C104.12418254 156.02428399 105.91602161 156.31204576 108.72459412 156.37025452 C109.83254333 156.40892639 109.83254333 156.40892639 110.96287537 156.44837952 C118.17659915 155.48194762 122.23519641 150.54473732 126.84959412 145.43275452 C127.79415466 144.40891663 127.79415466 144.40891663 128.75779724 143.36439514 C132.5456449 139.24175314 136.23174752 135.04232257 139.85374451 130.77333069 C141.41209412 129.12025452 141.41209412 129.12025452 144.41209412 127.12025452 C146.453292 128.73620284 148.45282349 130.40589272 150.41209412 132.12025452 C150.41209412 132.78025452 150.41209412 133.44025452 150.41209412 134.12025452 C155.70453189 136.34864937 160.75037183 136.86837769 166.41209412 136.12025452 C172.97479975 132.77698938 177.5165162 127.12296176 182.08006287 121.47572327 C182.51963318 121.02841858 182.95920349 120.58111389 183.41209412 120.12025452 C184.07209412 120.12025452 184.73209412 120.12025452 185.41209412 120.12025452 C185.67248474 119.54275452 185.93287537 118.96525452 186.20115662 118.37025452 C187.49653598 115.96335609 188.96685314 114.15510906 190.78709412 112.12025452 C191.66494568 111.13025452 191.66494568 111.13025452 192.56053162 110.12025452 C193.81537969 108.76480681 195.10495438 107.44084785 196.42381287 106.14759827 C198.43217681 104.09977727 200.12904325 101.97549782 201.84959412 99.68275452 C205.28718413 95.2138875 208.82856335 91.37018236 213.26756287 87.86634827 C216.43343848 85.23834772 218.74097425 82.26788775 221.16209412 78.93275452 C225.74817353 72.7467769 230.80051526 67.40946608 236.41209412 62.12025452 C234.28040876 58.10230811 231.99558029 55.70891459 228.41209412 52.93275452 C221.54646884 47.47849783 214.98269324 41.71220251 208.79881287 35.49134827 C206.95368001 33.65829484 205.14533239 32.02388428 203.09959412 30.43275452 C202.21271912 29.66962952 201.32584412 28.90650452 200.41209412 28.12025452 C200.41209412 27.46025452 200.41209412 26.80025452 200.41209412 26.12025452 C199.83975037 25.86244202 199.26740662 25.60462952 198.67771912 25.33900452 C196.20080417 24.0065951 194.27797751 22.46969334 192.16209412 20.62025452 C191.45568787 20.01181702 190.74928162 19.40337952 190.02146912 18.77650452 C188.41209412 17.12025452 188.41209412 17.12025452 188.41209412 15.12025452 C187.82943787 14.85212952 187.24678162 14.58400452 186.64646912 14.30775452 C184.38422811 13.10544461 182.60633094 11.78199539 180.66209412 10.12025452 C180.04850037 9.60462952 179.43490662 9.08900452 178.80271912 8.55775452 C177.41209412 7.12025452 177.41209412 7.12025452 177.41209412 5.12025452 C176.81396912 4.85212952 176.21584412 4.58400452 175.59959412 4.30775452 C173.42892529 3.12939144 172.10392199 1.8896447 170.41209412 0.12025452 C174.85293409 -0.99188628 179.0518052 -1.41713402 183.41209412 0.12025452 C189.13276451 3.96078738 193.80292646 9.20570423 198.5322113 14.17201233 C200.82644316 16.5496708 203.24208114 18.7535711 205.72459412 20.93275452 C209.26984744 24.0940887 212.78803417 27.28292931 216.28709412 30.49525452 C216.78660583 30.95351624 217.28611755 31.41177795 217.80076599 31.88392639 C220.40164053 34.27112189 222.99966772 36.66137518 225.59568787 39.05384827 C227.62910746 40.92731476 229.66809422 42.79435372 231.71287537 44.65541077 C233.34842519 46.14894468 234.97391926 47.65373533 236.58006287 49.17884827 C238.53885138 51.04487724 238.53885138 51.04487724 241.41209412 53.12025452 C243.50652093 53.07406267 243.50652093 53.07406267 245.41209412 52.12025452 C246.99352615 49.64068845 248.27799033 47.31825503 249.53709412 44.68275452 C249.88385193 44.0079303 250.23060974 43.33310608 250.58787537 42.63783264 C255.37537396 32.88857784 255.69232531 23.20620703 255.53709412 12.49525452 C255.52355896 10.70281311 255.52355896 10.70281311 255.50975037 8.87416077 C255.48640489 5.95597618 255.45366067 3.03822675 255.41209412 0.12025452 C266.46929759 -0.08872762 277.52602765 -0.24841745 288.5848074 -0.34605503 C293.72057528 -0.39292912 298.85498737 -0.4564532 303.98997498 -0.55870056 C308.95029987 -0.65684639 313.90932507 -0.71037663 318.87054634 -0.73364067 C320.75846371 -0.75020785 322.64631378 -0.78256224 324.53367424 -0.83131599 C339.27070955 -1.1966879 339.27070955 -1.1966879 344.53919983 2.04341125 C346.84177584 4.29012311 348.64866965 6.43701039 350.41209412 9.12025452 C350.89036652 9.83601151 351.36863892 10.55176849 351.86140442 11.28921509 C353.02643546 13.14524645 353.98414739 15.01094097 354.91209412 16.99525452 C355.24394714 17.68651428 355.57580017 18.37777405 355.91770935 19.08998108 C358.51263173 24.77252425 359.67181972 29.84046037 359.41209412 36.12025452 C359.39662537 37.10638733 359.38115662 38.09252014 359.36521912 39.10853577 C358.63099291 55.15953634 349.91894847 65.75797485 339.41209412 77.12025452 C338.32374716 78.36589171 337.24012203 79.61567613 336.16209412 80.87025452 C332.15481737 85.48526992 327.9588091 89.92660702 323.7665863 94.3731842 C323.21905701 94.95745178 322.67152771 95.54171936 322.10740662 96.14369202 C321.61256775 96.66882385 321.11772888 97.19395569 320.6078949 97.73500061 C319.3049686 99.1295627 319.3049686 99.1295627 318.41209412 101.12025452 C317.75209412 101.12025452 317.09209412 101.12025452 316.41209412 101.12025452 C316.1478363 101.71322327 315.88357849 102.30619202 315.61131287 102.91712952 C314.36838987 105.20054506 313.10807766 106.59452175 311.22459412 108.37025452 C308.77611156 110.74849372 306.45138359 113.1582491 304.22459412 115.74525452 C301.10874473 119.35601511 297.9022332 122.87150071 294.66209412 126.37025452 C294.14920837 126.92430969 293.63632263 127.47836487 293.1078949 128.04920959 C292.06115126 129.17962096 291.01427571 130.30991019 289.9672699 131.44007874 C287.50590183 134.09928361 285.05111286 136.7644699 282.59959412 139.43275452 C281.7681488 140.33638733 280.93670349 141.24002014 280.08006287 142.17103577 C278.04570167 144.41985378 276.04448643 146.68641739 274.05662537 148.97572327 C269.83799735 153.81246528 265.43056052 158.46158483 261.01756287 163.12025452 C257.29295581 167.06849222 253.67151177 171.0841677 250.11326599 175.18275452 C247.44422035 178.22258607 244.67904097 181.16976226 241.91209412 184.12025452 C236.8686578 189.52152625 236.8686578 189.52152625 231.97459412 195.05775452 C227.96850054 199.70642952 223.73539933 204.14482453 219.53660583 208.61854553 C216.49768231 211.86291168 213.49374221 215.11987806 210.59959412 218.49525452 C199.83711801 230.84123708 189.36039969 238.49228225 172.70115662 240.43666077 C159.9372611 241.01683784 149.5619731 236.23194021 139.72459412 228.55775452 C138.97822693 227.97896545 138.23185974 227.40017639 137.46287537 226.80384827 C135.64959231 225.31522923 133.95449187 223.88789131 132.41209412 222.12025452 C132.41209412 221.46025452 132.41209412 220.80025452 132.41209412 220.12025452 C131.69666443 219.8972467 130.98123474 219.67423889 130.24412537 219.44447327 C126.7501811 217.81075312 124.75705317 215.72097133 122.09959412 212.93275452 C118.38652952 209.10119446 114.61142681 205.44809511 110.55662537 201.97962952 C107.87981993 199.65875631 105.2695978 197.26820805 102.66209412 194.87025452 C101.90086243 194.17077698 101.90086243 194.17077698 101.12425232 193.45716858 C99.02512308 191.52701052 96.9276409 189.59506674 94.83006287 187.66322327 C87.78483399 181.15746824 87.78483399 181.15746824 80.59959412 174.80775452 C75.91325165 170.75018756 71.42651038 166.47803601 66.90550232 162.23866272 C63.16879306 158.74095348 59.39649326 155.30729343 55.51365662 151.97181702 C51.93518889 148.81904062 48.45941359 145.55292909 44.97801208 142.29359436 C42.72882216 140.19966186 40.51097354 138.19199057 38.02146912 136.38587952 C37.49037537 135.96822327 36.95928162 135.55056702 36.41209412 135.12025452 C36.41209412 134.46025452 36.41209412 133.80025452 36.41209412 133.12025452 C35.52264099 132.7238678 35.52264099 132.7238678 34.61521912 132.31947327 C32.33180357 131.07655027 30.93782688 129.81623806 29.16209412 127.93275452 C26.09060902 124.76997262 22.88656132 121.85784257 19.55271912 118.97572327 C12.13851658 112.5491791 4.97197556 105.85712439 -2.18409729 99.14686584 C-5.41764664 96.12144069 -8.66728951 93.13310213 -12.02540588 90.24525452 C-24.74995703 79.1492251 -30.97566398 68.67521616 -32.86915588 51.58119202 C-33.31009949 41.18227191 -28.58737879 29.02338802 -21.92384338 21.15541077 C-20.78470727 20.05008463 -19.62552123 18.9650489 -18.44728088 17.90150452 C-16.21178928 15.75994113 -14.36989417 13.43275834 -12.46290588 10.99525452 C-9.68045729 7.44560651 -6.87255746 4.2058363 -3.58790588 1.12025452 C-2.58790588 0.12025452 -2.58790588 0.12025452 0 0 Z M233.03318787 75.07337952 C231.96079413 76.16141541 230.89974449 77.26073452 229.84959412 78.37025452 C229.28442078 78.9516217 228.71924744 79.53298889 228.13694763 80.13197327 C224.7416508 83.64816361 221.44826593 87.23852609 218.28318787 90.96400452 C215.72562417 93.91134305 213.06735343 96.76102522 210.41209412 99.62025452 C206.54713906 103.7890545 202.71497523 107.9751794 199.00584412 112.28431702 C197.85721877 113.60748837 196.68785728 114.91275957 195.50584412 116.20619202 C191.27941407 120.86565793 188.69437191 124.07165434 188.09959412 130.49525452 C188.55340192 135.75942508 189.94206285 139.52051461 193.53709412 143.43275452 C198.75783827 146.49710434 203.22922439 147.47810201 209.22459412 146.49525452 C217.68273955 142.72292165 224.59761215 133.24804095 230.50584412 126.31166077 C233.07778482 123.35498303 235.7457173 120.49167452 238.41209412 117.62025452 C242.23539436 113.49716811 246.01822875 109.35246992 249.68553162 105.08900452 C251.02026984 103.56704057 252.38584988 102.07209217 253.76365662 100.58900452 C254.57576599 99.71244202 255.38787537 98.83587952 256.22459412 97.93275452 C256.97353943 97.13482483 257.72248474 96.33689514 258.49412537 95.51478577 C262.1684982 90.92743231 262.92262354 86.94028997 262.41209412 81.12025452 C261.18704687 77.91992811 261.18704687 77.91992811 259.41209412 75.12025452 C258.82428162 74.03744202 258.82428162 74.03744202 258.22459412 72.93275452 C255.47573338 70.18389378 252.14630518 69.06635022 248.41209412 68.12025452 C242.15378769 68.12025452 237.55289334 70.81794468 233.03318787 75.07337952 Z " fill="#A4C639" transform="translate(40.58790588378906,-0.1202545166015625)"/>
<path d="M0 0 C-1.41738489 3.25207092 -3.12526412 5.31361067 -5.6875 7.75 C-8.95218593 10.93292277 -11.98199641 14.21300958 -14.953125 17.66796875 C-17.58166954 20.66270365 -20.28934562 23.57967945 -23 26.5 C-27.41690347 31.26440735 -31.75194623 36.08394761 -36 41 C-37.80635574 43.04770599 -39.61303434 45.0951136 -41.421875 47.140625 C-43.03238229 49.03815339 -44.52695227 50.99452538 -46 53 C-46 51.68 -46 50.36 -46 49 C-48.07826341 48.77524355 -48.07826341 48.77524355 -49.4375 50.3125 C-49.953125 50.869375 -50.46875 51.42625 -51 52 C-52.5625 53.6875 -52.5625 53.6875 -54 55 C-54.66 55 -55.32 55 -56 55 C-56.33 55.99 -56.66 56.98 -57 58 C-57.66 57.67 -58.32 57.34 -59 57 C-57.71580959 55.32756598 -56.42242815 53.66218553 -55.125 52 C-54.04605469 50.6078125 -54.04605469 50.6078125 -52.9453125 49.1875 C-52.30335938 48.465625 -51.66140625 47.74375 -51 47 C-50.34 47 -49.68 47 -49 47 C-48.73960937 46.4225 -48.47921875 45.845 -48.2109375 45.25 C-46.91555814 42.84310157 -45.44524098 41.03485454 -43.625 39 C-43.03976563 38.34 -42.45453125 37.68 -41.8515625 37 C-40.59671442 35.64455229 -39.30713974 34.32059333 -37.98828125 33.02734375 C-35.97991731 30.97952275 -34.28305087 28.8552433 -32.5625 26.5625 C-28.57272329 21.37323818 -24.30677199 16.87250929 -19 13 C-18.34 13 -17.68 13 -17 13 C-15.56600748 11.77817381 -15.56600748 11.77817381 -14.1015625 10.15625 C-13.53953125 9.56972656 -12.9775 8.98320313 -12.3984375 8.37890625 C-11.21982022 7.13019499 -10.04530224 5.87760129 -8.875 4.62109375 C-8.31039062 4.03457031 -7.74578125 3.44804688 -7.1640625 2.84375 C-6.65311035 2.29912109 -6.1421582 1.75449219 -5.61572266 1.19335938 C-4 0 -4 0 0 0 Z M-61 58 C-60.34 58.33 -59.68 58.66 -59 59 C-59.99 59 -60.98 59 -62 59 C-61.67 58.67 -61.34 58.34 -61 58 Z " fill="#ADCC3F" transform="translate(275,73)"/>
<path d="M0 0 C0.33 0 0.66 0 1 0 C1.40931397 7.64052747 0.24338217 12.98914498 -4.375 19.1875 C-5.96588957 20.89202454 -7.57991394 22.5758586 -9.234375 24.21875 C-12.51770383 27.52062871 -15.700891 30.90599324 -18.875 34.3125 C-19.50067871 34.9832959 -20.12635742 35.6540918 -20.77099609 36.34521484 C-23.7676477 39.56726098 -26.74583184 42.79685264 -29.625 46.125 C-32.7774191 49.76116627 -35.96493924 53.36342227 -39.1875 56.9375 C-39.69941895 57.51838379 -40.21133789 58.09926758 -40.73876953 58.69775391 C-43.39522058 61.62202392 -45.11053257 63.2894692 -49 64 C-47.5158627 60.51345524 -45.53785948 58.35808928 -42.8125 55.75 C-39.37097498 52.38495332 -36.14392936 48.94747012 -33.01171875 45.296875 C-30.39719915 42.31175359 -27.69961361 39.40807318 -25 36.5 C-21.17676669 32.37684772 -17.39386848 28.23221902 -13.7265625 23.96875 C-12.39182428 22.44678605 -11.02624424 20.95183765 -9.6484375 19.46875 C-8.43027344 18.15390625 -8.43027344 18.15390625 -7.1875 16.8125 C-6.43855469 16.01457031 -5.68960938 15.21664062 -4.91796875 14.39453125 C-1.35185793 9.94233994 -0.65712986 5.58560378 0 0 Z " fill="#AECC44" transform="translate(303,81)"/>
<path d="M0 0 C5.13138638 4.33064988 10.06503804 8.81876316 14.9375 13.4375 C19.55642386 17.81450157 24.22791664 22.09832822 29.03344727 26.26977539 C32.25768389 29.10654323 35.3753056 32.05457126 38.5 35 C43.09033477 39.30870169 47.69479674 43.57956748 52.484375 47.66796875 C54.06947583 49.06105994 55.59177902 50.42635547 57 52 C57 52.66 57 53.32 57 54 C53.56247993 52.4722133 50.81046312 50.49818944 48 48 C48 47.34 48 46.68 48 46 C47.11054687 45.60361328 47.11054687 45.60361328 46.203125 45.19921875 C43.91970946 43.95629575 42.52573277 42.69598354 40.75 40.8125 C37.6785149 37.64971811 34.4744672 34.73758806 31.140625 31.85546875 C24.33015045 25.95222895 17.7164649 19.83278814 11.125 13.6875 C10.48232178 13.0886499 9.83964355 12.4897998 9.17749023 11.87280273 C7.9734695 10.74728789 6.77250387 9.6184924 5.57519531 8.48583984 C4.24762477 7.23357786 2.90302524 5.99940481 1.5546875 4.76953125 C0 3 0 3 0 0 Z " fill="#B3D547" transform="translate(29,87)"/>
<path d="M0 0 C0.66 0 1.32 0 2 0 C0.39068981 3.85507075 -2.09855204 6.46961652 -4.9375 9.5 C-5.93108248 10.56762189 -6.92456929 11.63533281 -7.91796875 12.703125 C-8.42763184 13.24775391 -8.93729492 13.79238281 -9.46240234 14.35351562 C-11.90716192 16.97140362 -14.32937168 19.6098126 -16.75 22.25 C-17.44609375 23.0080896 -17.44609375 23.0080896 -18.15625 23.78149414 C-20.61945486 26.47011048 -23.05074597 29.18088578 -25.4375 31.9375 C-30.4780193 37.75633477 -35.76289938 43.35872249 -41 49 C-41.99 48.67 -42.98 48.34 -44 48 C-43.62302979 47.59797363 -43.24605957 47.19594727 -42.85766602 46.78173828 C-36.24676643 39.72702583 -29.65052595 32.66561624 -23.20703125 25.45703125 C-20.65814251 22.61941883 -18.08115423 19.80821049 -15.5 17 C-11.19519052 12.3156429 -6.92606436 7.60078711 -2.6796875 2.86328125 C-1.80442539 1.89235095 -0.92433473 0.92433473 0 0 Z " fill="#AFD64A" transform="translate(298,163)"/>
<path d="M0 0 C2.38038356 2.60354452 3 4.10369569 3 7.625 C2 10 2 10 -0.25 11.9375 C-3 13 -3 13 -5.6875 12.375 C-8 11 -8 11 -10 8 C-9.75 4.375 -9.75 4.375 -9 1 C-5.88122044 -0.55938978 -3.42744229 -0.3607834 0 0 Z " fill="#AAC638" transform="translate(281,4)"/>
<path d="M0 0 C3.65189941 1.92205232 5.36216057 3.22037054 7 7 C7.66 7.33 8.32 7.66 9 8 C6.06296616 7.37063561 3.66211372 6.37579827 1 5 C0.49210937 5.51949219 -0.01578125 6.03898438 -0.5390625 6.57421875 C-3.59919996 9.67447037 -6.58043168 12.66784175 -10 15.375 C-12.79305886 17.8189265 -14.75955349 20.18865723 -17 23.125 C-20.05801454 27.07689572 -22.29023568 29.35158249 -27 31 C-27.99 30.34 -28.98 29.68 -30 29 C-29.16339844 28.66355469 -28.32679688 28.32710937 -27.46484375 27.98046875 C-22.9759174 25.41464501 -20.00342467 22.12447046 -16.5625 18.3125 C-15.61793945 17.28866211 -15.61793945 17.28866211 -14.65429688 16.24414062 C-10.85347767 12.10738056 -7.13928852 7.89867084 -3.46069336 3.65307617 C-2.35002976 2.39613096 -1.18606174 1.18606174 0 0 Z " fill="#B4CF44" transform="translate(184,127)"/>
<path d="M0 0 C-0.93137592 1.29608947 -1.8703566 2.58671632 -2.8125 3.875 C-3.33457031 4.59429688 -3.85664063 5.31359375 -4.39453125 6.0546875 C-6 8 -6 8 -9 10 C-9.66 9.34 -10.32 8.68 -11 8 C-16.28 13.28 -21.56 18.56 -27 24 C-27.99 23.67 -28.98 23.34 -30 23 C-29.20335938 22.22076172 -29.20335938 22.22076172 -28.390625 21.42578125 C-25.30172406 18.37633708 -22.32246909 15.40732938 -19.625 12 C-19.08875 11.34 -18.5525 10.68 -18 10 C-17.34 10 -16.68 10 -16 10 C-15.773125 9.46375 -15.54625 8.9275 -15.3125 8.375 C-11.12093361 0.79026082 -8.61182394 -1.01315576 0 0 Z " fill="#B4D23B" transform="translate(155,0)"/>
<path d="M0 0 C1.32 0.66 2.64 1.32 4 2 C3.48870274 6.33457979 2.17094301 8.36066538 -0.8125 11.5 C-2.0190625 12.79357422 -2.0190625 12.79357422 -3.25 14.11328125 C-4.1575 15.06589844 -5.065 16.01851562 -6 17 C-7.58043752 18.66237496 -9.1574867 20.32757899 -10.72729492 22 C-11.75711351 23.09627385 -12.79341226 24.18650904 -13.8371582 25.26953125 C-17.26207253 28.90753866 -19.66019284 32.5815993 -22 37 C-22.66 36.67 -23.32 36.34 -24 36 C-23.43333454 34.53510951 -22.84595772 33.07821997 -22.25 31.625 C-21.76273437 30.40683594 -21.76273437 30.40683594 -21.265625 29.1640625 C-19.77092303 26.60830667 -18.60096442 26.25952214 -16 25 C-14.91822605 23.07608861 -14.91822605 23.07608861 -14 21 C-12.51953125 19.359375 -12.51953125 19.359375 -10.8125 17.75 C-8.14632536 15.15103985 -5.56046505 12.51197761 -3.0625 9.75 C-2.47597656 9.10546875 -1.88945313 8.4609375 -1.28515625 7.796875 C0.29086994 5.96150583 0.29086994 5.96150583 0 3 C0 2.01 0 1.02 0 0 Z " fill="#B5D34C" transform="translate(119,67)"/>
<path d="M0 0 C-1.45810622 3.39465355 -3.33766728 5.52251713 -6 8.0625 C-8.37442798 10.33653856 -10.16347952 12.24521929 -12 15 C-13.65 14.67 -15.3 14.34 -17 14 C-13.87971407 10.27087779 -10.7149993 6.59727248 -7.375 3.0625 C-6.82585937 2.47597656 -6.27671875 1.88945313 -5.7109375 1.28515625 C-4 0 -4 0 0 0 Z M-20 13 C-19.34 13.99 -18.68 14.98 -18 16 C-22.75 19.875 -22.75 19.875 -25 21 C-26.0409066 22.64142963 -27.04504326 24.30712215 -28 26 C-28.99 25.67 -29.98 25.34 -31 25 C-29.54234835 23.37438849 -28.08385614 21.74953066 -26.625 20.125 C-25.81289062 19.22007813 -25.00078125 18.31515625 -24.1640625 17.3828125 C-22.80923795 15.89103817 -21.42494565 14.42494565 -20 13 Z " fill="#B0D234" transform="translate(275,73)"/>
<path d="M0 0 C0.48210937 0.42152344 0.96421875 0.84304687 1.4609375 1.27734375 C2.09257812 1.82519531 2.72421875 2.37304688 3.375 2.9375 C4.00148437 3.48277344 4.62796875 4.02804688 5.2734375 4.58984375 C6.95632334 6.06958624 6.95632334 6.06958624 9 7 C9 7.99 9 8.98 9 10 C9.59296875 10.10054687 10.1859375 10.20109375 10.796875 10.3046875 C13.40324737 11.12726602 14.40713837 12.13005756 16.25 14.125 C20.57792391 18.64712563 25.23776552 22.71906396 30.0625 26.703125 C30.701875 27.23421875 31.34125 27.7653125 32 28.3125 C32.5775 28.78300781 33.155 29.25351563 33.75 29.73828125 C35 31 35 31 35 33 C31.08670547 32.45354896 29.41281015 30.70064387 26.75 27.875 C23.37301597 24.38270432 19.92832797 21.12064094 16.24609375 17.95703125 C13.372612 15.45335411 10.55959806 12.88743252 7.75 10.3125 C7.24235107 9.84859863 6.73470215 9.38469727 6.21166992 8.90673828 C3.40798157 6.33333138 0.66868103 3.71315905 -2 1 C-1.34 0.67 -0.68 0.34 0 0 Z " fill="#AFD44B" transform="translate(135,184)"/>
<path d="M0 0 C0.66 0 1.32 0 2 0 C1.431775 3.66910998 0.05620402 5.24478235 -2.625 7.75 C-7.52981909 12.46956513 -12.21598983 17.32398474 -16 23 C-16.66 23 -17.32 23 -18 23 C-18.226875 23.5775 -18.45375 24.155 -18.6875 24.75 C-20.33038023 27.5663661 -22.39533227 29.08077114 -25 31 C-24.40891902 27.80816271 -23.49193294 26.07554365 -21.3125 23.6875 C-20.69503906 23.00558594 -20.07757813 22.32367188 -19.44140625 21.62109375 C-17.47226179 19.50702025 -15.50078863 17.39521202 -13.52734375 15.28515625 C-12.90754639 14.62233643 -12.28774902 13.9595166 -11.64916992 13.27661133 C-10.39825781 11.94175834 -9.14457811 10.60949269 -7.88793945 9.2800293 C-5.52210849 6.76676014 -3.24494153 4.33439843 -1.203125 1.546875 C-0.80609375 1.03640625 -0.4090625 0.5259375 0 0 Z " fill="#B3D949" transform="translate(375,78)"/>
<path d="M0 0 C0 5.90052569 -1.5325611 9.19032669 -5 14 C-5.66 13.67 -6.32 13.34 -7 13 C-6.67 11.68 -6.34 10.36 -6 9 C-6.47050781 9.42152344 -6.94101563 9.84304687 -7.42578125 10.27734375 C-8.04839844 10.82519531 -8.67101562 11.37304688 -9.3125 11.9375 C-9.92738281 12.48277344 -10.54226562 13.02804688 -11.17578125 13.58984375 C-13 15 -13 15 -16 16 C-16.33 16.99 -16.66 17.98 -17 19 C-17.66 18.67 -18.32 18.34 -19 18 C-17.71580959 16.32756598 -16.42242815 14.66218553 -15.125 13 C-14.04605469 11.6078125 -14.04605469 11.6078125 -12.9453125 10.1875 C-12.30335938 9.465625 -11.66140625 8.74375 -11 8 C-10.34 8 -9.68 8 -9 8 C-8.67 7.34 -8.34 6.68 -8 6 C-7.34 6.33 -6.68 6.66 -6 7 C-6 6.34 -6 5.68 -6 5 C-4.04072937 3.2856382 -2.04119788 1.61594832 0 0 Z M-21 19 C-20.34 19.33 -19.68 19.66 -19 20 C-19.99 20 -20.98 20 -22 20 C-21.67 19.67 -21.34 19.34 -21 19 Z " fill="#B6CF39" transform="translate(235,112)"/>
<path d="M0 0 C0.33 0.99 0.66 1.98 1 3 C0.43152344 3.556875 -0.13695313 4.11375 -0.72265625 4.6875 C-10.76495986 14.30132943 -10.76495986 14.30132943 -18 26 C-18.66 26.99 -19.32 27.98 -20 29 C-20.66 29 -21.32 29 -22 29 C-22.33 29.66 -22.66 30.32 -23 31 C-22.46486488 22.43783807 -13.847204 15.5255551 -8.4140625 9.6328125 C-5.52837113 6.48563454 -2.75455299 3.26197064 0 0 Z M-24 31 C-23.67 31.99 -23.34 32.98 -23 34 C-23.99 34.99 -24.98 35.98 -26 37 C-25.34 35.02 -24.68 33.04 -24 31 Z " fill="#B1CA41" transform="translate(36,2)"/>
<path d="M0 0 C1 3 1 3 -0.3125 6.625 C-2 10 -2 10 -4 11 C-4.34153937 12.66500443 -4.67449498 14.33178677 -5 16 C-5.66 16.66 -6.32 17.32 -7 18 C-10.37450051 17.67343543 -11.72444767 16.37036702 -14 14 C-14.639375 13.71125 -15.27875 13.4225 -15.9375 13.125 C-18.70696212 11.6143843 -20.14796931 9.51347023 -22 7 C-21.67 6.34 -21.34 5.68 -21 5 C-20.32453125 5.66128906 -19.6490625 6.32257812 -18.953125 7.00390625 C-17.61507813 8.27041016 -17.61507813 8.27041016 -16.25 9.5625 C-15.36828125 10.40941406 -14.4865625 11.25632812 -13.578125 12.12890625 C-11.24525981 14.15843168 -11.24525981 14.15843168 -8.90625 14.1875 C-5.93446431 12.33622367 -4.74705454 9.48622265 -3.25 6.4375 C-2.93417969 5.82197266 -2.61835938 5.20644531 -2.29296875 4.57226562 C-1.51638111 3.05438979 -0.75654439 1.52796466 0 0 Z " fill="#AFCA44" transform="translate(293,39)"/>
<path d="M0 0 C0.99 0.33 1.98 0.66 3 1 C2.34644531 1.63808594 2.34644531 1.63808594 1.6796875 2.2890625 C0.0723334 3.92632086 -1.4027535 5.61626228 -2.875 7.375 C-5.44928916 10.40170136 -8.15151714 13.22647722 -11 16 C-11.763125 16.763125 -12.52625 17.52625 -13.3125 18.3125 C-13.869375 18.869375 -14.42625 19.42625 -15 20 C-15.33 19.34 -15.66 18.68 -16 18 C-14.8553125 16.6696875 -14.8553125 16.6696875 -13.6875 15.3125 C-12.08975657 13.41296059 -10.87162384 11.76158713 -9.6875 9.5625 C-7.16727459 5.73549104 -3.85164289 2.50046171 0 0 Z " fill="#B5D43C" transform="translate(139,14)"/>
<path d="M0 0 C0.66 0 1.32 0 2 0 C0.30636743 4.265445 -2.77377828 7.2202907 -5.875 10.5 C-6.40480469 11.06847656 -6.93460938 11.63695313 -7.48046875 12.22265625 C-10.26754475 15.20337524 -13.09307965 18.13520893 -16 21 C-16.33 20.01 -16.66 19.02 -17 18 C-14.3544182 15.18726331 -11.70849239 12.37485045 -9.0625 9.5625 C-8.30775391 8.76005859 -7.55300781 7.95761719 -6.77539062 7.13085938 C-6.05673828 6.36708984 -5.33808594 5.60332031 -4.59765625 4.81640625 C-3.93258057 4.10943604 -3.26750488 3.40246582 -2.58227539 2.67407227 C-1.73112195 1.77353853 -0.87619153 0.87619153 0 0 Z " fill="#B1DB46" transform="translate(258,89)"/>
<path d="M0 0 C6.73304432 4.62661705 12.33998772 10.13121677 18 16 C17.34 16.66 16.68 17.32 16 18 C13.93627679 16.10548397 11.87399843 14.20943437 9.8125 12.3125 C9.23435547 11.78205078 8.65621094 11.25160156 8.06054688 10.70507812 C4.6269523 7.5430673 1.27589497 4.32524932 -2 1 C-1.34 0.67 -0.68 0.34 0 0 Z " fill="#B0D446" transform="translate(112,163)"/>
<path d="M0 0 C0.66 0.66 1.32 1.32 2 2 C0.77023437 3.32064453 0.77023437 3.32064453 -0.484375 4.66796875 C-1.57300622 5.84106274 -2.66154288 7.01424448 -3.75 8.1875 C-4.28882813 8.76564453 -4.82765625 9.34378906 -5.3828125 9.93945312 C-7.79364567 12.54138893 -10.09107194 15.11760841 -12.265625 17.92578125 C-12.83796875 18.61027344 -13.4103125 19.29476562 -14 20 C-14.66 20 -15.32 20 -16 20 C-15.42380903 16.43235179 -14.13030516 14.74840503 -11.5625 12.25 C-10.94503906 11.63640625 -10.32757813 11.0228125 -9.69140625 10.390625 C-8 9 -8 9 -6 9 C-5.938125 8.443125 -5.87625 7.88625 -5.8125 7.3125 C-4.66626128 4.05012827 -2.50609803 2.31332126 0 0 Z " fill="#BAD645" transform="translate(339,118)"/>
<path d="M0 0 C0.66 0.99 1.32 1.98 2 3 C-0.28356246 5.34138543 -2.57813374 7.67166982 -4.875 10 C-5.85146484 11.00160156 -5.85146484 11.00160156 -6.84765625 12.0234375 C-7.47285156 12.65507812 -8.09804687 13.28671875 -8.7421875 13.9375 C-9.3182373 14.52402344 -9.89428711 15.11054688 -10.48779297 15.71484375 C-12 17 -12 17 -14 17 C-13.67 15.68 -13.34 14.36 -13 13 C-12.34 13 -11.68 13 -11 13 C-9.14000715 11.0324413 -7.46609802 8.94444402 -5.75390625 6.84765625 C-4 5 -4 5 -1 4 C-0.26676204 1.98491642 -0.26676204 1.98491642 0 0 Z " fill="#B5D13F" transform="translate(251,214)"/>
<path d="M0 0 C2.04119788 1.61594832 4.04072937 3.2856382 6 5 C6 5.66 6 6.32 6 7 C6.556875 7.061875 7.11375 7.12375 7.6875 7.1875 C11.48333226 8.52117079 14.21170413 11.42340827 16 15 C13.0530446 13.62211705 10.52949105 12.02522155 7.9375 10.0625 C7.26589844 9.55847656 6.59429687 9.05445313 5.90234375 8.53515625 C4.12830527 7.10353998 2.50114958 5.71626759 1 4 C1 3.34 1 2.68 1 2 C0.34 1.67 -0.32 1.34 -1 1 C-0.67 0.67 -0.34 0.34 0 0 Z " fill="#B0D242" transform="translate(172,218)"/>
<path d="M0 0 C3.00053019 1.35746132 5.20161656 2.90487338 7.6015625 5.15234375 C8.25640625 5.76400391 8.91125 6.37566406 9.5859375 7.00585938 C10.25882813 7.64330078 10.93171875 8.28074219 11.625 8.9375 C12.305625 9.57107422 12.98625 10.20464844 13.6875 10.85742188 C16.4896644 13.49068111 18.85507757 15.78261635 21 19 C17.29615312 17.57544351 15.09716929 15.19560275 12.46484375 12.33984375 C10.92498332 10.74891301 10.92498332 10.74891301 8 10 C6.2109375 8.22265625 6.2109375 8.22265625 4.375 6.0625 C3.76398438 5.35222656 3.15296875 4.64195312 2.5234375 3.91015625 C1 2 1 2 0 0 Z " fill="#B0C648" transform="translate(222,0)"/>
<path d="M0 0 C0.99 0.33 1.98 0.66 3 1 C2.45730469 1.53109375 1.91460937 2.0621875 1.35546875 2.609375 C0.28232422 3.66898438 0.28232422 3.66898438 -0.8125 4.75 C-1.87404297 5.79414063 -1.87404297 5.79414063 -2.95703125 6.859375 C-5.03281493 8.93721763 -5.03281493 8.93721763 -6.63671875 11.265625 C-7.08660156 11.83796875 -7.53648437 12.4103125 -8 13 C-8.66 13 -9.32 13 -10 13 C-9.48223379 8.89552608 -7.35372556 7.04300477 -4.4375 4.25 C-3.61121094 3.45078125 -2.78492188 2.6515625 -1.93359375 1.828125 C-1.29550781 1.22484375 -0.65742188 0.6215625 0 0 Z " fill="#B5DC45" transform="translate(311,149)"/>
<path d="M0 0 C3 2 3 2 4.4375 4.5 C5.75803929 7.09629048 5.75803929 7.09629048 8 8 C10.75998691 9.37999345 11.59193368 11.324674 13 14 C9.46616733 13.42400084 7.83087229 12.1890605 5.375 9.625 C4.78460937 9.01914063 4.19421875 8.41328125 3.5859375 7.7890625 C1.20077711 5.09841358 0 3.67086422 0 0 Z " fill="#B2D13F" transform="translate(15,73)"/>
<path d="M0 0 C2.47961474 1.87646521 4.66291013 3.53650143 6.5 6.0625 C8.34241162 8.44228168 10.37326809 9.58014491 13 11 C12.34 11.66 11.68 12.32 11 13 C9.37133456 11.56665422 7.74719006 10.12817021 6.125 8.6875 C5.22007813 7.88699219 4.31515625 7.08648437 3.3828125 6.26171875 C1 4 1 4 -1 1 C-0.67 0.67 -0.34 0.34 0 0 Z " fill="#B3DF47" transform="translate(92,145)"/>
<path d="M0 0 C0.66 0.33 1.32 0.66 2 1 C-0.53363068 5.22271781 -2.56620325 7.78310162 -7 10 C-5.33248852 6.05860922 -2.77289351 3.2107188 0 0 Z M-9 10 C-8.34 10.33 -7.68 10.66 -7 11 C-8.65 12.32 -10.3 13.64 -12 15 C-10.125 11.125 -10.125 11.125 -9 10 Z " fill="#C7DB2E" transform="translate(146,0)"/>
<path d="M0 0 C0.99 0.33 1.98 0.66 3 1 C1.88200014 2.33920838 0.75538103 3.67122556 -0.375 5 C-1.00148438 5.7425 -1.62796875 6.485 -2.2734375 7.25 C-3.12808594 8.11625 -3.12808594 8.11625 -4 9 C-4.66 9 -5.32 9 -6 9 C-4.68775452 5.06326356 -3.08089673 2.77280706 0 0 Z " fill="#B8DC46" transform="translate(270,69)"/>
<path d="M0 0 C0 3.60573896 -0.81707462 4.41336566 -3 7.1875 C-3.556875 7.90292969 -4.11375 8.61835937 -4.6875 9.35546875 C-5.120625 9.89816406 -5.55375 10.44085938 -6 11 C-6.99 10.67 -7.98 10.34 -9 10 C-6.03 6.7 -3.06 3.4 0 0 Z " fill="#B9D242" transform="translate(391,61)"/>
<path d="M0 0 C0.66 0.66 1.32 1.32 2 2 C1.2575 2.53625 0.515 3.0725 -0.25 3.625 C-3.17674961 6.15264739 -4.98621339 8.71827368 -7 12 C-7.66 11.34 -8.32 10.68 -9 10 C-7.8758824 8.70756532 -6.75067408 7.41607925 -5.625 6.125 C-4.99851562 5.40570312 -4.37203125 4.68640625 -3.7265625 3.9453125 C-2.52573166 2.5923402 -1.2791655 1.2791655 0 0 Z " fill="#B1D74B" transform="translate(132,22)"/>
<path d="M0 0 C1.32 0.66 2.64 1.32 4 2 C3.5206753 6.31392226 2.2542015 8.16569547 -1 11 C-1.33 10.01 -1.66 9.02 -2 8 C-1.505 7.360625 -1.01 6.72125 -0.5 6.0625 C1.28115446 4.11481756 1.28115446 4.11481756 0.6875 1.75 C0.460625 1.1725 0.23375 0.595 0 0 Z " fill="#C2DB3C" transform="translate(119,67)"/>
<path d="M0 0 C1.875 0.3125 1.875 0.3125 4 1 C6 4 6 4 5.625 6.6875 C5.41875 7.450625 5.2125 8.21375 5 9 C4.01 9 3.02 9 2 9 C2.226875 8.401875 2.45375 7.80375 2.6875 7.1875 C2.790625 6.465625 2.89375 5.74375 3 5 C1.60411246 3.35405861 1.60411246 3.35405861 0 2 C0 1.34 0 0.68 0 0 Z " fill="#CFE42C" transform="translate(154,100)"/>
<path d="M0 0 C0.66 0.33 1.32 0.66 2 1 C0.02 4.63 -1.96 8.26 -4 12 C-4.66 11.67 -5.32 11.34 -6 11 C-5.38080922 9.53919067 -4.75443308 8.08142545 -4.125 6.625 C-3.77695313 5.81289062 -3.42890625 5.00078125 -3.0703125 4.1640625 C-2 2 -2 2 0 0 Z " fill="#AECB44" transform="translate(101,92)"/>
<path d="M0 0 C3.56764821 0.57619097 5.25159497 1.86969484 7.75 4.4375 C8.67039062 5.36369141 8.67039062 5.36369141 9.609375 6.30859375 C11 8 11 8 11 10 C7.26790586 8.75596862 5.69291525 6.82756102 3 4 C2.401875 3.4225 1.80375 2.845 1.1875 2.25 C0 1 0 1 0 0 Z " fill="#A7CE4E" transform="translate(379,0)"/>
<path d="M0 0 C-1.5277867 3.43752007 -3.50181056 6.18953688 -6 9 C-6.66 9 -7.32 9 -8 9 C-7.53918323 4.85264908 -4.48412936 0 0 0 Z " fill="#C3D747" transform="translate(300,163)"/>
<path d="M0 0 C4.2742558 1.5830577 6.26531794 4.50568404 9 8 C4.62140745 7.49477778 2.18348776 4.82172778 -1 2 C-0.67 1.34 -0.34 0.68 0 0 Z " fill="#BCD53B" transform="translate(42,100)"/>
<path d="M0 0 C-1.44253657 3.36591866 -3.33264727 5.51047079 -6 8 C-6.99 7.67 -7.98 7.34 -9 7 C-7.88121617 5.82737096 -6.75476949 4.66204862 -5.625 3.5 C-4.68527344 2.52546875 -4.68527344 2.52546875 -3.7265625 1.53125 C-2 0 -2 0 0 0 Z " fill="#BAD53B" transform="translate(260,89)"/>
<path d="M0 0 C2.38672669 2.96283313 4.7353371 5.94270509 7 9 C3.2273236 8.46104623 1.31787009 7.00464642 -1 4 C-0.75 1.75 -0.75 1.75 0 0 Z " fill="#A4D04F" transform="translate(112,58)"/>
<path d="M0 0 C1.1725131 0.95117134 2.33787015 1.91117009 3.5 2.875 C4.47453125 3.67550781 4.47453125 3.67550781 5.46875 4.4921875 C6.22671875 5.23855469 6.22671875 5.23855469 7 6 C7 6.66 7 7.32 7 8 C3.18315774 6.44499019 0.80804268 3.96404505 -2 1 C-1.34 0.67 -0.68 0.34 0 0 Z " fill="#B9D441" transform="translate(79,133)"/>
<path d="M0 0 C0.66 0.99 1.32 1.98 2 3 C0.35 4.65 -1.3 6.3 -3 8 C-3.99 7.67 -4.98 7.34 -6 7 C-4.02 4.69 -2.04 2.38 0 0 Z " fill="#ADD452" transform="translate(260,204)"/>
<path d="M0 0 C3.67420866 0.30618405 4.78135513 0.75771784 7.3125 3.5625 C8.1478125 4.7690625 8.1478125 4.7690625 9 6 C4.64464931 4.83857315 2.35380297 3.92300495 0 0 Z " fill="#ABCE4C" transform="translate(49,108)"/>
<path d="M0 0 C0.66 0.99 1.32 1.98 2 3 C-0.31 4.98 -2.62 6.96 -5 9 C-4.67 7.68 -4.34 6.36 -4 5 C-3.01 4.67 -2.02 4.34 -1 4 C-0.26676204 1.98491642 -0.26676204 1.98491642 0 0 Z " fill="#A7D355" transform="translate(251,214)"/>
<path d="M0 0 C0.66 0.66 1.32 1.32 2 2 C0.38405168 4.04119788 -1.2856382 6.04072937 -3 8 C-3.66 8 -4.32 8 -5 8 C-4.45773019 4.20411134 -2.79872437 2.52788007 0 0 Z " fill="#BAD83E" transform="translate(266,198)"/>
<path d="M0 0 C2.31 1.98 4.62 3.96 7 6 C6.01 6.33 5.02 6.66 4 7 C1.7363436 5.59554165 -0.0208685 3.8032087 -2 2 C-1.34 1.34 -0.68 0.68 0 0 Z " fill="#B8D83D" transform="translate(135,184)"/>
<path d="M0 0 C0.66 0.33 1.32 0.66 2 1 C-0.57784846 3.64752004 -2.91648098 5.94432065 -6 8 C-4.55746343 4.63408134 -2.66735273 2.48952921 0 0 Z " fill="#B6CF36" transform="translate(141,100)"/>
<path d="M0 0 C0.33 1.32 0.66 2.64 1 4 C-0.9375 6.25 -0.9375 6.25 -3 8 C-3.99 7.67 -4.98 7.34 -6 7 C-4.02 4.69 -2.04 2.38 0 0 Z " fill="#ABCE4F" transform="translate(364,90)"/>
<path d="M0 0 C3.7952131 1.49097658 5.61042731 3.75700849 8 7 C4.21388773 6.45912682 2.44599233 4.88277668 0 2 C0 1.34 0 0.68 0 0 Z " fill="#BBD123" transform="translate(252,36)"/>
<path d="M0 0 C1.98 1.65 3.96 3.3 6 5 C5.34 5.66 4.68 6.32 4 7 C2.02 5.35 0.04 3.7 -2 2 C-1.34 1.34 -0.68 0.68 0 0 Z " fill="#B9DA42" transform="translate(124,174)"/>
<path d="M0 0 C0 3.99904969 -1.72586967 5.80200422 -4 9 C-4.99 8.67 -5.98 8.34 -7 8 C-4.69 5.36 -2.38 2.72 0 0 Z " fill="#D4E130" transform="translate(251,90)"/>
<path d="M0 0 C1.98 1.65 3.96 3.3 6 5 C5.67 5.99 5.34 6.98 5 8 C3.62437146 6.71034824 2.29233607 5.37310707 1 4 C1 3.34 1 2.68 1 2 C0.34 1.67 -0.32 1.34 -1 1 C-0.67 0.67 -0.34 0.34 0 0 Z " fill="#A9DA52" transform="translate(172,218)"/>
<path d="M0 0 C0.99 0.33 1.98 0.66 3 1 C1.35 2.65 -0.3 4.3 -2 6 C-2.99 5.67 -3.98 5.34 -5 5 C-3.35 3.35 -1.7 1.7 0 0 Z " fill="#A8D74F" transform="translate(238,111)"/>
<path d="M0 0 C0.66 0.66 1.32 1.32 2 2 C0.71937515 3.7074998 -0.61767557 5.37373596 -2 7 C-2.66 7 -3.32 7 -4 7 C-3.43628586 3.73045798 -2.50037734 2.17424117 0 0 Z " fill="#C4DA36" transform="translate(348,108)"/>
<path d="M0 0 C1.7074998 1.28062485 3.37373596 2.61767557 5 4 C5 4.66 5 5.32 5 6 C5.66 6.33 6.32 6.66 7 7 C3.76509224 6.44225728 2.02144994 5.62788492 0 3 C0 2.01 0 1.02 0 0 Z " fill="#C4DC35" transform="translate(186,128)"/>
<path d="M0 0 C0.66 0 1.32 0 2 0 C0.70700306 2.88437779 -0.65941363 4.87219421 -3 7 C-3.66 6.67 -4.32 6.34 -5 6 C-3.38405168 3.95880212 -1.7143618 1.95927063 0 0 Z " fill="#ABD458" transform="translate(243,99)"/>
<path d="M0 0 C0.66 0 1.32 0 2 0 C1.75 1.875 1.75 1.875 1 4 C-1.0625 5.25 -1.0625 5.25 -3 6 C-1.125 1.125 -1.125 1.125 0 0 Z " fill="#ACD04E" transform="translate(375,78)"/>
<path d="" fill="#FFFF00" transform="translate(0,0)"/>
</svg>
