<svg width="500" height="500" version="1.1" xmlns="http://www.w3.org/2000/svg" desc="Created with imagetracer.js version 1.2.6" ><path fill="rgb(98,83,200)" stroke="rgb(98,83,200)" stroke-width="1" opacity="0.9764705882352941" d="M 130.5 50 L 366.5 50 L 367.5 51 L 369.5 51 L 376.5 52 L 378.5 52 L 382.5 54 L 384.5 54 L 391.5 55 L 393 56.5 L 389.5 57 L 383.5 54 L 381.5 55 L 378.5 53 L 366.5 53 L 365.5 54 L 354.5 55 L 352 54 Q 353.3 57.3 348.5 56 L 319.5 61 L 315.5 63 L 303.5 64 L 299.5 66 L 290.5 66 L 283.5 69 L 266.5 71 L 257.5 74 L 250.5 74 L 247.5 76 L 238.5 78 L 230.5 78 L 219.5 82 L 204.5 84 L 201.5 86 L 193.5 86 L 178.5 91 L 174.5 91 L 165.5 94 L 160.5 94 L 151.5 98 Q 142.6 97.1 138.5 101 L 132.5 101 L 125.5 103 L 114.5 103 L 109.5 105 L 88.5 107 L 83.5 109 L 78.5 109 L 70 111 Q 71.3 114 67.5 113 L 62 115 Q 63.3 118 59.5 117 L 53 121.5 Q 53.8 123.8 51.5 123 L 52 121.5 L 53 112.5 L 55 110.5 L 56 103.5 L 60 95.5 Q 67.7 81.2 79.5 71 Q 89.9 61.4 104.5 56 L 116.5 52 L 129.5 51 L 130.5 50 Z M 58 114 L 56 117 L 58 117 L 58 114 Z " /><path fill="rgb(98,83,200)" stroke="rgb(98,83,200)" stroke-width="1" opacity="0.9764705882352941" d="M 397.5 59 L 402 60.5 L 400.5 61 L 397.5 60 L 397.5 59 Z " /><path fill="rgb(98,83,200)" stroke="rgb(98,83,200)" stroke-width="1" opacity="0.9764705882352941" d="M 406.5 63 L 408.5 64 L 410 63.5 Q 408.8 66.3 407.5 64 L 406.5 63 Z " /><path fill="rgb(98,83,200)" stroke="rgb(98,83,200)" stroke-width="1" opacity="0.9764705882352941" d="M 226.5 104 L 229 104.5 L 226.5 105 L 226.5 104 Z " /><path fill="rgb(98,83,200)" stroke="rgb(98,83,200)" stroke-width="1" opacity="0.9764705882352941" d="M 52.5 124 L 53 127.5 L 52 127.5 L 51 125.5 L 52.5 124 Z " /><path fill="rgb(130,62,179)" stroke="rgb(130,62,179)" stroke-width="1" opacity="0.9568627450980393" d="M 380.5 52 L 388.5 53 L 390 54.5 L 388.5 55 L 384.5 54 L 385.5 56 L 392.5 57 L 392.5 55 L 406.5 61 L 409.5 64 L 412 64 Q 410.9 66.7 413.5 66 L 430 80.5 L 434 86.5 L 432 85.5 L 421.5 74 Q 419.3 74.8 420 72.5 L 418 72.5 L 418.5 71 L 414.5 68 L 413 68.5 L 411.5 66 Q 408.2 67.1 409 64.5 L 403.5 62 L 399.5 63 Q 398.2 60.7 393.5 62 L 391.5 63 L 387.5 62 L 374.5 66 L 362.5 67 L 348.5 71 L 341.5 71 L 337.5 73 L 328.5 74 L 313.5 78 L 306.5 78 L 303.5 80 L 301.5 80 L 292.5 81 L 283.5 84 L 278.5 84 L 265.5 88 L 260.5 88 L 252 90 Q 253.3 93.7 247.5 92 L 244.5 93 L 236.5 94 L 224.5 98 L 217.5 98 L 213.5 100 L 205.5 101 L 204 102.5 L 279.5 103 L 280.5 104 L 300 104.5 L 279.5 105 L 277.5 105 Q 271.3 106.7 269.5 104 L 232.5 104 L 229.5 105 L 226.5 104 L 225.5 105 L 183.5 105 L 161.5 109 L 159.5 111 L 153.5 112 L 143.5 117 L 132 125.5 Q 132.8 127.8 130.5 127 L 127 132 L 123 134.5 L 110.5 156 L 111 154.5 L 111 150.5 L 115 142.5 L 112 144.5 L 111.5 146 L 109.5 145 L 106 146 L 103.5 150 L 73.5 173 L 70 174 L 67.5 178 L 64.5 180 L 52 191.5 L 50.5 201 L 50 131.5 L 51.5 126 L 52.5 128 L 53 124.5 L 51 124.5 L 53 121.5 Q 55.5 116.8 62 117 Q 60.8 114 64.5 115 L 70 113 Q 68.7 109.7 73.5 111 L 88.5 107 L 96.5 107 L 97.5 106 L 109.5 105 L 114.5 103 L 125.5 103 L 132.5 101 L 138.5 101 Q 142.6 97.1 151.5 98 L 160.5 94 L 165.5 94 L 174.5 91 L 178.5 91 L 193.5 86 L 201.5 86 L 204.5 84 L 219.5 82 L 230.5 78 L 238.5 78 L 247.5 76 L 250.5 74 L 257.5 74 L 266.5 71 L 283.5 69 L 290.5 66 L 299.5 66 L 308.5 63 L 315.5 63 L 319.5 61 L 339.5 57 Q 347.5 57.7 352 56 Q 350.9 53.3 353.5 54 Q 354.7 56.3 359.5 55 Q 366.7 51.7 378.5 53 L 382.5 55 L 381.5 53 L 380.5 52 Z M 398 59 L 400 61 L 402 61 L 398 59 Z " /><path fill="rgb(130,62,179)" stroke="rgb(130,62,179)" stroke-width="1" opacity="0.9568627450980393" d="M 437.5 92 L 438.5 94 L 437.5 92 Z " /><path fill="rgb(130,62,179)" stroke="rgb(130,62,179)" stroke-width="1" opacity="0.9568627450980393" d="M 57.5 114 L 58 117 L 56 116.5 L 57.5 114 Z " /><path fill="rgb(171,54,163)" stroke="rgb(171,54,163)" stroke-width="1" opacity="0.9607843137254902" d="M 301.5 103 L 304 103.5 L 301.5 104 L 301.5 103 Z " /><path fill="rgb(171,54,163)" stroke="rgb(171,54,163)" stroke-width="1" opacity="0.9607843137254902" d="M 308.5 103 L 313 103.5 L 308.5 104 L 308.5 103 Z " /><path fill="rgb(171,54,163)" stroke="rgb(171,54,163)" stroke-width="1" opacity="0.9607843137254902" d="M 322.5 103 L 325 103.5 L 324.5 106 L 321 104.5 L 322.5 103 Z " /><path fill="rgb(171,54,163)" stroke="rgb(171,54,163)" stroke-width="1" opacity="0.9607843137254902" d="M 334.5 103 L 338.5 105 L 369.5 106 L 375.5 109 L 385.5 110 L 388.5 109 L 396.5 113 L 404.5 115 L 406.5 117 L 414.5 119 L 422 123.5 Q 421.2 126.1 424.5 125 L 438.5 134 L 438 132.5 L 436.5 130 L 433 128.5 Q 432.3 126.3 434.5 127 L 445 134 L 446.5 140 L 448.5 135 L 449 137.5 L 448 138.5 L 448 150.5 L 449 150.5 L 449.5 146 L 450 178.5 L 449 178.5 L 449 167.5 L 447.5 166 L 437.5 161 L 435.5 161 L 430.5 162 L 428.5 162 L 423.5 160 L 421 161 Q 419.7 157.7 424.5 159 L 424.5 158 L 418 155 L 417.5 157 Q 415.8 152.5 409 154 L 407.5 151 L 402.5 151 L 394.5 147 L 390 147 L 389.5 149 L 388.5 147 L 387.5 149 Q 381.7 134.8 370.5 126 Q 368.8 128.7 367 124.5 Q 369.3 123.3 366.5 122 L 365.5 124 L 362 120.5 Q 364.3 119.3 361.5 118 L 360 118.5 L 360.5 120 L 358.5 117 L 360 117.5 Q 360.8 115.3 358.5 116 L 355.5 115 L 355.5 116 L 357 116.5 L 355.5 117 L 350 113.5 Q 352.3 112.3 349.5 111 L 347 111.5 L 349 112.5 L 347.5 113 L 335.5 108 Q 329.1 108.9 326 106.5 L 329.5 104 L 331.5 104 L 334.5 103 Z M 340 108 Q 339 110 342 109 L 343 110 Q 344 107 340 108 Z M 440 134 L 443 137 L 443 136 L 440 134 Z " /><path fill="rgb(171,54,163)" stroke="rgb(171,54,163)" stroke-width="1" opacity="0.9607843137254902" d="M 232.5 104 L 239 104.5 L 232.5 105 L 232.5 104 Z " /><path fill="rgb(171,54,163)" stroke="rgb(171,54,163)" stroke-width="1" opacity="0.9607843137254902" d="M 242.5 104 L 268 104.5 L 242.5 105 L 242.5 104 Z " /><path fill="rgb(171,54,163)" stroke="rgb(171,54,163)" stroke-width="1" opacity="0.9607843137254902" d="M 314.5 104 Q 319.9 102.1 319 105.5 L 317.5 105 Q 313.5 105.8 314.5 104 Z " /><path fill="rgb(171,54,163)" stroke="rgb(171,54,163)" stroke-width="1" opacity="0.9607843137254902" d="M 443.5 108 L 444 110 L 446 110.5 L 444.5 111 L 443.5 108 Z " /><path fill="rgb(171,54,163)" stroke="rgb(171,54,163)" stroke-width="1" opacity="0.9607843137254902" d="M 446.5 112 L 446 113.5 L 445.5 117 L 444 113.5 L 446.5 112 Z " /><path fill="rgb(171,54,163)" stroke="rgb(171,54,163)" stroke-width="1" opacity="0.9607843137254902" d="M 429.5 125 L 432 126.5 L 430.5 127 L 429.5 125 Z " /><path fill="rgb(171,54,163)" stroke="rgb(171,54,163)" stroke-width="1" opacity="0.9607843137254902" d="M 191.5 130 L 287.5 130 L 288.5 131 L 312.5 131 L 313.5 132 L 321 132 L 321.5 134 Q 322.8 131.7 327.5 133 L 337 136.5 L 331.5 138 L 327.5 137 Q 326.2 139.3 321.5 138 L 315.5 136 L 314 136.5 Q 314.9 133.1 309.5 135 L 307.5 137 L 297.5 137 L 295.5 136 L 290 137 L 289.5 135 L 287.5 137 L 281.5 138 L 278.5 137 L 277.5 138 L 257.5 138 L 256.5 139 L 251.5 138 L 251.5 139 L 253 139.5 L 242.5 142 L 233.5 142 L 227.5 145 L 213.5 147 L 210.5 149 L 199.5 150 L 195 152.5 Q 195.9 155.5 191.5 154 L 186.5 157 L 181.5 158 L 178.5 161 L 178.5 159 L 175.5 161 L 160.5 167 L 150.5 173 L 145.5 174 L 134.5 181 L 133 180.5 L 132.5 183 L 132 180.5 L 134 169.5 L 138 158.5 L 150 143.5 L 149.5 142 L 151.5 142 L 154 140.5 L 153.5 139 L 155.5 139 L 166.5 134 L 180.5 131 L 190.5 131 L 191.5 130 Z M 176 133 L 176 134 L 181 134 L 176 133 Z M 326 135 L 326 136 L 329 136 L 326 135 Z M 166 136 L 166 137 L 168 137 L 166 136 Z M 332 136 L 332 137 L 334 137 L 332 136 Z M 163 137 L 163 138 L 165 138 L 163 137 Z M 161 138 L 160 140 L 162 139 L 161 138 Z M 157 140 L 155 141 L 155 142 L 159 141 L 157 140 Z " /><path fill="rgb(171,54,163)" stroke="rgb(171,54,163)" stroke-width="1" opacity="0.9607843137254902" d="M 340.5 138 L 343 139.5 L 341.5 140 L 340.5 138 Z " /><path fill="rgb(171,54,163)" stroke="rgb(171,54,163)" stroke-width="1" opacity="0.9607843137254902" d="M 347.5 142 L 349.5 145 L 347.5 142 Z " /><path fill="rgb(171,54,163)" stroke="rgb(171,54,163)" stroke-width="1" opacity="0.9607843137254902" d="M 356.5 151 L 357.5 153 L 356.5 151 Z " /><path fill="rgb(171,54,163)" stroke="rgb(171,54,163)" stroke-width="1" opacity="0.9607843137254902" d="M 110.5 153 L 111 154.5 L 106.5 169 L 106 165.5 L 110.5 153 Z " /><path fill="rgb(171,54,163)" stroke="rgb(171,54,163)" stroke-width="1" opacity="0.9607843137254902" d="M 105.5 170 L 106 173.5 L 104 180.5 L 103 203 L 96.5 207 L 74 226.5 Q 75.1 229.8 72.5 229 L 58 240 Q 59.1 242.7 56.5 242 Q 55.3 245.8 51 245 L 51 221.5 L 52.5 221 L 60.5 212 L 63.5 210 L 77 198.5 L 78 195 L 80.5 195 L 85 192 L 86.5 189 Q 88.8 189.8 88 187.5 L 99 179 Q 97.9 176.3 100.5 177 L 102.5 174 L 103.5 179 Q 102.8 172.8 105.5 170 Z " /><path fill="rgb(171,54,163)" stroke="rgb(171,54,163)" stroke-width="1" opacity="0.9607843137254902" d="M 50.5 201 L 51 216.5 L 50 216.5 L 50.5 201 Z " /><path fill="rgb(158,55,181)" stroke="rgb(158,55,181)" stroke-width="1" opacity="0.9882352941176471" d="M 387.5 62 L 392.5 63 Q 393.8 60.7 398.5 62 L 402.5 63 L 404.5 63 L 413 67.5 L 413.5 69 L 414.5 68 L 417.5 71 L 420 72.5 Q 419.3 74.8 421.5 74 L 433.5 87 L 435 87.5 L 434.5 89 L 437 90.5 L 444 103.5 L 445 109.5 L 444 113.5 L 445.5 117 L 446.5 114 L 449 123.5 L 447 123.5 L 448 136.5 L 446.5 140 L 445 134 L 437.5 130 L 438 131.5 L 439.5 134 L 443 135.5 L 442.5 137 L 424.5 125 L 422 125 L 420.5 122 L 406.5 117 L 404.5 115 L 396.5 113 L 394.5 111 L 386.5 109 L 383.5 110 Q 381.8 107.2 375.5 109 L 369.5 106 L 338.5 105 L 334.5 103 L 330.5 105 L 328.5 104 L 324.5 105 L 324.5 103 L 313.5 105 L 304.5 105 L 304.5 104 L 313 103.5 L 301.5 103 L 301.5 104 L 303 104.5 L 300 105 L 299.5 103 L 298.5 104 L 280.5 104 L 279.5 103 L 204 102.5 L 205.5 101 L 213.5 100 L 217.5 98 L 224.5 98 L 245.5 92 L 247.5 92 L 251.5 92 L 252 90 L 254.5 90 L 302.5 79 L 304.5 79 L 323.5 76 L 328.5 74 L 333.5 74 L 341.5 71 L 348.5 71 Q 351.5 68 358.5 69 L 362.5 67 L 374.5 66 L 387.5 62 Z M 447 118 L 446 121 L 447 121 L 447 118 Z M 430 125 L 431 127 L 432 127 L 430 125 Z M 433 127 L 435 130 L 437 130 L 433 127 Z " /><path fill="rgb(158,55,181)" stroke="rgb(158,55,181)" stroke-width="1" opacity="0.9882352941176471" d="M 319.5 105 L 323 105.5 L 319.5 106 L 319.5 105 Z " /><path fill="rgb(158,55,181)" stroke="rgb(158,55,181)" stroke-width="1" opacity="0.9882352941176471" d="M 175.5 133 L 181 133.5 L 175.5 134 L 175.5 133 Z " /><path fill="rgb(158,55,181)" stroke="rgb(158,55,181)" stroke-width="1" opacity="0.9882352941176471" d="M 171.5 134 L 170.5 136 L 169 135.5 L 171.5 134 Z " /><path fill="rgb(158,55,181)" stroke="rgb(158,55,181)" stroke-width="1" opacity="0.9882352941176471" d="M 165.5 136 L 168 136.5 L 153.5 143 L 154.5 141 L 165.5 136 Z " /><path fill="rgb(158,55,181)" stroke="rgb(158,55,181)" stroke-width="1" opacity="0.9882352941176471" d="M 448.5 138 L 449 150.5 L 448 150.5 L 448.5 138 Z " /><path fill="rgb(158,55,181)" stroke="rgb(158,55,181)" stroke-width="1" opacity="0.9882352941176471" d="M 115.5 140 L 116 141.5 L 109 155.5 L 106 169.5 L 104 172.5 L 103.5 179 L 102.5 174 L 100.5 177 L 97.5 179 L 88 187.5 Q 88.8 189.8 86.5 189 L 85 192 L 80.5 195 L 78 195 L 74.5 201 L 62 210 Q 63.1 212.7 60.5 212 L 52.5 221 L 51 220.5 L 51 195.5 L 52 191.5 L 54.5 189 L 66 180 Q 64.9 177.3 67.5 178 L 70 174 L 73.5 173 L 106 147.5 Q 105.2 144.9 108.5 146 L 110.5 145 L 112 145.5 L 115.5 140 Z " /><path fill="rgb(177,54,145)" stroke="rgb(177,54,145)" stroke-width="1" opacity="0.8901960784313725" d="M 304.5 103 L 308 103.5 L 304.5 104 L 304.5 103 Z " /><path fill="rgb(177,54,145)" stroke="rgb(177,54,145)" stroke-width="1" opacity="0.8901960784313725" d="M 325.5 105 L 327 105.5 L 323.5 107 L 323.5 106 L 325.5 105 Z " /><path fill="rgb(177,54,145)" stroke="rgb(177,54,145)" stroke-width="1" opacity="0.8901960784313725" d="M 347.5 111 L 353 113.5 L 351.5 114 L 349 113.5 Q 349.8 111.3 347.5 112 L 347.5 111 Z " /><path fill="rgb(177,54,145)" stroke="rgb(177,54,145)" stroke-width="1" opacity="0.8901960784313725" d="M 354.5 114 Q 369.3 121.8 379 134.5 Q 391 149.5 395 172.5 L 396 191.5 L 397 192.5 L 397 250.5 L 395.5 259 L 395 241.5 L 396 236.5 L 395 233.5 L 396 231.5 L 396 229.5 L 395 217.5 L 396 215.5 L 395 214.5 L 395 184.5 L 391 161.5 L 382 141.5 L 367.5 124 L 364.5 122 Q 362.8 118.9 361 120.5 L 359.5 118 Q 358.3 120.3 357 117.5 Q 357.8 115.3 355.5 116 L 354.5 114 Z " /><path fill="rgb(177,54,145)" stroke="rgb(177,54,145)" stroke-width="1" opacity="0.8901960784313725" d="M 447.5 123 L 450 129.5 L 449 132.5 L 450 133.5 L 450 145.5 L 449 145.5 L 449 135.5 L 448 134.5 L 447.5 123 Z " /><path fill="rgb(177,54,145)" stroke="rgb(177,54,145)" stroke-width="1" opacity="0.8901960784313725" d="M 227.5 128 L 272.5 128 L 273.5 129 L 275.5 128 L 276.5 129 L 312.5 129 L 313.5 130 L 330.5 132 L 346.5 139 L 357 148.5 Q 365.8 158.7 369 174.5 L 370 188.5 L 371 189.5 L 371 223.5 L 370 223.5 L 369 188.5 L 368 187.5 L 368 178.5 L 366 169.5 Q 360.9 151.6 347.5 142 L 341.5 138 L 327.5 133 L 313.5 132 L 312.5 131 L 288.5 131 L 287.5 130 L 191.5 130 L 190.5 131 L 181.5 131 L 181.5 130 Q 187.8 131.8 189.5 129 L 226.5 129 L 227.5 128 Z " /><path fill="rgb(177,54,145)" stroke="rgb(177,54,145)" stroke-width="1" opacity="0.8901960784313725" d="M 174.5 131 L 180 131.5 Q 155.7 134.2 144 149.5 L 136 163.5 L 133 173.5 L 132 183 Q 134.7 184.1 134 181.5 L 139.5 177 L 146.5 174 L 150 175 L 148.5 178 L 145.5 177 L 139.5 182 L 134 183 L 135 185.5 L 133 186.5 L 132.5 184 L 131 192.5 L 131 223.5 L 130 224.5 L 130 226.5 L 129.5 231 L 128 221.5 L 129 220.5 L 129 187.5 L 130 186.5 L 132 169.5 L 136 158.5 L 148.5 143 L 158.5 136 L 174.5 131 Z " /><path fill="rgb(177,54,145)" stroke="rgb(177,54,145)" stroke-width="1" opacity="0.8901960784313725" d="M 323.5 154 L 333.5 154 L 343 160.5 Q 347.8 165.7 346 177.5 L 337.5 188 L 331.5 190 L 325.5 190 Q 317.9 188.6 314 183.5 Q 309.3 178.7 310 168.5 Q 312.2 160.2 318.5 156 L 323.5 154 Z M 328 155 L 319 158 L 312 168 Q 311 176 314 181 Q 317 187 325 188 Q 334 189 339 185 L 343 180 L 345 173 L 343 164 L 337 157 L 331 156 L 328 155 Z " /><path fill="rgb(177,54,145)" stroke="rgb(177,54,145)" stroke-width="1" opacity="0.8901960784313725" d="M 111.5 155 L 112 156.5 L 110 157.5 L 111.5 155 Z " /><path fill="rgb(177,54,145)" stroke="rgb(177,54,145)" stroke-width="1" opacity="0.8901960784313725" d="M 109.5 159 L 110 161.5 L 107 170.5 L 107 177.5 L 105 185.5 L 104.5 250 L 104 241.5 L 103 240.5 L 103 190.5 L 104 189.5 L 104 180.5 L 106 169.5 L 109.5 159 Z " /><path fill="rgb(177,54,145)" stroke="rgb(177,54,145)" stroke-width="1" opacity="0.8901960784313725" d="M 178.5 161 L 177.5 163 L 175 162.5 L 178.5 161 Z " /><path fill="rgb(177,54,145)" stroke="rgb(177,54,145)" stroke-width="1" opacity="0.8901960784313725" d="M 169.5 163 L 172 163.5 L 168.5 165 L 169.5 163 Z " /><path fill="rgb(177,54,145)" stroke="rgb(177,54,145)" stroke-width="1" opacity="0.8901960784313725" d="M 165.5 165 L 167 165.5 L 156 171.5 L 155.5 174 L 153.5 173 L 148.5 174 L 148.5 173 L 165.5 165 Z " /><path fill="rgb(177,54,145)" stroke="rgb(177,54,145)" stroke-width="1" opacity="0.8901960784313725" d="M 243.5 174 L 264.5 175 L 280.5 180 Q 297.1 187.4 308 200.5 L 306 201.5 Q 306.8 199.3 304.5 200 L 303 197 L 294 191 Q 295.3 188 291.5 189 L 278.5 181 L 266.5 177 L 240.5 176 L 221.5 181 L 204 191 L 204 193 Q 200.3 191.5 201 194.5 L 197 197 L 192 205 L 189 206.5 L 185 216 L 183 215.5 L 184 212.5 Q 190.4 200.4 200.5 192 L 219.5 180 L 231.5 176 L 242.5 175 L 243.5 174 Z " /><path fill="rgb(177,54,145)" stroke="rgb(177,54,145)" stroke-width="1" opacity="0.8901960784313725" d="M 242.5 200 L 257.5 200 L 259 201.5 L 256.5 202 L 254.5 202 L 243.5 202 L 242.5 201 Q 241.3 204.3 235.5 203 L 235.5 202 L 242.5 200 Z " /><path fill="rgb(177,54,145)" stroke="rgb(177,54,145)" stroke-width="1" opacity="0.8901960784313725" d="M 101.5 203 L 102 209 L 99.5 209 L 90 217.5 L 90 219.5 L 89.5 222 L 88.5 219 L 83.5 226 L 75 230 Q 76.3 234.6 73.5 236 L 60.5 244 L 54.5 250 L 51 251 L 50.5 263 L 50 219.5 L 51 219.5 L 51 244.5 L 53.5 245 L 58 242 Q 56.9 239.3 59.5 240 L 70.5 230 L 74 229 L 74 226.5 L 80.5 220 Q 92.8 213.3 101.5 203 Z " /><path fill="rgb(177,54,145)" stroke="rgb(177,54,145)" stroke-width="1" opacity="0.8901960784313725" d="M 280.5 210 L 281.5 212 L 280.5 210 Z " /><path fill="rgb(177,54,145)" stroke="rgb(177,54,145)" stroke-width="1" opacity="0.8901960784313725" d="M 289.5 219 L 290.5 221 L 289.5 219 Z " /><path fill="rgb(177,54,145)" stroke="rgb(177,54,145)" stroke-width="1" opacity="0.8901960784313725" d="M 371.5 232 L 372 263.5 L 371 263.5 L 371.5 232 Z " /><path fill="rgb(177,54,145)" stroke="rgb(177,54,145)" stroke-width="1" opacity="0.8901960784313725" d="M 395.5 279 L 396 282.5 L 395 282.5 L 395.5 279 Z " /><path fill="rgb(177,54,145)" stroke="rgb(177,54,145)" stroke-width="1" opacity="0.8901960784313725" d="M 449.5 354 L 450 367 Q 446.7 368.3 448 363.5 L 449 362.5 L 449.5 354 Z " /><path fill="rgb(177,54,145)" stroke="rgb(177,54,145)" stroke-width="1" opacity="0.8901960784313725" d="M 449.5 368 L 450 369.5 L 448 375.5 L 448 377.5 L 447.5 379 L 447 373.5 L 449.5 368 Z " /><path fill="rgb(177,54,145)" stroke="rgb(177,54,145)" stroke-width="1" opacity="0.8901960784313725" d="M 445.5 386 Q 448.5 387.5 445.5 389 Q 442.5 387.5 445.5 386 Z " /><path fill="rgb(177,54,145)" stroke="rgb(177,54,145)" stroke-width="1" opacity="0.8901960784313725" d="M 428.5 420 L 427.5 422 L 428.5 420 Z " /><path fill="rgb(0,0,0)" stroke="rgb(0,0,0)" stroke-width="1" opacity="0" d="M 0 0 L 500 0 L 500 500 L 0 500 L 0 0 Z M 131 50 L 130 51 L 117 52 L 105 56 Q 90 61 80 71 L 64 89 L 56 104 L 52 117 L 51 130 L 50 131 L 50 371 L 51 372 L 52 384 L 56 397 L 70 420 Q 83 435 104 444 L 121 449 L 138 450 L 139 451 L 371 450 L 388 447 L 399 443 L 412 436 L 421 429 Q 431 419 439 407 L 447 388 L 450 371 L 450 130 L 449 129 L 448 116 L 444 104 L 430 81 Q 420 69 407 61 L 397 56 L 391 55 L 389 53 L 379 51 L 371 51 L 370 50 L 131 50 Z " /><path fill="rgb(0,0,0)" stroke="rgb(0,0,0)" stroke-width="1" opacity="0" d="M 239.5 104 L 242.5 105 L 315.5 105 L 316.5 106 L 333.5 108 L 356.5 117 L 368 125.5 L 369.5 128 L 372 129.5 L 373.5 132 Q 375.8 131.3 375 133.5 L 379 137.5 L 387 151.5 L 392 166.5 L 394 184.5 L 395 185.5 L 395 314.5 L 393 321.5 L 392 333.5 L 387 348.5 L 374.5 368 L 372 369.5 L 370.5 372 L 368 373.5 L 366.5 376 L 348.5 387 L 333.5 392 L 321.5 393 L 314.5 395 L 185.5 395 L 178.5 393 L 166.5 392 L 151.5 387 Q 134.1 378.9 123 364.5 L 117 356.5 L 109 337.5 L 105 314.5 L 105 185.5 L 107 179.5 L 109 162.5 L 113 151.5 L 125.5 132 Q 127.8 132.8 127 130.5 L 132 127 L 133.5 124 L 153.5 112 L 166.5 108 L 171.5 108 L 184.5 105 L 238.5 105 L 239.5 104 Z M 217 128 L 216 129 L 187 129 L 170 132 Q 152 136 143 149 Q 144 151 141 150 L 132 169 L 130 185 L 130 187 L 129 188 L 129 216 L 128 217 L 129 314 L 131 321 L 132 332 L 140 349 Q 149 361 166 367 L 188 371 L 216 371 L 217 372 L 313 371 L 314 370 L 331 368 Q 342 365 350 359 Q 361 350 367 335 L 371 314 L 371 280 L 372 279 L 372 221 L 371 220 L 372 218 L 371 217 L 371 187 L 369 180 L 369 174 L 364 159 L 359 151 L 350 141 L 335 133 L 327 131 L 320 131 L 314 129 L 285 129 L 284 128 L 282 129 L 277 128 L 224 128 L 223 129 L 217 128 Z " /><path fill="rgb(0,0,0)" stroke="rgb(0,0,0)" stroke-width="1" opacity="0" d="M 322.5 156 L 334.5 156 L 342 162.5 Q 345.8 167.2 344 177.5 L 335.5 187 L 324.5 188 L 315 181.5 Q 310.8 177.7 312 168.5 L 313 164.5 L 317 159 L 322.5 156 Z " /><path fill="rgb(0,0,0)" stroke="rgb(0,0,0)" stroke-width="1" opacity="0" d="M 240.5 176 L 258.5 176 L 278.5 181 L 286.5 185 L 303 197 L 315 213.5 L 319 221.5 L 324 240.5 L 324 258.5 L 319 278.5 L 315 286.5 L 303 303 L 286.5 315 L 278.5 319 L 259.5 324 L 240.5 324 L 221.5 319 L 213.5 315 L 197 303 L 185 286.5 L 181 278.5 L 176 258.5 L 176 241.5 L 181 221.5 L 185 213.5 L 197 197 L 213.5 185 L 221.5 181 L 240.5 176 Z M 242 200 L 224 207 L 215 214 Q 216 216 214 215 L 204 229 L 200 242 L 200 259 L 201 264 L 203 266 L 204 272 L 214 285 Q 216 284 215 287 L 224 293 L 242 300 L 258 300 L 263 299 L 277 293 L 285 287 Q 284 284 287 285 L 295 274 L 300 259 Q 302 246 299 238 L 293 224 L 287 215 Q 284 216 285 214 L 277 207 L 263 201 Q 254 198 242 200 Z " /><path fill="rgb(197,49,146)" stroke="rgb(197,49,146)" stroke-width="1" opacity="0.9725490196078431" d="M 289.5 135 L 290 137 L 296.5 136 L 297.5 137 L 307.5 137 Q 308.9 133.8 314 135 L 314.5 137 L 316.5 137 L 326.5 138 L 333.5 136 L 333.5 137 L 331 137.5 L 334.5 138 L 337.5 137 L 345.5 141 L 356 150.5 L 362 158.5 L 367 173.5 L 368 187.5 L 369 188.5 L 370 215.5 L 369 215.5 L 367.5 204 L 366.5 209 L 364.5 205 L 358.5 205 L 358 202 L 354.5 202 L 349.5 201 L 339.5 195 L 333 195 Q 334.4 198.7 328.5 197 L 327.5 195 L 333 194.5 L 318 193 Q 319.3 190 315.5 191 L 313.5 191 Q 311.8 193.8 306.5 193 L 303.5 191 L 301.5 191 L 300 191.5 L 300.5 193 L 295 188.5 L 295.5 187 L 293.5 188 L 287 184 L 286.5 182 L 284.5 182 L 264.5 175 L 243.5 174 Q 241.8 176.8 235.5 175 L 219.5 180 L 205.5 188 L 192 198.5 L 192 200.5 L 188.5 205 L 186.5 204 L 181.5 206 L 179.5 205 L 165.5 211 L 162 211 L 160.5 214 Q 155.3 212.8 154 215.5 Q 155.3 219.7 150.5 218 L 130.5 225 L 131 223.5 L 131 192.5 L 132.5 184 L 133.5 187 Q 136.3 185.8 134 184.5 L 133 180.5 L 134 180.5 Q 132.7 184.7 137.5 183 L 146.5 177 L 148.5 178 L 150 175 L 146.5 176 L 147.5 174 L 154.5 173 L 156 173.5 L 157.5 170 L 167.5 165 L 170.5 165 L 177 161 Q 175.9 158.3 178.5 159 Q 180 161.5 181.5 158 L 186.5 157 L 191.5 154 L 195 154 L 196.5 151 L 227.5 145 L 233.5 142 L 242.5 142 L 253 139.5 L 251 138.5 L 255.5 138 L 257.5 138 L 277.5 138 L 280.5 137 L 282.5 138 L 287.5 137 L 289.5 135 Z M 324 154 L 319 156 Q 312 160 310 169 Q 309 179 314 184 L 321 188 L 321 190 L 325 189 L 324 191 L 325 192 L 332 192 L 333 189 L 335 190 L 338 188 L 346 178 Q 348 166 343 161 L 334 154 L 324 154 Z M 176 162 L 176 163 L 178 163 L 176 162 Z M 188 202 L 188 204 L 190 203 L 188 202 Z " /><path fill="rgb(197,49,146)" stroke="rgb(197,49,146)" stroke-width="1" opacity="0.9725490196078431" d="M 325.5 135 L 329 135.5 L 325.5 136 L 325.5 135 Z " /><path fill="rgb(197,49,146)" stroke="rgb(197,49,146)" stroke-width="1" opacity="0.9725490196078431" d="M 388.5 147 L 389.5 149 L 390 147 L 394.5 147 L 399.5 150 L 407.5 151 L 409 152.5 Q 408.4 155.3 414.5 154 L 418 156.5 Q 417.3 154.3 419.5 155 L 425 158.5 L 421 159 Q 419.9 161.7 422.5 161 L 424.5 160 L 428.5 162 L 430.5 162 L 435.5 161 L 437.5 161 L 449 167.5 L 449 178.5 L 450 179.5 L 450 280.5 L 448.5 289 L 447.5 279 L 445.5 279 L 444 278.5 L 445 275.5 Q 433.4 256.1 417.5 241 L 416 241.5 L 416.5 240 L 410 236.5 L 408.5 234 L 406 232.5 L 405 229 L 401.5 228 L 400 228.5 L 398.5 224 L 397.5 231 L 396 179.5 L 391 155.5 L 388 150.5 L 388.5 147 Z " /><path fill="rgb(197,49,146)" stroke="rgb(197,49,146)" stroke-width="1" opacity="0.9725490196078431" d="M 431.5 157 L 435 158.5 L 433.5 159 L 431.5 157 Z " /><path fill="rgb(197,49,146)" stroke="rgb(197,49,146)" stroke-width="1" opacity="0.9725490196078431" d="M 316.5 160 L 315.5 162 L 316.5 160 Z " /><path fill="rgb(197,49,146)" stroke="rgb(197,49,146)" stroke-width="1" opacity="0.9725490196078431" d="M 340.5 182 L 339.5 184 L 340.5 182 Z " /><path fill="rgb(197,49,146)" stroke="rgb(197,49,146)" stroke-width="1" opacity="0.9725490196078431" d="M 326.5 190 L 331 190.5 L 326.5 191 L 326.5 190 Z " /><path fill="rgb(197,49,146)" stroke="rgb(197,49,146)" stroke-width="1" opacity="0.9725490196078431" d="M 102.5 203 L 103 234 L 71.5 246 Q 63.4 253.6 52 257 L 51.5 259 L 51 251 L 54.5 250 L 60.5 244 L 65.5 242 L 75 234.5 Q 73.1 229.1 76.5 230 L 85 224.5 L 88.5 219 L 89.5 222 L 91 218.5 Q 88.2 216.8 92.5 215 L 99.5 209 L 102 209 L 102.5 203 Z " /><path fill="rgb(197,49,146)" stroke="rgb(197,49,146)" stroke-width="1" opacity="0.9725490196078431" d="M 395.5 225 L 396 229.5 L 395 229.5 L 395.5 225 Z " /><path fill="rgb(197,49,146)" stroke="rgb(197,49,146)" stroke-width="1" opacity="0.9725490196078431" d="M 66.5 232 L 65.5 234 L 66.5 232 Z " /><path fill="rgb(197,49,146)" stroke="rgb(197,49,146)" stroke-width="1" opacity="0.9725490196078431" d="M 395.5 236 L 396 240.5 L 395 240.5 L 395.5 236 Z " /><path fill="rgb(197,49,146)" stroke="rgb(197,49,146)" stroke-width="1" opacity="0.9725490196078431" d="M 448.5 356 L 449 362.5 L 448 362.5 L 448.5 356 Z " /><path fill="rgb(235,89,73)" stroke="rgb(235,89,73)" stroke-width="1" opacity="0.9450980392156862" d="M 283.5 212 L 284.5 214 L 283.5 212 Z " /><path fill="rgb(235,89,73)" stroke="rgb(235,89,73)" stroke-width="1" opacity="0.9450980392156862" d="M 128.5 216 L 129 220.5 L 128 220.5 L 128.5 216 Z " /><path fill="rgb(235,89,73)" stroke="rgb(235,89,73)" stroke-width="1" opacity="0.9450980392156862" d="M 371.5 225 L 372 231.5 L 371 231.5 L 371.5 225 Z " /><path fill="rgb(235,89,73)" stroke="rgb(235,89,73)" stroke-width="1" opacity="0.9450980392156862" d="M 128.5 235 L 129 239.5 L 128 239.5 L 128.5 235 Z " /><path fill="rgb(235,89,73)" stroke="rgb(235,89,73)" stroke-width="1" opacity="0.9450980392156862" d="M 128.5 252 L 131 264 L 142.5 261 L 150.5 261 L 156.5 259 L 167.5 259 L 168.5 258 L 170.5 259 L 172.5 258 L 174 258.5 Q 173.3 254.8 175.5 254 L 177 265.5 L 181 278.5 Q 187.8 293.2 198.5 304 L 201 305.5 L 199.5 306 L 189.5 297 L 183.5 296 L 181.5 297 Q 178 293 168.5 295 L 164.5 296 L 161.5 295 L 159 296.5 L 159 295 L 154 295 Q 155.1 298.5 147.5 297 Q 145.8 299.7 139.5 298 L 131 301.5 L 131 308.5 L 129.5 309 L 129 304.5 L 129 279.5 Q 126.8 278.2 128 273.5 Q 130.5 272 129 266.5 L 128 265.5 L 128.5 252 Z " /><path fill="rgb(235,89,73)" stroke="rgb(235,89,73)" stroke-width="1" opacity="0.9450980392156862" d="M 201 258 L 204 259.5 L 204.5 262 L 205.5 260 L 210.5 262 L 222.5 263 L 225.5 265 L 236.5 267 L 240.5 270 L 244.5 270 L 255.5 275 L 258.5 275 L 280.5 287 L 284.5 285 L 284.5 286 L 283 286 L 283 288 Q 280.3 286.9 281 289.5 Q 273.2 296.2 261.5 299 Q 254 301.5 242.5 300 L 231.5 297 L 216 288 L 214.5 285 L 212 283.5 Q 204.3 274.7 201 261.5 L 201 259.5 L 201 258 Z " /><path fill="rgb(235,89,73)" stroke="rgb(235,89,73)" stroke-width="1" opacity="0.9450980392156862" d="M 104.5 264 L 105 266.5 L 105 268.5 L 104.5 316 Q 101.8 314.6 103 310 L 81.5 319 L 62 331.5 Q 62.8 334.1 59.5 333 L 55 336.5 Q 55.8 338.8 53.5 338 Q 50 340.5 50.5 347 L 50 293.5 L 51.5 294 L 53.5 294 L 60.5 288 L 78.5 279 L 87.5 277 L 102 270.5 L 104.5 264 Z " /><path fill="rgb(235,89,73)" stroke="rgb(235,89,73)" stroke-width="1" opacity="0.9450980392156862" d="M 371.5 267 L 372 273.5 L 371 273.5 L 371.5 267 Z " /><path fill="rgb(235,89,73)" stroke="rgb(235,89,73)" stroke-width="1" opacity="0.9450980392156862" d="M 287.5 283 L 286.5 285 L 287.5 283 Z " /><path fill="rgb(235,89,73)" stroke="rgb(235,89,73)" stroke-width="1" opacity="0.9450980392156862" d="M 305.5 299 Q 307.8 298.3 307 300.5 L 304 304.5 L 309 307 L 311.5 311 L 314 312.5 Q 313.3 314.8 315.5 314 L 318 318 L 322 320.5 Q 321.3 322.8 323.5 322 L 327.5 327 Q 330.1 326.2 329 329.5 L 338 339.5 L 338 341.5 L 344 350 Q 346.7 348.9 346 351.5 L 348 356 L 352.5 353 L 353 356 L 351 356 Q 352.1 358.7 349.5 358 L 341.5 364 L 333.5 367 L 312.5 371 L 310.5 371 L 306.5 370 L 301.5 371 L 302.5 369 Q 307 370 308 367.5 Q 308.7 364.9 306 366 L 306 363.5 Q 302.5 362 305 360.5 L 299 354.5 L 296.5 350 L 294 348.5 L 294 346 Q 289.9 347.7 291 343.5 L 287 341 Q 288.1 338.3 285.5 339 L 282 336.5 L 280.5 334 L 278.5 334 L 270.5 327 L 267 326.5 L 267.5 325 L 262.5 326 L 259.5 325 L 257.5 326 L 256.5 325 L 246 324.5 L 265.5 323 L 278.5 319 L 286.5 315 L 303 303 L 305.5 299 Z " /><path fill="rgb(235,89,73)" stroke="rgb(235,89,73)" stroke-width="1" opacity="0.9450980392156862" d="M 129.5 310 Q 131.8 309.3 131 311.5 L 129.5 314 L 129 312.5 L 129.5 310 Z " /><path fill="rgb(235,89,73)" stroke="rgb(235,89,73)" stroke-width="1" opacity="0.9450980392156862" d="M 106.5 321 L 107 323.5 L 106 323.5 L 106.5 321 Z " /><path fill="rgb(235,89,73)" stroke="rgb(235,89,73)" stroke-width="1" opacity="0.9450980392156862" d="M 297.5 370 L 300 370.5 L 297.5 371 L 297.5 370 Z " /><path fill="rgb(235,89,73)" stroke="rgb(235,89,73)" stroke-width="1" opacity="0.9450980392156862" d="M 267.5 371 L 274 371.5 L 267.5 372 L 267.5 371 Z " /><path fill="rgb(235,89,73)" stroke="rgb(235,89,73)" stroke-width="1" opacity="0.9450980392156862" d="M 365.5 376 L 366 377.5 L 363.5 381 L 361 382.5 L 361 384.5 L 365 389.5 L 371 408.5 L 371 410.5 L 371 413.5 L 374 417.5 L 374 421.5 L 374 423.5 L 376 437.5 L 376 439.5 L 377 444.5 L 376 447 L 381.5 446 L 382.5 448 L 370.5 449 L 369.5 450 L 339.5 450 L 339.5 449 L 357 448.5 L 349 448 Q 350 445 347 446 L 347 443.5 L 338 425.5 L 338 423.5 L 336 419.5 L 336 417.5 L 334 410.5 L 325.5 396 L 320.5 395 L 318.5 396 L 317.5 394 L 328.5 393 L 340.5 390 L 365 378 L 365.5 376 Z " /><path fill="rgb(215,47,124)" stroke="rgb(215,47,124)" stroke-width="1" opacity="0.9686274509803922" d="M 319.5 185 L 320.5 187 L 319.5 185 Z " /><path fill="rgb(215,47,124)" stroke="rgb(215,47,124)" stroke-width="1" opacity="0.9686274509803922" d="M 293.5 186 L 302.5 192 L 304.5 192 L 310.5 193 L 314.5 190 L 318 191 Q 316.7 194.3 321.5 193 L 322.5 194 L 339.5 195 L 349.5 201 L 358 202 L 358 205 L 364.5 205 L 366.5 209 L 367.5 204 L 370 217.5 L 370 219.5 L 370.5 224 L 371.5 220 L 372 224.5 L 371 225.5 L 371 273.5 L 372 275.5 L 372 277.5 L 370 288.5 L 371 290.5 L 370 295.5 L 371 298.5 L 370 301.5 L 371 303.5 Q 367 305.5 371 307.5 L 370.5 310 L 369.5 308 L 368.5 312 L 367.5 306 L 367 314.5 L 368 319.5 L 367 319.5 L 366.5 318 L 366 324.5 L 366.5 326 L 364 325 L 362 318.5 L 346 301.5 L 344.5 298 Q 340.8 299.3 342 295.5 L 338 292.5 L 336.5 290 L 333.5 289 L 322 278.5 L 321 276.5 L 323 272.5 L 325 260 L 323 259.5 L 324 258.5 L 324 240.5 L 323 237.5 L 323 233.5 L 319 221.5 L 307 201.5 L 308 200.5 L 304 196.5 Q 304.8 194.3 302.5 195 L 299.5 191 Q 294.2 189.3 293.5 186 Z M 328 195 Q 327 198 333 197 Q 334 193 328 195 Z " /><path fill="rgb(215,47,124)" stroke="rgb(215,47,124)" stroke-width="1" opacity="0.9686274509803922" d="M 320.5 189 L 323 189.5 L 320.5 190 L 320.5 189 Z " /><path fill="rgb(215,47,124)" stroke="rgb(215,47,124)" stroke-width="1" opacity="0.9686274509803922" d="M 324 190 L 330.5 191 L 332.5 190 L 331.5 192 L 324.5 192 L 324 190 Z " /><path fill="rgb(215,47,124)" stroke="rgb(215,47,124)" stroke-width="1" opacity="0.9686274509803922" d="M 295.5 191 L 296.5 193 L 295.5 191 Z " /><path fill="rgb(215,47,124)" stroke="rgb(215,47,124)" stroke-width="1" opacity="0.9686274509803922" d="M 194.5 197 L 193.5 199 L 191 200.5 L 185 210.5 L 185.5 212 L 184 211.5 L 183 213.5 L 184 216.5 L 183 220 Q 180 218.8 181 222.5 L 179.5 228 L 178 227.5 L 177 232.5 L 177.5 234 L 172.5 232 L 170.5 232 L 155.5 232 L 154.5 231 L 131.5 236 L 130 234.5 L 130 226.5 L 132.5 224 L 154 218 L 155.5 214 Q 160.8 215.3 162 212.5 Q 161.1 209.5 165.5 211 L 180.5 205 L 182.5 205 L 188 204 L 188 202 Q 190.7 203.1 190 200.5 L 194.5 197 Z " /><path fill="rgb(215,47,124)" stroke="rgb(215,47,124)" stroke-width="1" opacity="0.9686274509803922" d="M 242.5 201 L 243.5 202 L 254.5 202 L 256.5 202 L 261 201 L 261.5 203 L 262.5 201 L 267.5 204 L 269.5 204 L 276.5 207 L 287 216.5 L 289 219.5 L 293 223.5 L 297 231.5 L 297 235.5 L 300 241.5 L 300 253 Q 296.3 251.7 298 257.5 L 296.5 261 L 295.5 259 L 294.5 263 L 282.5 255 L 261.5 246 L 254.5 245 L 249.5 242 L 245.5 242 L 229.5 237 L 212.5 236 L 206.5 234 L 205 234.5 L 206 231.5 L 206 229.5 L 213 215 L 215 215 L 215 213 L 218 213 Q 216.9 210.3 219.5 211 L 222 210 Q 220.9 207.3 223.5 208 Q 225.6 204.1 231 205 L 231.5 203 L 240.5 203 L 242.5 201 Z " /><path fill="rgb(215,47,124)" stroke="rgb(215,47,124)" stroke-width="1" opacity="0.9686274509803922" d="M 190.5 205 L 189.5 207 L 190.5 205 Z " /><path fill="rgb(215,47,124)" stroke="rgb(215,47,124)" stroke-width="1" opacity="0.9686274509803922" d="M 398.5 224 L 400.5 229 L 402.5 229 Q 405.8 227.9 405 230.5 L 407.5 234 L 410 235.5 L 411.5 238 L 413.5 237 L 414.5 240 L 416.5 240 L 426 249.5 L 442 270.5 L 445 277.5 L 444.5 279 L 446.5 278 L 448 279.5 L 448.5 289 L 449.5 281 L 450 353.5 L 448 356.5 L 448 367 L 450 367.5 Q 445.9 370.4 447 378.5 L 447.5 380 L 446 380.5 L 448 381 L 447 386.5 L 445 388.5 L 445 390.5 Q 438.6 413.6 422.5 427 L 415.5 433 L 413 433 Q 414.1 435.7 411.5 435 L 404.5 438 L 403 436.5 L 401 414.5 L 398 405.5 L 398 400.5 L 384 360.5 L 386 356.5 L 386 354.5 L 387.5 352 L 389 351.5 L 388 348.5 L 389 346.5 L 388.5 345 L 390 345.5 L 389 341.5 Q 392.5 341 392 336.5 L 392 334.5 Q 390.7 328.8 394 327.5 L 393 324.5 L 395 315.5 L 395 283.5 L 396 278.5 Q 393.3 276.8 395 270.5 L 396 269.5 L 396 251.5 L 397 250.5 L 397 231.5 L 398.5 224 Z " /><path fill="rgb(215,47,124)" stroke="rgb(215,47,124)" stroke-width="1" opacity="0.9686274509803922" d="M 128.5 228 L 129 233.5 L 128 233.5 L 128.5 228 Z " /><path fill="rgb(215,47,124)" stroke="rgb(215,47,124)" stroke-width="1" opacity="0.9686274509803922" d="M 100.5 234 L 103 234 L 103 240.5 L 103.5 242 Q 100.9 241.3 102 244 L 100 244 L 100 245.5 L 98.5 245 L 93.5 246 L 81.5 254 L 78.5 254 L 65.5 260 L 52 269.5 L 51.5 271 L 51 259.5 L 52 257 Q 63.4 253.6 71.5 246 L 100.5 234 Z " /><path fill="rgb(251,172,74)" stroke="rgb(251,172,74)" stroke-width="1" opacity="0.8901960784313725" d="M 128.5 279 L 129 281.5 L 128 281.5 L 128.5 279 Z " /><path fill="rgb(251,172,74)" stroke="rgb(251,172,74)" stroke-width="1" opacity="0.8901960784313725" d="M 284.5 286 L 283.5 288 L 284.5 286 Z " /><path fill="rgb(251,172,74)" stroke="rgb(251,172,74)" stroke-width="1" opacity="0.8901960784313725" d="M 113.5 349 L 114.5 351 L 113.5 349 Z " /><path fill="rgb(251,172,74)" stroke="rgb(251,172,74)" stroke-width="1" opacity="0.8901960784313725" d="M 143.5 350 Q 150 357.5 159.5 362 L 174.5 367 L 260 370.5 Q 254.8 373.8 244.5 372 L 243.5 371 L 229.5 371 L 228.5 372 L 216.5 372 L 215.5 371 L 187.5 371 L 186.5 370 L 173.5 369 Q 160.1 366.1 151 360 Q 152.1 357.3 149.5 358 L 147 354 Q 144.3 355.1 145 352.5 L 143.5 350 Z " /><path fill="rgb(251,172,74)" stroke="rgb(251,172,74)" stroke-width="1" opacity="0.8901960784313725" d="M 116.5 358 L 119 358.5 L 116.5 359 L 116.5 358 Z " /><path fill="rgb(251,172,74)" stroke="rgb(251,172,74)" stroke-width="1" opacity="0.8901960784313725" d="M 50.5 361 Q 53 362 52 366.5 L 51 366.5 L 50 364.5 L 51 362.5 L 50.5 361 Z " /><path fill="rgb(251,172,74)" stroke="rgb(251,172,74)" stroke-width="1" opacity="0.8901960784313725" d="M 120 362 Q 122.7 360.9 122 363.5 L 124 367 L 130 371.5 L 131.5 374 L 143.5 383 L 151.5 387 L 162.5 391 L 177.5 394 L 179.5 394 L 183.5 395 L 185.5 395 L 269.5 395 L 270.5 396 L 271.5 395 L 279.5 395 L 284.5 396 L 286.5 395 L 287.5 397 L 276 398.5 L 283 402.5 Q 282.3 404.8 284.5 404 L 289 407 Q 287.9 409.7 290.5 409 L 293.5 413 L 294.5 412 L 298 415.5 L 299.5 418 L 305 422.5 L 305 425 Q 307.7 423.9 307 426.5 L 315 435.5 L 322 449.5 L 297.5 450 L 296.5 451 L 170.5 451 L 170.5 450 L 270.5 450 L 271.5 449 L 299 448.5 L 288.5 437 L 286 435.5 Q 286.8 433.3 284.5 434 L 275.5 426 L 273 426 L 269.5 421 L 249.5 410 L 245.5 406 L 241.5 406 L 231.5 400 L 222 398.5 L 228 397.5 L 205.5 397 L 204.5 398 L 188.5 398 L 188.5 397 L 197 396.5 L 180.5 396 L 165.5 393 L 161 394 L 160.5 392 L 157.5 393 L 157.5 391 L 145.5 394 L 133.5 395 L 106.5 403 L 98.5 408 L 95.5 408 L 87.5 412 L 76.5 419 L 73 419.5 L 81 429.5 L 70 419.5 Q 59.6 407.4 54 390.5 Q 56.5 389 53 387.5 L 51 378.5 L 51 376.5 Q 52.3 371.8 50 370.5 L 51.5 370 L 53 371.5 L 54 383.5 L 56 385.5 L 57 392.5 L 61 401 L 68.5 399 L 73.5 394 L 85.5 389 L 90.5 385 L 93.5 385 L 104.5 379 L 108.5 379 L 116.5 375 L 127 372.5 L 120 364.5 L 120 362 Z " /><path fill="rgb(251,172,74)" stroke="rgb(251,172,74)" stroke-width="1" opacity="0.8901960784313725" d="M 188.5 366 L 198 366.5 L 188.5 367 L 188.5 366 Z " /><path fill="rgb(251,172,74)" stroke="rgb(251,172,74)" stroke-width="1" opacity="0.8901960784313725" d="M 373.5 368 L 372.5 370 L 373.5 368 Z " /><path fill="rgb(251,172,74)" stroke="rgb(251,172,74)" stroke-width="1" opacity="0.8901960784313725" d="M 308.5 396 L 311 396.5 L 308.5 397 L 308.5 396 Z " /><path fill="rgb(253,201,106)" stroke="rgb(253,201,106)" stroke-width="1" opacity="0.9803921568627451" d="M 156.5 391 L 158 391.5 L 157.5 393 L 160.5 392 L 161 394 L 165.5 393 L 171.5 395 L 197 396.5 L 188 397.5 L 204.5 398 L 205.5 397 L 227.5 397 L 227.5 398 L 222 398.5 L 231.5 400 L 241.5 406 L 245.5 406 L 249.5 410 Q 263.4 415.1 273 424.5 Q 272.2 427.1 275.5 426 L 286 434 L 287.5 437 L 290 438.5 L 299 448.5 L 271.5 449 L 270.5 450 L 170.5 450 L 169.5 451 L 138.5 451 L 137.5 450 L 120.5 449 L 103.5 444 L 85.5 434 L 79 427.5 L 73 419.5 L 76.5 419 L 87.5 412 L 95.5 408 L 98.5 408 L 106.5 403 L 133.5 395 Q 146.9 394.9 156.5 391 Z " /><path fill="rgb(246,127,53)" stroke="rgb(246,127,53)" stroke-width="1" opacity="0.9686274509803922" d="M 154 295 L 159 295 L 159 296.5 L 161.5 295 L 167.5 296 L 168.5 295 L 178.5 295 L 182.5 297 L 185.5 296 L 189.5 297 L 195.5 302 L 197 301.5 Q 194.8 302.8 197.5 304 L 199 303.5 Q 196.8 304.8 199.5 306 Q 202.8 304.9 202 307.5 Q 204 305.8 206 309.5 Q 205.2 312.1 208.5 311 L 214.5 316 L 217.5 316 L 223.5 320 L 230.5 321 L 232.5 323 L 258.5 326 L 261.5 325 L 265.5 326 L 267.5 325 L 267.5 327 L 270.5 327 L 282 335.5 L 283.5 338 L 287 339 Q 285.9 341.7 288.5 341 Q 291.8 342.2 291 346 Q 295.1 344.3 294 348.5 L 298 351.5 Q 299.7 358.8 306 361.5 L 306 363.5 L 306 366 Q 308.7 364.9 308 367.5 Q 307 370 302.5 369 L 300.5 371 L 297.5 370 L 294.5 371 Q 282.4 369.4 274.5 372 Q 273 369.5 267.5 371 L 266.5 372 L 257.5 372 L 257.5 371 L 260 370.5 L 174.5 367 L 159.5 362 Q 150 357.5 143.5 350 L 144.5 353 L 135 339.5 L 135 336.5 L 132 331.5 L 130 317.5 L 130 315.5 L 129 311.5 L 131 311.5 Q 131.8 309.3 129.5 310 L 129.5 309 L 131 308.5 L 131 301.5 L 139.5 298 L 154 297 L 154 295 Z M 189 366 L 189 367 L 198 367 L 189 366 Z " /><path fill="rgb(246,127,53)" stroke="rgb(246,127,53)" stroke-width="1" opacity="0.9686274509803922" d="M 101.5 310 Q 104.9 309.1 103 314.5 L 106 315.5 L 105 317.5 L 106 320.5 L 109 337.5 L 111 340.5 L 113 349.5 L 118 357.5 L 116 358.5 L 120 359 L 121 361.5 L 120 364.5 L 128 373.5 L 126.5 373 L 116.5 375 L 108.5 379 L 104.5 379 L 93.5 385 L 90.5 385 L 85.5 389 L 73.5 394 L 68.5 399 L 61 401 L 57 392.5 L 56 385.5 L 54 383.5 L 53 371.5 L 51.5 370 Q 48.1 370.9 50 365.5 L 51 365.5 L 51.5 367 L 52 362.5 L 51 362.5 L 50.5 364 L 50 362.5 L 50 360.5 L 50 350.5 L 51 349.5 L 50 347.5 Q 52.3 346.2 51 341.5 L 53.5 338 Q 55.8 338.8 55 336.5 L 59.5 333 L 62 333 L 63.5 330 L 81.5 319 L 88.5 317 L 91.5 314 L 101.5 310 Z " /><path fill="rgb(246,127,53)" stroke="rgb(246,127,53)" stroke-width="1" opacity="0.9686274509803922" d="M 229.5 371 L 244 371.5 L 229.5 372 L 229.5 371 Z " /><path fill="rgb(246,127,53)" stroke="rgb(246,127,53)" stroke-width="1" opacity="0.9686274509803922" d="M 130.5 372 L 131.5 374 L 130.5 372 Z " /><path fill="rgb(246,127,53)" stroke="rgb(246,127,53)" stroke-width="1" opacity="0.9686274509803922" d="M 280.5 395 L 285 395.5 L 280.5 396 L 280.5 395 Z " /><path fill="rgb(246,127,53)" stroke="rgb(246,127,53)" stroke-width="1" opacity="0.9686274509803922" d="M 287.5 395 L 317.5 395 L 319.5 396 L 321.5 395 L 327 397.5 L 337 418.5 Q 334.5 420 338 421.5 L 339 424.5 L 338 426.5 L 347 443.5 L 347 446 Q 350.1 445.3 349.5 448 L 356.5 448 L 356.5 449 L 322.5 450 L 315 435.5 L 307 425 Q 304 426.3 305 422.5 L 298 416.5 L 294.5 412 L 293 412.5 L 290.5 409 L 287.5 407 L 283 404 L 281.5 401 L 276 398.5 L 288 396.5 L 287.5 395 Z M 309 396 L 309 397 L 311 397 L 309 396 Z " /><path fill="rgb(223,59,101)" stroke="rgb(223,59,101)" stroke-width="1" opacity="0.9607843137254902" d="M 209.5 221 L 208 223.5 L 207.5 225 L 207 223.5 L 209.5 221 Z " /><path fill="rgb(223,59,101)" stroke="rgb(223,59,101)" stroke-width="1" opacity="0.9607843137254902" d="M 128.5 224 L 129 227.5 L 128 227.5 L 128.5 224 Z " /><path fill="rgb(223,59,101)" stroke="rgb(223,59,101)" stroke-width="1" opacity="0.9607843137254902" d="M 206.5 226 L 206 227.5 L 205 230.5 L 205 232.5 L 205.5 235 L 207.5 234 L 212.5 236 L 229.5 237 L 241.5 241 L 249.5 242 L 254.5 245 L 261.5 246 L 282.5 255 L 294.5 263 L 295.5 259 L 296.5 261 L 298 253 Q 301 251.8 300 255.5 L 299 258.5 Q 296.4 275.9 285.5 285 L 283 285.5 L 283.5 287 L 281.5 286 L 279.5 287 L 258.5 275 L 255.5 275 L 244.5 270 L 240.5 270 L 233.5 266 Q 226 266.5 222.5 263 L 210.5 262 L 205.5 260 L 204.5 262 L 202.5 258 L 200.5 259 L 200 242.5 L 203 231.5 L 206.5 226 Z " /><path fill="rgb(223,59,101)" stroke="rgb(223,59,101)" stroke-width="1" opacity="0.9607843137254902" d="M 178.5 227 L 179 230.5 L 177 233.5 L 176 253.5 Q 173.3 254.8 173.5 259 L 171.5 258 L 169.5 259 L 167.5 259 L 156.5 259 Q 151.5 262 142.5 261 L 131 264 L 128 251.5 L 128 240.5 L 129 235.5 L 129 233.5 L 129.5 231 L 131.5 236 L 154.5 231 L 155.5 232 L 170.5 232 L 171.5 233 L 173.5 233 Q 178.3 234.7 177 230.5 L 178.5 227 Z " /><path fill="rgb(223,59,101)" stroke="rgb(223,59,101)" stroke-width="1" opacity="0.9607843137254902" d="M 102 242 L 104 242.5 L 104 249.5 L 105 250.5 L 105 263.5 L 100.5 272 L 78.5 279 L 60.5 288 L 53.5 294 L 51.5 294 L 50 292.5 L 50 263.5 L 51 263.5 L 51.5 271 L 54.5 267 L 65.5 260 L 78.5 254 L 81.5 254 L 87.5 249 L 98.5 245 L 100 245.5 Q 99.3 242.9 102 244 L 102 242 Z " /><path fill="rgb(223,59,101)" stroke="rgb(223,59,101)" stroke-width="1" opacity="0.9607843137254902" d="M 395.5 259 L 396 269.5 L 395 269.5 L 395.5 259 Z " /><path fill="rgb(223,59,101)" stroke="rgb(223,59,101)" stroke-width="1" opacity="0.9607843137254902" d="M 323 260 Q 325.7 258.9 325 261.5 L 323 272.5 L 321 276.5 L 323.5 280 L 338 291.5 L 339.5 294 L 342 295.5 Q 340.8 299.3 344.5 298 L 346 301.5 L 362 318.5 L 364 325 Q 367.5 326.1 366 318.5 L 367 318.5 L 367.5 320 L 368 315.5 L 367 314.5 L 367 306.5 L 368 306.5 L 368.5 312 L 369.5 308 L 371 312.5 L 369 318.5 L 369 326.5 L 367 334.5 L 365 336.5 L 363 343.5 L 356.5 352 Q 354.3 351.3 355 353.5 L 353 354.5 L 352.5 353 L 348 356 L 346 350 Q 343.3 351.1 344 348.5 L 329 329.5 L 329 327 L 325 324.5 L 323.5 322 Q 321.3 322.8 322 320.5 L 318 318 L 315.5 314 Q 313.3 314.8 314 312.5 L 309 308.5 Q 309.8 306.3 307.5 307 L 304 304.5 L 307 299.5 L 306.5 298 Q 309.1 298.8 308 295.5 Q 321.1 282.8 323 260 Z " /><path fill="rgb(223,59,101)" stroke="rgb(223,59,101)" stroke-width="1" opacity="0.9607843137254902" d="M 128.5 266 L 129 272.5 L 128 272.5 L 128.5 266 Z " /><path fill="rgb(223,59,101)" stroke="rgb(223,59,101)" stroke-width="1" opacity="0.9607843137254902" d="M 370.5 295 L 371 297.5 L 370 297.5 L 370.5 295 Z " /><path fill="rgb(223,59,101)" stroke="rgb(223,59,101)" stroke-width="1" opacity="0.9607843137254902" d="M 370.5 299 L 371 301.5 L 370 301.5 L 370.5 299 Z " /><path fill="rgb(223,59,101)" stroke="rgb(223,59,101)" stroke-width="1" opacity="0.9607843137254902" d="M 370.5 304 L 371 306.5 L 369 305.5 L 370.5 304 Z " /><path fill="rgb(223,59,101)" stroke="rgb(223,59,101)" stroke-width="1" opacity="0.9607843137254902" d="M 391.5 336 L 392 338.5 L 390 339.5 L 391.5 336 Z " /><path fill="rgb(223,59,101)" stroke="rgb(223,59,101)" stroke-width="1" opacity="0.9607843137254902" d="M 388 343 Q 391 341.8 390 345.5 L 389 347.5 L 389.5 349 L 388 348.5 L 389 351.5 L 386 353.5 L 385 355.5 L 386 357.5 L 384 362.5 L 389 372.5 L 389 375.5 L 392 381.5 L 392 385.5 L 398 400.5 L 398 405.5 L 401 414.5 L 403 436.5 L 404.5 438 L 409.5 436 L 409.5 437 L 395.5 444 L 386.5 446 L 383.5 448 L 380.5 446 L 376 447 L 377 444.5 L 375 438.5 L 376 436.5 L 375 435.5 L 375 427.5 L 373 422.5 L 374 417.5 L 370 409.5 L 371 406.5 L 365 389.5 L 361 384.5 L 361 382.5 L 365 379.5 L 364 377.5 L 366 377.5 Q 380.3 365 387 346 L 389 345.5 L 388 343 Z " /><path fill="rgb(223,59,101)" stroke="rgb(223,59,101)" stroke-width="1" opacity="0.9607843137254902" d="M 421.5 427 L 420.5 429 L 421.5 427 Z " /></svg>