<svg width="500" height="500" version="1.1" xmlns="http://www.w3.org/2000/svg" desc="Created with imagetracer.js version 1.2.6" ><path fill="rgb(0,0,0)" stroke="rgb(0,0,0)" stroke-width="1" opacity="0" d="M 0 0 L 500 0 L 500 500 L 0 500 L 0 0 Z M 236 51 L 225 54 L 218 58 L 207 70 L 197 86 Q 192 93 183 96 L 169 96 L 145 91 L 131 93 Q 121 97 114 104 L 97 123 L 93 131 L 91 140 L 92 153 L 96 171 Q 98 184 92 191 Q 81 202 66 210 Q 58 215 54 225 L 50 245 L 51 266 L 53 274 L 58 283 L 66 290 L 87 304 L 94 313 L 96 319 L 96 331 L 92 348 L 92 355 L 87 362 L 86 366 L 81 368 L 69 380 L 68 383 L 56 392 L 50 400 L 51 404 L 80 434 L 95 447 L 99 446 L 111 434 L 111 432 L 120 426 L 129 416 L 130 412 L 138 408 L 140 409 L 153 408 L 170 404 Q 184 402 191 408 Q 202 420 211 436 L 221 444 L 236 449 L 265 449 L 276 446 L 283 442 L 290 435 L 304 414 Q 309 407 318 404 L 332 404 L 356 409 L 370 407 L 386 397 L 401 381 Q 407 374 409 363 L 409 353 L 404 329 Q 403 314 410 308 Q 420 298 434 291 L 443 282 L 448 271 L 450 260 L 449 234 Q 447 224 442 218 L 435 210 L 413 195 Q 406 190 404 181 L 405 166 L 409 149 L 409 138 L 406 128 L 397 115 L 378 97 L 370 93 L 361 91 L 343 93 L 332 96 Q 316 98 310 92 Q 298 81 290 66 Q 283 56 270 52 L 265 51 L 236 51 Z " /><path fill="rgb(143,118,225)" stroke="rgb(143,118,225)" stroke-width="1" opacity="0.996078431372549" d="M 219.5 60 L 219 61.5 L 218 64.5 L 220 68.5 L 219 70.5 L 219.5 72 L 218 72.5 L 218 74.5 L 216 79.5 L 216 81.5 L 213 88.5 L 213.5 90 L 211 91.5 L 208 98.5 Q 210.2 99.8 207.5 101 L 203 102.5 L 203 104.5 L 202.5 107 Q 200.8 103.3 199 106.5 L 197.5 110 Q 194.9 110.7 196 108 L 198 107.5 L 192 102.5 L 191 97.5 L 189 95.5 L 195.5 90 L 193 93.5 L 193.5 95 L 201 92 L 201 90 Q 203.7 91.1 203 88.5 Q 211 79.5 215 66.5 L 210 69.5 L 217.5 61 L 219.5 60 Z " /><path fill="rgb(143,118,225)" stroke="rgb(143,118,225)" stroke-width="1" opacity="0.996078431372549" d="M 209.5 71 L 208.5 73 L 209.5 71 Z " /><path fill="rgb(143,118,225)" stroke="rgb(143,118,225)" stroke-width="1" opacity="0.996078431372549" d="M 206.5 75 L 205.5 77 L 206.5 75 Z " /><path fill="rgb(143,118,225)" stroke="rgb(143,118,225)" stroke-width="1" opacity="0.996078431372549" d="M 202.5 81 L 201.5 83 L 202.5 81 Z " /><path fill="rgb(143,118,225)" stroke="rgb(143,118,225)" stroke-width="1" opacity="0.996078431372549" d="M 200.5 84 L 198.5 87 L 200.5 84 Z " /><path fill="rgb(143,118,225)" stroke="rgb(143,118,225)" stroke-width="1" opacity="0.996078431372549" d="M 127.5 97 L 128 98.5 L 127 101 L 129 101.5 L 128.5 103 L 131 103.5 L 131 105.5 L 130 109.5 L 132 111.5 L 131.5 114 L 125 117 L 124 119.5 L 124 121.5 L 123 123.5 L 123.5 125 L 120 126.5 L 121 130.5 L 119 130.5 L 120 133.5 L 118 133.5 L 116 138.5 L 117 140.5 L 116 143 L 119 141.5 L 119.5 140 L 120 141.5 L 118.5 144 L 121.5 146 L 121.5 144 L 126.5 146 L 127 141 L 132.5 140 L 136 136.5 Q 135.1 133.5 139.5 135 L 144 133 L 146.5 129 L 148.5 129 L 170.5 120 L 172.5 120 L 182.5 117 L 191.5 116 L 193.5 114 L 195.5 115 L 198 114 L 198.5 111 Q 200.3 114.1 202 112.5 L 201.5 114 L 205 113.5 L 204.5 112 Q 206 114.5 211.5 113 L 213.5 112 L 215.5 113 L 219.5 111 L 220 113 L 225.5 112 L 229.5 113 L 232.5 111 L 236 113.5 L 235.5 115 L 238.5 116 L 240.5 116 L 262 120.5 L 247.5 121 Q 246.3 118.7 241.5 120 L 235.5 122 L 234.5 121 L 225.5 121 L 223.5 121 L 221.5 122 L 206.5 122 L 205.5 123 L 192.5 124 L 185.5 127 L 174.5 129 L 141.5 146 L 119.5 163 L 111.5 167 L 106 162.5 L 102 141.5 L 103 137.5 L 102 135.5 L 108 120.5 L 122 102.5 L 120.5 102 L 117 104.5 L 127.5 97 Z " /><path fill="rgb(143,118,225)" stroke="rgb(143,118,225)" stroke-width="1" opacity="0.996078431372549" d="M 115.5 105 L 105.5 116 L 115.5 105 Z " /><path fill="rgb(143,118,225)" stroke="rgb(143,118,225)" stroke-width="1" opacity="0.996078431372549" d="M 103.5 118 L 101.5 121 L 103.5 118 Z " /><path fill="rgb(143,118,225)" stroke="rgb(143,118,225)" stroke-width="1" opacity="0.996078431372549" d="M 265.5 121 L 268 121.5 L 265.5 122 L 265.5 121 Z " /><path fill="rgb(143,118,225)" stroke="rgb(143,118,225)" stroke-width="1" opacity="0.996078431372549" d="M 98.5 125 L 98 126.5 L 96.5 130 L 96 128.5 L 98.5 125 Z " /><path fill="rgb(143,118,225)" stroke="rgb(143,118,225)" stroke-width="1" opacity="0.996078431372549" d="M 93.5 139 L 94 146.5 L 93 146.5 L 93.5 139 Z " /><path fill="rgb(143,118,225)" stroke="rgb(143,118,225)" stroke-width="1" opacity="0.996078431372549" d="M 247.5 163 L 260 163.5 L 247.5 164 L 247.5 163 Z " /><path fill="rgb(143,118,225)" stroke="rgb(143,118,225)" stroke-width="1" opacity="0.996078431372549" d="M 97.5 167 L 98 169.5 L 97 169.5 L 97.5 167 Z " /><path fill="rgb(143,118,225)" stroke="rgb(143,118,225)" stroke-width="1" opacity="0.996078431372549" d="M 306.5 180 L 307.5 182 L 306.5 180 Z " /><path fill="rgb(143,118,225)" stroke="rgb(143,118,225)" stroke-width="1" opacity="0.996078431372549" d="M 93.5 191 L 91.5 194 L 93.5 191 Z " /><path fill="rgb(143,118,225)" stroke="rgb(143,118,225)" stroke-width="1" opacity="0.996078431372549" d="M 89.5 195 L 86.5 199 L 89.5 195 Z " /><path fill="rgb(143,118,225)" stroke="rgb(143,118,225)" stroke-width="1" opacity="0.996078431372549" d="M 83.5 200 L 82.5 202 L 83.5 200 Z " /><path fill="rgb(143,118,225)" stroke="rgb(143,118,225)" stroke-width="1" opacity="0.996078431372549" d="M 80.5 202 L 79.5 204 L 80.5 202 Z " /><path fill="rgb(143,118,225)" stroke="rgb(143,118,225)" stroke-width="1" opacity="0.996078431372549" d="M 77.5 204 L 76.5 206 L 77.5 204 Z " /><path fill="rgb(143,118,225)" stroke="rgb(143,118,225)" stroke-width="1" opacity="0.996078431372549" d="M 74.5 206 L 73.5 208 L 74.5 206 Z " /><path fill="rgb(143,118,225)" stroke="rgb(143,118,225)" stroke-width="1" opacity="0.996078431372549" d="M 71.5 208 L 70.5 210 L 71.5 208 Z " /><path fill="rgb(143,118,225)" stroke="rgb(143,118,225)" stroke-width="1" opacity="0.996078431372549" d="M 67.5 211 L 65.5 214 L 67.5 211 Z " /><path fill="rgb(143,118,225)" stroke="rgb(143,118,225)" stroke-width="1" opacity="0.996078431372549" d="M 390.5 212 L 391 217.5 L 390 217.5 L 390.5 212 Z " /><path fill="rgb(143,118,225)" stroke="rgb(143,118,225)" stroke-width="1" opacity="0.996078431372549" d="M 61.5 217 L 59.5 220 L 61.5 217 Z " /><path fill="rgb(143,118,225)" stroke="rgb(143,118,225)" stroke-width="1" opacity="0.996078431372549" d="M 391.5 232 L 392.5 234 L 391.5 232 Z " /><path fill="rgb(143,118,225)" stroke="rgb(143,118,225)" stroke-width="1" opacity="0.996078431372549" d="M 53.5 235 L 54 237.5 L 53 237.5 L 53.5 235 Z " /><path fill="rgb(143,118,225)" stroke="rgb(143,118,225)" stroke-width="1" opacity="0.996078431372549" d="M 391 239 Q 394 238 393 241 Q 390 242 391 239 Z " /><path fill="rgb(143,118,225)" stroke="rgb(143,118,225)" stroke-width="1" opacity="0.996078431372549" d="M 399.5 240 L 400 242.5 L 399 242.5 L 399.5 240 Z " /><path fill="rgb(143,118,225)" stroke="rgb(143,118,225)" stroke-width="1" opacity="0.996078431372549" d="M 392 244 Q 395 243 394 246 Q 391 247 392 244 Z " /><path fill="rgb(143,118,225)" stroke="rgb(143,118,225)" stroke-width="1" opacity="0.996078431372549" d="M 52.5 245 L 53 255.5 L 52 255.5 L 52.5 245 Z " /><path fill="rgb(143,118,225)" stroke="rgb(143,118,225)" stroke-width="1" opacity="0.996078431372549" d="M 393.5 251 L 394 253.5 L 392.5 256 L 391 253 Q 393.8 254 393.5 251 Z " /><path fill="rgb(143,118,225)" stroke="rgb(143,118,225)" stroke-width="1" opacity="0.996078431372549" d="M 391.5 257 Q 395.3 255.8 394 259.5 L 395 262 Q 399.3 263 400.5 260 L 401 261.5 L 398.5 265 L 400.5 266 L 402 265.5 Q 402.8 269.8 400 270.5 L 402 272.5 L 400 276.5 L 401 280.5 L 400 285.5 L 396 289.5 L 395 294.5 L 391 301 L 389 301.5 L 389.5 303 Q 386.9 302.2 388 305.5 L 385 310.5 Q 386.5 316 384 317.5 L 384 319.5 L 383 321.5 L 385 324.5 L 383 328.5 L 384 331.5 L 384 337.5 L 382 343.5 L 382 347.5 L 379 350.5 L 379 352 Q 375.2 350.5 376 353.5 L 376.5 355 Q 374.3 354.3 375 356.5 L 374 356.5 Q 374.8 354.3 372.5 355 L 373 356.5 L 375 359.5 L 373 363 L 367 365 L 366.5 367 L 365 366.5 L 364 372 L 361 370.5 L 360.5 369 L 359 371.5 Q 361.8 373.3 357.5 375 L 355.5 375 L 353 375.5 L 355 376 Q 356.1 378.7 353.5 378 L 352 377.5 L 351.5 382 L 350 381.5 L 348.5 384 L 346.5 379 Q 343.8 380.3 346 381.5 L 344.5 384 Q 343 380.5 341.5 383 L 338 383.5 Q 339.2 386.2 340.5 384 L 344 385.5 L 344 387.5 L 345.5 390 L 347.5 389 L 349 393 L 353.5 394 L 355 393.5 Q 351.3 395.2 354.5 397 Q 355.8 394.8 357 397.5 L 356.5 399 Q 360.3 398.3 361 400.5 L 361 402 Q 364.8 400.5 364 403.5 Q 366.3 404.8 363.5 406 L 361.5 407 L 349.5 407 L 348.5 408 L 349.5 406 L 358 405.5 L 334.5 398 L 325.5 398 L 320 400.5 L 322 401.5 L 314 402 L 315 395.5 L 312 390 L 306.5 389 L 302.5 390 L 300.5 389 L 299.5 392 Q 295.1 390.5 296 393.5 L 293.5 397 Q 290.2 395.9 291 398.5 L 283 405 Q 284.1 407.7 281.5 407 L 279.5 410 L 276.5 409 L 277.5 412 L 274 413 L 272.5 418 L 271.5 416 L 269 417.5 L 269.5 421 Q 263.9 420.4 262.5 424 L 261.5 422 L 259 426.5 L 260.5 429 L 263 428 L 262.5 430 Q 261.2 427.8 260 430.5 L 259 434 L 262.5 433 L 262 434.5 Q 261.3 437.1 264 436 L 264.5 434 Q 264.3 438.7 267.5 440 L 271 442.5 L 269.5 445 L 258.5 448 L 238.5 448 L 238.5 447 L 257 446.5 L 253.5 445 L 251.5 445 L 247.5 445 L 233.5 441 L 223 432.5 Q 223.8 430.3 221.5 431 L 215 422.5 L 205 403 L 202 401.5 L 198.5 397 L 191.5 395 L 174 400.5 L 174.5 402 L 163.5 403 L 144.5 407 L 144.5 406 L 148 405.5 L 144 402.5 L 148 394.5 L 139 384.5 L 139 381 L 147.5 377 L 158.5 377 L 160.5 377 L 188.5 384 L 194.5 387 L 197.5 386 L 200.5 388 L 204.5 387 L 206.5 388 L 208.5 388 L 231.5 388 L 238.5 386 L 240.5 386 L 243.5 387 L 246.5 385 L 250.5 385 L 264.5 380 L 266.5 380 L 271.5 378 L 275.5 378 L 283 373.5 L 283.5 372 L 285.5 373 L 290.5 370 Q 292 372.5 293.5 369 Q 328.2 356.7 349 330.5 L 360.5 314 Q 377.5 311.5 385 299.5 L 390 287.5 L 391 259.5 L 392 258.5 L 391.5 257 Z M 395 269 L 396 273 L 397 271 Q 398 268 395 269 Z M 397 279 L 396 282 L 398 282 L 397 279 Z M 346 365 L 343 370 L 347 373 Q 348 368 346 369 L 347 367 L 346 365 Z M 363 366 L 361 368 L 363 368 L 364 369 L 363 366 Z M 348 373 Q 345 374 347 376 L 344 377 L 347 378 L 349 378 L 348 376 Q 350 374 348 373 Z M 336 376 L 334 378 L 336 378 L 336 376 Z M 268 417 Q 266 420 269 419 L 268 417 Z M 248 420 Q 246 423 249 422 L 248 420 Z M 256 423 L 256 424 L 259 424 L 256 423 Z M 248 424 Q 246 427 249 426 L 248 424 Z M 249 427 L 249 428 L 251 428 L 249 427 Z M 255 427 L 254 430 L 257 429 L 255 427 Z " /><path fill="rgb(143,118,225)" stroke="rgb(143,118,225)" stroke-width="1" opacity="0.996078431372549" d="M 401.5 257 L 402 259 L 400 258.5 L 401.5 257 Z " /><path fill="rgb(143,118,225)" stroke="rgb(143,118,225)" stroke-width="1" opacity="0.996078431372549" d="M 53.5 263 L 54 265.5 L 53 265.5 L 53.5 263 Z " /><path fill="rgb(143,118,225)" stroke="rgb(143,118,225)" stroke-width="1" opacity="0.996078431372549" d="M 61.5 283 L 65.5 288 L 61.5 283 Z " /><path fill="rgb(143,118,225)" stroke="rgb(143,118,225)" stroke-width="1" opacity="0.996078431372549" d="M 81.5 298 L 82.5 300 L 81.5 298 Z " /><path fill="rgb(143,118,225)" stroke="rgb(143,118,225)" stroke-width="1" opacity="0.996078431372549" d="M 119.5 303 L 120.5 305 L 119.5 303 Z " /><path fill="rgb(143,118,225)" stroke="rgb(143,118,225)" stroke-width="1" opacity="0.996078431372549" d="M 93.5 309 L 94.5 311 L 93.5 309 Z " /><path fill="rgb(143,118,225)" stroke="rgb(143,118,225)" stroke-width="1" opacity="0.996078431372549" d="M 264.5 332 L 267 332.5 L 264.5 333 L 264.5 332 Z " /><path fill="rgb(143,118,225)" stroke="rgb(143,118,225)" stroke-width="1" opacity="0.996078431372549" d="M 96.5 336 L 97 338.5 L 96 338.5 L 96.5 336 Z " /><path fill="rgb(143,118,225)" stroke="rgb(143,118,225)" stroke-width="1" opacity="0.996078431372549" d="M 95.5 341 L 96 343.5 L 95 343.5 L 95.5 341 Z " /><path fill="rgb(143,118,225)" stroke="rgb(143,118,225)" stroke-width="1" opacity="0.996078431372549" d="M 167.5 362 L 163.5 367 L 167.5 362 Z " /><path fill="rgb(143,118,225)" stroke="rgb(143,118,225)" stroke-width="1" opacity="0.996078431372549" d="M 351.5 390 L 352.5 392 L 351.5 390 Z " /><path fill="rgb(143,118,225)" stroke="rgb(143,118,225)" stroke-width="1" opacity="0.996078431372549" d="M 177.5 402 L 182 402.5 L 177.5 403 L 177.5 402 Z " /><path fill="rgb(143,118,225)" stroke="rgb(143,118,225)" stroke-width="1" opacity="0.996078431372549" d="M 324.5 402 L 330 402.5 L 324.5 403 L 324.5 402 Z " /><path fill="rgb(143,118,225)" stroke="rgb(143,118,225)" stroke-width="1" opacity="0.996078431372549" d="M 333.5 403 L 336 403.5 L 333.5 404 L 333.5 403 Z " /><path fill="rgb(143,118,225)" stroke="rgb(143,118,225)" stroke-width="1" opacity="0.996078431372549" d="M 344.5 405 L 346 405.5 L 342.5 407 L 342.5 406 L 344.5 405 Z " /><path fill="rgb(143,118,225)" stroke="rgb(143,118,225)" stroke-width="1" opacity="0.996078431372549" d="M 198.5 414 L 199.5 416 L 198.5 414 Z " /><path fill="rgb(143,118,225)" stroke="rgb(143,118,225)" stroke-width="1" opacity="0.996078431372549" d="M 201.5 418 L 202.5 420 L 201.5 418 Z " /><path fill="rgb(143,118,225)" stroke="rgb(143,118,225)" stroke-width="1" opacity="0.996078431372549" d="M 203.5 421 L 204.5 423 L 203.5 421 Z " /><path fill="rgb(143,118,225)" stroke="rgb(143,118,225)" stroke-width="1" opacity="0.996078431372549" d="M 265.5 423 L 264.5 427 L 262 426.5 L 265.5 423 Z " /><path fill="rgb(143,118,225)" stroke="rgb(143,118,225)" stroke-width="1" opacity="0.996078431372549" d="M 207.5 427 L 208.5 429 L 207.5 427 Z " /><path fill="rgb(143,118,225)" stroke="rgb(143,118,225)" stroke-width="1" opacity="0.996078431372549" d="M 213.5 435 L 217.5 440 L 213.5 435 Z " /><path fill="rgb(181,161,229)" stroke="rgb(181,161,229)" stroke-width="1" opacity="0.9294117647058824" d="M 235.5 51 L 242 51.5 L 235.5 52 L 235.5 51 Z " /><path fill="rgb(181,161,229)" stroke="rgb(181,161,229)" stroke-width="1" opacity="0.9294117647058824" d="M 244.5 51 Q 278 47.5 290 65.5 L 297 75.5 L 296.5 77 L 299 78.5 L 309.5 92 L 317 95.5 L 314.5 96 Q 304.4 92.1 299 83.5 L 293.5 75 L 293 76.5 L 305 94.5 L 302.5 96 Q 289.9 85.1 284 67.5 L 286.5 69 L 290 71.5 L 292.5 75 L 293 73.5 L 285 62 L 276.5 56 L 268.5 53 L 263.5 52 L 244.5 52 L 244.5 51 Z " /><path fill="rgb(181,161,229)" stroke="rgb(181,161,229)" stroke-width="1" opacity="0.9294117647058824" d="M 230.5 52 L 234 52.5 Q 217.6 55.6 210 67.5 Q 202.7 82.7 190.5 93 L 186.5 95 L 186.5 94 L 197 85.5 L 210 65.5 L 217.5 58 L 230.5 52 Z " /><path fill="rgb(181,161,229)" stroke="rgb(181,161,229)" stroke-width="1" opacity="0.9294117647058824" d="M 140.5 91 L 145 91.5 L 140.5 92 L 140.5 91 Z " /><path fill="rgb(181,161,229)" stroke="rgb(181,161,229)" stroke-width="1" opacity="0.9294117647058824" d="M 356.5 91 L 360 91.5 L 356.5 92 L 356.5 91 Z " /><path fill="rgb(181,161,229)" stroke="rgb(181,161,229)" stroke-width="1" opacity="0.9294117647058824" d="M 134.5 92 L 139 92.5 L 134.5 93 L 134.5 92 Z " /><path fill="rgb(181,161,229)" stroke="rgb(181,161,229)" stroke-width="1" opacity="0.9294117647058824" d="M 146.5 92 L 168 95.5 L 162.5 96 L 151.5 93 L 146.5 93 L 146.5 92 Z " /><path fill="rgb(181,161,229)" stroke="rgb(181,161,229)" stroke-width="1" opacity="0.9294117647058824" d="M 348.5 92 L 353 92.5 L 348.5 93 L 348.5 92 Z " /><path fill="rgb(181,161,229)" stroke="rgb(181,161,229)" stroke-width="1" opacity="0.9294117647058824" d="M 361.5 92 Q 371.8 92.2 377.5 97 L 397 114.5 L 407 130.5 Q 404.5 132 408 133.5 L 407 135.5 Q 410 136.5 409 141.5 L 409 143.5 Q 410 149.5 407 151.5 L 408 154.5 L 406 157.5 L 407 159.5 Q 403.5 161 406 162.5 L 404 167.5 L 405 170.5 Q 402.2 173.2 403 179.5 L 405 182.5 Q 402.5 184 406 185.5 L 412.5 195 L 434.5 210 L 442 217.5 L 446 224.5 L 445.5 226 Q 448.1 225.2 447 228.5 L 449 235.5 L 448 237.5 L 448 239.5 L 448 241 L 450 241.5 L 450 259.5 L 448 264.5 L 449 266.5 Q 445.5 268 448 269.5 Q 444.8 283.3 434.5 290 L 410 307.5 L 404 316.5 L 405 318.5 Q 402 320.5 403 326.5 L 405 331.5 L 404 333.5 L 406 337.5 L 405 340 Q 408 338.8 407 342.5 L 406 344.5 L 408 347.5 L 407 349.5 Q 411 353 409 362.5 Q 405.5 364 408 365.5 L 406 368.5 L 406 370.5 L 401 380.5 L 385.5 397 L 372.5 405 L 372.5 404 Q 385.2 397.2 394 386.5 Q 401.3 380.3 404 369.5 L 402.5 370 L 400.5 371 Q 398.3 370.3 399 366.5 L 400 365.5 L 400 351.5 L 396 335.5 L 395 318.5 L 396 314.5 L 399.5 311 Q 403.3 310 402 313 L 405 313 L 410.5 305 L 432.5 290 L 440 282.5 L 443 275 L 438.5 277 L 437 274.5 L 439 267.5 L 439 238.5 L 435 223.5 L 431 216 L 435.5 217 L 441 221 Q 439.5 215.4 434.5 212 L 412.5 197 L 404.5 189 L 404 192.5 L 405 195 L 402.5 195 L 397 189.5 Q 393.4 184.1 395 173.5 L 399 156.5 L 399 146.5 L 400 145.5 L 397 131.5 L 387 113.5 L 392.5 118 L 400.5 125 L 401 123.5 L 398 118.5 L 380.5 101 L 368.5 94 L 361.5 93 L 361.5 92 Z " /><path fill="rgb(181,161,229)" stroke="rgb(181,161,229)" stroke-width="1" opacity="0.9294117647058824" d="M 130.5 93 L 133 93.5 Q 113.5 101.5 102 117.5 L 95 128.5 L 92 139.5 L 92 145.5 L 96 163.5 L 97 174.5 L 96 174.5 L 92 152.5 L 91 139.5 Q 93.3 138.3 92 133.5 L 96 124.5 L 113.5 104 Q 120.5 97 130.5 93 Z " /><path fill="rgb(181,161,229)" stroke="rgb(181,161,229)" stroke-width="1" opacity="0.9294117647058824" d="M 342.5 93 L 346 93.5 L 342.5 94 L 342.5 93 Z " /><path fill="rgb(181,161,229)" stroke="rgb(181,161,229)" stroke-width="1" opacity="0.9294117647058824" d="M 337.5 94 L 341 94.5 L 337.5 95 L 337.5 94 Z " /><path fill="rgb(181,161,229)" stroke="rgb(181,161,229)" stroke-width="1" opacity="0.9294117647058824" d="M 332.5 95 L 336 95.5 L 332.5 96 L 332.5 95 Z " /><path fill="rgb(181,161,229)" stroke="rgb(181,161,229)" stroke-width="1" opacity="0.9294117647058824" d="M 169.5 96 L 182 96.5 L 169.5 97 L 169.5 96 Z " /><path fill="rgb(181,161,229)" stroke="rgb(181,161,229)" stroke-width="1" opacity="0.9294117647058824" d="M 318.5 96 L 330 96.5 L 318.5 97 L 318.5 96 Z " /><path fill="rgb(181,161,229)" stroke="rgb(181,161,229)" stroke-width="1" opacity="0.9294117647058824" d="M 240.5 121 L 244 121.5 L 240.5 122 L 240.5 121 Z " /><path fill="rgb(181,161,229)" stroke="rgb(181,161,229)" stroke-width="1" opacity="0.9294117647058824" d="M 257.5 121 L 261 121.5 L 257.5 122 L 257.5 121 Z " /><path fill="rgb(181,161,229)" stroke="rgb(181,161,229)" stroke-width="1" opacity="0.9294117647058824" d="M 172.5 147 L 171.5 149 L 172.5 147 Z " /><path fill="rgb(181,161,229)" stroke="rgb(181,161,229)" stroke-width="1" opacity="0.9294117647058824" d="M 167.5 151 L 169 151.5 L 156 163.5 L 145 178.5 L 143 184 L 140 183.5 L 148 171 Q 150.7 172.1 150 169.5 L 167.5 151 Z " /><path fill="rgb(181,161,229)" stroke="rgb(181,161,229)" stroke-width="1" opacity="0.9294117647058824" d="M 338.5 156 L 342.5 161 L 338.5 156 Z " /><path fill="rgb(181,161,229)" stroke="rgb(181,161,229)" stroke-width="1" opacity="0.9294117647058824" d="M 241.5 161 L 266.5 161 L 279.5 164 L 299.5 173 L 316 183.5 L 313.5 184 Q 298.8 171.2 277.5 165 L 261.5 162 L 245.5 162 L 224.5 167 L 204.5 177 L 195.5 184 L 192.5 184 L 193.5 182 L 222.5 166 L 241.5 161 Z " /><path fill="rgb(181,161,229)" stroke="rgb(181,161,229)" stroke-width="1" opacity="0.9294117647058824" d="M 96.5 179 L 97 181.5 Q 94.7 192.2 86.5 197 L 64 212 L 64 214 Q 61.3 212.9 62 215.5 L 58 219.5 L 53 231.5 L 51.5 260 Q 48.6 254.4 50 244.5 L 54 224.5 Q 58 215.5 65.5 210 Q 80.6 202.1 92 190.5 L 96.5 179 Z " /><path fill="rgb(181,161,229)" stroke="rgb(181,161,229)" stroke-width="1" opacity="0.9294117647058824" d="M 382.5 196 L 383.5 198 L 382.5 196 Z " /><path fill="rgb(181,161,229)" stroke="rgb(181,161,229)" stroke-width="1" opacity="0.9294117647058824" d="M 51.5 261 L 53 266.5 L 51 265.5 L 51.5 261 Z " /><path fill="rgb(181,161,229)" stroke="rgb(181,161,229)" stroke-width="1" opacity="0.9294117647058824" d="M 52.5 268 L 54 270.5 L 52 269.5 L 52.5 268 Z " /><path fill="rgb(181,161,229)" stroke="rgb(181,161,229)" stroke-width="1" opacity="0.9294117647058824" d="M 53.5 272 Q 57.3 282.7 65.5 289 Q 81.2 297.3 93 309.5 L 95 313.5 L 94 313.5 L 86.5 304 L 65.5 290 L 58 282.5 L 53 273.5 L 53.5 272 Z " /><path fill="rgb(181,161,229)" stroke="rgb(181,161,229)" stroke-width="1" opacity="0.9294117647058824" d="M 382.5 301 L 378.5 306 L 382.5 301 Z " /><path fill="rgb(181,161,229)" stroke="rgb(181,161,229)" stroke-width="1" opacity="0.9294117647058824" d="M 140.5 313 L 141.5 314 L 161.5 314 L 165.5 315 L 168.5 314 Q 177.2 316.8 190.5 315 L 228.5 331 L 242.5 334 L 253.5 334 L 254.5 335 L 255.5 334 L 266.5 334 L 280.5 331 Q 298.3 325.3 312.5 316 L 336.5 314 L 338.5 315 L 339.5 314 L 352.5 314 L 352.5 315 L 342.5 317 L 318.5 317 L 310.5 319 Q 296.6 327.6 279.5 333 L 264.5 336 L 244.5 336 L 223.5 331 L 198.5 319 L 191.5 317 L 154.5 317 L 149 318 L 151 325.5 L 163.5 340 Q 180 356 202.5 366 Q 216.6 372.4 235 374.5 L 229.5 375 Q 197.9 369.1 176.5 353 L 173 355.5 L 170 351.5 L 171 350.5 L 151 330.5 L 145.5 323 L 139.5 328 L 142 324.5 L 142.5 323 L 144 323.5 L 145 320.5 L 140.5 313 Z " /><path fill="rgb(181,161,229)" stroke="rgb(181,161,229)" stroke-width="1" opacity="0.9294117647058824" d="M 95.5 315 L 97 321.5 L 96 321.5 L 95.5 315 Z " /><path fill="rgb(181,161,229)" stroke="rgb(181,161,229)" stroke-width="1" opacity="0.9294117647058824" d="M 96.5 326 L 97 330.5 L 92.5 354 L 92 347.5 L 96.5 326 Z " /><path fill="rgb(181,161,229)" stroke="rgb(181,161,229)" stroke-width="1" opacity="0.9294117647058824" d="M 347.5 331 L 346.5 333 L 347.5 331 Z " /><path fill="rgb(181,161,229)" stroke="rgb(181,161,229)" stroke-width="1" opacity="0.9294117647058824" d="M 334.5 344 L 333.5 346 L 334.5 344 Z " /><path fill="rgb(181,161,229)" stroke="rgb(181,161,229)" stroke-width="1" opacity="0.9294117647058824" d="M 129.5 346 L 124.5 352 L 129.5 346 Z " /><path fill="rgb(181,161,229)" stroke="rgb(181,161,229)" stroke-width="1" opacity="0.9294117647058824" d="M 99.5 350 L 101 352.5 L 94 361.5 L 92 367.5 Q 97.9 379.6 108 387.5 L 101.5 382 L 86 369 L 87 364.5 L 86.5 363 L 88 363.5 L 89 361.5 Q 86.3 359.7 90.5 358 Q 92.2 360.8 94 356.5 Q 91.3 354.7 95.5 353 Q 97.3 355.8 99 351.5 L 99.5 350 Z " /><path fill="rgb(181,161,229)" stroke="rgb(181,161,229)" stroke-width="1" opacity="0.9294117647058824" d="M 80.5 368 Q 82.8 368.8 82 372.5 L 79 377 Q 76.3 375.9 77 378.5 Q 73.4 379.9 74 385.5 L 78 392.5 L 96 411.5 L 76.5 393 L 68 385.5 L 67.5 384 L 66 384.5 L 69 383.5 L 68 381.5 L 70 381.5 L 69 379.5 L 73 377.5 L 72 376.5 L 80.5 368 Z " /><path fill="rgb(181,161,229)" stroke="rgb(181,161,229)" stroke-width="1" opacity="0.9294117647058824" d="M 236.5 375 L 243 375.5 L 236.5 376 L 236.5 375 Z " /><path fill="rgb(181,161,229)" stroke="rgb(181,161,229)" stroke-width="1" opacity="0.9294117647058824" d="M 261.5 375 L 265 375.5 L 261.5 376 L 261.5 375 Z " /><path fill="rgb(181,161,229)" stroke="rgb(181,161,229)" stroke-width="1" opacity="0.9294117647058824" d="M 138.5 380 L 137.5 382 L 138.5 380 Z " /><path fill="rgb(181,161,229)" stroke="rgb(181,161,229)" stroke-width="1" opacity="0.9294117647058824" d="M 63.5 385 L 65 385.5 L 62 387.5 L 64 388 L 56 401.5 L 60 409.5 L 76 427.5 L 51 403.5 L 51.5 402 L 50 401.5 L 50.5 399 L 52 399.5 L 51 397.5 L 52.5 398 L 62 388.5 Q 59.3 386.8 63.5 385 Z " /><path fill="rgb(181,161,229)" stroke="rgb(181,161,229)" stroke-width="1" opacity="0.9294117647058824" d="M 139.5 385 L 145.5 392 L 139.5 385 Z " /><path fill="rgb(181,161,229)" stroke="rgb(181,161,229)" stroke-width="1" opacity="0.9294117647058824" d="M 172.5 403 L 180 403.5 L 172.5 404 L 172.5 403 Z " /><path fill="rgb(181,161,229)" stroke="rgb(181,161,229)" stroke-width="1" opacity="0.9294117647058824" d="M 165.5 404 L 168 404.5 L 165.5 405 L 165.5 404 Z " /><path fill="rgb(181,161,229)" stroke="rgb(181,161,229)" stroke-width="1" opacity="0.9294117647058824" d="M 312.5 405 L 311.5 407 L 312.5 405 Z " /><path fill="rgb(181,161,229)" stroke="rgb(181,161,229)" stroke-width="1" opacity="0.9294117647058824" d="M 370.5 405 L 369.5 407 L 367 406.5 L 370.5 405 Z " /><path fill="rgb(181,161,229)" stroke="rgb(181,161,229)" stroke-width="1" opacity="0.9294117647058824" d="M 188.5 406 L 189.5 408 L 188.5 406 Z " /><path fill="rgb(181,161,229)" stroke="rgb(181,161,229)" stroke-width="1" opacity="0.9294117647058824" d="M 309.5 407 L 304 413.5 Q 295.7 429.2 283.5 441 L 273.5 446 L 273.5 445 Q 283.2 442.3 288 434.5 Q 295.9 419.4 307.5 408 L 309.5 407 Z " /><path fill="rgb(181,161,229)" stroke="rgb(181,161,229)" stroke-width="1" opacity="0.9294117647058824" d="M 191.5 408 L 198 414.5 Q 205.4 428.6 216 439.5 L 211 435.5 Q 202 419.8 191.5 408 Z " /><path fill="rgb(181,161,229)" stroke="rgb(181,161,229)" stroke-width="1" opacity="0.9294117647058824" d="M 83.5 436 L 92.5 446 L 83.5 436 Z " /><path fill="rgb(181,161,229)" stroke="rgb(181,161,229)" stroke-width="1" opacity="0.9294117647058824" d="M 237.5 448 L 240 448.5 L 237.5 449 L 237.5 448 Z " /><path fill="rgb(181,161,229)" stroke="rgb(181,161,229)" stroke-width="1" opacity="0.9294117647058824" d="M 260.5 448 L 263 448.5 L 260.5 449 L 260.5 448 Z " /><path fill="rgb(105,79,201)" stroke="rgb(105,79,201)" stroke-width="1" opacity="1" d="M 202.5 128 L 206 128.5 Q 176.2 139.2 157 160.5 L 153.5 165 Q 151.3 164.3 152 166.5 L 150 170 L 147 171.5 Q 148.1 174.8 145.5 174 L 144.5 177 L 142 178.5 L 140 181.5 L 140.5 183 L 139.5 182 L 136.5 185 L 135.5 184 L 126.5 188 L 116 196 L 114 201.5 L 106 209.5 L 103 216.5 L 100 219.5 L 100.5 221 Q 98.3 220.3 99 222.5 L 96 228.5 L 96 231.5 L 94 233.5 L 94 235.5 L 92 241.5 L 93 245.5 L 91 248.5 Q 92.2 253.3 90 254.5 Q 93.5 256 91 257.5 L 91 271.5 L 92 273.5 L 91 277.5 Q 94.5 279 92 280.5 L 93 283.5 L 92 285.5 L 96 296.5 L 103.5 305 Q 106.1 304.3 105 307 L 107 307 L 107 308.5 Q 112.2 315.8 120 319 L 121.5 322 Q 123.8 321.3 123 323.5 Q 126.5 325 124 326.5 L 125 328.5 L 121 343.5 L 121 345.5 L 113.5 355 Q 111.3 354.3 112 356.5 L 108 353.5 L 105.5 350 Q 102.9 350.7 104 348 L 109 348 L 109 343.5 Q 111.2 342.3 110 337.5 L 112 335.5 L 111 332.5 Q 111.8 328.8 109.5 328 L 104 330 L 100 340.5 L 100 346.5 L 103 348.5 L 101.5 349 L 100 348.5 Q 100.8 350.8 98.5 350 L 95 352.5 L 99 333.5 L 100 321.5 L 98 313.5 L 92 305 L 67.5 288 L 61 281.5 L 58 276.5 L 55 264.5 L 55 239.5 L 58 227.5 L 64.5 218 L 67 218 Q 65.9 215.3 68.5 216 L 84 207 Q 82.9 204.3 85.5 205 L 95 198 L 99 191.5 L 99 189 L 108.5 185 L 119 177 L 119 175 Q 121.7 176.1 121 173.5 Q 137.3 155.8 159.5 144 L 176.5 136 L 202.5 128 Z " /><path fill="rgb(105,79,201)" stroke="rgb(105,79,201)" stroke-width="1" opacity="1" d="M 96.5 144 L 103 173.5 L 103 178.5 L 99.5 187 L 99 184.5 L 100 183.5 L 100 171.5 L 96 152.5 L 96.5 144 Z " /><path fill="rgb(105,79,201)" stroke="rgb(105,79,201)" stroke-width="1" opacity="1" d="M 244.5 164 L 248 164.5 L 244.5 165 L 244.5 164 Z " /><path fill="rgb(105,79,201)" stroke="rgb(105,79,201)" stroke-width="1" opacity="1" d="M 254.5 164 L 259 164.5 L 254.5 165 L 254.5 164 Z " /><path fill="rgb(105,79,201)" stroke="rgb(105,79,201)" stroke-width="1" opacity="1" d="M 264.5 165 L 268 165.5 L 264.5 166 L 264.5 165 Z " /><path fill="rgb(105,79,201)" stroke="rgb(105,79,201)" stroke-width="1" opacity="1" d="M 232.5 166 L 233 168 Q 241.9 166.9 247.5 170 L 266.5 183 L 270 183.5 L 246.5 184 L 244.5 184 L 235.5 183 L 233.5 183 L 228.5 184 L 227.5 183 L 212.5 183 L 211.5 184 L 197.5 184 L 199.5 181 Q 211.6 171.6 228.5 167 L 230.5 168 L 232.5 166 Z " /><path fill="rgb(105,79,201)" stroke="rgb(105,79,201)" stroke-width="1" opacity="1" d="M 270.5 166 L 273 166.5 L 270.5 167 L 270.5 166 Z " /><path fill="rgb(105,79,201)" stroke="rgb(105,79,201)" stroke-width="1" opacity="1" d="M 274.5 167 L 277 167.5 L 274.5 168 L 274.5 167 Z " /><path fill="rgb(105,79,201)" stroke="rgb(105,79,201)" stroke-width="1" opacity="1" d="M 286.5 171 Q 299.2 175.8 309 183.5 L 307.5 184 Q 298.6 176.4 286.5 172 L 286.5 171 Z " /><path fill="rgb(105,79,201)" stroke="rgb(105,79,201)" stroke-width="1" opacity="1" d="M 308.5 314 L 310 314.5 L 299.5 320 L 300.5 318 L 308.5 314 Z " /><path fill="rgb(105,79,201)" stroke="rgb(105,79,201)" stroke-width="1" opacity="1" d="M 227.5 318 L 233.5 319 L 235.5 319 Q 244.8 318.2 250 320 L 252 325 L 254 325.5 L 250.5 331 L 240.5 333 L 229.5 331 L 209 323 Q 207.8 320 211.5 321 L 217.5 319 L 226.5 319 L 227.5 318 Z " /><path fill="rgb(105,79,201)" stroke="rgb(105,79,201)" stroke-width="1" opacity="1" d="M 297.5 320 L 296.5 322 L 289.5 325 L 289.5 324 L 297.5 320 Z " /><path fill="rgb(105,79,201)" stroke="rgb(105,79,201)" stroke-width="1" opacity="1" d="M 284.5 326 L 286 326.5 L 282.5 328 L 282.5 327 L 284.5 326 Z " /><path fill="rgb(105,79,201)" stroke="rgb(105,79,201)" stroke-width="1" opacity="1" d="M 135.5 329 L 131.5 334 L 135.5 329 Z " /><path fill="rgb(105,79,201)" stroke="rgb(105,79,201)" stroke-width="1" opacity="1" d="M 121.5 353 L 116.5 359 L 121.5 353 Z " /><path fill="rgb(105,79,201)" stroke="rgb(105,79,201)" stroke-width="1" opacity="1" d="M 175.5 354 L 173.5 357 L 175.5 354 Z " /><path fill="rgb(105,79,201)" stroke="rgb(105,79,201)" stroke-width="1" opacity="1" d="M 168.5 362 L 176.5 363 L 194.5 369 L 212.5 372 L 214 371.5 Q 213.3 373.8 215.5 373 L 218 372 Q 216.9 374.7 219.5 374 L 221.5 373 L 232.5 376 L 256 377.5 L 249.5 379 L 240.5 379 L 239.5 380 L 226.5 380 L 225.5 381 L 223.5 381 L 221.5 380 L 199.5 379 L 176.5 373 L 173.5 371 L 161 368.5 L 168.5 362 Z " /><path fill="rgb(105,79,201)" stroke="rgb(105,79,201)" stroke-width="1" opacity="1" d="M 154.5 366 L 159 368.5 L 149.5 371 L 152.5 367 L 154.5 366 Z " /><path fill="rgb(105,79,201)" stroke="rgb(105,79,201)" stroke-width="1" opacity="1" d="M 188.5 403 Q 198.3 404.2 202 411.5 L 213 429.5 L 222 439.5 L 220.5 440 L 214 434.5 L 202 416.5 L 193.5 407 Q 188.9 405.8 188.5 403 Z " /><path fill="rgb(239,185,58)" stroke="rgb(239,185,58)" stroke-width="1" opacity="1" d="M 142.5 184 L 359.5 184 L 368.5 186 L 374.5 189 L 382 195.5 L 388 207.5 L 387 211.5 L 388 212.5 L 388 285.5 L 389 288.5 Q 385.3 301.3 375.5 308 L 368.5 311 Q 365 309 369.5 307 L 379 299.5 L 383 291.5 L 382.5 288 L 384 288.5 L 385 274.5 L 383.5 275 L 382 274.5 L 386 271.5 L 384.5 271 L 382 272.5 L 384.5 269 L 382.5 270 L 383 268.5 L 381.5 265 L 379 265.5 L 380 267.5 L 378 268 Q 376.9 270.7 379.5 270 L 379.5 271 L 376 272 L 377 274.5 L 375 275 L 374 277.5 L 376 278.5 L 372 280.5 L 369.5 286 L 368 285.5 L 367.5 287 L 366.5 285 L 365 288.5 L 364.5 290 L 362.5 289 L 354 292 Q 355.1 289.3 352.5 290 L 358 283.5 Q 364.3 275.8 367 264.5 L 368 259.5 L 368 238.5 L 364 224.5 L 354 209 L 346.5 204 L 334.5 199 L 333.5 200 L 322.5 200 L 322.5 199 L 326 198.5 L 325.5 197 L 336.5 192 L 336.5 194 Q 338.8 194.8 338 192.5 L 340 193.5 L 340.5 195 Q 343.3 193.8 341 192.5 L 342 189 Q 339.3 187.9 340 190.5 L 337 190.5 L 336.5 189 L 334 189.5 L 333.5 191 L 332.5 190 L 329 192.5 L 328 188 L 324.5 189 L 322.5 189 L 311.5 188 L 308.5 189 L 307.5 188 L 295.5 188 L 293.5 189 L 292.5 188 L 288.5 190 L 284.5 188 L 282.5 188 L 281 188.5 L 285 190.5 L 284.5 192 L 286.5 193 L 287.5 191 L 289.5 195 L 292 193.5 L 290.5 196 L 292 196.5 L 289 198.5 L 290 201 L 288 201.5 L 288 203.5 L 284.5 211 L 283 210.5 L 283 201.5 L 282.5 201 L 254.5 201 L 254.5 200 L 261 199.5 L 257 198 L 259.5 193 L 261.5 193 L 263 193 L 263 189 L 251.5 189 L 250.5 188 L 219.5 188 L 217.5 188 L 200.5 188 L 199.5 189 L 194.5 188 L 192.5 188 L 188 191.5 Q 191.7 189.7 188.5 188 L 183.5 189 L 181.5 188 Q 180.3 190.2 175.5 189 L 170.5 188 L 130 187.5 L 142.5 184 Z M 332 188 L 329 190 Q 331 193 333 189 L 332 188 Z M 355 188 L 355 191 L 356 191 Q 357 187 355 188 Z M 272 189 L 272 192 L 277 192 L 277 190 L 272 189 Z M 278 189 L 278 192 L 280 191 Q 281 188 278 189 Z M 353 190 L 350 192 L 353 192 L 353 190 Z M 357 191 L 355 193 L 358 193 Q 359 190 357 191 Z M 361 192 L 357 196 L 361 198 L 363 197 L 365 198 L 367 201 L 368 199 L 367 196 L 363 195 L 363 192 L 362 194 L 361 192 Z M 335 194 L 336 196 Q 337 193 335 194 Z M 259 195 L 259 197 L 261 196 L 259 195 Z M 368 199 L 369 201 L 371 200 L 368 199 Z M 373 203 L 373 205 L 375 204 L 373 203 Z M 375 204 L 375 206 L 377 205 L 377 208 Q 376 210 379 209 L 378 207 L 379 205 L 375 204 Z M 377 210 L 377 212 L 379 211 L 377 210 Z M 379 212 L 379 214 L 378 216 Q 382 217 381 214 L 383 214 L 379 212 Z M 378 217 L 379 219 L 380 219 L 378 217 Z M 378 219 L 376 221 L 379 221 L 378 219 Z " /><path fill="rgb(239,185,58)" stroke="rgb(239,185,58)" stroke-width="1" opacity="1" d="M 182.5 194 L 189.5 196 L 193.5 196 L 196.5 197 L 198 196.5 L 202 209.5 L 198.5 207 L 191.5 203 L 182.5 201 L 179.5 199 L 178.5 200 L 167.5 200 L 167.5 199 L 172 198.5 L 171 196 L 179.5 195 Q 181 197.5 182.5 194 Z " /><path fill="rgb(239,185,58)" stroke="rgb(239,185,58)" stroke-width="1" opacity="1" d="M 145.5 209 L 144.5 211 L 145.5 209 Z " /><path fill="rgb(239,185,58)" stroke="rgb(239,185,58)" stroke-width="1" opacity="1" d="M 241.5 221 L 242 226 L 247.5 230 L 252 231 L 253.5 234 L 255 234.5 L 253 235.5 L 253.5 237 L 241 238 L 241.5 221 Z " /><path fill="rgb(239,185,58)" stroke="rgb(239,185,58)" stroke-width="1" opacity="1" d="M 317.5 222 L 316.5 224 L 317.5 222 Z " /><path fill="rgb(239,185,58)" stroke="rgb(239,185,58)" stroke-width="1" opacity="1" d="M 161 224 Q 163.7 222.9 163 225.5 L 167 233 L 162 230.5 L 161 224 Z " /><path fill="rgb(239,185,58)" stroke="rgb(239,185,58)" stroke-width="1" opacity="1" d="M 313 228 Q 316.7 226.5 316 229.5 L 318 233.5 L 317.5 235 L 319 235.5 L 319 242.5 L 320 245.5 L 321 251.5 L 321 253.5 L 320 259.5 L 321 260.5 L 321 269.5 L 319 274.5 L 320 276.5 L 314 271.5 L 310 258.5 L 310 239.5 L 313 228 Z " /><path fill="rgb(239,185,58)" stroke="rgb(239,185,58)" stroke-width="1" opacity="1" d="M 262.5 234 Q 265.8 232.9 265 235.5 L 265.5 237 L 262.5 234 Z " /><path fill="rgb(239,185,58)" stroke="rgb(239,185,58)" stroke-width="1" opacity="1" d="M 202.5 245 L 204.5 248 L 202.5 245 Z " /><path fill="rgb(239,185,58)" stroke="rgb(239,185,58)" stroke-width="1" opacity="1" d="M 241.5 259 L 242 263 L 251 268.5 Q 252 273 249.5 274 L 241.5 276 L 241.5 259 Z " /><path fill="rgb(239,185,58)" stroke="rgb(239,185,58)" stroke-width="1" opacity="1" d="M 153.5 264 L 161 269.5 L 163 276.5 L 162 276.5 L 161.5 275 L 160.5 276 L 156 271.5 L 153.5 264 Z " /><path fill="rgb(239,185,58)" stroke="rgb(239,185,58)" stroke-width="1" opacity="1" d="M 389.5 274 L 390 276.5 L 389 276.5 L 389.5 274 Z " /><path fill="rgb(239,185,58)" stroke="rgb(239,185,58)" stroke-width="1" opacity="1" d="M 172.5 278 L 176 278.5 L 172.5 279 L 172.5 278 Z " /><path fill="rgb(239,185,58)" stroke="rgb(239,185,58)" stroke-width="1" opacity="1" d="M 325.5 278 L 328 278.5 L 325.5 279 L 325.5 278 Z " /><path fill="rgb(239,185,58)" stroke="rgb(239,185,58)" stroke-width="1" opacity="1" d="M 389.5 279 L 390 281.5 L 389 281.5 L 389.5 279 Z " /><path fill="rgb(239,185,58)" stroke="rgb(239,185,58)" stroke-width="1" opacity="1" d="M 283.5 288 L 285 295.5 L 283 296.5 L 283.5 288 Z " /><path fill="rgb(239,185,58)" stroke="rgb(239,185,58)" stroke-width="1" opacity="1" d="M 349.5 291 L 348.5 293 L 349.5 291 Z " /><path fill="rgb(239,185,58)" stroke="rgb(239,185,58)" stroke-width="1" opacity="1" d="M 141.5 329 L 145 329.5 L 137.5 332 L 138.5 330 L 141.5 329 Z " /><path fill="rgb(239,185,58)" stroke="rgb(239,185,58)" stroke-width="1" opacity="1" d="M 146.5 330 L 150 331.5 L 148.5 331 Q 145.5 331.5 146.5 330 Z " /><path fill="rgb(239,185,58)" stroke="rgb(239,185,58)" stroke-width="1" opacity="1" d="M 135.5 332 L 132.5 336 L 132 334 L 135.5 332 Z " /><path fill="rgb(239,185,58)" stroke="rgb(239,185,58)" stroke-width="1" opacity="1" d="M 151.5 332 L 152.5 334 L 151.5 332 Z " /><path fill="rgb(239,185,58)" stroke="rgb(239,185,58)" stroke-width="1" opacity="1" d="M 131.5 345 L 142 353.5 L 135.5 348 Q 131.5 347.5 131.5 345 Z " /><path fill="rgb(234,170,50)" stroke="rgb(234,170,50)" stroke-width="1" opacity="1" d="M 129.5 187 L 126.5 191 L 123 193.5 L 114 209.5 L 114 222.5 L 113 223.5 L 113 265.5 L 114 266.5 L 114.5 275 L 119.5 268 L 129.5 266 L 131.5 264 Q 133 266.5 134.5 263 L 140 262 Q 141.3 259 137.5 260 L 128 253.5 L 121 243.5 L 119 228.5 L 124 214.5 L 131.5 207 L 142.5 201 L 160.5 200 L 160.5 201 L 155.5 203 L 154 202.5 L 153.5 204 L 149.5 203 Q 134.9 206.9 127 217.5 Q 121.9 224.4 124 238.5 L 132.5 251 L 145.5 259 L 164.5 263 L 172 268.5 Q 173.8 275.3 170.5 277 L 166 278 L 168 271.5 L 164.5 267 L 155.5 264 L 152.5 265 L 148.5 266 L 146.5 265 Q 145 268.5 143.5 266 L 139.5 268 L 137.5 267 L 134.5 269 L 132.5 268 L 119 273.5 Q 121.1 285.9 130.5 291 Q 142.6 302.9 169.5 300 L 169.5 298 L 183 298.5 L 178.5 301 L 166.5 304 L 164.5 304 L 149.5 304 L 140.5 302 L 124 293 L 114.5 278 L 114 286.5 Q 116.8 297.8 124.5 304 L 140.5 312 L 263.5 312 L 264.5 313 L 265.5 312 L 364.5 312 L 364.5 313 Q 358.3 311.3 356.5 314 L 145.5 314 L 130.5 311 L 120 302.5 L 113.5 290 L 112 290.5 L 113 286.5 L 111 286.5 L 112 285.5 L 112 268.5 L 111 261.5 L 110 257.5 L 112 250.5 L 110 247.5 L 111 246.5 L 111 229.5 L 112 228.5 L 111 225.5 L 112 222.5 L 111 220.5 Q 113.8 218.8 112 212.5 L 111 210.5 L 112 206 L 114 205.5 L 114 203.5 Q 116.7 194.2 124.5 190 L 129.5 187 Z " /><path fill="rgb(234,170,50)" stroke="rgb(234,170,50)" stroke-width="1" opacity="1" d="M 221.5 200 L 228 200.5 L 221.5 201 L 221.5 200 Z " /><path fill="rgb(234,170,50)" stroke="rgb(234,170,50)" stroke-width="1" opacity="1" d="M 229.5 200 L 233 200.5 L 229.5 201 L 229.5 200 Z " /><path fill="rgb(234,170,50)" stroke="rgb(234,170,50)" stroke-width="1" opacity="1" d="M 306.5 200 L 317 200.5 L 311.5 203 L 309.5 202 L 309.5 204 L 305.5 203 Q 294.7 205.7 289 213.5 L 285.5 218 L 283 216.5 L 284.5 213 L 289 209.5 Q 288.3 207.3 290.5 208 L 296.5 203 L 306.5 200 Z " /><path fill="rgb(234,170,50)" stroke="rgb(234,170,50)" stroke-width="1" opacity="1" d="M 207.5 201 L 216 201.5 L 208.5 204 L 206 206.5 Q 209.8 208.7 209 215.5 Q 207.5 218.5 206 215.5 L 203 210.5 Q 205.5 209 204 203.5 L 205.5 202 L 207.5 201 Z " /><path fill="rgb(234,170,50)" stroke="rgb(234,170,50)" stroke-width="1" opacity="1" d="M 218.5 201 L 219 283.5 L 218 283.5 L 218.5 201 Z " /><path fill="rgb(234,170,50)" stroke="rgb(234,170,50)" stroke-width="1" opacity="1" d="M 147.5 207 L 146.5 209 L 147.5 207 Z " /><path fill="rgb(234,170,50)" stroke="rgb(234,170,50)" stroke-width="1" opacity="1" d="M 166.5 220 L 173.5 229 L 184.5 231 L 202.5 226 L 204 227.5 L 206 248.5 L 205 248.5 L 202 244.5 L 202 242.5 Q 200.9 234.1 195.5 230 L 181.5 233 L 179.5 232 L 174.5 233 L 163 222.5 L 166.5 220 Z " /><path fill="rgb(234,170,50)" stroke="rgb(234,170,50)" stroke-width="1" opacity="1" d="M 319.5 221 L 320 223 Q 322.7 221.9 322 224.5 L 326 228.5 L 330 240.5 L 330 262.5 L 327 273.5 L 324.5 277 L 322.5 278 Q 319.8 276.8 322 275.5 L 326 265.5 L 326 256.5 L 327 255.5 L 326 253.5 L 326 251.5 L 326 239.5 L 320 226 L 316 224.5 L 319.5 221 Z " /><path fill="rgb(234,170,50)" stroke="rgb(234,170,50)" stroke-width="1" opacity="1" d="M 242 222 L 264.5 222 L 266.5 223 L 268.5 222 L 270.5 222 L 276 224.5 L 274 236.5 L 272.5 238 L 270 238 L 270 232.5 Q 272.3 231.3 271 226.5 Q 270.3 224.3 266.5 225 L 262.5 225 L 242 224 L 242 222 Z " /><path fill="rgb(234,170,50)" stroke="rgb(234,170,50)" stroke-width="1" opacity="1" d="M 336.5 222 L 337.5 224 L 336.5 222 Z " /><path fill="rgb(234,170,50)" stroke="rgb(234,170,50)" stroke-width="1" opacity="1" d="M 137.5 227 L 138 230.5 L 137 230.5 L 137.5 227 Z " /><path fill="rgb(234,170,50)" stroke="rgb(234,170,50)" stroke-width="1" opacity="1" d="M 241.5 258 L 243.5 259 L 245.5 259 L 271.5 259 L 272 261.5 L 277 275 Q 274.6 276.7 268.5 276 L 268.5 275 Q 272.5 275.5 273 272.5 Q 270.9 265.1 265.5 261 L 249.5 262 L 248.5 261 L 242 261 L 241.5 258 Z " /><path fill="rgb(234,170,50)" stroke="rgb(234,170,50)" stroke-width="1" opacity="1" d="M 185.5 264 L 186.5 266 L 185.5 264 Z " /><path fill="rgb(234,170,50)" stroke="rgb(234,170,50)" stroke-width="1" opacity="1" d="M 283.5 282 L 284 284 L 287 285.5 L 293.5 294 L 306.5 300 L 323 300 L 323.5 298 L 333.5 298 L 333.5 299 L 322.5 303 L 308.5 304 L 305.5 303 Q 294.9 301.6 289 295.5 L 285.5 290 Q 283.3 290.8 284 288.5 Q 281.4 286.9 283.5 282 Z " /><path fill="rgb(234,170,50)" stroke="rgb(234,170,50)" stroke-width="1" opacity="1" d="M 218.5 285 L 219 296.5 L 218 296.5 L 218.5 285 Z " /><path fill="rgb(234,170,50)" stroke="rgb(234,170,50)" stroke-width="1" opacity="1" d="M 204.5 286 L 205 288.5 Q 203.5 294.5 206.5 296 L 216.5 299 L 264.5 299 L 265.5 298 L 277.5 298 L 277.5 299 L 259.5 303 L 256.5 302 L 242.5 304 L 240.5 304 L 237.5 303 L 235.5 304 L 231.5 303 L 229.5 304 L 225.5 303 L 222.5 304 L 213.5 301 L 205.5 301 L 201 299 L 200 290.5 L 204.5 286 Z " /><path fill="rgb(234,170,50)" stroke="rgb(234,170,50)" stroke-width="1" opacity="1" d="M 299.5 287 L 300.5 289 L 299.5 287 Z " /><path fill="rgb(234,170,50)" stroke="rgb(234,170,50)" stroke-width="1" opacity="1" d="M 279.5 297 L 282 297.5 L 279.5 298 L 279.5 297 Z " /><path fill="rgb(234,170,50)" stroke="rgb(234,170,50)" stroke-width="1" opacity="1" d="M 141.5 324 L 143.5 325 L 145.5 324 L 171 350.5 L 151.5 332 Q 148.3 328.7 141.5 329 L 131.5 335 L 141.5 324 Z " /><path fill="rgb(234,170,50)" stroke="rgb(234,170,50)" stroke-width="1" opacity="1" d="M 132.5 343 L 153.5 365 L 132 344.5 L 132.5 343 Z " /><path fill="rgb(161,138,228)" stroke="rgb(161,138,228)" stroke-width="1" opacity="0.996078431372549" d="M 242.5 51 L 244.5 52 L 263.5 52 L 268.5 53 L 276.5 56 L 285 62 L 299 83.5 L 308.5 93 Q 315.4 98.6 329.5 97 L 344.5 94 L 344.5 95 L 329.5 98 L 316 98 Q 314.8 101 318.5 100 L 324 102.5 Q 318.6 108.1 305.5 106 L 297 100.5 L 282 78 Q 279.3 79.1 280 76.5 L 272.5 69 L 259.5 63 L 257.5 63 L 252.5 62 L 250.5 62 L 240.5 60 L 238.5 61 L 234.5 59 L 231.5 60 L 227.5 59 L 225.5 60 L 227.5 57 L 237 54.5 L 231.5 54 L 225.5 56 L 225.5 55 L 234.5 52 Q 240.7 53.8 242.5 51 Z M 239 53 L 239 54 L 247 54 L 239 53 Z M 285 67 L 288 78 L 295 89 L 303 96 L 305 95 L 290 72 L 285 67 Z " /><path fill="rgb(161,138,228)" stroke="rgb(161,138,228)" stroke-width="1" opacity="0.996078431372549" d="M 221.5 57 L 220.5 59 L 211 67.5 L 208.5 71 L 210 68.5 L 219.5 58 L 221.5 57 Z " /><path fill="rgb(161,138,228)" stroke="rgb(161,138,228)" stroke-width="1" opacity="0.996078431372549" d="M 207.5 72 L 206.5 74 L 207.5 72 Z " /><path fill="rgb(161,138,228)" stroke="rgb(161,138,228)" stroke-width="1" opacity="0.996078431372549" d="M 205.5 75 L 204.5 77 L 205.5 75 Z " /><path fill="rgb(161,138,228)" stroke="rgb(161,138,228)" stroke-width="1" opacity="0.996078431372549" d="M 203.5 78 L 202.5 80 L 203.5 78 Z " /><path fill="rgb(161,138,228)" stroke="rgb(161,138,228)" stroke-width="1" opacity="0.996078431372549" d="M 201.5 81 L 199.5 84 L 201.5 81 Z " /><path fill="rgb(161,138,228)" stroke="rgb(161,138,228)" stroke-width="1" opacity="0.996078431372549" d="M 198.5 85 L 190.5 94 L 188.5 95 L 189.5 93 L 198.5 85 Z " /><path fill="rgb(161,138,228)" stroke="rgb(161,138,228)" stroke-width="1" opacity="0.996078431372549" d="M 139.5 92 L 145.5 92 L 169.5 97 L 181.5 97 L 186.5 95 L 186.5 96 L 181 98.5 L 183.5 99 L 186.5 98 L 186 99.5 Q 186.8 101.8 184.5 101 Q 180.3 108.3 166.5 106 L 139.5 97 L 137.5 98 L 135 96.5 L 139 94.5 L 133.5 94 L 123.5 99 L 124.5 97 L 130.5 94 L 139.5 92 Z " /><path fill="rgb(161,138,228)" stroke="rgb(161,138,228)" stroke-width="1" opacity="0.996078431372549" d="M 353.5 92 Q 368.4 91.6 376.5 98 L 398 118.5 L 402 125.5 L 393.5 118 L 387.5 113 L 387 114.5 L 397 131.5 L 400 145.5 L 399 146.5 L 399 156.5 L 395 173.5 L 395 184.5 Q 396.8 191.7 402.5 195 Q 405.8 196.1 405 193.5 L 404 189.5 L 412.5 197 Q 427.3 205.3 439 216.5 L 442 221.5 L 440.5 221 Q 437.2 216.4 431 216 L 435 223.5 L 439 238.5 L 439 267.5 L 437 275.5 L 439.5 277 L 443 275 Q 440.8 284.5 433 289.5 L 433.5 291 L 431.5 290 L 412 304.5 L 412.5 306 L 410.5 305 L 405 313 L 402 313 Q 403.3 310 399.5 311 L 396 314.5 L 395 328.5 L 400 351.5 L 400 365.5 L 399 369.5 Q 400.3 372.3 401.5 370 L 403.5 369 L 404 371.5 L 399 380.5 L 384.5 396 L 375.5 403 L 372 404 L 371.5 406 L 369.5 406 L 364.5 408 L 364 406 Q 372.3 405.7 376 399.5 L 377 396.5 L 376 394.5 L 380 386 Q 382.7 387.1 382 384.5 L 384 381 Q 386.7 382.1 386 379.5 L 393 366.5 L 395 359.5 L 395 348.5 L 394 347.5 L 393 336.5 L 391 332.5 L 391 314.5 L 392 311.5 L 399.5 304 L 410.5 299 Q 412.5 303 414.5 299 Q 422.9 295.9 428 289.5 L 425 287.5 L 431 271.5 L 432 254.5 L 433 253.5 L 432 248.5 L 432 246.5 L 432 240.5 L 429 227.5 L 415.5 212 Q 402.9 205.6 394 195.5 Q 388.3 190.2 390 177.5 L 391 176.5 L 394 150.5 Q 391.5 149 393 143.5 L 388 131.5 L 378.5 120 L 362 106.5 Q 362.8 103.9 359.5 105 L 356 103 Q 357.3 100 353.5 101 L 348 99.5 L 351.5 97 L 359.5 96 L 362 94.5 L 355.5 93 L 352.5 94 L 346 93.5 L 353.5 92 Z " /><path fill="rgb(161,138,228)" stroke="rgb(161,138,228)" stroke-width="1" opacity="0.996078431372549" d="M 121.5 99 L 119.5 102 L 121.5 99 Z " /><path fill="rgb(161,138,228)" stroke="rgb(161,138,228)" stroke-width="1" opacity="0.996078431372549" d="M 117.5 102 L 102.5 118 L 117.5 102 Z " /><path fill="rgb(161,138,228)" stroke="rgb(161,138,228)" stroke-width="1" opacity="0.996078431372549" d="M 101.5 119 L 99.5 122 L 101.5 119 Z " /><path fill="rgb(161,138,228)" stroke="rgb(161,138,228)" stroke-width="1" opacity="0.996078431372549" d="M 97.5 125 L 96.5 127 L 97.5 125 Z " /><path fill="rgb(161,138,228)" stroke="rgb(161,138,228)" stroke-width="1" opacity="0.996078431372549" d="M 93.5 134 L 94 136.5 L 93 136.5 L 93.5 134 Z " /><path fill="rgb(161,138,228)" stroke="rgb(161,138,228)" stroke-width="1" opacity="0.996078431372549" d="M 92.5 139 L 93 145.5 L 92 145.5 L 92.5 139 Z " /><path fill="rgb(161,138,228)" stroke="rgb(161,138,228)" stroke-width="1" opacity="0.996078431372549" d="M 93.5 150 L 94 152.5 L 93 152.5 L 93.5 150 Z " /><path fill="rgb(161,138,228)" stroke="rgb(161,138,228)" stroke-width="1" opacity="0.996078431372549" d="M 334.5 152 L 337.5 156 L 334.5 152 Z " /><path fill="rgb(161,138,228)" stroke="rgb(161,138,228)" stroke-width="1" opacity="0.996078431372549" d="M 343.5 161 L 344.5 163 L 343.5 161 Z " /><path fill="rgb(161,138,228)" stroke="rgb(161,138,228)" stroke-width="1" opacity="0.996078431372549" d="M 245.5 162 L 261.5 162 L 277.5 165 Q 298.4 171.1 313 183.5 L 311.5 184 Q 297.6 171.9 277.5 166 L 261.5 163 L 245.5 163 Q 244.3 165.3 239.5 164 L 239.5 163 Q 244.3 164.2 245.5 162 Z " /><path fill="rgb(161,138,228)" stroke="rgb(161,138,228)" stroke-width="1" opacity="0.996078431372549" d="M 234.5 164 L 238 164.5 L 222.5 169 L 222.5 168 L 234.5 164 Z " /><path fill="rgb(161,138,228)" stroke="rgb(161,138,228)" stroke-width="1" opacity="0.996078431372549" d="M 96.5 166 L 97 168.5 L 96 168.5 L 96.5 166 Z " /><path fill="rgb(161,138,228)" stroke="rgb(161,138,228)" stroke-width="1" opacity="0.996078431372549" d="M 97.5 173 L 98 179.5 L 97 179.5 L 97.5 173 Z " /><path fill="rgb(161,138,228)" stroke="rgb(161,138,228)" stroke-width="1" opacity="0.996078431372549" d="M 198.5 181 L 197.5 183 L 198.5 181 Z " /><path fill="rgb(161,138,228)" stroke="rgb(161,138,228)" stroke-width="1" opacity="0.996078431372549" d="M 96.5 182 L 97 184.5 L 96 184.5 L 96.5 182 Z " /><path fill="rgb(161,138,228)" stroke="rgb(161,138,228)" stroke-width="1" opacity="0.996078431372549" d="M 92.5 191 L 86.5 198 L 70.5 209 L 72.5 206 Q 84.2 200.2 92.5 191 Z " /><path fill="rgb(161,138,228)" stroke="rgb(161,138,228)" stroke-width="1" opacity="0.996078431372549" d="M 68.5 209 L 66.5 212 L 68.5 209 Z " /><path fill="rgb(161,138,228)" stroke="rgb(161,138,228)" stroke-width="1" opacity="0.996078431372549" d="M 59.5 218 L 58.5 220 L 59.5 218 Z " /><path fill="rgb(161,138,228)" stroke="rgb(161,138,228)" stroke-width="1" opacity="0.996078431372549" d="M 390.5 231 L 391 263.5 L 390 263.5 L 390.5 231 Z " /><path fill="rgb(161,138,228)" stroke="rgb(161,138,228)" stroke-width="1" opacity="0.996078431372549" d="M 52.5 236 L 53 238.5 L 52 238.5 L 52.5 236 Z " /><path fill="rgb(161,138,228)" stroke="rgb(161,138,228)" stroke-width="1" opacity="0.996078431372549" d="M 52.5 262 L 53 265.5 L 52 265.5 L 52.5 262 Z " /><path fill="rgb(161,138,228)" stroke="rgb(161,138,228)" stroke-width="1" opacity="0.996078431372549" d="M 57.5 279 L 58.5 281 L 57.5 279 Z " /><path fill="rgb(161,138,228)" stroke="rgb(161,138,228)" stroke-width="1" opacity="0.996078431372549" d="M 60.5 283 L 65.5 289 L 60.5 283 Z " /><path fill="rgb(161,138,228)" stroke="rgb(161,138,228)" stroke-width="1" opacity="0.996078431372549" d="M 68.5 290 L 69.5 292 L 68.5 290 Z " /><path fill="rgb(161,138,228)" stroke="rgb(161,138,228)" stroke-width="1" opacity="0.996078431372549" d="M 71.5 292 L 72.5 294 L 71.5 292 Z " /><path fill="rgb(161,138,228)" stroke="rgb(161,138,228)" stroke-width="1" opacity="0.996078431372549" d="M 74.5 294 L 75.5 296 L 74.5 294 Z " /><path fill="rgb(161,138,228)" stroke="rgb(161,138,228)" stroke-width="1" opacity="0.996078431372549" d="M 77.5 296 L 78.5 298 L 77.5 296 Z " /><path fill="rgb(161,138,228)" stroke="rgb(161,138,228)" stroke-width="1" opacity="0.996078431372549" d="M 80.5 298 L 81.5 300 L 80.5 298 Z " /><path fill="rgb(161,138,228)" stroke="rgb(161,138,228)" stroke-width="1" opacity="0.996078431372549" d="M 84.5 301 L 85.5 303 L 84.5 301 Z " /><path fill="rgb(161,138,228)" stroke="rgb(161,138,228)" stroke-width="1" opacity="0.996078431372549" d="M 162.5 314 L 166 314.5 L 162.5 315 L 162.5 314 Z " /><path fill="rgb(161,138,228)" stroke="rgb(161,138,228)" stroke-width="1" opacity="0.996078431372549" d="M 172.5 314 L 191.5 314 L 203 319.5 L 201.5 319 L 190.5 315 L 172.5 315 L 172.5 314 Z " /><path fill="rgb(161,138,228)" stroke="rgb(161,138,228)" stroke-width="1" opacity="0.996078431372549" d="M 314.5 314 L 333 314.5 L 312.5 316 L 286.5 329 L 272.5 333 L 268.5 333 L 268.5 332 L 272.5 332 L 286.5 328 L 314.5 314 Z " /><path fill="rgb(161,138,228)" stroke="rgb(161,138,228)" stroke-width="1" opacity="0.996078431372549" d="M 97.5 321 L 98 326.5 L 97 326.5 L 97.5 321 Z " /><path fill="rgb(161,138,228)" stroke="rgb(161,138,228)" stroke-width="1" opacity="0.996078431372549" d="M 96.5 331 L 97 334.5 L 96 334.5 L 96.5 331 Z " /><path fill="rgb(161,138,228)" stroke="rgb(161,138,228)" stroke-width="1" opacity="0.996078431372549" d="M 242.5 333 L 267 333.5 L 255.5 334 L 254.5 335 L 253.5 334 L 242.5 334 L 242.5 333 Z " /><path fill="rgb(161,138,228)" stroke="rgb(161,138,228)" stroke-width="1" opacity="0.996078431372549" d="M 95.5 337 L 96 339.5 L 95 339.5 L 95.5 337 Z " /><path fill="rgb(161,138,228)" stroke="rgb(161,138,228)" stroke-width="1" opacity="0.996078431372549" d="M 93.5 347 L 94 349.5 L 93 349.5 L 93.5 347 Z " /><path fill="rgb(161,138,228)" stroke="rgb(161,138,228)" stroke-width="1" opacity="0.996078431372549" d="M 303.5 401 L 307 403.5 Q 306.1 406.5 310.5 405 L 318.5 403 L 318.5 404 L 316.5 405 L 315.5 404 L 311 406.5 L 309.5 409 L 307.5 408 Q 295.9 419.4 288 434.5 L 282 440.5 L 282.5 442 L 280.5 442 L 279 442.5 L 279.5 444 L 277.5 443 L 277.5 445 L 275.5 444 L 275.5 446 L 273 445 L 272.5 447 L 271.5 445 Q 278 443.5 281 438.5 L 281 433.5 L 285 423.5 Q 290.8 410.8 300.5 402 L 303.5 401 Z " /><path fill="rgb(161,138,228)" stroke="rgb(161,138,228)" stroke-width="1" opacity="0.996078431372549" d="M 167.5 403 L 172 403.5 L 168.5 405 L 167.5 403 Z " /><path fill="rgb(161,138,228)" stroke="rgb(161,138,228)" stroke-width="1" opacity="0.996078431372549" d="M 162.5 404 L 165 404.5 L 162.5 405 L 162.5 404 Z " /><path fill="rgb(161,138,228)" stroke="rgb(161,138,228)" stroke-width="1" opacity="0.996078431372549" d="M 334.5 404 L 337 404.5 L 334.5 405 L 334.5 404 Z " /><path fill="rgb(161,138,228)" stroke="rgb(161,138,228)" stroke-width="1" opacity="0.996078431372549" d="M 156 405 L 160 405.5 L 156.5 407 L 156 405 Z " /><path fill="rgb(161,138,228)" stroke="rgb(161,138,228)" stroke-width="1" opacity="0.996078431372549" d="M 151.5 406 L 155 406.5 L 150.5 408 L 151.5 406 Z " /><path fill="rgb(161,138,228)" stroke="rgb(161,138,228)" stroke-width="1" opacity="0.996078431372549" d="M 189.5 406 L 190.5 408 L 189.5 406 Z " /><path fill="rgb(161,138,228)" stroke="rgb(161,138,228)" stroke-width="1" opacity="0.996078431372549" d="M 144.5 407 L 149 407.5 L 144.5 408 L 144.5 407 Z " /><path fill="rgb(161,138,228)" stroke="rgb(161,138,228)" stroke-width="1" opacity="0.996078431372549" d="M 358.5 407 L 363 407.5 L 356.5 409 L 356.5 408 L 358.5 407 Z " /><path fill="rgb(161,138,228)" stroke="rgb(161,138,228)" stroke-width="1" opacity="0.996078431372549" d="M 139.5 408 L 142 408.5 L 139.5 409 L 139.5 408 Z " /><path fill="rgb(161,138,228)" stroke="rgb(161,138,228)" stroke-width="1" opacity="0.996078431372549" d="M 193.5 409 L 195.5 412 L 193.5 409 Z " /><path fill="rgb(161,138,228)" stroke="rgb(161,138,228)" stroke-width="1" opacity="0.996078431372549" d="M 198.5 415 L 199.5 417 L 198.5 415 Z " /><path fill="rgb(161,138,228)" stroke="rgb(161,138,228)" stroke-width="1" opacity="0.996078431372549" d="M 209.5 431 L 210.5 433 L 209.5 431 Z " /><path fill="rgb(161,138,228)" stroke="rgb(161,138,228)" stroke-width="1" opacity="0.996078431372549" d="M 213.5 436 L 217.5 441 Q 215.3 441.8 216 439.5 L 213.5 436 Z " /><path fill="rgb(161,138,228)" stroke="rgb(161,138,228)" stroke-width="1" opacity="0.996078431372549" d="M 219.5 441 L 220.5 443 Q 217.7 443.7 219.5 441 Z " /><path fill="rgb(161,138,228)" stroke="rgb(161,138,228)" stroke-width="1" opacity="0.996078431372549" d="M 226.5 445 L 227.5 447 L 226.5 445 Z " /><path fill="rgb(161,138,228)" stroke="rgb(161,138,228)" stroke-width="1" opacity="0.996078431372549" d="M 268.5 446 Q 270.8 445.3 270 447.5 L 267.5 448 L 263 449 Q 261.6 445.3 267.5 447 L 268.5 446 Z " /><path fill="rgb(161,138,228)" stroke="rgb(161,138,228)" stroke-width="1" opacity="0.996078431372549" d="M 233.5 447 L 237 448.5 L 235.5 448 Q 232.5 448.5 233.5 447 Z " /><path fill="rgb(161,138,228)" stroke="rgb(161,138,228)" stroke-width="1" opacity="0.996078431372549" d="M 240.5 448 L 260 448.5 L 240.5 449 L 240.5 448 Z " /><path fill="rgb(78,51,168)" stroke="rgb(78,51,168)" stroke-width="1" opacity="1" d="M 248.5 164 L 263.5 165 L 277.5 168 Q 294.4 173.6 307 183.5 L 270.5 184 L 266.5 183 L 247.5 170 Q 241.9 166.9 233 168 Q 231.7 164.3 237.5 166 L 248.5 164 Z " /><path fill="rgb(78,51,168)" stroke="rgb(78,51,168)" stroke-width="1" opacity="1" d="M 148.5 170 L 147.5 172 L 148.5 170 Z " /><path fill="rgb(78,51,168)" stroke="rgb(78,51,168)" stroke-width="1" opacity="1" d="M 145.5 174 L 144.5 176 L 145.5 174 Z " /><path fill="rgb(78,51,168)" stroke="rgb(78,51,168)" stroke-width="1" opacity="1" d="M 143.5 177 L 142.5 179 L 143.5 177 Z " /><path fill="rgb(78,51,168)" stroke="rgb(78,51,168)" stroke-width="1" opacity="1" d="M 141.5 180 L 140 182.5 Q 140.8 184.8 138.5 184 L 141.5 180 Z " /><path fill="rgb(78,51,168)" stroke="rgb(78,51,168)" stroke-width="1" opacity="1" d="M 112.5 203 L 112 204.5 L 110 210.5 L 110 286.5 Q 112.9 300.1 122.5 307 Q 127.9 312.6 138.5 313 L 141 315.5 L 144 321.5 L 131 333.5 L 129 338.5 L 132 343.5 L 116 358.5 Q 116.8 360.8 114.5 360 Q 111.3 358.8 112 355 L 119 349.5 L 122 344.5 L 121 341.5 L 125 328.5 L 124 326.5 Q 126.5 325 123 323.5 Q 123.8 321.3 121.5 322 L 120 319 Q 112.2 315.8 107 308.5 L 107 307 L 105 307 Q 106.1 304.3 103.5 305 L 96 296.5 L 92 284.5 L 92 282.5 L 93 279.5 Q 90.3 278.8 91 274.5 L 92 272.5 L 91 271.5 L 91 257.5 L 91 253.5 L 91 248.5 Q 93.6 247.1 93 242.5 L 93 240.5 L 95 234.5 Q 92.5 233 96 231.5 L 99 221 L 101 220.5 L 100 219.5 L 103 216.5 Q 105.4 207.4 112.5 203 Z " /><path fill="rgb(78,51,168)" stroke="rgb(78,51,168)" stroke-width="1" opacity="1" d="M 197.5 314 L 308 314.5 L 286.5 326 L 275.5 330 L 259.5 333 L 244.5 333 L 244.5 332 Q 251.4 332.9 253 328.5 L 254 325.5 L 252 325 L 250 320 Q 244.8 318.2 235.5 319 L 234.5 318 L 231.5 319 L 227.5 318 L 226.5 319 L 212.5 320 L 208.5 322 L 198.5 316 L 197.5 314 Z " /><path fill="rgb(78,51,168)" stroke="rgb(78,51,168)" stroke-width="1" opacity="1" d="M 176.5 354 Q 191.8 365.7 213 371.5 L 209.5 372 L 186.5 367 L 169 361.5 L 176.5 354 Z " /><path fill="rgb(238,179,48)" stroke="rgb(238,179,48)" stroke-width="1" opacity="1" d="M 129.5 188 L 170.5 188 L 171.5 189 L 175.5 189 L 182.5 188 L 187.5 189 Q 189 186.5 190.5 190 L 194.5 188 L 199.5 189 L 200.5 188 L 217.5 188 L 219.5 188 L 250.5 188 L 251.5 189 L 263 189 L 263 193 L 261.5 193 L 258 194.5 L 257 198 L 261 199.5 L 253.5 201 L 233.5 201 L 229.5 200 L 227.5 200 L 207.5 201 L 204 203.5 Q 205.5 209.5 202.5 211 Q 200.1 208.9 201 203.5 L 197.5 196 L 195.5 196 L 192.5 197 L 188.5 195 L 182.5 194 Q 181 197.5 179.5 195 L 171 196 L 172 198.5 L 165.5 200 L 163.5 200 L 142.5 201 Q 130.9 205.4 124 214.5 Q 119.3 220.8 119 231.5 L 120 232.5 L 121 243.5 L 129.5 255 L 137.5 260 L 140 260 Q 141.3 263 137.5 262 L 132.5 265 Q 131 262.5 129.5 266 L 119.5 268 L 117 270.5 L 114.5 275 L 114 266.5 L 113 265.5 L 113 223.5 L 114 222.5 Q 112.4 212.4 115 206.5 L 125.5 191 L 129.5 188 Z " /><path fill="rgb(238,179,48)" stroke="rgb(238,179,48)" stroke-width="1" opacity="1" d="M 274.5 188 L 274.5 190 Q 278.3 189 277 192 L 272 192 L 272 189 L 274.5 188 Z " /><path fill="rgb(238,179,48)" stroke="rgb(238,179,48)" stroke-width="1" opacity="1" d="M 281.5 188 L 283.5 189 L 285.5 188 L 288 188.5 L 287.5 190 L 290.5 188 L 293.5 189 L 295.5 188 L 307.5 188 L 310.5 189 Q 312.2 186.3 318.5 188 L 322.5 189 L 325.5 188 Q 328.8 186.9 328 189.5 L 329.5 189 L 332.5 188 L 333.5 191 L 334.5 189 L 337 189.5 L 337.5 191 L 340 190.5 Q 339.3 187.9 342 189 L 342.5 191 Q 343.8 188.8 345 191.5 L 343 191.5 L 340.5 195 L 338.5 192 L 338 193.5 L 338.5 195 L 336 194 L 335.5 196 L 332.5 194 L 325 197.5 L 325.5 199 L 301.5 201 L 289 208 L 285.5 213 L 283.5 214 L 283 211 L 286 209.5 L 289 202.5 L 288.5 201 Q 290.8 201.8 290 199.5 L 289.5 198 L 292 196.5 L 290.5 196 Q 289.2 198.3 288 195.5 L 289 193.5 L 287.5 191 L 286.5 193 L 284.5 192 L 284.5 194 L 281 190.5 L 281.5 188 Z M 283 190 Q 283 194 285 191 L 283 190 Z M 330 190 L 330 193 Q 333 192 330 190 Z " /><path fill="rgb(238,179,48)" stroke="rgb(238,179,48)" stroke-width="1" opacity="1" d="M 354.5 188 L 356 188 L 356 191 Q 359 190 358 193 L 355 192.5 L 355 190.5 L 354.5 188 Z " /><path fill="rgb(238,179,48)" stroke="rgb(238,179,48)" stroke-width="1" opacity="1" d="M 278 189 Q 280.7 187.9 280 190.5 L 278 191.5 L 278 189 Z " /><path fill="rgb(238,179,48)" stroke="rgb(238,179,48)" stroke-width="1" opacity="1" d="M 351.5 189 L 353 192 L 350 191.5 L 352 190.5 L 351.5 189 Z " /><path fill="rgb(238,179,48)" stroke="rgb(238,179,48)" stroke-width="1" opacity="1" d="M 360.5 192 L 361.5 194 L 362.5 192 L 363 195 L 366.5 196 L 368 195.5 L 367 197.5 L 371 199.5 L 368.5 201 L 367.5 199 L 366.5 201 L 364.5 198 L 362.5 197 L 360.5 198 L 358 197.5 L 358.5 196 L 355.5 195 L 354 195.5 L 356.5 194 L 357.5 195 L 360.5 192 Z " /><path fill="rgb(238,179,48)" stroke="rgb(238,179,48)" stroke-width="1" opacity="1" d="M 364.5 192 L 367 192.5 Q 364.9 195.8 364.5 192 Z " /><path fill="rgb(238,179,48)" stroke="rgb(238,179,48)" stroke-width="1" opacity="1" d="M 259 195 L 261 195.5 L 259 196.5 L 259 195 Z " /><path fill="rgb(238,179,48)" stroke="rgb(238,179,48)" stroke-width="1" opacity="1" d="M 370.5 202 L 369.5 204 L 370.5 202 Z " /><path fill="rgb(238,179,48)" stroke="rgb(238,179,48)" stroke-width="1" opacity="1" d="M 373 203 L 379 204.5 L 378 206.5 L 379 209 Q 376.3 210.1 377 207.5 L 376 207.5 L 375.5 209 L 375 207.5 L 375 205.5 L 374.5 204 L 373 204.5 L 373 203 Z " /><path fill="rgb(238,179,48)" stroke="rgb(238,179,48)" stroke-width="1" opacity="1" d="M 371.5 204 L 370.5 206 L 371.5 204 Z " /><path fill="rgb(238,179,48)" stroke="rgb(238,179,48)" stroke-width="1" opacity="1" d="M 373.5 209 L 374.5 211 L 373.5 209 Z " /><path fill="rgb(238,179,48)" stroke="rgb(238,179,48)" stroke-width="1" opacity="1" d="M 377 210 L 379 210.5 L 378.5 212 L 380.5 211 L 380.5 213 L 383 213.5 L 381 214 Q 382.1 217.3 378 216 L 377 213.5 L 377 211.5 L 377 210 Z " /><path fill="rgb(238,179,48)" stroke="rgb(238,179,48)" stroke-width="1" opacity="1" d="M 377.5 217 L 380 218.5 L 378 219.5 L 378.5 221 L 376 220.5 Q 379.1 218.8 377.5 217 Z " /><path fill="rgb(238,179,48)" stroke="rgb(238,179,48)" stroke-width="1" opacity="1" d="M 162.5 223 L 172.5 232 L 178.5 233 L 180.5 232 L 182.5 232 Q 190.9 232.9 195.5 230 Q 201.1 234.9 203 243.5 Q 201.3 246.8 199.5 243 L 191.5 239 L 167 233 L 162.5 223 Z " /><path fill="rgb(238,179,48)" stroke="rgb(238,179,48)" stroke-width="1" opacity="1" d="M 242 224 L 262.5 225 L 263.5 226 L 266.5 225 Q 270.3 224.3 271 226.5 L 270 238 L 247 237.5 L 254 236.5 L 253.5 235 L 255 234.5 L 252 232.5 Q 252.8 230.3 250.5 231 L 242 226 L 242 224 Z M 263 234 L 266 237 L 265 236 Q 266 233 263 234 Z " /><path fill="rgb(238,179,48)" stroke="rgb(238,179,48)" stroke-width="1" opacity="1" d="M 315.5 225 L 320 226 L 326 239.5 L 326 251.5 L 327 252.5 L 326 254.5 L 326 256.5 L 326 265.5 L 320.5 277 L 319 274.5 Q 322.3 269.8 321 260.5 L 320 258.5 L 321 253.5 L 321 251.5 L 319 244.5 L 319 242.5 L 319 235.5 L 317.5 235 L 317 232.5 L 316 228 L 314 227.5 L 316 226.5 L 315.5 225 Z " /><path fill="rgb(238,179,48)" stroke="rgb(238,179,48)" stroke-width="1" opacity="1" d="M 242 261 L 248.5 261 L 249.5 262 L 261.5 262 L 265.5 261 Q 270.9 265.1 273 272.5 L 267.5 276 L 242.5 276 L 242.5 275 Q 248.7 275.7 251 272.5 Q 252 268 249.5 267 L 242 263 L 242 261 Z " /><path fill="rgb(238,179,48)" stroke="rgb(238,179,48)" stroke-width="1" opacity="1" d="M 155 264 Q 162.8 264.4 167 269.5 L 168 271.5 L 165.5 277 Q 161.8 278.3 163 274.5 L 159.5 268 L 155 266 L 155 264 Z " /><path fill="rgb(238,179,48)" stroke="rgb(238,179,48)" stroke-width="1" opacity="1" d="M 379.5 265 L 382 265.5 L 383 269 L 385 269.5 L 384.5 271 L 386 271.5 Q 382.5 273 385 274.5 Q 386.3 285.3 382 290.5 L 382 292.5 Q 381.1 299.1 376.5 302 L 367 309.5 L 367.5 311 L 365.5 312 L 265.5 312 L 264.5 313 L 263.5 312 L 140.5 312 Q 127.8 308.2 120 299.5 Q 113.2 292.8 114 278.5 L 115 278.5 L 124 293 L 140.5 302 L 149.5 304 L 164.5 304 L 167.5 303 L 178.5 301 L 180.5 299 L 193.5 295 L 199.5 291 Q 202.1 293.5 201 299 L 205.5 301 L 213.5 301 L 222.5 304 L 225.5 303 L 230.5 304 L 234.5 303 L 236.5 304 L 238.5 303 L 240.5 304 L 242.5 304 L 256.5 302 L 259.5 303 L 271.5 301 L 281.5 298 L 285 295.5 L 284 290 L 287 291.5 L 291.5 298 L 306.5 304 L 308.5 304 L 316.5 304 L 329.5 301 L 334.5 298 L 342.5 296 L 351.5 290 L 354 290 Q 352.8 293 356.5 292 L 358.5 290 L 363.5 289 L 365 289.5 L 366 287.5 Q 363.8 286.2 366.5 285 L 367.5 287 L 368.5 285 L 370 285.5 L 373.5 279 L 376 278.5 L 374 277.5 L 375 275 L 377 274.5 L 375 271.5 L 376.5 272 L 378 271.5 L 378 269.5 Q 377.3 267.3 379.5 268 L 379 266.5 L 379.5 265 Z " /><path fill="rgb(223,138,35)" stroke="rgb(223,138,35)" stroke-width="1" opacity="1" d="M 121.5 192 L 118.5 196 L 121.5 192 Z " /><path fill="rgb(223,138,35)" stroke="rgb(223,138,35)" stroke-width="1" opacity="1" d="M 216.5 201 L 218 201.5 L 218 283.5 L 218 285.5 L 218 296.5 L 218.5 297 L 278.5 297 L 278.5 298 L 265.5 298 L 264.5 299 L 216.5 299 L 205 294.5 Q 206.5 289 204 287.5 L 211 275.5 L 212 263.5 L 210 255.5 L 206 249.5 L 205 234.5 L 203 226.5 L 209 225 L 206 216.5 L 209 215.5 Q 209.7 208.7 206 206.5 L 208.5 204 L 216.5 201 Z " /><path fill="rgb(223,138,35)" stroke="rgb(223,138,35)" stroke-width="1" opacity="1" d="M 309.5 202 L 311 202.5 Q 300.8 206.8 295 215.5 Q 282.8 230.3 286 260.5 Q 289.6 278.4 300.5 289 Q 308.4 297.4 323 298 L 322.5 300 L 306.5 300 Q 295.3 297.3 289 289.5 L 285.5 284 Q 283.3 284.8 284 282.5 L 283 276 L 275 275.5 L 277 275 L 272 259 L 245 258.5 L 275 258 L 275 238.5 L 273.5 238 L 274 236.5 L 276 224.5 L 270.5 222 L 268.5 222 L 265.5 223 L 264.5 222 L 242 221.5 L 283 221 L 283.5 217 L 285.5 218 L 294.5 208 L 309.5 202 Z " /><path fill="rgb(223,138,35)" stroke="rgb(223,138,35)" stroke-width="1" opacity="1" d="M 149.5 203 L 153 203.5 L 143 211.5 L 138 221.5 L 137 230.5 L 140 242.5 L 145 250 L 153.5 255 L 181.5 262 L 187 266.5 L 188 271.5 L 184.5 276 Q 179.5 280 168.5 278 L 168.5 277 L 172 275.5 Q 173.8 266.8 168.5 265 L 158.5 261 L 145.5 259 Q 135.8 254.8 129 247.5 L 124 238.5 L 124 224.5 Q 126.8 214.8 134.5 210 L 149.5 203 Z " /><path fill="rgb(223,138,35)" stroke="rgb(223,138,35)" stroke-width="1" opacity="1" d="M 111.5 212 L 112 219.5 L 111 221.5 L 111 223.5 L 112 226.5 L 111 229.5 L 110.5 247 L 110 214.5 L 111.5 212 Z " /><path fill="rgb(223,138,35)" stroke="rgb(223,138,35)" stroke-width="1" opacity="1" d="M 171.5 219 L 179.5 220 L 185 224.5 L 187 230 L 180.5 231 L 173.5 229 L 169 224.5 L 167 220 L 171.5 219 Z " /><path fill="rgb(223,138,35)" stroke="rgb(223,138,35)" stroke-width="1" opacity="1" d="M 326.5 219 Q 336.4 219.6 340 226.5 L 344 240.5 L 344 257.5 L 341 269.5 L 336.5 275 Q 333 279.5 323.5 278 L 323.5 277 L 326 275.5 L 330 262.5 L 330 240.5 L 328 232.5 L 322 223 Q 319 224 320 221 L 326.5 219 Z " /><path fill="rgb(223,138,35)" stroke="rgb(223,138,35)" stroke-width="1" opacity="1" d="M 110.5 248 L 112 250.5 L 110.5 257 L 110.5 248 Z " /><path fill="rgb(223,138,35)" stroke="rgb(223,138,35)" stroke-width="1" opacity="1" d="M 110.5 258 L 112 262.5 L 112 268.5 Q 110.3 281.2 113 289.5 Q 116.3 299.7 123.5 306 L 128 309.5 L 125.5 308 L 116 299.5 L 112 291.5 L 112.5 290 Q 109.9 290.8 111 287.5 L 111 285.5 L 110 283.5 L 110.5 258 Z " /><path fill="rgb(223,138,35)" stroke="rgb(223,138,35)" stroke-width="1" opacity="1" d="M 141.5 266 L 144 266.5 L 141.5 267 L 141.5 266 Z " /><path fill="rgb(223,138,35)" stroke="rgb(223,138,35)" stroke-width="1" opacity="1" d="M 132.5 268 L 134 268.5 L 132 269 Q 133.7 282 142.5 289 L 152.5 295 L 162.5 298 L 168.5 298 L 170 299.5 L 150.5 300 Q 132.3 296.3 123 283.5 Q 119.5 280 119 273.5 L 132.5 268 Z " /><path fill="rgb(223,138,35)" stroke="rgb(223,138,35)" stroke-width="1" opacity="1" d="M 141.5 313 L 145 313.5 L 141.5 314 L 141.5 313 Z " /><path fill="rgb(223,138,35)" stroke="rgb(223,138,35)" stroke-width="1" opacity="1" d="M 145.5 323 L 146.5 325 L 145.5 323 Z " /><path fill="rgb(149,124,228)" stroke="rgb(149,124,228)" stroke-width="1" opacity="0.996078431372549" d="M 221.5 58 L 223 58.5 L 220 62.5 L 229 64.5 L 228 67 L 232.5 68 Q 234 64.5 235.5 67 L 240 68 L 241.5 71 L 242 69 L 247.5 70 L 249.5 70 L 258.5 71 L 260.5 73 L 265.5 73 L 270 76 Q 268.9 78.7 271.5 78 L 273 77.5 Q 272.3 79.8 274.5 79 L 280 83.5 L 282 86.5 L 284 91 Q 286.7 89.9 286 92.5 L 293.5 102 L 296 103.5 L 295 104.5 L 298.5 108 L 302.5 111 L 312.5 112 L 332.5 106 L 334.5 107 L 337.5 105 L 341.5 106 L 343.5 106 L 346 106 Q 344.9 108.7 347.5 108 L 352.5 110 L 353.5 109 L 356.5 112 L 362.5 117 L 364 116.5 Q 363.2 119.1 366.5 118 L 370 123 L 373 124.5 Q 371.9 127.8 374.5 127 L 378 129 L 379 135 L 384 137 L 384 139.5 L 388 145.5 L 390 161.5 L 387 172.5 L 387 174.5 L 386 177.5 L 386 179.5 L 387 188.5 L 389 193.5 L 400.5 206 L 403.5 207 L 417 219.5 Q 414.3 221.2 418.5 223 L 421 224.5 L 420 227.5 L 422 229.5 L 421 231.5 L 422.5 232 L 424 231.5 L 423 233.5 L 425 236.5 L 425 238.5 L 426 242.5 L 425 245.5 L 427 248.5 L 425 259.5 L 426 261.5 L 424 265.5 L 425 269.5 L 422 280 Q 418.7 278.7 420 283.5 L 417.5 287 L 416 286.5 L 415 290 L 408.5 293 L 394 304.5 L 392 307.5 L 390 310.5 L 388 319.5 L 389 322.5 L 388 325.5 L 392 345.5 L 392 347.5 L 391 355.5 L 391 357.5 L 390 364 Q 387 362.8 388 366.5 L 375.5 384 L 373 385.5 L 373 387.5 L 368 394.5 L 368 398.5 L 370 402.5 L 364.5 406 L 364 403.5 L 364 402 Q 360.3 403.5 361 400.5 L 356 398.5 Q 358.2 397.2 355.5 396 Q 354.3 398.2 353 395.5 L 353.5 394 L 349 393 L 347.5 389 L 345.5 390 L 343 386.5 L 343.5 385 L 340.5 384 L 337 384.5 L 342.5 382 Q 344.3 385.8 346 382.5 L 345 380.5 L 347 379.5 Q 346.3 383.3 348.5 384 L 350 381.5 L 349.5 380 L 352 381.5 L 352.5 377 L 355 378 Q 356.1 375.3 353.5 376 L 353.5 375 L 356.5 374 Q 358.3 376.8 360 372.5 L 360 370.5 L 359 368.5 L 361 369.5 L 362.5 372 Q 364.8 372.8 364 370.5 L 365.5 366 L 367 366.5 Q 366.3 364.3 368.5 365 L 373 363 L 375 359.5 L 372 355.5 L 374 355 L 374.5 357 L 375 355 L 377 354.5 L 376 352 Q 379.7 353.5 379 350.5 L 378.5 349 Q 379.8 351.3 381 348.5 L 379 347.5 L 383 344.5 L 383 342.5 L 384 331.5 L 384 327.5 L 385 324.5 L 383 321.5 L 385 318.5 L 385 316.5 L 385 310.5 L 388 303 L 390 302.5 L 389.5 301 Q 391.8 301.8 391 299.5 Q 395.6 296.6 396 289.5 L 400 285.5 L 401 280.5 L 400 276.5 L 402 274.5 L 400.5 271 L 396 271.5 L 395.5 273 L 394 269.5 L 397 269 L 397.5 271 L 399.5 271 L 402 268.5 L 401.5 265 L 399.5 265 L 398 264.5 L 401 260.5 L 398.5 262 Q 394.1 263.5 395 260.5 L 394 257 Q 390.3 258.5 391 255.5 L 393 255.5 L 394 251.5 L 393 251.5 Q 393.8 253.8 391.5 253 L 392 251.5 L 391 241 Q 394 242 393 239 Q 389 240.4 391 233.5 Q 393.5 232 390 230.5 L 391 212.5 L 389 209.5 L 389 207.5 Q 385.6 195.9 376.5 190 Q 370 184.7 360 184 L 354 174.5 L 354.5 173 L 351 170.5 Q 353.3 169.3 350.5 168 L 346 164.5 L 339 155 L 337 155 Q 338.1 152.3 335.5 153 Q 309.4 128.1 265.5 121 L 263.5 121 L 239.5 115 L 237.5 116 L 235 114.5 L 235.5 113 L 231.5 111 Q 230.8 113.8 226.5 113 L 222.5 112 L 220 113 L 219.5 111 L 214.5 113 L 212.5 112 L 201.5 114 L 199 113.5 Q 201.3 112.3 198.5 111 L 198 114 L 194.5 115 Q 193 112.5 191.5 116 L 182.5 117 L 171.5 121 L 169.5 120 L 147.5 130 Q 145.8 127.3 144 131.5 Q 144.8 133.8 142.5 133 Q 140.5 135.8 136 135 L 132.5 140 L 127 141 L 126.5 146 L 122.5 145 L 120 146 Q 121.1 143.3 118.5 144 L 116 143 L 117 139.5 L 116 137.5 L 118.5 133 L 120 133.5 L 119 130.5 L 121.5 125 L 124 124.5 L 124 122.5 L 125 120.5 L 125 118.5 Q 124.3 116.3 126.5 117 L 132 113.5 L 130 109.5 L 131 108.5 L 130.5 105 L 129 105.5 L 130.5 103 L 128 102.5 L 128.5 101 Q 126.3 101.8 127 99.5 L 128 96 L 131 96.5 L 130 99 L 132.5 100 L 134.5 99 L 139.5 102 L 141.5 101 L 143.5 103 L 154.5 107 L 172.5 111 L 174.5 111 L 178.5 111 L 187 105.5 L 189 97 L 187 96.5 Q 189 93 191 97.5 Q 190.4 102.6 193.5 104 L 195 103.5 Q 192.8 104.8 195.5 106 L 198 107.5 L 196 108 Q 194.9 110.7 197.5 110 L 200.5 105 L 203 106.5 L 204 103.5 L 203.5 102 L 209 99.5 L 208 97.5 L 208.5 95 L 210 95.5 L 212.5 90 L 214 89.5 L 213 87.5 L 217 80.5 L 217 78.5 L 219 73.5 L 218.5 72 L 220 71.5 L 219 69.5 L 220 66.5 L 218 63.5 L 221.5 58 Z M 400 240 L 399 243 L 400 243 L 400 240 Z M 392 244 Q 391 247 394 246 Q 395 243 392 244 Z M 402 257 L 400 259 L 402 259 L 402 257 Z " /><path fill="rgb(149,124,228)" stroke="rgb(149,124,228)" stroke-width="1" opacity="0.996078431372549" d="M 346.5 95 L 349 95.5 L 346.5 96 L 346.5 95 Z " /><path fill="rgb(149,124,228)" stroke="rgb(149,124,228)" stroke-width="1" opacity="0.996078431372549" d="M 340.5 96 L 344 96.5 L 340.5 97 L 340.5 96 Z " /><path fill="rgb(149,124,228)" stroke="rgb(149,124,228)" stroke-width="1" opacity="0.996078431372549" d="M 335.5 97 L 338 97.5 L 335.5 98 L 335.5 97 Z " /><path fill="rgb(149,124,228)" stroke="rgb(149,124,228)" stroke-width="1" opacity="0.996078431372549" d="M 329.5 98 L 334 98.5 L 329.5 99 L 329.5 98 Z " /><path fill="rgb(149,124,228)" stroke="rgb(149,124,228)" stroke-width="1" opacity="0.996078431372549" d="M 390.5 264 L 391 277.5 L 390 277.5 L 390.5 264 Z " /><path fill="rgb(149,124,228)" stroke="rgb(149,124,228)" stroke-width="1" opacity="0.996078431372549" d="M 398.5 273 L 399.5 275 L 398.5 273 Z " /><path fill="rgb(149,124,228)" stroke="rgb(149,124,228)" stroke-width="1" opacity="0.996078431372549" d="M 396.5 279 L 398 281.5 L 396 282 L 396.5 279 Z " /><path fill="rgb(149,124,228)" stroke="rgb(149,124,228)" stroke-width="1" opacity="0.996078431372549" d="M 345.5 365 L 347 366.5 L 345.5 369 Q 348.5 368.1 347 372.5 Q 350.5 374 348 375.5 L 349 377.5 L 346.5 378 L 344 376.5 L 347 373.5 L 343 369.5 L 344 368.5 L 345.5 365 Z " /><path fill="rgb(149,124,228)" stroke="rgb(149,124,228)" stroke-width="1" opacity="0.996078431372549" d="M 360.5 366 L 364 367.5 L 363.5 369 L 360.5 366 Z " /><path fill="rgb(149,124,228)" stroke="rgb(149,124,228)" stroke-width="1" opacity="0.996078431372549" d="M 333.5 375 L 334.5 377 L 336 376.5 Q 336.8 378.8 334.5 378 L 332 377.5 L 333.5 375 Z " /><path fill="rgb(149,124,228)" stroke="rgb(149,124,228)" stroke-width="1" opacity="0.996078431372549" d="M 246.5 376 L 249 376.5 L 246.5 377 L 246.5 376 Z " /><path fill="rgb(149,124,228)" stroke="rgb(149,124,228)" stroke-width="1" opacity="0.996078431372549" d="M 300.5 389 L 305.5 390 L 308.5 389 L 312 390 L 315 395.5 L 314 402 L 320 402.5 L 311 403 L 311 400.5 L 306.5 396 Q 298.2 397.7 294 403.5 L 283 419.5 L 276 433.5 L 277 438.5 L 274.5 443 L 270.5 445 L 271 443.5 L 268.5 440 L 265 437.5 L 264.5 434 L 264 436 Q 261 437 262 434 L 259 434 L 259 432.5 L 261 429.5 L 259 426.5 Q 261.3 425.3 258.5 424 L 255 423.5 L 259 422.5 L 257 421.5 L 258.5 421 L 262 422.5 L 262.5 424 Q 264.6 420.6 270 420.5 L 267 419 L 267.5 417 L 269.5 417 L 271.5 416 L 272.5 418 L 274 413 L 278 411.5 L 276.5 409 L 279.5 410 L 281.5 407 L 284.5 405 L 291 397 L 295 395.5 L 296 392 Q 299.8 393 301 390.5 L 300.5 389 Z M 261 422 L 259 424 L 261 425 L 261 422 Z M 264 425 L 262 427 L 265 427 L 264 425 Z M 262 428 L 263 430 Q 264 427 262 428 Z " /><path fill="rgb(149,124,228)" stroke="rgb(149,124,228)" stroke-width="1" opacity="0.996078431372549" d="M 247.5 417 L 247 418.5 L 249 421.5 L 247 422 L 246 418.5 L 247.5 417 Z " /><path fill="rgb(149,124,228)" stroke="rgb(149,124,228)" stroke-width="1" opacity="0.996078431372549" d="M 262.5 417 L 264 419.5 L 262 418.5 L 262.5 417 Z " /><path fill="rgb(149,124,228)" stroke="rgb(149,124,228)" stroke-width="1" opacity="0.996078431372549" d="M 247.5 424 L 248.5 426 Q 245.7 426.7 247.5 424 Z " /><path fill="rgb(149,124,228)" stroke="rgb(149,124,228)" stroke-width="1" opacity="0.996078431372549" d="M 248.5 427 L 251 427.5 L 248.5 428 L 248.5 427 Z " /><path fill="rgb(149,124,228)" stroke="rgb(149,124,228)" stroke-width="1" opacity="0.996078431372549" d="M 254.5 427 L 258 429.5 L 255.5 430 Q 252.4 430.7 254.5 427 Z " /><path fill="rgb(224,212,228)" stroke="rgb(224,212,228)" stroke-width="1" opacity="0.996078431372549" d="M 244.5 121 L 256.5 121 L 257.5 122 L 273.5 123 Q 289.5 126 302.5 132 Q 330.5 145 349 167.5 L 360 183.5 L 316.5 184 L 299.5 173 L 279.5 164 L 266.5 161 L 241.5 161 L 222.5 166 L 191.5 184 L 143 184 L 150 171.5 L 149.5 170 Q 150.8 172.3 152 169.5 L 167.5 152 Q 169.8 152.8 169 150.5 Q 184.5 137 205.5 129 L 222.5 124 L 233.5 122 L 243.5 122 L 244.5 121 Z " /><path fill="rgb(224,212,228)" stroke="rgb(224,212,228)" stroke-width="1" opacity="0.996078431372549" d="M 403.5 174 L 404 179.5 L 403 179.5 L 403.5 174 Z " /><path fill="rgb(224,212,228)" stroke="rgb(224,212,228)" stroke-width="1" opacity="0.996078431372549" d="M 96.5 175 L 97 178.5 L 96 178.5 L 96.5 175 Z " /><path fill="rgb(224,212,228)" stroke="rgb(224,212,228)" stroke-width="1" opacity="0.996078431372549" d="M 163.5 200 Q 192.8 197.2 204 212.5 L 209 224.5 L 187 230 Q 186.1 224.1 181.5 221 Q 177.5 218 169.5 219 L 165.5 220 L 161 224.5 Q 160.2 230.3 163.5 232 L 197.5 242 L 207 250.5 L 211 259.5 Q 209.5 265 212 266.5 Q 209.3 268.3 211 274.5 L 207 283.5 L 199.5 291 Q 187.7 300.2 164.5 298 L 150.5 294 L 140 286.5 Q 133.7 279.4 132 269 L 153.5 265 L 156 271.5 L 160.5 276 L 165.5 278 L 175.5 279 L 183.5 277 L 187 273.5 L 188 268.5 L 185.5 264 L 178.5 261 L 156.5 256 Q 147.2 252.8 142 245.5 Q 135.8 238.2 138 222.5 Q 141.1 211.6 149.5 206 L 163.5 200 Z " /><path fill="rgb(224,212,228)" stroke="rgb(224,212,228)" stroke-width="1" opacity="0.996078431372549" d="M 318.5 200 L 336.5 200 Q 347.1 203.2 354 209 L 361 218.5 L 366 229.5 L 368 238.5 L 368 259.5 Q 364.4 280.4 350.5 291 Q 344.1 296.1 334.5 298 L 319.5 298 Q 303.7 294.8 296 283.5 Q 289.8 275.8 287 264.5 L 286 259.5 L 286 238.5 Q 289.6 217.6 303.5 207 L 318.5 200 Z M 325 219 L 318 222 L 312 231 L 310 240 L 310 259 L 314 272 Q 317 278 326 279 L 336 276 L 342 268 L 344 259 L 344 240 L 342 231 L 338 224 Q 334 218 325 219 Z " /><path fill="rgb(224,212,228)" stroke="rgb(224,212,228)" stroke-width="1" opacity="0.996078431372549" d="M 219 201 L 282.5 201 L 283 201.5 L 283 221 L 241 221 L 241 238 L 273.5 238 L 275 239.5 L 275 258 L 241 258 L 241 276 L 283 276 L 283 297 L 219 297 L 219 201 Z " /><path fill="rgb(224,212,228)" stroke="rgb(224,212,228)" stroke-width="1" opacity="0.996078431372549" d="M 387 208 L 389 208.5 L 389 210.5 L 390 213.5 L 390 273.5 L 389 276.5 L 390 278.5 L 389 281.5 L 390 284.5 L 388 285.5 L 388 212.5 L 387 208 Z " /><path fill="rgb(224,212,228)" stroke="rgb(224,212,228)" stroke-width="1" opacity="0.996078431372549" d="M 448.5 262 L 449 264.5 L 448 264.5 L 448.5 262 Z " /><path fill="rgb(224,212,228)" stroke="rgb(224,212,228)" stroke-width="1" opacity="0.996078431372549" d="M 357.5 313 Q 360.8 311.9 360 314.5 Q 349.8 331.3 335.5 344 Q 318.1 360.1 293.5 369 L 269.5 375 L 243.5 376 L 242.5 375 L 224.5 373 L 202.5 366 Q 177.6 354.9 160 336.5 L 151 325.5 L 149 318 L 154.5 317 L 191.5 317 L 230.5 333 L 244.5 336 L 264.5 336 L 288.5 330 L 313.5 318 L 318.5 317 L 342.5 317 L 357.5 313 Z " /><path fill="rgb(224,212,228)" stroke="rgb(224,212,228)" stroke-width="1" opacity="0.996078431372549" d="M 403.5 321 L 404 326.5 L 403 326.5 L 403.5 321 Z " /><path fill="rgb(224,212,228)" stroke="rgb(224,212,228)" stroke-width="1" opacity="0.996078431372549" d="M 96.5 322 L 97 325.5 L 96 325.5 L 96.5 322 Z " /><path fill="rgb(224,212,228)" stroke="rgb(224,212,228)" stroke-width="1" opacity="0.996078431372549" d="M 141.5 330 L 145.5 330 L 153.5 334 L 170 350.5 L 173 356.5 L 162.5 367 L 158.5 368 L 152.5 363 L 152 364.5 L 152 366.5 L 139.5 380 L 137 381.5 Q 140.2 389.3 147 393.5 L 147 397.5 L 137.5 408 L 130 412.5 L 129 415.5 L 119.5 426 L 111 431.5 L 111 433.5 L 98.5 446 L 94.5 447 L 83.5 436 L 82 436 L 82 434 Q 79.3 435.1 80 432.5 L 60 409.5 L 56 401.5 L 64 388 L 62.5 388 L 52 398.5 L 50.5 401 L 51 399.5 L 55 392 L 68 383.5 L 71 377 L 86 365.5 L 87 361 L 91 358.5 L 92.5 356 L 98.5 351 L 88 362.5 L 86 369 L 101.5 382 L 100 379.5 Q 94 374.5 92 365.5 L 99 356.5 L 101 351.5 L 100.5 350 L 105.5 351 L 115.5 361 L 121.5 354 L 124.5 352 L 131.5 346 L 142.5 354 L 132 342.5 Q 129 340.3 130 335 L 132.5 336 Q 135.4 331.4 141.5 330 Z M 82 369 L 70 381 L 68 386 L 77 393 L 84 400 L 74 386 Q 73 380 77 379 Q 76 376 79 377 L 82 373 L 82 369 Z " /><path fill="rgb(129,104,216)" stroke="rgb(129,104,216)" stroke-width="1" opacity="0.996078431372549" d="M 214.5 66 L 215 67.5 L 203 90 L 201 90 Q 202.1 92.7 199.5 92 L 193.5 95 L 193 93.5 L 214.5 66 Z " /><path fill="rgb(129,104,216)" stroke="rgb(129,104,216)" stroke-width="1" opacity="0.996078431372549" d="M 122.5 101 L 120 104.5 L 108 120.5 L 102 136.5 L 103 140.5 L 102 142.5 L 106 162.5 L 109.5 166 L 113.5 167 L 141.5 146 L 174.5 129 L 185.5 127 L 192.5 124 L 198.5 124 L 206.5 122 L 221.5 122 L 223.5 121 L 225.5 121 L 235 121.5 L 219.5 124 L 211.5 127 L 210.5 126 Q 208.8 129.1 207 127.5 L 206.5 129 L 202.5 128 L 176.5 136 L 159.5 144 Q 137.3 155.8 121 173.5 L 121 175 L 119 175 Q 120.1 177.7 117.5 177 L 108.5 185 L 99 189 L 99 191.5 L 95 198 L 84 205 Q 85.1 207.7 82.5 207 L 67 216 Q 68.3 219 64.5 218 Q 58.4 223.9 56 233.5 Q 57.3 238.3 55 239.5 L 55 264.5 L 59 278.5 L 67.5 288 L 92 305 L 98 313.5 L 100 325.5 L 94.5 354 L 94 349.5 L 98 332.5 L 98 317.5 Q 94.6 306.4 85.5 301 L 68.5 290 L 59 280.5 L 56 274.5 L 53 262.5 L 53 238.5 L 56 226.5 L 64.5 214 L 86.5 199 L 94 191.5 L 97 186.5 L 99 176.5 L 94 150.5 L 94 136.5 L 100 122.5 L 116.5 105 L 122.5 101 Z M 97 144 L 96 153 L 100 172 L 100 184 L 99 185 L 100 187 L 103 179 L 103 174 L 97 144 Z " /><path fill="rgb(129,104,216)" stroke="rgb(129,104,216)" stroke-width="1" opacity="0.996078431372549" d="M 241.5 120 L 247 120.5 L 241.5 121 L 241.5 120 Z " /><path fill="rgb(129,104,216)" stroke="rgb(129,104,216)" stroke-width="1" opacity="0.996078431372549" d="M 162.5 155 L 157.5 161 L 162.5 155 Z " /><path fill="rgb(129,104,216)" stroke="rgb(129,104,216)" stroke-width="1" opacity="0.996078431372549" d="M 259.5 164 L 266 164.5 L 259.5 165 L 259.5 164 Z " /><path fill="rgb(129,104,216)" stroke="rgb(129,104,216)" stroke-width="1" opacity="0.996078431372549" d="M 268.5 165 L 271 165.5 L 268.5 166 L 268.5 165 Z " /><path fill="rgb(129,104,216)" stroke="rgb(129,104,216)" stroke-width="1" opacity="0.996078431372549" d="M 283.5 169 L 287 170.5 L 285.5 171 L 283.5 169 Z " /><path fill="rgb(129,104,216)" stroke="rgb(129,104,216)" stroke-width="1" opacity="0.996078431372549" d="M 288.5 171 Q 299.4 174.6 307 181.5 L 305.5 181 L 288.5 172 L 288.5 171 Z " /><path fill="rgb(129,104,216)" stroke="rgb(129,104,216)" stroke-width="1" opacity="0.996078431372549" d="M 308.5 182 L 309.5 184 L 308.5 182 Z " /><path fill="rgb(129,104,216)" stroke="rgb(129,104,216)" stroke-width="1" opacity="0.996078431372549" d="M 212.5 183 L 228 183.5 L 212.5 184 L 212.5 183 Z " /><path fill="rgb(129,104,216)" stroke="rgb(129,104,216)" stroke-width="1" opacity="0.996078431372549" d="M 229.5 183 L 234 183.5 L 229.5 184 L 229.5 183 Z " /><path fill="rgb(129,104,216)" stroke="rgb(129,104,216)" stroke-width="1" opacity="0.996078431372549" d="M 235.5 183 L 243 183.5 L 235.5 184 L 235.5 183 Z " /><path fill="rgb(129,104,216)" stroke="rgb(129,104,216)" stroke-width="1" opacity="0.996078431372549" d="M 117.5 301 L 118.5 303 L 117.5 301 Z " /><path fill="rgb(129,104,216)" stroke="rgb(129,104,216)" stroke-width="1" opacity="0.996078431372549" d="M 195.5 314 L 198 315.5 L 196.5 315 L 195.5 314 Z " /><path fill="rgb(129,104,216)" stroke="rgb(129,104,216)" stroke-width="1" opacity="0.996078431372549" d="M 310.5 314 L 312 314.5 L 297.5 322 L 298.5 320 L 310.5 314 Z " /><path fill="rgb(129,104,216)" stroke="rgb(129,104,216)" stroke-width="1" opacity="0.996078431372549" d="M 288.5 325 L 290 325.5 L 286.5 327 L 286.5 326 L 288.5 325 Z " /><path fill="rgb(129,104,216)" stroke="rgb(129,104,216)" stroke-width="1" opacity="0.996078431372549" d="M 107.5 328 L 111 329.5 L 112 333.5 L 110 337.5 L 109 348 L 103.5 349 L 101 348 L 100.5 350 L 100 348.5 L 100 346.5 L 100 340.5 L 104 330 L 107.5 328 Z " /><path fill="rgb(129,104,216)" stroke="rgb(129,104,216)" stroke-width="1" opacity="0.996078431372549" d="M 273.5 330 L 276 330.5 L 273.5 331 L 273.5 330 Z " /><path fill="rgb(129,104,216)" stroke="rgb(129,104,216)" stroke-width="1" opacity="0.996078431372549" d="M 268.5 331 L 271 331.5 L 268.5 332 L 268.5 331 Z " /><path fill="rgb(129,104,216)" stroke="rgb(129,104,216)" stroke-width="1" opacity="0.996078431372549" d="M 105.5 350 L 107.5 353 L 105.5 350 Z " /><path fill="rgb(129,104,216)" stroke="rgb(129,104,216)" stroke-width="1" opacity="0.996078431372549" d="M 172.5 357 L 168.5 362 L 172.5 357 Z " /><path fill="rgb(129,104,216)" stroke="rgb(129,104,216)" stroke-width="1" opacity="0.996078431372549" d="M 154.5 365 L 155.5 367 L 154.5 365 Z " /><path fill="rgb(129,104,216)" stroke="rgb(129,104,216)" stroke-width="1" opacity="0.996078431372549" d="M 159.5 368 L 173.5 371 L 176.5 373 L 194.5 378 L 205.5 380 L 221.5 380 L 223.5 381 L 226.5 380 L 249.5 379 Q 250.8 376.8 255.5 378 L 257.5 376 L 267.5 376 L 282.5 373 L 280.5 376 L 275.5 378 L 271.5 378 L 265.5 381 L 263.5 381 L 242.5 387 L 240.5 386 L 237.5 387 Q 232.8 385.7 231.5 388 L 208.5 388 L 206.5 388 L 201.5 387 L 199.5 388 L 195.5 386 L 193.5 386 L 160.5 377 L 158.5 377 L 147.5 377 L 139 381 L 138.5 384 L 137 382.5 L 148.5 371 L 159.5 368 Z " /><path fill="rgb(129,104,216)" stroke="rgb(129,104,216)" stroke-width="1" opacity="0.996078431372549" d="M 242.5 376 L 245 376.5 L 242.5 377 L 242.5 376 Z " /><path fill="rgb(129,104,216)" stroke="rgb(129,104,216)" stroke-width="1" opacity="0.996078431372549" d="M 191.5 395 Q 199 395.5 202 400.5 L 203.5 403 Q 205.8 402.3 205 404.5 L 209 409.5 L 215 422.5 L 221.5 431 Q 223.8 430.3 223 432.5 L 233.5 441 L 252.5 446 L 254.5 446 L 257 446.5 L 234.5 447 Q 218.4 444.1 211 432.5 L 196 410 L 184.5 403 L 175.5 402 L 174 400.5 L 191.5 395 Z M 189 403 Q 189 406 194 407 L 202 417 L 214 435 L 221 440 L 222 440 L 213 430 L 202 412 Q 198 404 189 403 Z " /><path fill="rgb(129,104,216)" stroke="rgb(129,104,216)" stroke-width="1" opacity="0.996078431372549" d="M 325.5 398 L 334.5 398 L 358 405.5 L 346.5 406 Q 336.5 402 322.5 402 L 320 400.5 L 325.5 398 Z " /><path fill="rgb(129,104,216)" stroke="rgb(129,104,216)" stroke-width="1" opacity="0.996078431372549" d="M 145.5 400 L 144.5 403 L 148 405.5 L 139.5 407 L 145.5 400 Z " /><path fill="rgb(153,131,227)" stroke="rgb(153,131,227)" stroke-width="1" opacity="0.9921568627450981" d="M 238.5 53 L 247 53.5 L 238.5 54 L 238.5 53 Z " /><path fill="rgb(153,131,227)" stroke="rgb(153,131,227)" stroke-width="1" opacity="0.9921568627450981" d="M 231.5 54 L 237 54.5 Q 228.7 54.7 225 59.5 L 226.5 60 L 230.5 59 L 233.5 60 L 236.5 59 L 239.5 61 L 241.5 61 Q 248.9 59.6 251.5 63 L 254.5 62 L 258.5 64 L 260.5 64 Q 273.5 67 280 76.5 L 282 79.5 L 299.5 103 Q 305 108 317.5 106 L 324 102.5 L 322.5 101 L 316 100 L 316.5 98 L 328.5 98 L 333.5 99 L 333.5 98 L 330 97.5 L 334.5 97 L 337.5 98 L 337.5 97 L 336 96.5 L 339.5 96 L 343.5 97 L 343.5 96 L 341 95.5 L 350.5 94 L 353 95 L 353.5 93 L 355.5 93 L 362 94.5 L 359.5 96 L 351.5 97 L 348 99.5 L 356 101 Q 354.9 103.7 357.5 103 Q 358.6 105.8 362 105 L 363.5 108 L 380 121.5 L 389 133.5 L 393 143.5 L 394 151.5 L 393 152.5 L 391 176.5 L 390 177.5 L 390 187.5 L 391 191.5 L 400.5 202 Q 414.3 209.1 424 220.5 L 429 227.5 L 433 247.5 L 432 252.5 L 432 254.5 L 431 271.5 L 425 287.5 L 428 289.5 L 412.5 301 Q 411 297.5 409.5 300 Q 397.6 302.6 392 311.5 L 391 314.5 L 391 332.5 L 393 336.5 L 393 341.5 L 395 348.5 L 395 359.5 L 392 369.5 L 386 381 Q 383.3 379.9 384 382.5 L 382 386 Q 379.3 384.9 380 387.5 L 376 395.5 L 377 397.5 L 372.5 403 L 368.5 405 L 370 402.5 Q 367.3 400.2 368 394.5 L 374.5 384 L 377 382.5 L 387 369.5 L 388 364 Q 391 365.3 390 361.5 L 392 356.5 Q 389.8 355.3 391 350.5 L 392 347.5 L 391 344.5 L 390 331.5 L 388 325.5 L 389 322.5 L 389 318.5 L 389 313.5 L 392 306 Q 394.7 307.1 394 304.5 L 408.5 293 L 415 290 L 416.5 286 Q 417.8 288.3 419 285.5 L 420 280 Q 422.7 281.1 422 278.5 L 425 266.5 L 425 264.5 L 426 260.5 L 425 256.5 Q 427.5 255 426 249.5 L 426 247.5 L 425 243.5 L 426 240.5 L 424 237.5 L 424 235.5 L 423 233.5 L 424 231.5 L 422.5 232 L 421 231.5 L 422 229.5 L 420 227.5 L 421 224.5 L 419.5 223 L 416 220.5 L 417 219.5 L 409.5 212 L 400.5 206 L 391 196.5 L 387 188.5 L 386 179.5 L 386 177.5 L 388 173.5 L 388 171.5 L 390 158.5 L 389 157.5 L 388 145.5 L 384 139.5 L 384 137 L 379 135 L 378 129 L 373 127 L 371.5 123 Q 369.3 123.8 370 121.5 Q 368.7 117.3 364 118 L 363.5 116 L 362.5 117 L 357.5 112 L 353.5 109 L 351.5 109 L 346 108 Q 347.3 105 343.5 106 L 341.5 106 L 336.5 105 L 333.5 107 L 331.5 106 L 317.5 111 L 306.5 112 L 302.5 111 L 295 104.5 Q 297.2 103.3 294.5 102 L 292 100.5 L 286 91 Q 283.3 92.1 284 89.5 L 282 85 Q 279.3 86.1 280 83.5 Q 277.7 79.4 273 79 L 272.5 77 L 270 78 Q 271.1 75.3 268.5 76 L 266 75.5 Q 268.3 74.3 265.5 73 L 260.5 73 L 258.5 71 Q 251.8 71.7 248.5 69 L 246.5 70 L 242 69 L 243 72.5 L 242 72.5 L 240 68 L 235.5 67 L 232.5 68 L 228 67 L 229 64.5 L 220 62.5 L 223 58.5 L 222.5 57 L 231.5 54 Z M 347 95 L 347 96 L 349 96 L 347 95 Z " /><path fill="rgb(153,131,227)" stroke="rgb(153,131,227)" stroke-width="1" opacity="0.9921568627450981" d="M 219.5 59 L 218.5 61 L 219.5 59 Z " /><path fill="rgb(153,131,227)" stroke="rgb(153,131,227)" stroke-width="1" opacity="0.9921568627450981" d="M 200.5 83 L 199.5 85 L 200.5 83 Z " /><path fill="rgb(153,131,227)" stroke="rgb(153,131,227)" stroke-width="1" opacity="0.9921568627450981" d="M 196.5 88 L 193.5 92 L 196.5 88 Z " /><path fill="rgb(153,131,227)" stroke="rgb(153,131,227)" stroke-width="1" opacity="0.9921568627450981" d="M 133.5 94 L 139 94.5 L 135 96.5 L 138.5 98 L 140.5 98 L 166.5 106 L 177.5 106 L 186 101 L 187 98.5 L 184.5 98 L 181.5 99 L 181.5 98 L 187.5 95 L 187.5 97 Q 190.1 96.2 189 99.5 Q 186.4 100.9 187 105.5 L 184.5 108 L 178.5 111 L 174.5 111 L 172.5 111 L 154.5 107 L 143.5 103 L 141.5 101 L 139.5 102 L 134.5 99 L 132.5 100 L 130 99 L 131 96.5 L 130.5 95 L 133.5 94 Z " /><path fill="rgb(153,131,227)" stroke="rgb(153,131,227)" stroke-width="1" opacity="0.9921568627450981" d="M 122.5 99 L 121.5 101 L 122.5 99 Z " /><path fill="rgb(153,131,227)" stroke="rgb(153,131,227)" stroke-width="1" opacity="0.9921568627450981" d="M 118.5 102 L 117.5 104 L 118.5 102 Z " /><path fill="rgb(153,131,227)" stroke="rgb(153,131,227)" stroke-width="1" opacity="0.9921568627450981" d="M 103.5 117 L 102.5 119 L 103.5 117 Z " /><path fill="rgb(153,131,227)" stroke="rgb(153,131,227)" stroke-width="1" opacity="0.9921568627450981" d="M 100.5 121 L 99.5 123 L 100.5 121 Z " /><path fill="rgb(153,131,227)" stroke="rgb(153,131,227)" stroke-width="1" opacity="0.9921568627450981" d="M 93.5 147 L 94 149.5 L 93 149.5 L 93.5 147 Z " /><path fill="rgb(153,131,227)" stroke="rgb(153,131,227)" stroke-width="1" opacity="0.9921568627450981" d="M 94.5 153 L 95 155.5 L 94 155.5 L 94.5 153 Z " /><path fill="rgb(153,131,227)" stroke="rgb(153,131,227)" stroke-width="1" opacity="0.9921568627450981" d="M 350.5 168 L 351.5 170 L 350.5 168 Z " /><path fill="rgb(153,131,227)" stroke="rgb(153,131,227)" stroke-width="1" opacity="0.9921568627450981" d="M 97.5 170 L 98 172.5 L 97 172.5 L 97.5 170 Z " /><path fill="rgb(153,131,227)" stroke="rgb(153,131,227)" stroke-width="1" opacity="0.9921568627450981" d="M 94.5 189 L 93.5 191 L 94.5 189 Z " /><path fill="rgb(153,131,227)" stroke="rgb(153,131,227)" stroke-width="1" opacity="0.9921568627450981" d="M 85.5 198 L 84.5 200 L 85.5 198 Z " /><path fill="rgb(153,131,227)" stroke="rgb(153,131,227)" stroke-width="1" opacity="0.9921568627450981" d="M 65.5 212 L 60.5 218 L 65.5 212 Z " /><path fill="rgb(153,131,227)" stroke="rgb(153,131,227)" stroke-width="1" opacity="0.9921568627450981" d="M 52.5 239 L 53 244.5 L 52 244.5 L 52.5 239 Z " /><path fill="rgb(153,131,227)" stroke="rgb(153,131,227)" stroke-width="1" opacity="0.9921568627450981" d="M 52.5 256 L 53 261.5 L 52 261.5 L 52.5 256 Z " /><path fill="rgb(153,131,227)" stroke="rgb(153,131,227)" stroke-width="1" opacity="0.9921568627450981" d="M 59.5 281 L 60.5 283 L 59.5 281 Z " /><path fill="rgb(153,131,227)" stroke="rgb(153,131,227)" stroke-width="1" opacity="0.9921568627450981" d="M 66.5 288 L 67.5 290 L 66.5 288 Z " /><path fill="rgb(153,131,227)" stroke="rgb(153,131,227)" stroke-width="1" opacity="0.9921568627450981" d="M 86.5 302 L 92.5 309 L 86.5 302 Z " /><path fill="rgb(153,131,227)" stroke="rgb(153,131,227)" stroke-width="1" opacity="0.9921568627450981" d="M 97.5 318 L 98 320.5 L 97 320.5 L 97.5 318 Z " /><path fill="rgb(153,131,227)" stroke="rgb(153,131,227)" stroke-width="1" opacity="0.9921568627450981" d="M 97.5 327 L 98 330.5 L 97 330.5 L 97.5 327 Z " /><path fill="rgb(153,131,227)" stroke="rgb(153,131,227)" stroke-width="1" opacity="0.9921568627450981" d="M 94.5 344 L 95 346.5 L 94 346.5 L 94.5 344 Z " /><path fill="rgb(153,131,227)" stroke="rgb(153,131,227)" stroke-width="1" opacity="0.9921568627450981" d="M 93.5 350 L 94 352.5 L 93 352.5 L 93.5 350 Z " /><path fill="rgb(153,131,227)" stroke="rgb(153,131,227)" stroke-width="1" opacity="0.9921568627450981" d="M 249.5 376 L 253 376.5 L 249.5 377 L 249.5 376 Z " /><path fill="rgb(153,131,227)" stroke="rgb(153,131,227)" stroke-width="1" opacity="0.9921568627450981" d="M 306.5 396 L 311 400.5 L 311 403 L 315 403.5 L 307 405 L 304.5 401 Q 297.4 401.9 295 407.5 L 285 423.5 L 281 433.5 L 281 438.5 L 276.5 443 L 272.5 445 L 273.5 443 L 276 441.5 L 277 434.5 L 277 432.5 L 283 419.5 L 297.5 400 L 306.5 396 Z " /><path fill="rgb(153,131,227)" stroke="rgb(153,131,227)" stroke-width="1" opacity="0.9921568627450981" d="M 171.5 402 L 177 402.5 L 171.5 403 L 171.5 402 Z " /><path fill="rgb(153,131,227)" stroke="rgb(153,131,227)" stroke-width="1" opacity="0.9921568627450981" d="M 320.5 402 L 326 403.5 L 322.5 404 L 320.5 402 Z " /><path fill="rgb(153,131,227)" stroke="rgb(153,131,227)" stroke-width="1" opacity="0.9921568627450981" d="M 164.5 403 L 167 403.5 L 164.5 404 L 164.5 403 Z " /><path fill="rgb(153,131,227)" stroke="rgb(153,131,227)" stroke-width="1" opacity="0.9921568627450981" d="M 182 403 L 184 403.5 L 182 404.5 L 182 403 Z " /><path fill="rgb(153,131,227)" stroke="rgb(153,131,227)" stroke-width="1" opacity="0.9921568627450981" d="M 331.5 403 L 334 404.5 L 332.5 405 L 331.5 403 Z " /><path fill="rgb(153,131,227)" stroke="rgb(153,131,227)" stroke-width="1" opacity="0.9921568627450981" d="M 159.5 404 L 163 405.5 L 161.5 406 L 159.5 404 Z " /><path fill="rgb(153,131,227)" stroke="rgb(153,131,227)" stroke-width="1" opacity="0.9921568627450981" d="M 185.5 404 L 186.5 406 L 185.5 404 Z " /><path fill="rgb(153,131,227)" stroke="rgb(153,131,227)" stroke-width="1" opacity="0.9921568627450981" d="M 337.5 404 L 340 405.5 L 338.5 405 L 337.5 404 Z " /><path fill="rgb(153,131,227)" stroke="rgb(153,131,227)" stroke-width="1" opacity="0.9921568627450981" d="M 149.5 406 L 153 407.5 L 151.5 408 L 149.5 406 Z " /><path fill="rgb(153,131,227)" stroke="rgb(153,131,227)" stroke-width="1" opacity="0.9921568627450981" d="M 347.5 406 L 350 407.5 L 348.5 407 L 347.5 406 Z " /><path fill="rgb(153,131,227)" stroke="rgb(153,131,227)" stroke-width="1" opacity="0.9921568627450981" d="M 138.5 407 Q 143.8 405.8 145 408.5 L 142.5 409 L 138.5 408 L 138.5 407 Z " /><path fill="rgb(153,131,227)" stroke="rgb(153,131,227)" stroke-width="1" opacity="0.9921568627450981" d="M 191.5 407 L 192.5 409 L 191.5 407 Z " /><path fill="rgb(153,131,227)" stroke="rgb(153,131,227)" stroke-width="1" opacity="0.9921568627450981" d="M 354.5 407 L 358 407.5 L 355.5 409 L 354.5 407 Z " /><path fill="rgb(153,131,227)" stroke="rgb(153,131,227)" stroke-width="1" opacity="0.9921568627450981" d="M 196.5 412 L 197.5 414 L 196.5 412 Z " /><path fill="rgb(153,131,227)" stroke="rgb(153,131,227)" stroke-width="1" opacity="0.9921568627450981" d="M 204.5 423 L 205.5 425 L 204.5 423 Z " /><path fill="rgb(153,131,227)" stroke="rgb(153,131,227)" stroke-width="1" opacity="0.9921568627450981" d="M 208.5 429 L 209.5 431 L 208.5 429 Z " /><path fill="rgb(153,131,227)" stroke="rgb(153,131,227)" stroke-width="1" opacity="0.9921568627450981" d="M 211.5 433 L 212.5 435 L 211.5 433 Z " /><path fill="rgb(153,131,227)" stroke="rgb(153,131,227)" stroke-width="1" opacity="0.9921568627450981" d="M 225.5 444 L 224.5 446 L 225.5 444 Z " /><path fill="rgb(153,131,227)" stroke="rgb(153,131,227)" stroke-width="1" opacity="0.9921568627450981" d="M 266.5 446 L 269 447.5 L 267.5 447 L 266.5 446 Z " /><path fill="rgb(153,131,227)" stroke="rgb(153,131,227)" stroke-width="1" opacity="0.9921568627450981" d="M 260.5 447 L 263 447.5 L 260.5 448 L 260.5 447 Z " /></svg>