<svg width="500" height="500" version="1.1" xmlns="http://www.w3.org/2000/svg" desc="Created with imagetracer.js version 1.2.6" ><path fill="rgb(0,0,0)" stroke="rgb(0,0,0)" stroke-width="1" opacity="0" d="M 0 0 L 500 0 L 500 500 L 0 500 L 0 0 Z M 344 61 L 344 386 L 330 383 L 283 377 L 276 375 L 236 370 L 229 368 L 189 363 L 182 361 L 169 360 L 162 358 L 142 356 L 135 354 L 122 353 L 115 351 L 95 349 L 67 344 L 61 345 L 344 440 L 349 439 L 439 401 L 440 401 L 440 101 L 435 97 L 356 64 L 344 61 Z M 245 116 L 159 201 L 106 162 L 87 169 Q 83 168 84 171 L 137 223 L 102 257 L 84 275 L 84 276 L 105 283 L 107 283 L 158 244 L 245 329 L 253 327 L 296 308 L 298 308 L 298 139 L 260 121 L 248 116 L 245 116 Z " /><path fill="rgb(0,0,0)" stroke="rgb(0,0,0)" stroke-width="1" opacity="0" d="M 244.5 179 L 245 266 L 186 222.5 L 244.5 179 Z " /><path fill="rgb(15,127,201)" stroke="rgb(15,127,201)" stroke-width="1" opacity="0.4196078431372549" d="M 344.5 61 L 345 385.5 L 344 385.5 L 344.5 61 Z " /><path fill="rgb(15,127,201)" stroke="rgb(15,127,201)" stroke-width="1" opacity="0.4196078431372549" d="M 349.5 62 L 353 63.5 L 351.5 64 L 349.5 62 Z " /><path fill="rgb(15,127,201)" stroke="rgb(15,127,201)" stroke-width="1" opacity="0.4196078431372549" d="M 354.5 64 L 358 65.5 L 356.5 66 L 354.5 64 Z " /><path fill="rgb(15,127,201)" stroke="rgb(15,127,201)" stroke-width="1" opacity="0.4196078431372549" d="M 361.5 67 L 365 68.5 L 363.5 69 L 361.5 67 Z " /><path fill="rgb(15,127,201)" stroke="rgb(15,127,201)" stroke-width="1" opacity="0.4196078431372549" d="M 366.5 69 L 370 70.5 L 368.5 71 L 366.5 69 Z " /><path fill="rgb(15,127,201)" stroke="rgb(15,127,201)" stroke-width="1" opacity="0.4196078431372549" d="M 373.5 72 L 377 73.5 L 375.5 74 L 373.5 72 Z " /><path fill="rgb(15,127,201)" stroke="rgb(15,127,201)" stroke-width="1" opacity="0.4196078431372549" d="M 378.5 74 L 382 75.5 L 380.5 76 L 378.5 74 Z " /><path fill="rgb(15,127,201)" stroke="rgb(15,127,201)" stroke-width="1" opacity="0.4196078431372549" d="M 385.5 77 L 389 78.5 L 387.5 79 L 385.5 77 Z " /><path fill="rgb(15,127,201)" stroke="rgb(15,127,201)" stroke-width="1" opacity="0.4196078431372549" d="M 390.5 79 L 394 80.5 L 392.5 81 L 390.5 79 Z " /><path fill="rgb(15,127,201)" stroke="rgb(15,127,201)" stroke-width="1" opacity="0.4196078431372549" d="M 397.5 82 L 401 83.5 L 399.5 84 L 397.5 82 Z " /><path fill="rgb(15,127,201)" stroke="rgb(15,127,201)" stroke-width="1" opacity="0.4196078431372549" d="M 402.5 84 L 406 85.5 L 404.5 86 L 402.5 84 Z " /><path fill="rgb(15,127,201)" stroke="rgb(15,127,201)" stroke-width="1" opacity="0.4196078431372549" d="M 409.5 87 L 413 88.5 L 411.5 89 L 409.5 87 Z " /><path fill="rgb(15,127,201)" stroke="rgb(15,127,201)" stroke-width="1" opacity="0.4196078431372549" d="M 414.5 89 L 418 90.5 L 416.5 91 L 414.5 89 Z " /><path fill="rgb(15,127,201)" stroke="rgb(15,127,201)" stroke-width="1" opacity="0.4196078431372549" d="M 421.5 92 L 425 93.5 L 423.5 94 L 421.5 92 Z " /><path fill="rgb(15,127,201)" stroke="rgb(15,127,201)" stroke-width="1" opacity="0.4196078431372549" d="M 426.5 94 L 430 95.5 L 428.5 96 L 426.5 94 Z " /><path fill="rgb(15,127,201)" stroke="rgb(15,127,201)" stroke-width="1" opacity="0.4196078431372549" d="M 438.5 99 L 440 100.5 L 440 400.5 L 439 400.5 L 439 100.5 L 438.5 99 Z " /><path fill="rgb(15,127,201)" stroke="rgb(15,127,201)" stroke-width="1" opacity="0.4196078431372549" d="M 244.5 116 L 186.5 175 L 244.5 116 Z " /><path fill="rgb(15,127,201)" stroke="rgb(15,127,201)" stroke-width="1" opacity="0.4196078431372549" d="M 246.5 116 L 250 117.5 L 248.5 118 L 246.5 116 Z " /><path fill="rgb(15,127,201)" stroke="rgb(15,127,201)" stroke-width="1" opacity="0.4196078431372549" d="M 253.5 119 L 257 120.5 L 255.5 121 L 253.5 119 Z " /><path fill="rgb(15,127,201)" stroke="rgb(15,127,201)" stroke-width="1" opacity="0.4196078431372549" d="M 258.5 121 L 264 123.5 L 262.5 124 L 258.5 122 L 258.5 121 Z " /><path fill="rgb(15,127,201)" stroke="rgb(15,127,201)" stroke-width="1" opacity="0.4196078431372549" d="M 265.5 124 L 271 126.5 L 269.5 127 L 265.5 125 L 265.5 124 Z " /><path fill="rgb(15,127,201)" stroke="rgb(15,127,201)" stroke-width="1" opacity="0.4196078431372549" d="M 272.5 127 L 276 128.5 L 274.5 129 L 272.5 127 Z " /><path fill="rgb(15,127,201)" stroke="rgb(15,127,201)" stroke-width="1" opacity="0.4196078431372549" d="M 279.5 130 L 283 131.5 L 281.5 132 L 279.5 130 Z " /><path fill="rgb(15,127,201)" stroke="rgb(15,127,201)" stroke-width="1" opacity="0.4196078431372549" d="M 286.5 133 L 290 134.5 L 288.5 135 L 286.5 133 Z " /><path fill="rgb(15,127,201)" stroke="rgb(15,127,201)" stroke-width="1" opacity="0.4196078431372549" d="M 293.5 136 L 298 138.5 L 298 307.5 L 296.5 308 L 297 306.5 L 297 138.5 L 295.5 138 L 293.5 136 Z " /><path fill="rgb(15,127,201)" stroke="rgb(15,127,201)" stroke-width="1" opacity="0.4196078431372549" d="M 107.5 163 L 109.5 166 L 107.5 163 Z " /><path fill="rgb(15,127,201)" stroke="rgb(15,127,201)" stroke-width="1" opacity="0.4196078431372549" d="M 111.5 166 L 113.5 169 L 111.5 166 Z " /><path fill="rgb(15,127,201)" stroke="rgb(15,127,201)" stroke-width="1" opacity="0.4196078431372549" d="M 84 169 L 86 169.5 L 85 170.5 L 101.5 188 L 84 170.5 L 84 169 Z " /><path fill="rgb(15,127,201)" stroke="rgb(15,127,201)" stroke-width="1" opacity="0.4196078431372549" d="M 115.5 169 L 117.5 172 L 115.5 169 Z " /><path fill="rgb(15,127,201)" stroke="rgb(15,127,201)" stroke-width="1" opacity="0.4196078431372549" d="M 119.5 172 L 121.5 175 L 119.5 172 Z " /><path fill="rgb(15,127,201)" stroke="rgb(15,127,201)" stroke-width="1" opacity="0.4196078431372549" d="M 123.5 175 L 125.5 178 L 123.5 175 Z " /><path fill="rgb(15,127,201)" stroke="rgb(15,127,201)" stroke-width="1" opacity="0.4196078431372549" d="M 127.5 178 L 129.5 181 L 127.5 178 Z " /><path fill="rgb(15,127,201)" stroke="rgb(15,127,201)" stroke-width="1" opacity="0.4196078431372549" d="M 244.5 178 L 246 178.5 L 246 267 L 243.5 267 L 236 260.5 L 239.5 263 L 245 266 L 244.5 179 L 223.5 195 L 226.5 191 L 244.5 178 Z " /><path fill="rgb(15,127,201)" stroke="rgb(15,127,201)" stroke-width="1" opacity="0.4196078431372549" d="M 131.5 181 L 133.5 184 L 131.5 181 Z " /><path fill="rgb(15,127,201)" stroke="rgb(15,127,201)" stroke-width="1" opacity="0.4196078431372549" d="M 135.5 184 L 158.5 201 L 176 184.5 L 157.5 202 L 138.5 188 L 135.5 184 Z " /><path fill="rgb(15,127,201)" stroke="rgb(15,127,201)" stroke-width="1" opacity="0.4196078431372549" d="M 221.5 195 L 219.5 198 L 221.5 195 Z " /><path fill="rgb(15,127,201)" stroke="rgb(15,127,201)" stroke-width="1" opacity="0.4196078431372549" d="M 111.5 196 L 138 222.5 L 111.5 249 L 137 222.5 L 111.5 196 Z " /><path fill="rgb(15,127,201)" stroke="rgb(15,127,201)" stroke-width="1" opacity="0.4196078431372549" d="M 217.5 198 L 215.5 201 L 217.5 198 Z " /><path fill="rgb(15,127,201)" stroke="rgb(15,127,201)" stroke-width="1" opacity="0.4196078431372549" d="M 213.5 201 L 211.5 204 L 213.5 201 Z " /><path fill="rgb(15,127,201)" stroke="rgb(15,127,201)" stroke-width="1" opacity="0.4196078431372549" d="M 209.5 204 L 207.5 207 L 209.5 204 Z " /><path fill="rgb(15,127,201)" stroke="rgb(15,127,201)" stroke-width="1" opacity="0.4196078431372549" d="M 205.5 207 L 203.5 210 L 205.5 207 Z " /><path fill="rgb(15,127,201)" stroke="rgb(15,127,201)" stroke-width="1" opacity="0.4196078431372549" d="M 201.5 210 L 199.5 213 L 201.5 210 Z " /><path fill="rgb(15,127,201)" stroke="rgb(15,127,201)" stroke-width="1" opacity="0.4196078431372549" d="M 197.5 213 L 195.5 216 L 197.5 213 Z " /><path fill="rgb(15,127,201)" stroke="rgb(15,127,201)" stroke-width="1" opacity="0.4196078431372549" d="M 193.5 216 L 191.5 219 L 193.5 216 Z " /><path fill="rgb(15,127,201)" stroke="rgb(15,127,201)" stroke-width="1" opacity="0.4196078431372549" d="M 189.5 219 L 187.5 222 L 189.5 219 Z " /><path fill="rgb(15,127,201)" stroke="rgb(15,127,201)" stroke-width="1" opacity="0.4196078431372549" d="M 187.5 223 L 189.5 226 L 187.5 223 Z " /><path fill="rgb(15,127,201)" stroke="rgb(15,127,201)" stroke-width="1" opacity="0.4196078431372549" d="M 191.5 226 L 193.5 229 L 191.5 226 Z " /><path fill="rgb(15,127,201)" stroke="rgb(15,127,201)" stroke-width="1" opacity="0.4196078431372549" d="M 195.5 229 L 197.5 232 L 195.5 229 Z " /><path fill="rgb(15,127,201)" stroke="rgb(15,127,201)" stroke-width="1" opacity="0.4196078431372549" d="M 199.5 232 L 215 244.5 L 211.5 242 Q 202.9 238.2 199.5 232 Z " /><path fill="rgb(15,127,201)" stroke="rgb(15,127,201)" stroke-width="1" opacity="0.4196078431372549" d="M 157.5 243 L 192 276.5 L 158.5 244 L 134.5 262 L 137.5 258 L 157.5 243 Z " /><path fill="rgb(15,127,201)" stroke="rgb(15,127,201)" stroke-width="1" opacity="0.4196078431372549" d="M 216.5 245 L 218.5 248 L 216.5 245 Z " /><path fill="rgb(15,127,201)" stroke="rgb(15,127,201)" stroke-width="1" opacity="0.4196078431372549" d="M 220.5 248 L 222.5 251 L 220.5 248 Z " /><path fill="rgb(15,127,201)" stroke="rgb(15,127,201)" stroke-width="1" opacity="0.4196078431372549" d="M 224.5 251 L 226.5 254 L 224.5 251 Z " /><path fill="rgb(15,127,201)" stroke="rgb(15,127,201)" stroke-width="1" opacity="0.4196078431372549" d="M 228.5 254 L 230.5 257 L 228.5 254 Z " /><path fill="rgb(15,127,201)" stroke="rgb(15,127,201)" stroke-width="1" opacity="0.4196078431372549" d="M 101.5 257 L 85 274.5 L 86.5 276 L 103 281.5 L 101.5 282 L 84 276 L 84 274.5 L 101.5 257 Z " /><path fill="rgb(15,127,201)" stroke="rgb(15,127,201)" stroke-width="1" opacity="0.4196078431372549" d="M 232.5 257 L 234.5 260 L 232.5 257 Z " /><path fill="rgb(15,127,201)" stroke="rgb(15,127,201)" stroke-width="1" opacity="0.4196078431372549" d="M 132.5 262 L 130.5 265 L 132.5 262 Z " /><path fill="rgb(15,127,201)" stroke="rgb(15,127,201)" stroke-width="1" opacity="0.4196078431372549" d="M 128.5 265 L 126.5 268 L 128.5 265 Z " /><path fill="rgb(15,127,201)" stroke="rgb(15,127,201)" stroke-width="1" opacity="0.4196078431372549" d="M 124.5 268 L 122.5 271 L 124.5 268 Z " /><path fill="rgb(15,127,201)" stroke="rgb(15,127,201)" stroke-width="1" opacity="0.4196078431372549" d="M 120.5 271 L 118.5 274 L 120.5 271 Z " /><path fill="rgb(15,127,201)" stroke="rgb(15,127,201)" stroke-width="1" opacity="0.4196078431372549" d="M 116.5 274 L 114.5 277 L 116.5 274 Z " /><path fill="rgb(15,127,201)" stroke="rgb(15,127,201)" stroke-width="1" opacity="0.4196078431372549" d="M 112.5 277 L 110.5 280 L 112.5 277 Z " /><path fill="rgb(15,127,201)" stroke="rgb(15,127,201)" stroke-width="1" opacity="0.4196078431372549" d="M 108.5 280 L 106.5 283 L 104 282.5 L 108.5 280 Z " /><path fill="rgb(15,127,201)" stroke="rgb(15,127,201)" stroke-width="1" opacity="0.4196078431372549" d="M 200.5 284 L 244.5 329 L 200.5 284 Z " /><path fill="rgb(15,127,201)" stroke="rgb(15,127,201)" stroke-width="1" opacity="0.4196078431372549" d="M 293.5 308 L 295 308.5 L 291.5 310 L 291.5 309 L 293.5 308 Z " /><path fill="rgb(15,127,201)" stroke="rgb(15,127,201)" stroke-width="1" opacity="0.4196078431372549" d="M 286.5 311 L 288 311.5 L 284.5 313 L 284.5 312 L 286.5 311 Z " /><path fill="rgb(15,127,201)" stroke="rgb(15,127,201)" stroke-width="1" opacity="0.4196078431372549" d="M 279.5 314 L 281 314.5 L 277.5 316 L 277.5 315 L 279.5 314 Z " /><path fill="rgb(15,127,201)" stroke="rgb(15,127,201)" stroke-width="1" opacity="0.4196078431372549" d="M 274.5 316 L 276 316.5 L 270.5 319 L 270.5 318 L 274.5 316 Z " /><path fill="rgb(15,127,201)" stroke="rgb(15,127,201)" stroke-width="1" opacity="0.4196078431372549" d="M 267.5 319 L 269 319.5 L 265.5 321 L 265.5 320 L 267.5 319 Z " /><path fill="rgb(15,127,201)" stroke="rgb(15,127,201)" stroke-width="1" opacity="0.4196078431372549" d="M 260.5 322 L 262 322.5 L 258.5 324 L 258.5 323 L 260.5 322 Z " /><path fill="rgb(15,127,201)" stroke="rgb(15,127,201)" stroke-width="1" opacity="0.4196078431372549" d="M 253.5 325 L 255 325.5 L 251.5 327 L 251.5 326 L 253.5 325 Z " /><path fill="rgb(15,127,201)" stroke="rgb(15,127,201)" stroke-width="1" opacity="0.4196078431372549" d="M 248.5 327 L 250 327.5 L 246.5 329 L 246.5 328 L 248.5 327 Z " /><path fill="rgb(15,127,201)" stroke="rgb(15,127,201)" stroke-width="1" opacity="0.4196078431372549" d="M 61.5 344 L 67 344.5 L 64.5 346 L 61.5 345 L 61.5 344 Z " /><path fill="rgb(15,127,201)" stroke="rgb(15,127,201)" stroke-width="1" opacity="0.4196078431372549" d="M 70.5 345 L 74 345.5 L 70.5 346 L 70.5 345 Z " /><path fill="rgb(15,127,201)" stroke="rgb(15,127,201)" stroke-width="1" opacity="0.4196078431372549" d="M 67.5 346 L 72 347.5 L 69.5 348 L 67.5 346 Z " /><path fill="rgb(15,127,201)" stroke="rgb(15,127,201)" stroke-width="1" opacity="0.4196078431372549" d="M 77.5 346 L 81 346.5 L 77.5 347 L 77.5 346 Z " /><path fill="rgb(15,127,201)" stroke="rgb(15,127,201)" stroke-width="1" opacity="0.4196078431372549" d="M 83.5 347 L 88 347.5 L 83.5 348 L 83.5 347 Z " /><path fill="rgb(15,127,201)" stroke="rgb(15,127,201)" stroke-width="1" opacity="0.4196078431372549" d="M 90.5 348 L 94 348.5 L 90.5 349 L 90.5 348 Z " /><path fill="rgb(15,127,201)" stroke="rgb(15,127,201)" stroke-width="1" opacity="0.4196078431372549" d="M 97.5 349 L 101 349.5 L 97.5 350 L 97.5 349 Z " /><path fill="rgb(15,127,201)" stroke="rgb(15,127,201)" stroke-width="1" opacity="0.4196078431372549" d="M 103.5 350 L 108 350.5 L 103.5 351 L 103.5 350 Z " /><path fill="rgb(15,127,201)" stroke="rgb(15,127,201)" stroke-width="1" opacity="0.4196078431372549" d="M 110.5 351 L 115 351.5 L 110.5 352 L 110.5 351 Z " /><path fill="rgb(15,127,201)" stroke="rgb(15,127,201)" stroke-width="1" opacity="0.4196078431372549" d="M 117.5 352 L 121 352.5 L 117.5 353 L 117.5 352 Z " /><path fill="rgb(15,127,201)" stroke="rgb(15,127,201)" stroke-width="1" opacity="0.4196078431372549" d="M 124.5 353 L 128 353.5 L 124.5 354 L 124.5 353 Z " /><path fill="rgb(15,127,201)" stroke="rgb(15,127,201)" stroke-width="1" opacity="0.4196078431372549" d="M 130.5 354 L 135 354.5 L 130.5 355 L 130.5 354 Z " /><path fill="rgb(15,127,201)" stroke="rgb(15,127,201)" stroke-width="1" opacity="0.4196078431372549" d="M 137.5 355 L 141 355.5 L 137.5 356 L 137.5 355 Z " /><path fill="rgb(15,127,201)" stroke="rgb(15,127,201)" stroke-width="1" opacity="0.4196078431372549" d="M 144.5 356 L 148 356.5 L 144.5 357 L 144.5 356 Z " /><path fill="rgb(15,127,201)" stroke="rgb(15,127,201)" stroke-width="1" opacity="0.4196078431372549" d="M 150.5 357 L 155 357.5 L 150.5 358 L 150.5 357 Z " /><path fill="rgb(15,127,201)" stroke="rgb(15,127,201)" stroke-width="1" opacity="0.4196078431372549" d="M 157.5 358 L 162 358.5 L 157.5 359 L 157.5 358 Z " /><path fill="rgb(15,127,201)" stroke="rgb(15,127,201)" stroke-width="1" opacity="0.4196078431372549" d="M 164.5 359 L 168 359.5 L 164.5 360 L 164.5 359 Z " /><path fill="rgb(15,127,201)" stroke="rgb(15,127,201)" stroke-width="1" opacity="0.4196078431372549" d="M 109.5 360 L 122 364.5 L 120.5 365 L 109.5 361 L 109.5 360 Z " /><path fill="rgb(15,127,201)" stroke="rgb(15,127,201)" stroke-width="1" opacity="0.4196078431372549" d="M 171.5 360 L 175 360.5 L 171.5 361 L 171.5 360 Z " /><path fill="rgb(15,127,201)" stroke="rgb(15,127,201)" stroke-width="1" opacity="0.4196078431372549" d="M 177.5 361 L 182 361.5 L 177.5 362 L 177.5 361 Z " /><path fill="rgb(15,127,201)" stroke="rgb(15,127,201)" stroke-width="1" opacity="0.4196078431372549" d="M 184.5 362 L 188 362.5 L 184.5 363 L 184.5 362 Z " /><path fill="rgb(15,127,201)" stroke="rgb(15,127,201)" stroke-width="1" opacity="0.4196078431372549" d="M 191.5 363 L 195 363.5 L 191.5 364 L 191.5 363 Z " /><path fill="rgb(15,127,201)" stroke="rgb(15,127,201)" stroke-width="1" opacity="0.4196078431372549" d="M 197.5 364 L 202 364.5 L 197.5 365 L 197.5 364 Z " /><path fill="rgb(15,127,201)" stroke="rgb(15,127,201)" stroke-width="1" opacity="0.4196078431372549" d="M 204.5 365 L 209 365.5 L 204.5 366 L 204.5 365 Z " /><path fill="rgb(15,127,201)" stroke="rgb(15,127,201)" stroke-width="1" opacity="0.4196078431372549" d="M 211.5 366 L 215 366.5 L 211.5 367 L 211.5 366 Z " /><path fill="rgb(15,127,201)" stroke="rgb(15,127,201)" stroke-width="1" opacity="0.4196078431372549" d="M 218.5 367 L 222 367.5 L 218.5 368 L 218.5 367 Z " /><path fill="rgb(15,127,201)" stroke="rgb(15,127,201)" stroke-width="1" opacity="0.4196078431372549" d="M 224.5 368 L 229 368.5 L 224.5 369 L 224.5 368 Z " /><path fill="rgb(15,127,201)" stroke="rgb(15,127,201)" stroke-width="1" opacity="0.4196078431372549" d="M 231.5 369 L 235 369.5 L 231.5 370 L 231.5 369 Z " /><path fill="rgb(15,127,201)" stroke="rgb(15,127,201)" stroke-width="1" opacity="0.4196078431372549" d="M 238.5 370 L 242 370.5 L 238.5 371 L 238.5 370 Z " /><path fill="rgb(15,127,201)" stroke="rgb(15,127,201)" stroke-width="1" opacity="0.4196078431372549" d="M 244.5 371 L 249 371.5 L 244.5 372 L 244.5 371 Z " /><path fill="rgb(15,127,201)" stroke="rgb(15,127,201)" stroke-width="1" opacity="0.4196078431372549" d="M 251.5 372 L 256 372.5 L 251.5 373 L 251.5 372 Z " /><path fill="rgb(15,127,201)" stroke="rgb(15,127,201)" stroke-width="1" opacity="0.4196078431372549" d="M 258.5 373 L 262 373.5 L 258.5 374 L 258.5 373 Z " /><path fill="rgb(15,127,201)" stroke="rgb(15,127,201)" stroke-width="1" opacity="0.4196078431372549" d="M 265.5 374 L 269 374.5 L 265.5 375 L 265.5 374 Z " /><path fill="rgb(15,127,201)" stroke="rgb(15,127,201)" stroke-width="1" opacity="0.4196078431372549" d="M 271.5 375 L 276 375.5 L 271.5 376 L 271.5 375 Z " /><path fill="rgb(15,127,201)" stroke="rgb(15,127,201)" stroke-width="1" opacity="0.4196078431372549" d="M 278.5 376 L 282 376.5 L 278.5 377 L 278.5 376 Z " /><path fill="rgb(15,127,201)" stroke="rgb(15,127,201)" stroke-width="1" opacity="0.4196078431372549" d="M 285.5 377 L 289 377.5 L 285.5 378 L 285.5 377 Z " /><path fill="rgb(15,127,201)" stroke="rgb(15,127,201)" stroke-width="1" opacity="0.4196078431372549" d="M 291.5 378 L 296 378.5 L 291.5 379 L 291.5 378 Z " /><path fill="rgb(15,127,201)" stroke="rgb(15,127,201)" stroke-width="1" opacity="0.4196078431372549" d="M 298.5 379 L 303 379.5 L 298.5 380 L 298.5 379 Z " /><path fill="rgb(15,127,201)" stroke="rgb(15,127,201)" stroke-width="1" opacity="0.4196078431372549" d="M 305.5 380 L 309 380.5 L 305.5 381 L 305.5 380 Z " /><path fill="rgb(15,127,201)" stroke="rgb(15,127,201)" stroke-width="1" opacity="0.4196078431372549" d="M 312.5 381 L 316 381.5 L 312.5 382 L 312.5 381 Z " /><path fill="rgb(15,127,201)" stroke="rgb(15,127,201)" stroke-width="1" opacity="0.4196078431372549" d="M 318.5 382 L 323 382.5 L 318.5 383 L 318.5 382 Z " /><path fill="rgb(15,127,201)" stroke="rgb(15,127,201)" stroke-width="1" opacity="0.4196078431372549" d="M 325.5 383 L 330 383.5 L 325.5 384 L 325.5 383 Z " /><path fill="rgb(15,127,201)" stroke="rgb(15,127,201)" stroke-width="1" opacity="0.4196078431372549" d="M 332.5 384 L 336 384.5 L 332.5 385 L 332.5 384 Z " /><path fill="rgb(15,127,201)" stroke="rgb(15,127,201)" stroke-width="1" opacity="0.4196078431372549" d="M 338.5 385 L 343 385.5 L 338.5 386 L 338.5 385 Z " /><path fill="rgb(15,127,201)" stroke="rgb(15,127,201)" stroke-width="1" opacity="0.4196078431372549" d="M 216.5 396 L 229 400.5 L 227.5 401 L 216.5 397 L 216.5 396 Z " /><path fill="rgb(15,127,201)" stroke="rgb(15,127,201)" stroke-width="1" opacity="0.4196078431372549" d="M 431.5 403 L 433 403.5 L 429.5 405 L 429.5 404 L 431.5 403 Z " /><path fill="rgb(15,127,201)" stroke="rgb(15,127,201)" stroke-width="1" opacity="0.4196078431372549" d="M 426.5 405 L 428 405.5 L 424.5 407 L 424.5 406 L 426.5 405 Z " /><path fill="rgb(15,127,201)" stroke="rgb(15,127,201)" stroke-width="1" opacity="0.4196078431372549" d="M 419.5 408 L 421 408.5 L 417.5 410 L 417.5 409 L 419.5 408 Z " /><path fill="rgb(15,127,201)" stroke="rgb(15,127,201)" stroke-width="1" opacity="0.4196078431372549" d="M 414.5 410 L 416 410.5 L 412.5 412 L 412.5 411 L 414.5 410 Z " /><path fill="rgb(15,127,201)" stroke="rgb(15,127,201)" stroke-width="1" opacity="0.4196078431372549" d="M 407.5 413 L 409 413.5 L 405.5 415 L 405.5 414 L 407.5 413 Z " /><path fill="rgb(15,127,201)" stroke="rgb(15,127,201)" stroke-width="1" opacity="0.4196078431372549" d="M 402.5 415 L 404 415.5 L 400.5 417 L 400.5 416 L 402.5 415 Z " /><path fill="rgb(15,127,201)" stroke="rgb(15,127,201)" stroke-width="1" opacity="0.4196078431372549" d="M 390.5 420 L 392 420.5 L 388.5 422 L 388.5 421 L 390.5 420 Z " /><path fill="rgb(15,127,201)" stroke="rgb(15,127,201)" stroke-width="1" opacity="0.4196078431372549" d="M 385.5 422 L 387 422.5 L 383.5 424 L 383.5 423 L 385.5 422 Z " /><path fill="rgb(15,127,201)" stroke="rgb(15,127,201)" stroke-width="1" opacity="0.4196078431372549" d="M 378.5 425 L 380 425.5 L 376.5 427 L 376.5 426 L 378.5 425 Z " /><path fill="rgb(15,127,201)" stroke="rgb(15,127,201)" stroke-width="1" opacity="0.4196078431372549" d="M 373.5 427 L 375 427.5 L 371.5 429 L 371.5 428 L 373.5 427 Z " /><path fill="rgb(15,127,201)" stroke="rgb(15,127,201)" stroke-width="1" opacity="0.4196078431372549" d="M 323.5 432 L 336 436.5 L 334.5 437 L 323.5 433 L 323.5 432 Z " /><path fill="rgb(15,127,201)" stroke="rgb(15,127,201)" stroke-width="1" opacity="0.4196078431372549" d="M 361.5 432 L 363 432.5 L 359.5 434 L 359.5 433 L 361.5 432 Z " /><path fill="rgb(15,127,201)" stroke="rgb(15,127,201)" stroke-width="1" opacity="0.4196078431372549" d="M 356.5 434 L 358 434.5 L 354.5 436 L 354.5 435 L 356.5 434 Z " /><path fill="rgb(15,127,201)" stroke="rgb(15,127,201)" stroke-width="1" opacity="0.4196078431372549" d="M 349.5 437 L 351 437.5 L 347.5 439 L 347.5 438 L 349.5 437 Z " /><path fill="rgb(15,127,201)" stroke="rgb(15,127,201)" stroke-width="1" opacity="0.4196078431372549" d="M 343.5 439 L 346 439.5 L 343.5 440 L 343.5 439 Z " /><path fill="rgb(0,122,204)" stroke="rgb(0,122,204)" stroke-width="1" opacity="0.996078431372549" d="M 245.5 116 L 240.5 122 L 245.5 116 Z " /><path fill="rgb(0,122,204)" stroke="rgb(0,122,204)" stroke-width="1" opacity="0.996078431372549" d="M 106.5 163 L 107.5 165 L 106.5 163 Z " /><path fill="rgb(0,122,204)" stroke="rgb(0,122,204)" stroke-width="1" opacity="0.996078431372549" d="M 110.5 166 L 111.5 168 L 110.5 166 Z " /><path fill="rgb(0,122,204)" stroke="rgb(0,122,204)" stroke-width="1" opacity="0.996078431372549" d="M 86.5 169 L 86 170.5 L 110.5 196 L 85 170.5 L 86.5 169 Z " /><path fill="rgb(0,122,204)" stroke="rgb(0,122,204)" stroke-width="1" opacity="0.996078431372549" d="M 114.5 169 L 115.5 171 L 114.5 169 Z " /><path fill="rgb(0,122,204)" stroke="rgb(0,122,204)" stroke-width="1" opacity="0.996078431372549" d="M 118.5 172 L 119.5 174 L 118.5 172 Z " /><path fill="rgb(0,122,204)" stroke="rgb(0,122,204)" stroke-width="1" opacity="0.996078431372549" d="M 122.5 175 L 123.5 177 L 122.5 175 Z " /><path fill="rgb(0,122,204)" stroke="rgb(0,122,204)" stroke-width="1" opacity="0.996078431372549" d="M 185.5 175 L 158.5 203 L 185.5 175 Z " /><path fill="rgb(0,122,204)" stroke="rgb(0,122,204)" stroke-width="1" opacity="0.996078431372549" d="M 126.5 178 L 127.5 180 L 126.5 178 Z " /><path fill="rgb(0,122,204)" stroke="rgb(0,122,204)" stroke-width="1" opacity="0.996078431372549" d="M 240.5 180 L 239.5 182 L 240.5 180 Z " /><path fill="rgb(0,122,204)" stroke="rgb(0,122,204)" stroke-width="1" opacity="0.996078431372549" d="M 130.5 181 L 131.5 183 L 130.5 181 Z " /><path fill="rgb(0,122,204)" stroke="rgb(0,122,204)" stroke-width="1" opacity="0.996078431372549" d="M 134.5 184 L 135.5 186 L 134.5 184 Z " /><path fill="rgb(0,122,204)" stroke="rgb(0,122,204)" stroke-width="1" opacity="0.996078431372549" d="M 143.5 191 L 144.5 193 L 143.5 191 Z " /><path fill="rgb(0,122,204)" stroke="rgb(0,122,204)" stroke-width="1" opacity="0.996078431372549" d="M 223.5 193 L 222.5 195 L 223.5 193 Z " /><path fill="rgb(0,122,204)" stroke="rgb(0,122,204)" stroke-width="1" opacity="0.996078431372549" d="M 219.5 196 L 218.5 198 L 219.5 196 Z " /><path fill="rgb(0,122,204)" stroke="rgb(0,122,204)" stroke-width="1" opacity="0.996078431372549" d="M 151.5 197 L 152.5 199 L 151.5 197 Z " /><path fill="rgb(0,122,204)" stroke="rgb(0,122,204)" stroke-width="1" opacity="0.996078431372549" d="M 215.5 199 L 214.5 201 L 215.5 199 Z " /><path fill="rgb(0,122,204)" stroke="rgb(0,122,204)" stroke-width="1" opacity="0.996078431372549" d="M 211.5 202 L 210.5 204 L 211.5 202 Z " /><path fill="rgb(0,122,204)" stroke="rgb(0,122,204)" stroke-width="1" opacity="0.996078431372549" d="M 207.5 205 L 206.5 207 L 207.5 205 Z " /><path fill="rgb(0,122,204)" stroke="rgb(0,122,204)" stroke-width="1" opacity="0.996078431372549" d="M 203.5 208 L 202.5 210 L 203.5 208 Z " /><path fill="rgb(0,122,204)" stroke="rgb(0,122,204)" stroke-width="1" opacity="0.996078431372549" d="M 199.5 211 L 198.5 213 L 199.5 211 Z " /><path fill="rgb(0,122,204)" stroke="rgb(0,122,204)" stroke-width="1" opacity="0.996078431372549" d="M 195.5 214 L 194.5 216 L 195.5 214 Z " /><path fill="rgb(0,122,204)" stroke="rgb(0,122,204)" stroke-width="1" opacity="0.996078431372549" d="M 191.5 217 L 190.5 219 L 191.5 217 Z " /><path fill="rgb(0,122,204)" stroke="rgb(0,122,204)" stroke-width="1" opacity="0.996078431372549" d="M 187.5 220 L 186 222.5 L 187.5 225 Q 182.5 222.5 187.5 220 Z " /><path fill="rgb(0,122,204)" stroke="rgb(0,122,204)" stroke-width="1" opacity="0.996078431372549" d="M 190.5 226 L 191.5 228 L 190.5 226 Z " /><path fill="rgb(0,122,204)" stroke="rgb(0,122,204)" stroke-width="1" opacity="0.996078431372549" d="M 194.5 229 L 195.5 231 L 194.5 229 Z " /><path fill="rgb(0,122,204)" stroke="rgb(0,122,204)" stroke-width="1" opacity="0.996078431372549" d="M 198.5 232 L 199.5 234 L 198.5 232 Z " /><path fill="rgb(0,122,204)" stroke="rgb(0,122,204)" stroke-width="1" opacity="0.996078431372549" d="M 207.5 239 L 208.5 241 L 207.5 239 Z " /><path fill="rgb(0,122,204)" stroke="rgb(0,122,204)" stroke-width="1" opacity="0.996078431372549" d="M 211.5 242 L 212.5 244 L 211.5 242 Z " /><path fill="rgb(0,122,204)" stroke="rgb(0,122,204)" stroke-width="1" opacity="0.996078431372549" d="M 159.5 243 L 197.5 282 L 159.5 243 Z " /><path fill="rgb(0,122,204)" stroke="rgb(0,122,204)" stroke-width="1" opacity="0.996078431372549" d="M 155.5 244 L 154.5 246 L 155.5 244 Z " /><path fill="rgb(0,122,204)" stroke="rgb(0,122,204)" stroke-width="1" opacity="0.996078431372549" d="M 215.5 245 L 216.5 247 L 215.5 245 Z " /><path fill="rgb(0,122,204)" stroke="rgb(0,122,204)" stroke-width="1" opacity="0.996078431372549" d="M 151.5 247 L 150.5 249 L 151.5 247 Z " /><path fill="rgb(0,122,204)" stroke="rgb(0,122,204)" stroke-width="1" opacity="0.996078431372549" d="M 219.5 248 L 220.5 250 L 219.5 248 Z " /><path fill="rgb(0,122,204)" stroke="rgb(0,122,204)" stroke-width="1" opacity="0.996078431372549" d="M 110.5 249 L 85.5 275 L 110.5 249 Z " /><path fill="rgb(0,122,204)" stroke="rgb(0,122,204)" stroke-width="1" opacity="0.996078431372549" d="M 223.5 251 L 224.5 253 L 223.5 251 Z " /><path fill="rgb(0,122,204)" stroke="rgb(0,122,204)" stroke-width="1" opacity="0.996078431372549" d="M 227.5 254 L 228.5 256 L 227.5 254 Z " /><path fill="rgb(0,122,204)" stroke="rgb(0,122,204)" stroke-width="1" opacity="0.996078431372549" d="M 231.5 257 L 232.5 259 L 231.5 257 Z " /><path fill="rgb(0,122,204)" stroke="rgb(0,122,204)" stroke-width="1" opacity="0.996078431372549" d="M 134.5 260 L 133.5 262 L 134.5 260 Z " /><path fill="rgb(0,122,204)" stroke="rgb(0,122,204)" stroke-width="1" opacity="0.996078431372549" d="M 235.5 260 L 236.5 262 L 235.5 260 Z " /><path fill="rgb(0,122,204)" stroke="rgb(0,122,204)" stroke-width="1" opacity="0.996078431372549" d="M 130.5 263 L 129.5 265 L 130.5 263 Z " /><path fill="rgb(0,122,204)" stroke="rgb(0,122,204)" stroke-width="1" opacity="0.996078431372549" d="M 126.5 266 L 125.5 268 L 126.5 266 Z " /><path fill="rgb(0,122,204)" stroke="rgb(0,122,204)" stroke-width="1" opacity="0.996078431372549" d="M 122.5 269 L 121.5 271 L 122.5 269 Z " /><path fill="rgb(0,122,204)" stroke="rgb(0,122,204)" stroke-width="1" opacity="0.996078431372549" d="M 118.5 272 L 117.5 274 L 118.5 272 Z " /><path fill="rgb(0,122,204)" stroke="rgb(0,122,204)" stroke-width="1" opacity="0.996078431372549" d="M 114.5 275 L 113.5 277 L 114.5 275 Z " /><path fill="rgb(0,122,204)" stroke="rgb(0,122,204)" stroke-width="1" opacity="0.996078431372549" d="M 110.5 278 L 109.5 280 L 110.5 278 Z " /><path fill="rgb(0,122,204)" stroke="rgb(0,122,204)" stroke-width="1" opacity="0.996078431372549" d="M 239.5 322 L 245.5 329 L 239.5 322 Z " /><path fill="rgb(0,122,204)" stroke="rgb(0,122,204)" stroke-width="1" opacity="0.996078431372549" d="M 75.5 346 Q 77.8 345.3 77 347.5 L 75 348.5 L 75.5 346 Z " /><path fill="rgb(0,122,204)" stroke="rgb(0,122,204)" stroke-width="1" opacity="1" d="M 345.5 61 L 439 100 L 439 399.5 L 437.5 401 L 343.5 439 L 70 346.5 L 74.5 346 Q 76 349.5 77.5 347 L 108.5 351 L 115.5 353 L 121.5 353 L 122.5 354 L 128.5 354 L 135.5 356 L 141.5 356 L 142.5 357 L 148.5 357 L 155.5 359 L 175.5 361 L 182.5 363 L 202.5 365 L 209.5 367 L 222.5 368 L 229.5 370 L 242.5 371 L 249.5 373 L 269.5 375 L 276.5 377 L 296.5 379 L 303.5 381 L 323.5 383 L 344.5 387 L 345.5 61 Z " /><path fill="rgb(0,122,204)" stroke="rgb(0,122,204)" stroke-width="1" opacity="1" d="M 245.5 117 L 297 138 L 297 306.5 L 295.5 307 L 245.5 328 L 159.5 243 L 157.5 243 L 106.5 282 L 104.5 282 L 86 276 L 86 274.5 L 138 222.5 L 86 170.5 L 87.5 169 L 105.5 163 L 158.5 203 L 245.5 117 Z M 246 177 L 185 223 L 246 268 L 246 177 Z " /><path fill="rgb(0,122,204)" stroke="rgb(0,122,204)" stroke-width="1" opacity="1" d="M 66.5 345 L 69 345.5 L 66.5 346 L 66.5 345 Z " /></svg>