<svg width="500" height="500" version="1.1" xmlns="http://www.w3.org/2000/svg" desc="Created with imagetracer.js version 1.2.6" ><path fill="rgb(97,236,126)" stroke="rgb(97,236,126)" stroke-width="1" opacity="0.4588235294117647" d="M 127.5 51 L 147 51.5 L 119.5 53 L 97.5 59 Q 80.3 67.3 69 81.5 Q 58.1 93.8 55 113 L 53 112.5 Q 59.9 85.4 78.5 70 Q 87.5 62 99.5 57 L 116.5 52 L 126.5 52 L 127.5 51 Z " /><path fill="rgb(97,236,126)" stroke="rgb(97,236,126)" stroke-width="1" opacity="0.4588235294117647" d="M 351.5 51 L 382.5 52 L 400.5 57 Q 416.7 64.3 428 76.5 Q 427.3 78.8 429.5 78 Q 442.4 91.1 446 113.5 L 445 113.5 Q 439.4 85.6 420.5 71 Q 408.4 60.1 390.5 55 L 379.5 53 L 371.5 53 L 370.5 52 L 351.5 52 L 351.5 51 Z " /><path fill="rgb(97,236,126)" stroke="rgb(97,236,126)" stroke-width="1" opacity="0.4588235294117647" d="M 247.5 105 L 260.5 105 L 261 107 Q 257.1 104.6 247.5 106 L 247.5 105 Z " /><path fill="rgb(97,236,126)" stroke="rgb(97,236,126)" stroke-width="1" opacity="0.4588235294117647" d="M 236.5 106 L 246 106.5 L 220.5 110 L 217.5 112 L 207.5 114 L 189.5 122 L 190.5 120 L 209.5 112 L 236.5 106 Z " /><path fill="rgb(97,236,126)" stroke="rgb(97,236,126)" stroke-width="1" opacity="0.4588235294117647" d="M 263.5 106 L 272.5 106 L 288 109.5 L 284.5 110 L 279.5 108 L 277.5 108 L 263.5 107 L 263.5 106 Z " /><path fill="rgb(97,236,126)" stroke="rgb(97,236,126)" stroke-width="1" opacity="0.4588235294117647" d="M 289.5 110 Q 323.4 118.1 345 138.5 L 343.5 138 L 319.5 122 L 301.5 114 L 289.5 111 L 289.5 110 Z " /><path fill="rgb(97,236,126)" stroke="rgb(97,236,126)" stroke-width="1" opacity="0.4588235294117647" d="M 53.5 114 L 54 116.5 L 53 116.5 L 53.5 114 Z " /><path fill="rgb(97,236,126)" stroke="rgb(97,236,126)" stroke-width="1" opacity="0.4588235294117647" d="M 446.5 115 L 449 124.5 L 449 146.5 L 450 147.5 L 450 217.5 L 449 217.5 L 449 147.5 L 448 146.5 L 448 132.5 L 447 131.5 L 446.5 115 Z " /><path fill="rgb(97,236,126)" stroke="rgb(97,236,126)" stroke-width="1" opacity="0.4588235294117647" d="M 52.5 118 L 53 127.5 L 52 128.5 L 51.5 168 L 51 148.5 L 50 145.5 L 51 144.5 L 51 126.5 L 52 125.5 L 52 123.5 L 52.5 118 Z " /><path fill="rgb(97,236,126)" stroke="rgb(97,236,126)" stroke-width="1" opacity="0.4588235294117647" d="M 187.5 122 L 185.5 125 L 175.5 130 L 163 139 L 161.5 142 L 159.5 143 L 164.5 137 L 187.5 122 Z " /><path fill="rgb(97,236,126)" stroke="rgb(97,236,126)" stroke-width="1" opacity="0.4588235294117647" d="M 248.5 129 L 262 129.5 L 248.5 130 L 248.5 129 Z " /><path fill="rgb(97,236,126)" stroke="rgb(97,236,126)" stroke-width="1" opacity="0.4588235294117647" d="M 234.5 130 L 237 130.5 L 235.5 132 L 222.5 134 L 222.5 133 L 234.5 130 Z " /><path fill="rgb(97,236,126)" stroke="rgb(97,236,126)" stroke-width="1" opacity="0.4588235294117647" d="M 239.5 130 L 242 130.5 L 239.5 131 L 239.5 130 Z " /><path fill="rgb(97,236,126)" stroke="rgb(97,236,126)" stroke-width="1" opacity="0.4588235294117647" d="M 267.5 130 L 270 130.5 L 267.5 131 L 267.5 130 Z " /><path fill="rgb(97,236,126)" stroke="rgb(97,236,126)" stroke-width="1" opacity="0.4588235294117647" d="M 272.5 130 L 278 131.5 L 273.5 132 L 272.5 130 Z " /><path fill="rgb(97,236,126)" stroke="rgb(97,236,126)" stroke-width="1" opacity="0.4588235294117647" d="M 279 131 L 283.5 133 L 285.5 133 Q 300.3 135.8 310 143.5 L 308.5 143 Q 296 135.3 279 133 L 279 131 Z " /><path fill="rgb(97,236,126)" stroke="rgb(97,236,126)" stroke-width="1" opacity="0.4588235294117647" d="M 219.5 134 L 221 134.5 L 201.5 142 Q 187.5 149 176.5 159 L 177.5 157 Q 194.6 141.6 219.5 134 Z " /><path fill="rgb(97,236,126)" stroke="rgb(97,236,126)" stroke-width="1" opacity="0.4588235294117647" d="M 346.5 139 L 362 155.5 L 358 152.5 L 356.5 150 Q 354.3 150.8 355 148.5 L 350 144.5 Q 350.8 142.3 348.5 143 Q 344.9 141.9 346.5 139 Z " /><path fill="rgb(97,236,126)" stroke="rgb(97,236,126)" stroke-width="1" opacity="0.4588235294117647" d="M 157.5 144 L 155.5 147 L 155 145 L 157.5 144 Z " /><path fill="rgb(97,236,126)" stroke="rgb(97,236,126)" stroke-width="1" opacity="0.4588235294117647" d="M 311.5 144 L 317 146 L 316.5 148 L 311.5 145 L 311.5 144 Z " /><path fill="rgb(97,236,126)" stroke="rgb(97,236,126)" stroke-width="1" opacity="0.4588235294117647" d="M 153.5 148 L 153 149.5 Q 153.8 151.8 151.5 151 L 150 154 L 146.5 156 L 151 150.5 Q 150.3 148.3 152.5 149 L 153.5 148 Z " /><path fill="rgb(97,236,126)" stroke="rgb(97,236,126)" stroke-width="1" opacity="0.4588235294117647" d="M 318.5 148 L 319.5 150 L 318.5 148 Z " /><path fill="rgb(97,236,126)" stroke="rgb(97,236,126)" stroke-width="1" opacity="0.4588235294117647" d="M 321.5 150 Q 323.8 149.3 323 151.5 L 323.5 153 L 321.5 150 Z " /><path fill="rgb(97,236,126)" stroke="rgb(97,236,126)" stroke-width="1" opacity="0.4588235294117647" d="M 144 157 L 146 157.5 L 141 161.5 L 144 157 Z " /><path fill="rgb(97,236,126)" stroke="rgb(97,236,126)" stroke-width="1" opacity="0.4588235294117647" d="M 363.5 157 L 365 159.5 L 364 159.5 L 363.5 157 Z " /><path fill="rgb(97,236,126)" stroke="rgb(97,236,126)" stroke-width="1" opacity="0.4588235294117647" d="M 333.5 159 L 337 163.5 L 333 160.5 L 333.5 159 Z " /><path fill="rgb(97,236,126)" stroke="rgb(97,236,126)" stroke-width="1" opacity="0.4588235294117647" d="M 174.5 160 L 172.5 163 L 174.5 160 Z " /><path fill="rgb(97,236,126)" stroke="rgb(97,236,126)" stroke-width="1" opacity="0.4588235294117647" d="M 367.5 162 L 371 167.5 L 369 166.5 L 367.5 162 Z " /><path fill="rgb(97,236,126)" stroke="rgb(97,236,126)" stroke-width="1" opacity="0.4588235294117647" d="M 140.5 163 L 140 164.5 L 139 168 L 137 167.5 L 140.5 163 Z " /><path fill="rgb(97,236,126)" stroke="rgb(97,236,126)" stroke-width="1" opacity="0.4588235294117647" d="M 338.5 165 L 342 167.5 L 340.5 168 L 338.5 165 Z " /><path fill="rgb(97,236,126)" stroke="rgb(97,236,126)" stroke-width="1" opacity="0.4588235294117647" d="M 136.5 169 L 137 170.5 L 134 172.5 L 136.5 169 Z " /><path fill="rgb(97,236,126)" stroke="rgb(97,236,126)" stroke-width="1" opacity="0.4588235294117647" d="M 166.5 169 L 165.5 171 Q 163.3 170.3 164 172.5 L 163 172.5 L 164.5 170 L 166.5 169 Z " /><path fill="rgb(97,236,126)" stroke="rgb(97,236,126)" stroke-width="1" opacity="0.4588235294117647" d="M 372.5 169 L 374 171.5 L 372 170.5 L 372.5 169 Z " /><path fill="rgb(97,236,126)" stroke="rgb(97,236,126)" stroke-width="1" opacity="0.4588235294117647" d="M 131.5 176 L 132 177.5 L 130 178.5 L 131.5 176 Z " /><path fill="rgb(97,236,126)" stroke="rgb(97,236,126)" stroke-width="1" opacity="0.4588235294117647" d="M 378.5 179 L 380 182.5 L 379 182.5 L 378.5 179 Z " /><path fill="rgb(97,236,126)" stroke="rgb(97,236,126)" stroke-width="1" opacity="0.4588235294117647" d="M 204.5 181 L 208 181.5 L 204.5 182 L 204.5 181 Z " /><path fill="rgb(97,236,126)" stroke="rgb(97,236,126)" stroke-width="1" opacity="0.4588235294117647" d="M 199.5 182 L 202 182.5 L 195 186.5 Q 195.8 188.8 193.5 188 L 191 189.5 L 199.5 182 Z " /><path fill="rgb(97,236,126)" stroke="rgb(97,236,126)" stroke-width="1" opacity="0.4588235294117647" d="M 212.5 182 L 216 182 L 216 184 Q 218.7 182.9 218 185.5 L 214.5 183 Q 211.5 183.5 212.5 182 Z " /><path fill="rgb(97,236,126)" stroke="rgb(97,236,126)" stroke-width="1" opacity="0.4588235294117647" d="M 381.5 185 L 383 188.5 L 382 188.5 L 381.5 185 Z " /><path fill="rgb(97,236,126)" stroke="rgb(97,236,126)" stroke-width="1" opacity="0.4588235294117647" d="M 126.5 186 L 127 187.5 L 125 188.5 L 126.5 186 Z " /><path fill="rgb(97,236,126)" stroke="rgb(97,236,126)" stroke-width="1" opacity="0.4588235294117647" d="M 220.5 193 Q 223.5 192.1 222 196.5 L 221 196.5 L 220.5 193 Z " /><path fill="rgb(97,236,126)" stroke="rgb(97,236,126)" stroke-width="1" opacity="0.4588235294117647" d="M 225.5 204 L 226.5 206 Q 223.7 206.7 225.5 204 Z " /><path fill="rgb(97,236,126)" stroke="rgb(97,236,126)" stroke-width="1" opacity="0.4588235294117647" d="M 117.5 210 L 118.5 212 Q 115.7 212.7 117.5 210 Z " /><path fill="rgb(97,236,126)" stroke="rgb(97,236,126)" stroke-width="1" opacity="0.4588235294117647" d="M 229.5 215 L 231 218.5 L 230 218.5 L 229.5 215 Z " /><path fill="rgb(97,236,126)" stroke="rgb(97,236,126)" stroke-width="1" opacity="0.4588235294117647" d="M 449.5 224 L 450 226.5 L 449 226.5 L 449.5 224 Z " /><path fill="rgb(97,236,126)" stroke="rgb(97,236,126)" stroke-width="1" opacity="0.4588235294117647" d="M 449.5 231 L 450 236.5 L 449 236.5 L 449.5 231 Z " /><path fill="rgb(91,248,119)" stroke="rgb(91,248,119)" stroke-width="1" opacity="0.996078431372549" d="M 147.5 51 L 351 51.5 L 147.5 52 L 147.5 51 Z " /><path fill="rgb(91,248,119)" stroke="rgb(91,248,119)" stroke-width="1" opacity="0.996078431372549" d="M 427.5 78 L 429.5 81 L 427.5 78 Z " /><path fill="rgb(91,248,119)" stroke="rgb(91,248,119)" stroke-width="1" opacity="0.996078431372549" d="M 243.5 105 L 247 105.5 L 243.5 106 L 243.5 105 Z " /><path fill="rgb(91,248,119)" stroke="rgb(91,248,119)" stroke-width="1" opacity="0.996078431372549" d="M 261.5 105 L 265 105.5 L 261.5 106 L 261.5 105 Z " /><path fill="rgb(91,248,119)" stroke="rgb(91,248,119)" stroke-width="1" opacity="0.996078431372549" d="M 56.5 106 L 58.5 106 L 228.5 106 L 229 108 L 226.5 107 L 218.5 110 L 216 109 L 215.5 111 L 212.5 110 L 212.5 112 L 205.5 114 L 204 113.5 L 203.5 115 L 201 114 L 200.5 116 L 199 115.5 Q 199.8 117.8 197.5 117 L 195 117.5 L 194.5 119 L 192 118 Q 193.1 120.7 190.5 120 L 186.5 123 L 185 122.5 L 184.5 124 L 183 123.5 Q 183.8 125.8 181.5 125 Q 179.7 128.1 178 126.5 L 176.5 129 L 175 128.5 L 173.5 131 L 168 133 L 165.5 137 L 164 136.5 L 156.5 145 L 155 145 L 155 147 L 153 147 L 153 149 Q 150.3 147.9 151 150.5 L 139.5 164 L 140 162.5 L 142 158 L 53.5 158 L 52.5 159 L 52 144.5 L 53 143.5 L 53 135.5 Q 50.5 134 52 128.5 Q 55.3 127.3 54 121.5 L 53 117.5 L 56 111.5 Q 53.5 110 57 108.5 L 56.5 106 Z " /><path fill="rgb(91,248,119)" stroke="rgb(91,248,119)" stroke-width="1" opacity="0.996078431372549" d="M 233.5 106 L 236 106.5 L 233.5 107 L 233.5 106 Z " /><path fill="rgb(91,248,119)" stroke="rgb(91,248,119)" stroke-width="1" opacity="0.996078431372549" d="M 273.5 106 L 276 106.5 L 273.5 107 L 273.5 106 Z " /><path fill="rgb(91,248,119)" stroke="rgb(91,248,119)" stroke-width="1" opacity="0.996078431372549" d="M 279.5 106 L 441.5 106 L 444 107.5 L 444 109.5 L 446 115.5 L 445 117.5 Q 447.6 118.9 447 123.5 Q 444.8 124.7 446 129.5 Q 450 133 448 142.5 L 447 147.5 L 448 148.5 L 448 161.5 L 447 161.5 L 446.5 158 L 366.5 158 L 366.5 160 L 348 140.5 L 348 139 L 345.5 139 L 338 132.5 L 337.5 131 Q 336.2 133.3 335 130.5 Q 335.7 127.5 332 129 L 332 127 L 329.5 127 L 326 124.5 L 325.5 123 L 324 123.5 L 323.5 122 L 321.5 122 Q 319.3 122.8 320 120.5 L 317.5 120 Q 315.3 120.8 316 118.5 L 314 118.5 L 313.5 117 L 311.5 117 L 307 116 L 306.5 114 L 305.5 115 L 303.5 113 L 302.5 114 Q 300.8 110.9 299 112.5 L 298.5 111 L 296 112 Q 297.1 109.3 294.5 110 L 293 110.5 Q 293.8 107.9 290.5 109 L 288.5 110 L 282.5 107 L 280.5 108 L 279.5 106 Z " /><path fill="rgb(91,248,119)" stroke="rgb(91,248,119)" stroke-width="1" opacity="0.996078431372549" d="M 242.5 130 L 261.5 130 L 262.5 131 L 266.5 130 L 267.5 131 L 278.5 132 L 280.5 134 L 282.5 133 L 285.5 135 L 287.5 135 L 291.5 137 L 293.5 137 L 297.5 139 L 299.5 139 L 313 145 L 313.5 147 Q 315 144.5 316.5 148 L 332 159.5 L 330.5 160 L 328.5 158 L 179 157.5 Q 180.2 154.3 184 155 L 186.5 151 L 191 150 L 192.5 147 L 194.5 146 L 196 146.5 Q 195.3 144.3 197.5 145 L 201.5 142 Q 203 144.5 204.5 141 L 210.5 138 L 211.5 139 L 216.5 136 L 227.5 133 Q 229 135.5 230.5 132 L 232.5 133 L 242.5 130 Z " /><path fill="rgb(91,248,119)" stroke="rgb(91,248,119)" stroke-width="1" opacity="0.996078431372549" d="M 176.5 159 L 178 159.5 L 176 160 L 173.5 164 L 170 166.5 Q 170.8 168.8 168.5 168 L 167 168.5 L 176.5 159 Z " /><path fill="rgb(91,248,119)" stroke="rgb(91,248,119)" stroke-width="1" opacity="0.996078431372549" d="M 367.5 161 Q 369.8 160.3 369 162.5 L 367.5 161 Z " /><path fill="rgb(91,248,119)" stroke="rgb(91,248,119)" stroke-width="1" opacity="0.996078431372549" d="M 337.5 164 L 345 172.5 L 337 165.5 L 337.5 164 Z " /><path fill="rgb(91,248,119)" stroke="rgb(91,248,119)" stroke-width="1" opacity="0.996078431372549" d="M 370.5 164 L 372 166.5 L 370 165.5 L 370.5 164 Z " /><path fill="rgb(91,248,119)" stroke="rgb(91,248,119)" stroke-width="1" opacity="0.996078431372549" d="M 372.5 168 L 376 172.5 L 374 171.5 L 372.5 168 Z " /><path fill="rgb(91,248,119)" stroke="rgb(91,248,119)" stroke-width="1" opacity="0.996078431372549" d="M 135.5 169 L 134 171.5 L 133.5 173 L 133 171.5 L 135.5 169 Z " /><path fill="rgb(91,248,119)" stroke="rgb(91,248,119)" stroke-width="1" opacity="0.996078431372549" d="M 164.5 172 L 162.5 175 L 164.5 172 Z " /><path fill="rgb(91,248,119)" stroke="rgb(91,248,119)" stroke-width="1" opacity="0.996078431372549" d="M 376.5 174 L 380 179.5 L 378 178.5 L 376.5 174 Z " /><path fill="rgb(91,248,119)" stroke="rgb(91,248,119)" stroke-width="1" opacity="0.996078431372549" d="M 346.5 175 L 347.5 177 L 346.5 175 Z " /><path fill="rgb(91,248,119)" stroke="rgb(91,248,119)" stroke-width="1" opacity="0.996078431372549" d="M 161.5 176 L 159.5 179 L 161.5 176 Z " /><path fill="rgb(91,248,119)" stroke="rgb(91,248,119)" stroke-width="1" opacity="0.996078431372549" d="M 130.5 177 L 130 178.5 L 129.5 180 L 129 178.5 L 130.5 177 Z " /><path fill="rgb(91,248,119)" stroke="rgb(91,248,119)" stroke-width="1" opacity="0.996078431372549" d="M 349.5 179 L 350.5 181 L 349.5 179 Z " /><path fill="rgb(91,248,119)" stroke="rgb(91,248,119)" stroke-width="1" opacity="0.996078431372549" d="M 158.5 180 L 157.5 182 L 158.5 180 Z " /><path fill="rgb(91,248,119)" stroke="rgb(91,248,119)" stroke-width="1" opacity="0.996078431372549" d="M 200.5 181 L 204 181.5 L 200.5 182 L 200.5 181 Z " /><path fill="rgb(91,248,119)" stroke="rgb(91,248,119)" stroke-width="1" opacity="0.996078431372549" d="M 351.5 182 L 352.5 184 L 351.5 182 Z " /><path fill="rgb(91,248,119)" stroke="rgb(91,248,119)" stroke-width="1" opacity="0.996078431372549" d="M 156.5 183 L 155.5 185 L 156.5 183 Z " /><path fill="rgb(91,248,119)" stroke="rgb(91,248,119)" stroke-width="1" opacity="0.996078431372549" d="M 196.5 183 L 191.5 189 L 196.5 183 Z " /><path fill="rgb(91,248,119)" stroke="rgb(91,248,119)" stroke-width="1" opacity="0.996078431372549" d="M 126.5 184 L 127 185.5 L 125.5 188 L 125 186.5 L 126.5 184 Z " /><path fill="rgb(91,248,119)" stroke="rgb(91,248,119)" stroke-width="1" opacity="0.996078431372549" d="M 153.5 188 L 153 189.5 L 151.5 192 L 152 190.5 L 153.5 188 Z " /><path fill="rgb(91,248,119)" stroke="rgb(91,248,119)" stroke-width="1" opacity="0.996078431372549" d="M 231.5 216 L 232 218.5 L 231 218.5 L 231.5 216 Z " /><path fill="rgb(92,249,120)" stroke="rgb(92,249,120)" stroke-width="1" opacity="1" d="M 129.5 52 L 369.5 52 L 370.5 53 L 385.5 54 L 401.5 59 Q 416.5 66.1 427 77.5 Q 437.9 89.1 443 106.5 L 441.5 106 L 279.5 106 L 276.5 107 L 275.5 106 L 265.5 106 L 264.5 105 L 243.5 105 L 242.5 106 L 229.5 107 L 228.5 106 L 58.5 106 L 56.5 109 L 56 107.5 Q 63.6 83.1 81.5 69 L 100.5 58 L 113.5 54 L 128.5 53 L 129.5 52 Z " /><path fill="rgb(92,249,120)" stroke="rgb(92,249,120)" stroke-width="1" opacity="1" d="M 290.5 109 L 293 109.5 L 290.5 110 L 290.5 109 Z " /><path fill="rgb(92,249,120)" stroke="rgb(92,249,120)" stroke-width="1" opacity="1" d="M 212.5 110 L 215 110.5 L 212.5 111 L 212.5 110 Z " /><path fill="rgb(92,249,120)" stroke="rgb(92,249,120)" stroke-width="1" opacity="1" d="M 53.5 121 L 54 126.5 L 53 126.5 L 53.5 121 Z " /><path fill="rgb(92,249,120)" stroke="rgb(92,249,120)" stroke-width="1" opacity="1" d="M 446.5 124 L 447 129.5 L 446 129.5 L 446.5 124 Z " /><path fill="rgb(92,249,120)" stroke="rgb(92,249,120)" stroke-width="1" opacity="1" d="M 52.5 135 L 53 143.5 L 52 143.5 L 52.5 135 Z " /><path fill="rgb(92,249,120)" stroke="rgb(92,249,120)" stroke-width="1" opacity="1" d="M 447.5 143 L 448 147.5 L 447 147.5 L 447.5 143 Z " /><path fill="rgb(80,221,106)" stroke="rgb(80,221,106)" stroke-width="1" opacity="0.47058823529411764" d="M 245.5 129 L 248 129.5 L 245.5 130 L 245.5 129 Z " /><path fill="rgb(80,221,106)" stroke="rgb(80,221,106)" stroke-width="1" opacity="0.47058823529411764" d="M 448.5 147 L 449 198.5 L 448 198.5 L 448.5 147 Z " /><path fill="rgb(80,221,106)" stroke="rgb(80,221,106)" stroke-width="1" opacity="0.47058823529411764" d="M 50.5 148 L 51 167.5 L 52 168.5 L 52 280.5 L 51 280.5 L 50.5 148 Z " /><path fill="rgb(80,221,106)" stroke="rgb(80,221,106)" stroke-width="1" opacity="0.47058823529411764" d="M 319.5 148 L 320.5 150 L 319.5 148 Z " /><path fill="rgb(80,221,106)" stroke="rgb(80,221,106)" stroke-width="1" opacity="0.47058823529411764" d="M 323.5 151 L 328 154.5 L 326.5 154 L 323.5 151 Z " /><path fill="rgb(80,221,106)" stroke="rgb(80,221,106)" stroke-width="1" opacity="0.47058823529411764" d="M 183.5 152 L 182.5 154 L 183.5 152 Z " /><path fill="rgb(80,221,106)" stroke="rgb(80,221,106)" stroke-width="1" opacity="0.47058823529411764" d="M 148.5 154 L 146.5 157 L 145 156.5 L 148.5 154 Z " /><path fill="rgb(80,221,106)" stroke="rgb(80,221,106)" stroke-width="1" opacity="0.47058823529411764" d="M 329.5 156 L 332 157 L 333 159.5 L 329.5 156 Z " /><path fill="rgb(80,221,106)" stroke="rgb(80,221,106)" stroke-width="1" opacity="0.47058823529411764" d="M 365.5 159 L 367 161.5 L 365 160.5 L 365.5 159 Z " /><path fill="rgb(80,221,106)" stroke="rgb(80,221,106)" stroke-width="1" opacity="0.47058823529411764" d="M 143.5 160 L 141.5 163 L 143.5 160 Z " /><path fill="rgb(80,221,106)" stroke="rgb(80,221,106)" stroke-width="1" opacity="0.47058823529411764" d="M 334.5 160 L 340.5 167 L 334.5 160 Z " /><path fill="rgb(80,221,106)" stroke="rgb(80,221,106)" stroke-width="1" opacity="0.47058823529411764" d="M 167.5 167 L 165.5 170 L 167.5 167 Z " /><path fill="rgb(80,221,106)" stroke="rgb(80,221,106)" stroke-width="1" opacity="0.47058823529411764" d="M 341.5 168 L 344 169.5 L 357 187.5 L 366 206.5 L 370 219.5 L 370 221.5 L 372 231.5 L 370 232 Q 368.4 210.9 360 195.5 Q 352.1 179.5 341.5 168 Z " /><path fill="rgb(80,221,106)" stroke="rgb(80,221,106)" stroke-width="1" opacity="0.47058823529411764" d="M 133.5 173 L 134 174.5 L 132 175.5 L 133.5 173 Z " /><path fill="rgb(80,221,106)" stroke="rgb(80,221,106)" stroke-width="1" opacity="0.47058823529411764" d="M 162.5 173 L 162 174.5 L 156.5 182 L 157 180.5 L 159 176 Q 161.7 177.1 161 174.5 L 162.5 173 Z " /><path fill="rgb(80,221,106)" stroke="rgb(80,221,106)" stroke-width="1" opacity="0.47058823529411764" d="M 375.5 175 Q 377.8 174.3 377 176.5 L 378 178.5 L 377 178.5 L 375.5 175 Z " /><path fill="rgb(80,221,106)" stroke="rgb(80,221,106)" stroke-width="1" opacity="0.47058823529411764" d="M 131.5 178 L 131 179.5 Q 131.8 181.8 129.5 181 L 131.5 178 Z " /><path fill="rgb(80,221,106)" stroke="rgb(80,221,106)" stroke-width="1" opacity="0.47058823529411764" d="M 380.5 182 L 382 184.5 L 380 185 L 380.5 182 Z " /><path fill="rgb(80,221,106)" stroke="rgb(80,221,106)" stroke-width="1" opacity="0.47058823529411764" d="M 155.5 183 L 155 184.5 L 145.5 203 L 145 201.5 L 155.5 183 Z " /><path fill="rgb(80,221,106)" stroke="rgb(80,221,106)" stroke-width="1" opacity="0.47058823529411764" d="M 127.5 184 L 128 186.5 L 127 186.5 L 127.5 184 Z " /><path fill="rgb(80,221,106)" stroke="rgb(80,221,106)" stroke-width="1" opacity="0.47058823529411764" d="M 217.5 186 Q 220.1 185.2 219 188.5 L 219.5 190 L 217.5 186 Z " /><path fill="rgb(80,221,106)" stroke="rgb(80,221,106)" stroke-width="1" opacity="0.47058823529411764" d="M 126.5 188 L 125 190.5 L 122.5 197 L 122 195.5 L 126.5 188 Z " /><path fill="rgb(80,221,106)" stroke="rgb(80,221,106)" stroke-width="1" opacity="0.47058823529411764" d="M 193.5 188 L 190 192.5 L 184 205.5 L 183 220.5 L 183.5 222 L 182 221.5 L 182 209.5 Q 183.5 200 188 193.5 L 193.5 188 Z " /><path fill="rgb(80,221,106)" stroke="rgb(80,221,106)" stroke-width="1" opacity="0.47058823529411764" d="M 384.5 191 Q 392.1 204.9 394 224.5 L 393 224.5 L 390 207.5 L 384.5 191 Z " /><path fill="rgb(80,221,106)" stroke="rgb(80,221,106)" stroke-width="1" opacity="0.47058823529411764" d="M 222.5 196 L 225 201.5 L 224 201.5 L 222.5 196 Z " /><path fill="rgb(80,221,106)" stroke="rgb(80,221,106)" stroke-width="1" opacity="0.47058823529411764" d="M 121.5 198 L 122 199.5 L 118.5 211 L 118 206.5 L 121.5 198 Z " /><path fill="rgb(80,221,106)" stroke="rgb(80,221,106)" stroke-width="1" opacity="0.47058823529411764" d="M 144.5 204 L 145 205.5 L 141.5 215 L 141 212.5 L 144.5 204 Z " /><path fill="rgb(80,221,106)" stroke="rgb(80,221,106)" stroke-width="1" opacity="0.47058823529411764" d="M 226.5 206 L 231 215.5 L 229 214.5 L 226.5 206 Z " /><path fill="rgb(80,221,106)" stroke="rgb(80,221,106)" stroke-width="1" opacity="0.47058823529411764" d="M 117.5 212 L 118 213.5 L 116.5 217 L 116 214.5 L 117.5 212 Z " /><path fill="rgb(80,221,106)" stroke="rgb(80,221,106)" stroke-width="1" opacity="0.47058823529411764" d="M 115.5 219 L 116 222.5 L 114 233.5 L 113.5 248 L 113 230.5 L 115.5 219 Z " /><path fill="rgb(80,221,106)" stroke="rgb(80,221,106)" stroke-width="1" opacity="0.47058823529411764" d="M 139.5 219 L 140 223.5 L 139 224.5 L 137.5 239 L 137 229.5 L 139.5 219 Z " /><path fill="rgb(80,221,106)" stroke="rgb(80,221,106)" stroke-width="1" opacity="0.47058823529411764" d="M 230.5 219 L 230 220.5 L 230 222.5 L 224.5 229 L 225 227.5 L 230.5 219 Z " /><path fill="rgb(80,221,106)" stroke="rgb(80,221,106)" stroke-width="1" opacity="0.47058823529411764" d="M 183.5 223 Q 185.8 224.8 185 229.5 L 184 229.5 L 183.5 223 Z " /><path fill="rgb(80,221,106)" stroke="rgb(80,221,106)" stroke-width="1" opacity="0.47058823529411764" d="M 394.5 226 L 396 233.5 L 396 260.5 L 395 260.5 L 395 234.5 L 394 233.5 L 394.5 226 Z " /><path fill="rgb(80,221,106)" stroke="rgb(80,221,106)" stroke-width="1" opacity="0.47058823529411764" d="M 222.5 230 L 223 231.5 L 220 233.5 L 222.5 230 Z " /><path fill="rgb(80,221,106)" stroke="rgb(80,221,106)" stroke-width="1" opacity="0.47058823529411764" d="M 371.5 234 L 372 245.5 L 373 246.5 L 372 247.5 L 371.5 256 L 371.5 234 Z " /><path fill="rgb(80,221,106)" stroke="rgb(80,221,106)" stroke-width="1" opacity="0.47058823529411764" d="M 221.5 242 L 225 246.5 L 222 244.5 L 221.5 242 Z " /><path fill="rgb(80,221,106)" stroke="rgb(80,221,106)" stroke-width="1" opacity="0.47058823529411764" d="M 192.5 246 L 193.5 248 L 192.5 246 Z " /><path fill="rgb(80,221,106)" stroke="rgb(80,221,106)" stroke-width="1" opacity="0.47058823529411764" d="M 194.5 249 L 195.5 251 L 194.5 249 Z " /><path fill="rgb(80,221,106)" stroke="rgb(80,221,106)" stroke-width="1" opacity="0.47058823529411764" d="M 113.5 252 L 114 261.5 L 115 262.5 L 113 263.5 L 113.5 252 Z " /><path fill="rgb(80,221,106)" stroke="rgb(80,221,106)" stroke-width="1" opacity="0.47058823529411764" d="M 229.5 253 L 231.5 256 L 229.5 253 Z " /><path fill="rgb(80,221,106)" stroke="rgb(80,221,106)" stroke-width="1" opacity="0.47058823529411764" d="M 138.5 264 L 139 266.5 L 138 266.5 L 138.5 264 Z " /><path fill="rgb(80,221,106)" stroke="rgb(80,221,106)" stroke-width="1" opacity="0.47058823529411764" d="M 206.5 265 L 208.5 268 L 206.5 265 Z " /><path fill="rgb(80,221,106)" stroke="rgb(80,221,106)" stroke-width="1" opacity="0.47058823529411764" d="M 241.5 265 L 242.5 267 L 241.5 265 Z " /><path fill="rgb(80,221,106)" stroke="rgb(80,221,106)" stroke-width="1" opacity="0.47058823529411764" d="M 287.5 265 L 286.5 267 L 287.5 265 Z " /><path fill="rgb(80,221,106)" stroke="rgb(80,221,106)" stroke-width="1" opacity="0.47058823529411764" d="M 246.5 269 L 247.5 271 L 246.5 269 Z " /><path fill="rgb(80,221,106)" stroke="rgb(80,221,106)" stroke-width="1" opacity="0.47058823529411764" d="M 284.5 269 L 283.5 271 L 284.5 269 Z " /><path fill="rgb(80,221,106)" stroke="rgb(80,221,106)" stroke-width="1" opacity="0.47058823529411764" d="M 139.5 270 L 140 272.5 L 139 272.5 L 139.5 270 Z " /><path fill="rgb(80,221,106)" stroke="rgb(80,221,106)" stroke-width="1" opacity="0.47058823529411764" d="M 213.5 273 L 222.5 283 L 213.5 273 Z " /><path fill="rgb(80,221,106)" stroke="rgb(80,221,106)" stroke-width="1" opacity="0.47058823529411764" d="M 281.5 273 L 279.5 276 L 281.5 273 Z " /><path fill="rgb(80,221,106)" stroke="rgb(80,221,106)" stroke-width="1" opacity="0.47058823529411764" d="M 276.5 279 L 275.5 281 L 276.5 279 Z " /><path fill="rgb(80,221,106)" stroke="rgb(80,221,106)" stroke-width="1" opacity="0.47058823529411764" d="M 324.5 279 L 325.5 281 L 324.5 279 Z " /><path fill="rgb(80,221,106)" stroke="rgb(80,221,106)" stroke-width="1" opacity="0.47058823529411764" d="M 270.5 282 L 273 282.5 L 270.5 283 L 270.5 282 Z " /><path fill="rgb(80,221,106)" stroke="rgb(80,221,106)" stroke-width="1" opacity="0.47058823529411764" d="M 229.5 288 L 230.5 290 L 229.5 288 Z " /><path fill="rgb(0,0,0)" stroke="rgb(0,0,0)" stroke-width="1" opacity="0" d="M 0 0 L 500 0 L 500 500 L 0 500 L 0 0 Z M 128 51 L 127 52 L 117 52 L 100 57 Q 88 62 79 70 Q 63 83 55 105 L 51 125 L 51 141 L 50 142 L 50 362 L 51 363 L 51 377 L 54 393 L 59 406 L 68 420 Q 79 434 97 442 L 117 448 L 142 449 L 143 450 L 364 450 L 365 449 L 376 449 L 393 446 L 406 441 L 422 430 Q 436 417 444 398 L 449 375 L 449 349 L 450 348 L 450 257 L 449 256 L 449 241 L 450 240 L 450 232 L 449 231 L 450 227 L 449 224 L 450 222 L 449 220 L 450 218 L 450 148 L 449 147 L 449 125 L 444 103 Q 439 88 430 78 Q 427 79 428 77 Q 417 64 401 57 L 388 53 L 373 52 L 372 51 L 128 51 Z " /><path fill="rgb(0,0,0)" stroke="rgb(0,0,0)" stroke-width="1" opacity="0" d="M 249.5 106 L 277.5 108 L 301.5 114 L 326.5 126 L 350 143 L 352.5 147 L 355 148.5 L 356.5 151 Q 358.8 150.3 358 152.5 Q 376 170.5 386 196.5 L 394 226.5 L 395 258.5 L 394 259.5 L 394 268.5 Q 390.5 275.5 390 285.5 L 383 304.5 Q 370.1 332.6 348.5 352 Q 328.6 369.6 301.5 380 L 279.5 386 L 261.5 387 L 260.5 388 L 248.5 388 L 247.5 387 L 237.5 387 L 236.5 386 L 224.5 385 L 220.5 383 L 209.5 381 L 190.5 373 L 188.5 371 L 183.5 371 L 113.5 390 L 113 388.5 L 119 369.5 L 120 361.5 L 124 351.5 L 124 346.5 L 128 337.5 L 128 331.5 L 132 322.5 L 132 315.5 L 124 301.5 L 116 275.5 L 115 260.5 L 114 259.5 L 114 234.5 L 115 233.5 L 116 218.5 Q 119.8 212.8 120 203.5 L 128 184.5 Q 137.6 165.6 151.5 151 Q 153.8 151.8 153 149.5 L 174.5 131 L 197.5 118 L 210.5 113 L 217.5 112 L 220.5 110 L 237.5 108 L 238.5 107 L 248.5 107 L 249.5 106 Z M 244 129 L 243 130 L 229 131 L 213 136 Q 193 143 179 156 Q 158 173 146 199 L 138 223 L 137 242 L 136 243 L 137 268 L 142 287 Q 145 290 146 297 L 157 315 L 153 326 L 153 330 L 151 333 L 145 358 Q 149 359 152 356 L 161 355 L 172 351 L 176 351 L 187 347 L 192 347 L 205 355 L 218 360 L 233 364 L 244 364 L 245 365 L 277 364 L 288 360 L 292 360 L 314 350 L 331 338 Q 350 322 362 298 L 370 275 L 372 264 L 372 254 L 373 253 L 372 231 L 365 204 Q 357 185 345 171 Q 326 148 297 136 L 274 130 Q 267 132 266 129 L 244 129 Z " /><path fill="rgb(0,0,0)" stroke="rgb(0,0,0)" stroke-width="1" opacity="0" d="M 203.5 182 Q 213.6 180.4 217 185.5 L 228 210.5 L 230 218.5 L 228 223.5 L 218 235.5 L 218 238.5 L 233 260 L 237 262.5 Q 236.3 264.8 238.5 264 Q 251.5 278 272.5 284 L 279 278.5 L 289.5 265 L 293.5 265 L 302.5 269 L 325 281.5 L 324 295.5 L 320 303 L 303.5 313 Q 295.6 315.6 283.5 314 L 254.5 304 L 242.5 297 Q 225.7 286.3 213 271.5 L 191 242.5 L 185 228.5 L 183 218.5 L 183 211.5 L 187 197.5 L 198.5 184 L 203.5 182 Z " /><path fill="rgb(75,236,104)" stroke="rgb(75,236,104)" stroke-width="1" opacity="0.996078431372549" d="M 209.5 181 L 212 181.5 L 209.5 182 L 209.5 181 Z " /><path fill="rgb(75,236,104)" stroke="rgb(75,236,104)" stroke-width="1" opacity="0.996078431372549" d="M 52 205 L 119 205.5 Q 115.8 207.3 116 212.5 L 116 216.5 L 114 223.5 L 114 229.5 L 112 234.5 L 113 235.5 L 113 257.5 L 112 257.5 L 111.5 254 L 52 254 L 52 205 Z " /><path fill="rgb(75,236,104)" stroke="rgb(75,236,104)" stroke-width="1" opacity="0.996078431372549" d="M 146.5 205 L 181.5 205 L 182 206.5 L 183 208.5 L 181 216.5 L 183 223.5 Q 180.5 225 184 226.5 L 183 228.5 L 188 237.5 L 187.5 239 L 189 239.5 L 188.5 241 Q 190.8 240.3 190 242.5 L 202 259.5 L 199 257.5 L 196.5 254 L 138.5 254 Q 137.5 254 138 249.5 Q 135.7 248.2 137 243.5 L 138 240.5 L 138 238.5 Q 137.1 230.1 140 225.5 Q 137.5 224 141 222.5 L 140 218.5 L 143 213.5 L 142.5 212 Q 145.1 212.8 144 209.5 L 146.5 205 Z " /><path fill="rgb(75,236,104)" stroke="rgb(75,236,104)" stroke-width="1" opacity="0.996078431372549" d="M 228 205 L 362.5 205 Q 361.9 207.8 365 207 L 365 209.5 L 367 213.5 L 366 215.5 L 369 221.5 L 371 236.5 L 371 238.5 L 370.5 260 L 370 254 L 232 254.5 L 238.5 262 Q 240.8 261.3 240 263.5 L 232 256.5 L 227 250.5 L 227.5 249 L 225 247.5 L 219 235.5 L 223 232.5 Q 222.5 227.5 226.5 227 Q 229.1 227.8 228 224.5 L 232 219.5 L 232 215.5 L 227 207.5 L 228 205 Z " /><path fill="rgb(75,236,104)" stroke="rgb(75,236,104)" stroke-width="1" opacity="0.996078431372549" d="M 391.5 205 L 448 205 L 448 273.5 L 447 273.5 L 447 254 L 397 254 L 396.5 256 L 396 254.5 L 396 252.5 L 396 241.5 L 397 240.5 L 394 223.5 L 394 221.5 L 393 219.5 L 393 217.5 L 392 214.5 L 393 212.5 L 390 206.5 L 391.5 205 Z " /><path fill="rgb(75,236,104)" stroke="rgb(75,236,104)" stroke-width="1" opacity="0.996078431372549" d="M 138.5 261 L 139 263.5 L 138 263.5 L 138.5 261 Z " /><path fill="rgb(75,236,104)" stroke="rgb(75,236,104)" stroke-width="1" opacity="0.996078431372549" d="M 202.5 261 L 205.5 265 L 202.5 261 Z " /><path fill="rgb(75,236,104)" stroke="rgb(75,236,104)" stroke-width="1" opacity="0.996078431372549" d="M 395.5 261 L 396 263.5 L 395 263.5 L 395.5 261 Z " /><path fill="rgb(75,236,104)" stroke="rgb(75,236,104)" stroke-width="1" opacity="0.996078431372549" d="M 113.5 264 L 114 267.5 L 113 267.5 L 113.5 264 Z " /><path fill="rgb(75,236,104)" stroke="rgb(75,236,104)" stroke-width="1" opacity="0.996078431372549" d="M 293.5 264 L 298 265.5 L 296.5 266 L 293.5 265 L 293.5 264 Z " /><path fill="rgb(75,236,104)" stroke="rgb(75,236,104)" stroke-width="1" opacity="0.996078431372549" d="M 242.5 265 L 244.5 268 L 242.5 265 Z " /><path fill="rgb(75,236,104)" stroke="rgb(75,236,104)" stroke-width="1" opacity="0.996078431372549" d="M 207.5 267 L 212.5 273 L 207.5 267 Z " /><path fill="rgb(75,236,104)" stroke="rgb(75,236,104)" stroke-width="1" opacity="0.996078431372549" d="M 285.5 267 L 283.5 270 L 285.5 267 Z " /><path fill="rgb(75,236,104)" stroke="rgb(75,236,104)" stroke-width="1" opacity="0.996078431372549" d="M 305.5 269 L 310 271.5 L 308.5 271 Q 304.8 270.8 305.5 269 Z " /><path fill="rgb(75,236,104)" stroke="rgb(75,236,104)" stroke-width="1" opacity="0.996078431372549" d="M 368.5 270 L 369 272.5 L 368 272.5 L 368.5 270 Z " /><path fill="rgb(75,236,104)" stroke="rgb(75,236,104)" stroke-width="1" opacity="0.996078431372549" d="M 140.5 271 L 141 274.5 L 140 274.5 L 140.5 271 Z " /><path fill="rgb(75,236,104)" stroke="rgb(75,236,104)" stroke-width="1" opacity="0.996078431372549" d="M 282.5 271 L 279.5 275 L 282.5 271 Z " /><path fill="rgb(75,236,104)" stroke="rgb(75,236,104)" stroke-width="1" opacity="0.996078431372549" d="M 253.5 273 L 257 275.5 L 255.5 275 L 253.5 273 Z " /><path fill="rgb(75,236,104)" stroke="rgb(75,236,104)" stroke-width="1" opacity="0.996078431372549" d="M 313.5 273 L 316 274.5 L 314.5 274 L 313.5 273 Z " /><path fill="rgb(75,236,104)" stroke="rgb(75,236,104)" stroke-width="1" opacity="0.996078431372549" d="M 213.5 274 L 214.5 276 L 213.5 274 Z " /><path fill="rgb(75,236,104)" stroke="rgb(75,236,104)" stroke-width="1" opacity="0.996078431372549" d="M 278.5 276 L 274.5 281 L 278.5 276 Z " /><path fill="rgb(75,236,104)" stroke="rgb(75,236,104)" stroke-width="1" opacity="0.996078431372549" d="M 216.5 277 L 218.5 280 L 216.5 277 Z " /><path fill="rgb(75,236,104)" stroke="rgb(75,236,104)" stroke-width="1" opacity="0.996078431372549" d="M 322.5 277 L 327 280.5 L 326.5 283 L 324.5 279 L 322.5 277 Z " /><path fill="rgb(75,236,104)" stroke="rgb(75,236,104)" stroke-width="1" opacity="0.996078431372549" d="M 262.5 278 L 265 279.5 L 263.5 279 L 262.5 278 Z " /><path fill="rgb(75,236,104)" stroke="rgb(75,236,104)" stroke-width="1" opacity="0.996078431372549" d="M 116.5 280 L 117 283.5 L 116 283.5 L 116.5 280 Z " /><path fill="rgb(75,236,104)" stroke="rgb(75,236,104)" stroke-width="1" opacity="0.996078431372549" d="M 225.5 285 L 227.5 288 L 225.5 285 Z " /><path fill="rgb(75,236,104)" stroke="rgb(75,236,104)" stroke-width="1" opacity="0.996078431372549" d="M 326.5 285 L 327 289.5 L 326 289.5 L 326.5 285 Z " /><path fill="rgb(75,236,104)" stroke="rgb(75,236,104)" stroke-width="1" opacity="0.996078431372549" d="M 156.5 311 L 158 313.5 L 157 313.5 L 156.5 311 Z " /><path fill="rgb(76,237,105)" stroke="rgb(76,237,105)" stroke-width="1" opacity="1" d="M 53.5 158 L 141.5 158 L 142 159.5 L 133 171.5 L 133 174.5 L 129 178.5 L 129 181.5 L 126 184.5 L 120 198.5 L 119 205 L 52 205 L 52 159.5 L 53.5 158 Z " /><path fill="rgb(76,237,105)" stroke="rgb(76,237,105)" stroke-width="1" opacity="1" d="M 179.5 158 L 328.5 158 Q 329.6 160.8 333 160 L 335.5 164 Q 337.8 163.3 337 165.5 Q 354.9 180.9 363 205 L 228.5 205 L 227.5 206 L 218 183 L 213.5 181 L 211.5 181 L 200.5 181 L 191 188.5 L 185 197.5 L 182.5 207 L 182 205 L 146.5 205 L 145.5 206 L 145 204.5 L 154 186.5 L 168.5 168 Q 170.8 168.8 170 166.5 L 176 161.5 Q 175.3 159.3 177.5 160 L 179.5 158 Z " /><path fill="rgb(76,237,105)" stroke="rgb(76,237,105)" stroke-width="1" opacity="1" d="M 366.5 158 L 446.5 158 L 447 161.5 L 448 162.5 L 448 205 L 391.5 205 L 390.5 206 L 384 187.5 L 369 161 Q 366.3 162.1 367 159.5 L 366.5 158 Z " /><path fill="rgb(76,237,105)" stroke="rgb(76,237,105)" stroke-width="1" opacity="1" d="M 181.5 214 L 182 216.5 L 181 216.5 L 181.5 214 Z " /><path fill="rgb(76,237,105)" stroke="rgb(76,237,105)" stroke-width="1" opacity="1" d="M 112.5 232 L 113 234.5 L 112 234.5 L 112.5 232 Z " /><path fill="rgb(76,237,105)" stroke="rgb(76,237,105)" stroke-width="1" opacity="1" d="M 222.5 232 L 221.5 234 L 222.5 232 Z " /><path fill="rgb(76,237,105)" stroke="rgb(76,237,105)" stroke-width="1" opacity="1" d="M 112.5 258 L 113 260.5 L 112 260.5 L 112.5 258 Z " /><path fill="rgb(65,200,89)" stroke="rgb(65,200,89)" stroke-width="1" opacity="0.3843137254901961" d="M 167.5 136 L 166.5 138 L 167.5 136 Z " /><path fill="rgb(65,200,89)" stroke="rgb(65,200,89)" stroke-width="1" opacity="0.3843137254901961" d="M 50.5 141 L 51 144.5 L 50 144.5 L 50.5 141 Z " /><path fill="rgb(65,200,89)" stroke="rgb(65,200,89)" stroke-width="1" opacity="0.3843137254901961" d="M 354.5 184 L 355.5 186 L 354.5 184 Z " /><path fill="rgb(65,200,89)" stroke="rgb(65,200,89)" stroke-width="1" opacity="0.3843137254901961" d="M 448.5 199 L 449 339.5 L 448 339.5 L 448.5 199 Z " /><path fill="rgb(65,200,89)" stroke="rgb(65,200,89)" stroke-width="1" opacity="0.3843137254901961" d="M 50.5 210 L 51 280.5 L 52 281.5 L 52 353.5 L 51 353.5 L 51 321.5 L 50 317.5 L 51 314.5 L 50 313.5 L 50.5 210 Z " /><path fill="rgb(65,200,89)" stroke="rgb(65,200,89)" stroke-width="1" opacity="0.3843137254901961" d="M 185.5 229 L 189 237.5 L 188 237.5 L 185.5 229 Z " /><path fill="rgb(65,200,89)" stroke="rgb(65,200,89)" stroke-width="1" opacity="0.3843137254901961" d="M 219.5 234 L 219 235.5 L 218.5 238 L 218 235.5 L 219.5 234 Z " /><path fill="rgb(65,200,89)" stroke="rgb(65,200,89)" stroke-width="1" opacity="0.3843137254901961" d="M 189.5 239 L 191 241.5 L 190 241.5 L 189.5 239 Z " /><path fill="rgb(65,200,89)" stroke="rgb(65,200,89)" stroke-width="1" opacity="0.3843137254901961" d="M 136.5 242 L 137 251.5 L 136 251.5 L 136.5 242 Z " /><path fill="rgb(65,200,89)" stroke="rgb(65,200,89)" stroke-width="1" opacity="0.3843137254901961" d="M 372.5 242 L 373 245.5 L 372 245.5 L 372.5 242 Z " /><path fill="rgb(65,200,89)" stroke="rgb(65,200,89)" stroke-width="1" opacity="0.3843137254901961" d="M 191.5 243 Q 205.8 266.2 225.5 284 Q 227.8 283.3 227 285.5 Q 242.2 299.3 263 307.5 L 261.5 308 Q 229.5 294 209 268.5 Q 198.1 256.7 191.5 243 Z " /><path fill="rgb(65,200,89)" stroke="rgb(65,200,89)" stroke-width="1" opacity="0.3843137254901961" d="M 222.5 245 L 242.5 267 Q 254.1 276.9 270 282.5 L 268.5 283 L 253.5 276 L 237 264 L 234.5 260 Q 232.3 260.8 233 258.5 L 222.5 245 Z " /><path fill="rgb(65,200,89)" stroke="rgb(65,200,89)" stroke-width="1" opacity="0.3843137254901961" d="M 372.5 247 L 373 251.5 L 372 251.5 L 372.5 247 Z " /><path fill="rgb(65,200,89)" stroke="rgb(65,200,89)" stroke-width="1" opacity="0.3843137254901961" d="M 371.5 256 L 372 262.5 L 371 262.5 L 371.5 256 Z " /><path fill="rgb(65,200,89)" stroke="rgb(65,200,89)" stroke-width="1" opacity="0.3843137254901961" d="M 137.5 258 L 139 271.5 L 138 271.5 L 137.5 258 Z " /><path fill="rgb(65,200,89)" stroke="rgb(65,200,89)" stroke-width="1" opacity="0.3843137254901961" d="M 394.5 259 L 395 265.5 L 394 265.5 L 394.5 259 Z " /><path fill="rgb(65,200,89)" stroke="rgb(65,200,89)" stroke-width="1" opacity="0.3843137254901961" d="M 114.5 263 L 115 268.5 L 114 268.5 L 114.5 263 Z " /><path fill="rgb(65,200,89)" stroke="rgb(65,200,89)" stroke-width="1" opacity="0.3843137254901961" d="M 289.5 264 L 293 264.5 Q 288.3 264.3 287 267.5 L 274.5 283 L 273 282.5 L 277 279.5 L 289.5 264 Z " /><path fill="rgb(65,200,89)" stroke="rgb(65,200,89)" stroke-width="1" opacity="0.3843137254901961" d="M 370.5 264 L 371 269.5 L 368.5 278 L 368 275.5 L 370.5 264 Z " /><path fill="rgb(65,200,89)" stroke="rgb(65,200,89)" stroke-width="1" opacity="0.3843137254901961" d="M 296.5 266 L 302 268.5 L 300.5 269 L 296.5 267 L 296.5 266 Z " /><path fill="rgb(65,200,89)" stroke="rgb(65,200,89)" stroke-width="1" opacity="0.3843137254901961" d="M 303.5 269 L 322.5 278 L 326 281.5 L 325.5 290 L 325 281.5 L 322.5 279 L 304.5 271 L 303.5 269 Z " /><path fill="rgb(65,200,89)" stroke="rgb(65,200,89)" stroke-width="1" opacity="0.3843137254901961" d="M 393.5 269 L 394 271.5 L 393 271.5 L 393.5 269 Z " /><path fill="rgb(65,200,89)" stroke="rgb(65,200,89)" stroke-width="1" opacity="0.3843137254901961" d="M 115.5 270 L 116 274.5 L 115 274.5 L 115.5 270 Z " /><path fill="rgb(65,200,89)" stroke="rgb(65,200,89)" stroke-width="1" opacity="0.3843137254901961" d="M 392.5 273 L 393 276.5 L 392 276.5 L 392.5 273 Z " /><path fill="rgb(65,200,89)" stroke="rgb(65,200,89)" stroke-width="1" opacity="0.3843137254901961" d="M 116.5 276 L 117 278.5 L 116 278.5 L 116.5 276 Z " /><path fill="rgb(65,200,89)" stroke="rgb(65,200,89)" stroke-width="1" opacity="0.3843137254901961" d="M 391.5 278 L 392 280.5 L 391 280.5 L 391.5 278 Z " /><path fill="rgb(65,200,89)" stroke="rgb(65,200,89)" stroke-width="1" opacity="0.3843137254901961" d="M 141.5 279 L 146 292.5 L 145 292.5 Q 140.8 287.3 141.5 279 Z " /><path fill="rgb(65,200,89)" stroke="rgb(65,200,89)" stroke-width="1" opacity="0.3843137254901961" d="M 367.5 279 L 368 280.5 L 361 299.5 L 352 312.5 L 352 315 L 349.5 316 L 351 313.5 Q 361.8 298.8 367.5 279 Z " /><path fill="rgb(65,200,89)" stroke="rgb(65,200,89)" stroke-width="1" opacity="0.3843137254901961" d="M 117.5 280 L 124 301.5 L 129 311.5 L 127 310.5 L 119 290.5 L 117.5 280 Z " /><path fill="rgb(65,200,89)" stroke="rgb(65,200,89)" stroke-width="1" opacity="0.3843137254901961" d="M 390.5 282 L 391 284.5 L 390 284.5 L 390.5 282 Z " /><path fill="rgb(65,200,89)" stroke="rgb(65,200,89)" stroke-width="1" opacity="0.3843137254901961" d="M 389.5 286 L 390 288.5 L 386.5 297 L 386 295.5 L 389.5 286 Z " /><path fill="rgb(65,200,89)" stroke="rgb(65,200,89)" stroke-width="1" opacity="0.3843137254901961" d="M 324.5 291 L 325 294.5 L 324 294.5 L 324.5 291 Z " /><path fill="rgb(65,200,89)" stroke="rgb(65,200,89)" stroke-width="1" opacity="0.3843137254901961" d="M 146.5 294 L 157 313.5 L 155 312.5 L 146 295.5 L 146.5 294 Z " /><path fill="rgb(65,200,89)" stroke="rgb(65,200,89)" stroke-width="1" opacity="0.3843137254901961" d="M 323.5 296 L 324 297.5 L 317.5 306 L 303.5 314 L 293.5 315 L 293.5 314 L 303.5 313 L 320 302.5 L 323.5 296 Z " /><path fill="rgb(65,200,89)" stroke="rgb(65,200,89)" stroke-width="1" opacity="0.3843137254901961" d="M 385.5 298 L 386 299.5 Q 382.3 311.3 375.5 320 L 376 318.5 L 385.5 298 Z " /><path fill="rgb(65,200,89)" stroke="rgb(65,200,89)" stroke-width="1" opacity="0.3843137254901961" d="M 264.5 308 L 281 313.5 L 278.5 314 L 266.5 310 L 264.5 308 Z " /><path fill="rgb(65,200,89)" stroke="rgb(65,200,89)" stroke-width="1" opacity="0.3843137254901961" d="M 129.5 313 Q 133.5 314.5 132 321.5 L 129.5 327 L 129 325.5 Q 131.6 322.6 131 316.5 L 129.5 313 Z " /><path fill="rgb(65,200,89)" stroke="rgb(65,200,89)" stroke-width="1" opacity="0.3843137254901961" d="M 282.5 313 L 288 314.5 L 282 315 L 282.5 313 Z " /><path fill="rgb(65,200,89)" stroke="rgb(65,200,89)" stroke-width="1" opacity="0.3843137254901961" d="M 289.5 314 L 292 314.5 L 289.5 315 L 289.5 314 Z " /><path fill="rgb(65,200,89)" stroke="rgb(65,200,89)" stroke-width="1" opacity="0.3843137254901961" d="M 156.5 315 L 157 317.5 L 154.5 326 L 154 322.5 L 156.5 315 Z " /><path fill="rgb(65,200,89)" stroke="rgb(65,200,89)" stroke-width="1" opacity="0.3843137254901961" d="M 348.5 317 L 348 318.5 Q 348.8 320.8 346.5 320 L 348.5 317 Z " /><path fill="rgb(65,200,89)" stroke="rgb(65,200,89)" stroke-width="1" opacity="0.3843137254901961" d="M 345.5 321 L 345 322.5 L 341 327.5 L 338 329.5 L 345.5 321 Z " /><path fill="rgb(65,200,89)" stroke="rgb(65,200,89)" stroke-width="1" opacity="0.3843137254901961" d="M 374.5 321 L 374 322.5 L 363.5 337 L 364 335.5 L 366 332.5 L 374.5 321 Z " /><path fill="rgb(65,200,89)" stroke="rgb(65,200,89)" stroke-width="1" opacity="0.3843137254901961" d="M 152.5 330 L 153 332.5 L 149.5 342 L 150 340.5 L 152.5 330 Z " /><path fill="rgb(65,200,89)" stroke="rgb(65,200,89)" stroke-width="1" opacity="0.3843137254901961" d="M 335.5 331 L 337 331.5 L 328.5 339 L 335.5 331 Z " /><path fill="rgb(65,200,89)" stroke="rgb(65,200,89)" stroke-width="1" opacity="0.3843137254901961" d="M 126.5 335 L 128 337.5 L 125.5 343 L 125 339.5 L 126.5 335 Z " /><path fill="rgb(65,200,89)" stroke="rgb(65,200,89)" stroke-width="1" opacity="0.3843137254901961" d="M 326.5 339 L 327 340.5 L 316.5 347 L 316.5 346 L 326.5 339 Z " /><path fill="rgb(65,200,89)" stroke="rgb(65,200,89)" stroke-width="1" opacity="0.3843137254901961" d="M 360.5 339 L 361 340.5 L 358 342.5 L 360.5 339 Z " /><path fill="rgb(65,200,89)" stroke="rgb(65,200,89)" stroke-width="1" opacity="0.3843137254901961" d="M 148.5 345 L 149 347.5 L 146 357 L 149.5 356 L 149.5 357 L 146.5 358 L 145 355.5 L 148.5 345 Z " /><path fill="rgb(65,200,89)" stroke="rgb(65,200,89)" stroke-width="1" opacity="0.3843137254901961" d="M 189.5 345 L 192 346.5 L 186.5 347 L 186.5 346 L 189.5 345 Z " /><path fill="rgb(65,200,89)" stroke="rgb(65,200,89)" stroke-width="1" opacity="0.3843137254901961" d="M 178.5 348 L 181 348.5 L 170.5 352 L 170 350 L 178.5 348 Z " /><path fill="rgb(65,200,89)" stroke="rgb(65,200,89)" stroke-width="1" opacity="0.3843137254901961" d="M 313.5 348 L 315 348.5 L 309.5 351 L 309.5 350 L 313.5 348 Z " /><path fill="rgb(65,200,89)" stroke="rgb(65,200,89)" stroke-width="1" opacity="0.3843137254901961" d="M 195.5 349 L 199 350.5 L 196.5 351 L 195.5 349 Z " /><path fill="rgb(65,200,89)" stroke="rgb(65,200,89)" stroke-width="1" opacity="0.3843137254901961" d="M 122.5 350 L 123 352.5 L 122 352.5 L 122.5 350 Z " /><path fill="rgb(65,200,89)" stroke="rgb(65,200,89)" stroke-width="1" opacity="0.3843137254901961" d="M 163.5 352 L 165 352.5 L 155.5 356 L 155 354 L 163.5 352 Z " /><path fill="rgb(65,200,89)" stroke="rgb(65,200,89)" stroke-width="1" opacity="0.3843137254901961" d="M 202.5 352 L 208 354.5 L 205.5 355 L 202.5 352 Z " /><path fill="rgb(65,200,89)" stroke="rgb(65,200,89)" stroke-width="1" opacity="0.3843137254901961" d="M 306.5 352 L 304.5 355 L 301.5 356 L 301 354 L 306.5 352 Z " /><path fill="rgb(65,200,89)" stroke="rgb(65,200,89)" stroke-width="1" opacity="0.3843137254901961" d="M 121 354 L 123 354.5 L 121.5 357 L 121 354 Z " /><path fill="rgb(65,200,89)" stroke="rgb(65,200,89)" stroke-width="1" opacity="0.3843137254901961" d="M 299.5 355 L 298.5 357 L 288.5 360 L 288.5 359 L 299.5 355 Z " /><path fill="rgb(65,200,89)" stroke="rgb(65,200,89)" stroke-width="1" opacity="0.3843137254901961" d="M 213.5 357 L 218 358.5 L 215.5 359 L 213.5 357 Z " /><path fill="rgb(65,200,89)" stroke="rgb(65,200,89)" stroke-width="1" opacity="0.3843137254901961" d="M 342.5 357 L 341.5 359 L 342.5 357 Z " /><path fill="rgb(65,200,89)" stroke="rgb(65,200,89)" stroke-width="1" opacity="0.3843137254901961" d="M 226.5 361 L 241 363.5 L 233.5 364 L 226.5 362 L 226.5 361 Z " /><path fill="rgb(65,200,89)" stroke="rgb(65,200,89)" stroke-width="1" opacity="0.3843137254901961" d="M 280.5 361 L 284 361.5 L 271.5 364 L 271.5 363 L 280.5 361 Z " /><path fill="rgb(65,200,89)" stroke="rgb(65,200,89)" stroke-width="1" opacity="0.3843137254901961" d="M 267.5 363 L 270 363.5 L 267.5 364 L 267.5 363 Z " /><path fill="rgb(65,200,89)" stroke="rgb(65,200,89)" stroke-width="1" opacity="0.3843137254901961" d="M 118.5 364 Q 121.3 365.3 119 366.5 L 118 373 L 116 372.5 L 118.5 364 Z " /><path fill="rgb(65,200,89)" stroke="rgb(65,200,89)" stroke-width="1" opacity="0.3843137254901961" d="M 248.5 364 L 261 364.5 L 248.5 365 L 248.5 364 Z " /><path fill="rgb(65,200,89)" stroke="rgb(65,200,89)" stroke-width="1" opacity="0.3843137254901961" d="M 447.5 369 L 449 372.5 L 448.5 375 Q 445.6 373.6 447.5 369 Z " /><path fill="rgb(65,200,89)" stroke="rgb(65,200,89)" stroke-width="1" opacity="0.3843137254901961" d="M 52.5 373 L 53 379.5 L 52 379.5 L 52.5 373 Z " /><path fill="rgb(65,200,89)" stroke="rgb(65,200,89)" stroke-width="1" opacity="0.3843137254901961" d="M 158.5 378 L 161 378.5 L 158.5 379 L 158.5 378 Z " /><path fill="rgb(65,200,89)" stroke="rgb(65,200,89)" stroke-width="1" opacity="0.3843137254901961" d="M 143.5 382 L 146 382.5 L 143.5 383 L 143.5 382 Z " /><path fill="rgb(65,200,89)" stroke="rgb(65,200,89)" stroke-width="1" opacity="0.3843137254901961" d="M 113 383 L 115 383.5 L 113 384.5 L 113 383 Z " /><path fill="rgb(65,200,89)" stroke="rgb(65,200,89)" stroke-width="1" opacity="0.3843137254901961" d="M 247.5 387 L 248.5 388 L 260.5 388 L 262.5 388 L 265 388.5 L 244.5 389 L 244.5 388 L 247.5 387 Z " /><path fill="rgb(65,200,89)" stroke="rgb(65,200,89)" stroke-width="1" opacity="0.3843137254901961" d="M 270.5 387 L 274 387.5 L 270.5 388 L 270.5 387 Z " /><path fill="rgb(65,200,89)" stroke="rgb(65,200,89)" stroke-width="1" opacity="0.3843137254901961" d="M 159.5 449 L 355 449.5 L 159.5 450 L 159.5 449 Z " /><path fill="rgb(57,222,87)" stroke="rgb(57,222,87)" stroke-width="1" opacity="0.996078431372549" d="M 223.5 283 L 224.5 285 L 223.5 283 Z " /><path fill="rgb(57,222,87)" stroke="rgb(57,222,87)" stroke-width="1" opacity="0.996078431372549" d="M 238.5 295 L 239.5 297 L 238.5 295 Z " /><path fill="rgb(57,222,87)" stroke="rgb(57,222,87)" stroke-width="1" opacity="0.996078431372549" d="M 123.5 302 L 125 304.5 L 124 306.5 L 126 306.5 L 125 308.5 Q 130.4 311.3 128.5 314 L 130 314.5 L 129.5 316 L 131 316.5 L 130 319.5 L 130.5 321 L 129 321.5 L 130 324.5 L 128 328.5 L 126 333.5 L 126 337.5 L 124 340.5 L 125 342.5 L 122.5 350 L 122 348 L 52 348 L 52 303 L 122.5 303 L 123.5 302 Z " /><path fill="rgb(57,222,87)" stroke="rgb(57,222,87)" stroke-width="1" opacity="0.996078431372549" d="M 249.5 302 L 250.5 304 L 252 303.5 L 252.5 305 L 254 304.5 Q 253.2 307.1 256.5 306 L 259 306.5 L 259.5 308 L 260.5 307 Q 262.3 310.1 264 308.5 L 264.5 310 L 265.5 309 Q 267.3 312.1 269 310.5 Q 268.3 312.8 270.5 312 L 271.5 311 Q 273.3 314.1 275 312.5 Q 274.3 314.8 276.5 314 L 278.5 314 Q 283.1 313.4 284.5 316 L 285.5 315 L 296.5 315 L 298.5 316 L 301.5 314 L 302.5 315 Q 304.3 311.9 306 313.5 L 306.5 312 L 307.5 313 L 312 310.5 L 312.5 309 L 314 309.5 L 315.5 307 L 316.5 308 L 320 304.5 L 320.5 303 L 356.5 303 L 358 302.5 L 355 304.5 L 355.5 306 L 354 306.5 L 354.5 308 L 353 308 Q 354.5 311.7 351.5 311 L 350.5 314 Q 347.9 313.2 349 316.5 L 345 319.5 L 346 320.5 L 342.5 324 L 339.5 326 L 336.5 331 L 333 332.5 L 331 335.5 Q 329.7 339.7 325 339 L 323.5 342 L 321 342 Q 322.1 344.7 319.5 344 L 314.5 348 L 298.5 356 L 299.5 354 L 311 348.5 L 198 348 L 197.5 350 L 196.5 348 L 195 348.5 L 195 347 Q 191.3 348.5 192 345.5 L 187.5 345 L 185.5 347 L 181.5 348 L 179.5 348 L 176.5 349 Q 175 346.5 173.5 350 L 171 349.5 L 174 348.5 L 150.5 348 L 148.5 349 L 150 346.5 L 149 345.5 L 152 339.5 L 151 337 Q 153.7 338.1 153 335.5 L 153 331.5 L 157 320.5 L 156.5 319 Q 159.1 319.8 158 316.5 L 158 314.5 Q 158.8 310.8 156.5 310 L 154 308.5 L 153 306.5 L 153 304.5 L 153.5 303 L 248.5 303 L 249.5 302 Z " /><path fill="rgb(57,222,87)" stroke="rgb(57,222,87)" stroke-width="1" opacity="0.996078431372549" d="M 384.5 303 L 447 303 L 447 328.5 L 448 329.5 L 448 349.5 L 447 349.5 L 446.5 348 L 354 348 L 352.5 351 L 348.5 354 L 360.5 341 Q 362.8 341.8 362 339.5 L 368.5 331 L 370 330.5 Q 367.8 329.3 370.5 328 Q 373.1 328.8 372 325.5 L 374 322 L 376 321.5 Q 373.8 320.3 376.5 319 L 378 318.5 L 377.5 317 L 379 316.5 L 378.5 315 L 380 314.5 L 379.5 313 L 382 311.5 L 384 306.5 L 383.5 305 L 385 305.5 L 384.5 303 Z " /><path fill="rgb(57,222,87)" stroke="rgb(57,222,87)" stroke-width="1" opacity="0.996078431372549" d="M 199.5 350 L 202 351.5 L 200.5 351 L 199.5 350 Z " /><path fill="rgb(57,222,87)" stroke="rgb(57,222,87)" stroke-width="1" opacity="0.996078431372549" d="M 121.5 351 L 122 353.5 L 120 354.5 L 121.5 351 Z " /><path fill="rgb(57,222,87)" stroke="rgb(57,222,87)" stroke-width="1" opacity="0.996078431372549" d="M 148.5 351 L 148 352.5 L 147.5 355 L 147 352.5 L 148.5 351 Z " /><path fill="rgb(57,222,87)" stroke="rgb(57,222,87)" stroke-width="1" opacity="0.996078431372549" d="M 164.5 351 L 167 351.5 L 164.5 352 L 164.5 351 Z " /><path fill="rgb(57,222,87)" stroke="rgb(57,222,87)" stroke-width="1" opacity="0.996078431372549" d="M 159.5 352 L 158.5 354 L 157 353.5 L 159.5 352 Z " /><path fill="rgb(57,222,87)" stroke="rgb(57,222,87)" stroke-width="1" opacity="0.996078431372549" d="M 52.5 354 L 53 357.5 L 52 357.5 L 52.5 354 Z " /><path fill="rgb(57,222,87)" stroke="rgb(57,222,87)" stroke-width="1" opacity="0.996078431372549" d="M 447.5 355 L 448 368.5 L 447 368.5 L 447.5 355 Z " /><path fill="rgb(57,222,87)" stroke="rgb(57,222,87)" stroke-width="1" opacity="0.996078431372549" d="M 214.5 356 L 220 358.5 L 218.5 359 Q 214.5 358.5 214.5 356 Z " /><path fill="rgb(57,222,87)" stroke="rgb(57,222,87)" stroke-width="1" opacity="0.996078431372549" d="M 343.5 357 L 345 357.5 L 338.5 362 L 340.5 359 L 343.5 357 Z " /><path fill="rgb(57,222,87)" stroke="rgb(57,222,87)" stroke-width="1" opacity="0.996078431372549" d="M 227.5 360 L 231 361.5 L 229.5 362 L 227.5 360 Z " /><path fill="rgb(57,222,87)" stroke="rgb(57,222,87)" stroke-width="1" opacity="0.996078431372549" d="M 280.5 360 L 285 360.5 L 278.5 362 L 278.5 361 L 280.5 360 Z " /><path fill="rgb(57,222,87)" stroke="rgb(57,222,87)" stroke-width="1" opacity="0.996078431372549" d="M 234.5 362 L 237 362.5 L 234.5 363 L 234.5 362 Z " /><path fill="rgb(57,222,87)" stroke="rgb(57,222,87)" stroke-width="1" opacity="0.996078431372549" d="M 336.5 362 L 337 364 L 335 363.5 L 336.5 362 Z " /><path fill="rgb(57,222,87)" stroke="rgb(57,222,87)" stroke-width="1" opacity="0.996078431372549" d="M 52.5 363 L 53 372.5 L 52 372.5 L 52.5 363 Z " /><path fill="rgb(57,222,87)" stroke="rgb(57,222,87)" stroke-width="1" opacity="0.996078431372549" d="M 332.5 365 L 330.5 368 L 329 367.5 L 332.5 365 Z " /><path fill="rgb(57,222,87)" stroke="rgb(57,222,87)" stroke-width="1" opacity="0.996078431372549" d="M 117.5 366 L 118 368.5 L 117 368.5 L 117.5 366 Z " /><path fill="rgb(57,222,87)" stroke="rgb(57,222,87)" stroke-width="1" opacity="0.996078431372549" d="M 327.5 368 L 326.5 370 L 327.5 368 Z " /><path fill="rgb(57,222,87)" stroke="rgb(57,222,87)" stroke-width="1" opacity="0.996078431372549" d="M 324.5 370 L 323.5 372 L 320.5 373 L 320.5 372 L 324.5 370 Z " /><path fill="rgb(57,222,87)" stroke="rgb(57,222,87)" stroke-width="1" opacity="0.996078431372549" d="M 191.5 374 L 194 375.5 L 192.5 376 L 191.5 374 Z " /><path fill="rgb(57,222,87)" stroke="rgb(57,222,87)" stroke-width="1" opacity="0.996078431372549" d="M 316.5 374 L 318 374.5 L 312.5 377 L 312.5 376 L 316.5 374 Z " /><path fill="rgb(57,222,87)" stroke="rgb(57,222,87)" stroke-width="1" opacity="0.996078431372549" d="M 446.5 375 L 447 378.5 L 446 378.5 L 446.5 375 Z " /><path fill="rgb(57,222,87)" stroke="rgb(57,222,87)" stroke-width="1" opacity="0.996078431372549" d="M 157.5 379 L 160 379.5 L 157.5 380 L 157.5 379 Z " /><path fill="rgb(57,222,87)" stroke="rgb(57,222,87)" stroke-width="1" opacity="0.996078431372549" d="M 202.5 379 L 206 380.5 L 204.5 381 L 202.5 379 Z " /><path fill="rgb(57,222,87)" stroke="rgb(57,222,87)" stroke-width="1" opacity="0.996078431372549" d="M 305.5 379 L 304.5 381 L 305.5 379 Z " /><path fill="rgb(57,222,87)" stroke="rgb(57,222,87)" stroke-width="1" opacity="0.996078431372549" d="M 152.5 380 L 156 380.5 L 152.5 381 L 152.5 380 Z " /><path fill="rgb(57,222,87)" stroke="rgb(57,222,87)" stroke-width="1" opacity="0.996078431372549" d="M 141.5 383 L 143 383.5 L 138.5 385 L 138.5 384 L 141.5 383 Z " /><path fill="rgb(57,222,87)" stroke="rgb(57,222,87)" stroke-width="1" opacity="0.996078431372549" d="M 213.5 383 L 219 384.5 L 216.5 385 L 213.5 384 L 213.5 383 Z " /><path fill="rgb(57,222,87)" stroke="rgb(57,222,87)" stroke-width="1" opacity="0.996078431372549" d="M 126.5 387 L 128 387.5 L 125.5 389 L 126.5 387 Z " /><path fill="rgb(57,222,87)" stroke="rgb(57,222,87)" stroke-width="1" opacity="0.996078431372549" d="M 231.5 387 L 234 387.5 L 231.5 388 L 231.5 387 Z " /><path fill="rgb(57,222,87)" stroke="rgb(57,222,87)" stroke-width="1" opacity="0.996078431372549" d="M 274.5 387 L 278 387.5 L 274.5 388 L 274.5 387 Z " /><path fill="rgb(57,222,87)" stroke="rgb(57,222,87)" stroke-width="1" opacity="0.996078431372549" d="M 238.5 388 L 244 388.5 L 238.5 389 L 238.5 388 Z " /><path fill="rgb(57,222,87)" stroke="rgb(57,222,87)" stroke-width="1" opacity="0.996078431372549" d="M 265.5 388 L 270 388.5 L 265.5 389 L 265.5 388 Z " /><path fill="rgb(57,222,87)" stroke="rgb(57,222,87)" stroke-width="1" opacity="0.996078431372549" d="M 118.5 389 L 121 389.5 L 118.5 390 L 118.5 389 Z " /><path fill="rgb(57,222,87)" stroke="rgb(57,222,87)" stroke-width="1" opacity="0.996078431372549" d="M 60.5 404 L 62 406.5 L 61 406.5 L 60.5 404 Z " /><path fill="rgb(57,222,87)" stroke="rgb(57,222,87)" stroke-width="1" opacity="0.996078431372549" d="M 64.5 411 L 65.5 413 L 64.5 411 Z " /><path fill="rgb(57,222,87)" stroke="rgb(57,222,87)" stroke-width="1" opacity="0.996078431372549" d="M 434.5 412 L 433.5 414 L 434.5 412 Z " /><path fill="rgb(57,222,87)" stroke="rgb(57,222,87)" stroke-width="1" opacity="0.996078431372549" d="M 69.5 418 L 70.5 420 L 69.5 418 Z " /><path fill="rgb(57,222,87)" stroke="rgb(57,222,87)" stroke-width="1" opacity="0.996078431372549" d="M 427.5 421 L 425.5 424 L 427.5 421 Z " /><path fill="rgb(57,222,87)" stroke="rgb(57,222,87)" stroke-width="1" opacity="0.996078431372549" d="M 422.5 426 L 420.5 429 L 422.5 426 Z " /><path fill="rgb(57,222,87)" stroke="rgb(57,222,87)" stroke-width="1" opacity="0.996078431372549" d="M 81.5 430 L 82.5 432 L 81.5 430 Z " /><path fill="rgb(57,222,87)" stroke="rgb(57,222,87)" stroke-width="1" opacity="0.996078431372549" d="M 416.5 431 L 415.5 433 L 416.5 431 Z " /><path fill="rgb(57,222,87)" stroke="rgb(57,222,87)" stroke-width="1" opacity="0.996078431372549" d="M 90.5 436 L 91.5 438 L 90.5 436 Z " /><path fill="rgb(57,222,87)" stroke="rgb(57,222,87)" stroke-width="1" opacity="0.996078431372549" d="M 403.5 439 L 405 439.5 L 401.5 441 L 401.5 440 L 403.5 439 Z " /><path fill="rgb(57,222,87)" stroke="rgb(57,222,87)" stroke-width="1" opacity="0.996078431372549" d="M 370.5 447 L 373 447.5 L 370.5 448 L 370.5 447 Z " /><path fill="rgb(58,223,87)" stroke="rgb(58,223,87)" stroke-width="1" opacity="1" d="M 137.5 240 L 138 242.5 L 137 242.5 L 137.5 240 Z " /><path fill="rgb(58,223,87)" stroke="rgb(58,223,87)" stroke-width="1" opacity="1" d="M 137.5 249 L 138 254 L 196.5 254 L 199 256.5 L 214.5 276 Q 216.8 275.3 216 277.5 L 227.5 288 L 233 291 Q 231.9 293.7 234.5 293 L 249 302.5 L 153.5 303 L 152.5 304 L 145 289.5 L 145 286.5 L 141 277.5 L 141 271.5 L 137 253.5 L 137.5 249 Z " /><path fill="rgb(58,223,87)" stroke="rgb(58,223,87)" stroke-width="1" opacity="1" d="M 52 254 L 111.5 254 L 112 254.5 L 112 262.5 L 116 277.5 L 116 283.5 L 123 303 L 52 303 L 52 254 Z " /><path fill="rgb(58,223,87)" stroke="rgb(58,223,87)" stroke-width="1" opacity="1" d="M 232.5 254 L 369.5 254 Q 370.6 254.1 370 259.5 L 370 261.5 L 366 282.5 L 362 293.5 L 356.5 303 L 321 302.5 L 325 296.5 L 327 289.5 L 327 280.5 L 324.5 278 L 314.5 273 L 311.5 273 L 308.5 270 L 295.5 264 L 288.5 264 L 286 265 L 274 282 L 270.5 282 L 263.5 278 L 258.5 277 L 247.5 269 L 245 269 L 242.5 265 L 240 263.5 Q 240.8 261.3 238.5 262 L 232.5 254 Z " /><path fill="rgb(58,223,87)" stroke="rgb(58,223,87)" stroke-width="1" opacity="1" d="M 397 254 L 447 254 L 447 273.5 L 448 274.5 L 448 328.5 L 447 328.5 L 447 303 L 385.5 303 L 386 301.5 L 389 294.5 L 389 292.5 L 393 280.5 L 393 278.5 L 395 270.5 L 395 268.5 L 396 256.5 L 397 254 Z " /><path fill="rgb(58,223,87)" stroke="rgb(58,223,87)" stroke-width="1" opacity="1" d="M 319.5 304 L 316.5 308 L 319.5 304 Z " /><path fill="rgb(58,223,87)" stroke="rgb(58,223,87)" stroke-width="1" opacity="1" d="M 125.5 308 L 126.5 310 L 125.5 308 Z " /><path fill="rgb(58,223,87)" stroke="rgb(58,223,87)" stroke-width="1" opacity="1" d="M 156.5 310 L 157.5 312 L 156.5 310 Z " /><path fill="rgb(58,223,87)" stroke="rgb(58,223,87)" stroke-width="1" opacity="1" d="M 311.5 310 L 310.5 312 L 311.5 310 Z " /><path fill="rgb(58,223,87)" stroke="rgb(58,223,87)" stroke-width="1" opacity="1" d="M 381.5 311 L 380.5 313 L 381.5 311 Z " /><path fill="rgb(58,223,87)" stroke="rgb(58,223,87)" stroke-width="1" opacity="1" d="M 346.5 318 L 345.5 320 L 346.5 318 Z " /><path fill="rgb(58,223,87)" stroke="rgb(58,223,87)" stroke-width="1" opacity="1" d="M 339.5 326 L 337.5 329 L 339.5 326 Z " /><path fill="rgb(58,223,87)" stroke="rgb(58,223,87)" stroke-width="1" opacity="1" d="M 334.5 331 L 333.5 333 L 334.5 331 Z " /><path fill="rgb(58,223,87)" stroke="rgb(58,223,87)" stroke-width="1" opacity="1" d="M 447.5 350 L 448 354.5 L 447 354.5 L 447.5 350 Z " /><path fill="rgb(58,223,87)" stroke="rgb(58,223,87)" stroke-width="1" opacity="1" d="M 52.5 358 L 53 362.5 L 52 362.5 L 52.5 358 Z " /><path fill="rgb(58,223,87)" stroke="rgb(58,223,87)" stroke-width="1" opacity="1" d="M 446.5 372 L 447 374.5 L 446 374.5 L 446.5 372 Z " /><path fill="rgb(49,190,74)" stroke="rgb(49,190,74)" stroke-width="1" opacity="0.3607843137254902" d="M 449.5 237 L 450 239.5 L 449 239.5 L 449.5 237 Z " /><path fill="rgb(49,190,74)" stroke="rgb(49,190,74)" stroke-width="1" opacity="0.3607843137254902" d="M 449.5 256 L 450 347.5 L 449 348.5 L 448.5 372 L 448 340.5 L 449 339.5 L 449.5 256 Z " /><path fill="rgb(49,190,74)" stroke="rgb(49,190,74)" stroke-width="1" opacity="0.3607843137254902" d="M 353.5 311 L 352.5 313 L 353.5 311 Z " /><path fill="rgb(49,190,74)" stroke="rgb(49,190,74)" stroke-width="1" opacity="0.3607843137254902" d="M 129.5 312 L 130.5 314 L 129.5 312 Z " /><path fill="rgb(49,190,74)" stroke="rgb(49,190,74)" stroke-width="1" opacity="0.3607843137254902" d="M 50.5 314 L 51 316.5 L 50 316.5 L 50.5 314 Z " /><path fill="rgb(49,190,74)" stroke="rgb(49,190,74)" stroke-width="1" opacity="0.3607843137254902" d="M 350.5 315 L 349.5 317 L 350.5 315 Z " /><path fill="rgb(49,190,74)" stroke="rgb(49,190,74)" stroke-width="1" opacity="0.3607843137254902" d="M 50.5 321 L 52 376.5 L 51 376.5 L 51 362.5 L 50 361.5 L 51 359.5 L 50 358.5 L 50.5 321 Z " /><path fill="rgb(49,190,74)" stroke="rgb(49,190,74)" stroke-width="1" opacity="0.3607843137254902" d="M 127.5 333 L 128 336.5 L 127 336.5 L 127.5 333 Z " /><path fill="rgb(49,190,74)" stroke="rgb(49,190,74)" stroke-width="1" opacity="0.3607843137254902" d="M 362.5 337 L 362 338.5 L 361.5 340 L 361 338.5 L 362.5 337 Z " /><path fill="rgb(49,190,74)" stroke="rgb(49,190,74)" stroke-width="1" opacity="0.3607843137254902" d="M 357.5 343 L 346.5 355 L 338.5 361 L 342.5 356 L 357.5 343 Z " /><path fill="rgb(49,190,74)" stroke="rgb(49,190,74)" stroke-width="1" opacity="0.3607843137254902" d="M 123.5 347 L 124 351.5 L 123 351.5 L 123.5 347 Z " /><path fill="rgb(49,190,74)" stroke="rgb(49,190,74)" stroke-width="1" opacity="0.3607843137254902" d="M 183.5 347 L 186 347.5 L 183.5 348 L 183.5 347 Z " /><path fill="rgb(49,190,74)" stroke="rgb(49,190,74)" stroke-width="1" opacity="0.3607843137254902" d="M 308.5 351 L 310 351.5 L 307.5 353 L 308.5 351 Z " /><path fill="rgb(49,190,74)" stroke="rgb(49,190,74)" stroke-width="1" opacity="0.3607843137254902" d="M 201.5 352 L 202.5 354 L 201.5 352 Z " /><path fill="rgb(49,190,74)" stroke="rgb(49,190,74)" stroke-width="1" opacity="0.3607843137254902" d="M 152.5 355 L 155 355.5 L 152.5 356 L 152.5 355 Z " /><path fill="rgb(49,190,74)" stroke="rgb(49,190,74)" stroke-width="1" opacity="0.3607843137254902" d="M 207.5 355 L 213 357.5 L 211.5 358 L 207.5 356 L 207.5 355 Z " /><path fill="rgb(49,190,74)" stroke="rgb(49,190,74)" stroke-width="1" opacity="0.3607843137254902" d="M 121.5 357 L 121 358.5 L 119.5 365 L 119 361.5 L 121.5 357 Z " /><path fill="rgb(49,190,74)" stroke="rgb(49,190,74)" stroke-width="1" opacity="0.3607843137254902" d="M 217.5 359 L 220 359.5 L 217.5 360 L 217.5 359 Z " /><path fill="rgb(49,190,74)" stroke="rgb(49,190,74)" stroke-width="1" opacity="0.3607843137254902" d="M 221.5 360 L 226 361.5 L 224.5 362 L 221.5 361 L 221.5 360 Z " /><path fill="rgb(49,190,74)" stroke="rgb(49,190,74)" stroke-width="1" opacity="0.3607843137254902" d="M 336.5 361 L 333.5 365 L 326.5 369 L 328.5 366 L 336.5 361 Z " /><path fill="rgb(49,190,74)" stroke="rgb(49,190,74)" stroke-width="1" opacity="0.3607843137254902" d="M 245.5 364 L 248 364.5 L 245.5 365 L 245.5 364 Z " /><path fill="rgb(49,190,74)" stroke="rgb(49,190,74)" stroke-width="1" opacity="0.3607843137254902" d="M 261.5 364 L 265 364.5 L 261.5 365 L 261.5 364 Z " /><path fill="rgb(49,190,74)" stroke="rgb(49,190,74)" stroke-width="1" opacity="0.3607843137254902" d="M 323.5 369 L 325 369.5 L 316.5 374 L 316.5 373 L 323.5 369 Z " /><path fill="rgb(49,190,74)" stroke="rgb(49,190,74)" stroke-width="1" opacity="0.3607843137254902" d="M 183.5 371 Q 190 370 192 373.5 L 190.5 374 Q 188.8 371.2 183.5 372 Q 181.2 374.7 175.5 374 L 175.5 373 L 183.5 371 Z " /><path fill="rgb(49,190,74)" stroke="rgb(49,190,74)" stroke-width="1" opacity="0.3607843137254902" d="M 116.5 373 L 117 375.5 L 114.5 383 L 114 379.5 L 116.5 373 Z " /><path fill="rgb(49,190,74)" stroke="rgb(49,190,74)" stroke-width="1" opacity="0.3607843137254902" d="M 448.5 373 L 448 374.5 Q 447.3 392.3 441 404.5 Q 433.7 419.7 421.5 430 L 403.5 442 L 400.5 442 L 387.5 447 L 377.5 448 L 377.5 447 L 391.5 445 L 406.5 439 Q 420.4 431.4 430 419.5 Q 438.8 408.8 444 394.5 L 447 380.5 L 447 374.5 L 448.5 373 Z " /><path fill="rgb(49,190,74)" stroke="rgb(49,190,74)" stroke-width="1" opacity="0.3607843137254902" d="M 171.5 374 L 174 374.5 L 168.5 376 L 168.5 375 L 171.5 374 Z " /><path fill="rgb(49,190,74)" stroke="rgb(49,190,74)" stroke-width="1" opacity="0.3607843137254902" d="M 193.5 374 L 209.5 381 L 220.5 383 L 224.5 385 L 247 387.5 L 235.5 388 L 209.5 382 L 193.5 375 L 193.5 374 Z " /><path fill="rgb(49,190,74)" stroke="rgb(49,190,74)" stroke-width="1" opacity="0.3607843137254902" d="M 313.5 374 L 315 374.5 L 307.5 378 L 307.5 377 L 313.5 374 Z " /><path fill="rgb(49,190,74)" stroke="rgb(49,190,74)" stroke-width="1" opacity="0.3607843137254902" d="M 160.5 377 L 164 377.5 L 160.5 378 L 160.5 377 Z " /><path fill="rgb(49,190,74)" stroke="rgb(49,190,74)" stroke-width="1" opacity="0.3607843137254902" d="M 304.5 378 L 306 378.5 Q 300.8 382.3 292.5 383 L 292.5 382 L 295.5 382 L 304.5 378 Z " /><path fill="rgb(49,190,74)" stroke="rgb(49,190,74)" stroke-width="1" opacity="0.3607843137254902" d="M 152.5 379 L 155 379.5 L 152.5 380 L 152.5 379 Z " /><path fill="rgb(49,190,74)" stroke="rgb(49,190,74)" stroke-width="1" opacity="0.3607843137254902" d="M 52.5 380 L 56 391.5 L 56 395.5 L 62 408.5 L 76.5 427 Q 92.9 444.1 123 447.5 L 116.5 448 Q 84.6 441.4 68 419.5 Q 59.5 409.5 55 395.5 L 52.5 380 Z " /><path fill="rgb(49,190,74)" stroke="rgb(49,190,74)" stroke-width="1" opacity="0.3607843137254902" d="M 149.5 380 L 151 380.5 L 145.5 382 L 145.5 381 L 149.5 380 Z " /><path fill="rgb(49,190,74)" stroke="rgb(49,190,74)" stroke-width="1" opacity="0.3607843137254902" d="M 137.5 383 L 140 383.5 L 134.5 385 L 134.5 384 L 137.5 383 Z " /><path fill="rgb(49,190,74)" stroke="rgb(49,190,74)" stroke-width="1" opacity="0.3607843137254902" d="M 289.5 383 L 291 383.5 L 285.5 385 L 285.5 384 L 289.5 383 Z " /><path fill="rgb(49,190,74)" stroke="rgb(49,190,74)" stroke-width="1" opacity="0.3607843137254902" d="M 114.5 384 L 114 385.5 Q 115.1 388.8 112.5 388 L 113 386.5 L 114.5 384 Z " /><path fill="rgb(49,190,74)" stroke="rgb(49,190,74)" stroke-width="1" opacity="0.3607843137254902" d="M 130.5 385 L 133 385.5 L 113.5 391 L 112.5 389 L 114.5 389 L 130.5 385 Z " /><path fill="rgb(49,190,74)" stroke="rgb(49,190,74)" stroke-width="1" opacity="0.3607843137254902" d="M 280.5 385 L 284 385.5 L 279.5 387 L 280.5 385 Z " /><path fill="rgb(49,190,74)" stroke="rgb(49,190,74)" stroke-width="1" opacity="0.3607843137254902" d="M 272.5 386 L 278 386.5 L 272.5 387 L 272.5 386 Z " /><path fill="rgb(49,190,74)" stroke="rgb(49,190,74)" stroke-width="1" opacity="0.3607843137254902" d="M 262.5 387 L 270 387.5 L 262.5 388 L 262.5 387 Z " /><path fill="rgb(49,190,74)" stroke="rgb(49,190,74)" stroke-width="1" opacity="0.3607843137254902" d="M 124.5 448 L 376 448.5 L 355.5 450 L 354.5 449 L 159.5 449 L 158.5 450 L 142.5 450 L 141.5 449 L 124.5 449 L 124.5 448 Z " /><path fill="rgb(42,211,72)" stroke="rgb(42,211,72)" stroke-width="1" opacity="1" d="M 52 348 L 121.5 348 L 122 350.5 L 120 353.5 L 120 360.5 L 115 374.5 L 115 376.5 L 111 388.5 L 112.5 392 L 115.5 390 L 125.5 389 L 133.5 385 L 135.5 386 L 147.5 382 L 159.5 380 L 168.5 376 L 170.5 377 L 184.5 372 L 186.5 373 L 188.5 373 L 195.5 377 L 197.5 377 L 205.5 381 Q 207 378.5 208.5 382 L 221.5 386 L 223.5 385 L 233.5 388 Q 235 385.5 236.5 389 L 271.5 389 L 285.5 385 L 287.5 385 L 291.5 385 L 299.5 381 L 301.5 381 L 304.5 381 L 318 375 Q 316.7 371.7 321.5 373 L 345 357.5 Q 342.8 356.3 345.5 355 L 346.5 356 L 351.5 351 L 354 349.5 L 354.5 348 L 447 348 L 446 382.5 Q 443.5 384 445 389.5 L 442 395.5 L 443 396.5 L 441 400.5 L 437 410 Q 434.3 408.9 435 411.5 L 428.5 421 L 425 423.5 L 423.5 426 L 420 428.5 L 418.5 431 L 415 432.5 Q 415.7 435.5 412 434 L 412 436 L 409.5 436 L 406.5 439 L 403.5 439 L 391.5 445 L 389.5 444 L 382.5 447 L 373.5 448 L 370.5 447 L 369.5 448 L 130.5 448 L 128.5 447 L 123.5 448 L 113.5 445 Q 112 447.5 110.5 444 L 108.5 445 L 88.5 435 L 86 435 Q 87.1 432.3 84.5 433 L 73 423.5 L 69.5 418 Q 67.3 418.8 68 416.5 L 64 409 Q 60.7 410.3 62 405.5 L 56 394.5 L 57 392.5 L 55 388.5 L 53 382.5 L 54 378.5 L 53 377.5 L 53 354.5 L 52 348 Z " /><path fill="rgb(42,211,72)" stroke="rgb(42,211,72)" stroke-width="1" opacity="1" d="M 150.5 348 L 174 348.5 L 147.5 356 L 148 354.5 L 150.5 348 Z " /><path fill="rgb(42,211,72)" stroke="rgb(42,211,72)" stroke-width="1" opacity="1" d="M 198.5 348 L 311 348.5 L 297.5 356 L 293.5 356 L 285.5 360 L 280.5 360 L 264.5 364 L 243.5 364 L 228.5 360 L 222.5 360 Q 218.7 356.3 211.5 356 L 205.5 352 L 202.5 352 L 198.5 348 Z " /></svg>