<svg width="208" height="160" viewBox="0 0 208 160" fill="none" xmlns="http://www.w3.org/2000/svg">
<rect width="208" height="160" rx="32" fill="url(#paint0_linear_6062_70)"/>
<rect width="208" height="160" rx="32" fill="url(#paint1_radial_6062_70)" fill-opacity="0.2"/>
<path d="M103.998 79.6667C100.331 81.7917 96.0397 83 91.498 83C77.7064 83 66.498 71.7917 66.498 58C66.498 44.2083 77.7064 33 91.498 33C96.0397 33 100.331 34.2083 103.998 36.3333C96.5397 40.6667 91.498 48.75 91.498 58C91.498 67.2917 96.5397 75.3333 103.998 79.6667Z" fill="url(#paint2_linear_6062_70)"/>
<path d="M103.998 79.6667C107.665 81.7917 111.956 83 116.498 83C130.29 83 141.498 71.7917 141.498 58C141.498 44.2083 130.29 33 116.498 33C111.956 33 107.665 34.2083 103.998 36.3333C111.456 40.6667 116.498 48.75 116.498 58C116.498 67.2917 111.456 75.3333 103.998 79.6667Z" fill="url(#paint3_linear_6062_70)"/>
<path d="M59.408 99.6H63.904L72.048 122H67.904L66.464 118.032H56.864L55.424 122H51.28L59.408 99.6ZM58.288 114.128H65.024L61.648 104.896L58.288 114.128ZM74.3575 106H78.2615V122H74.3575V106ZM76.3415 103.936C75.7655 103.936 75.2802 103.749 74.8855 103.376C74.4908 102.992 74.2935 102.512 74.2935 101.936C74.2935 101.371 74.4908 100.896 74.8855 100.512C75.2802 100.128 75.7602 99.936 76.3255 99.936C76.8908 99.936 77.3655 100.128 77.7495 100.512C78.1442 100.896 78.3415 101.371 78.3415 101.936C78.3415 102.512 78.1495 102.992 77.7655 103.376C77.3815 103.749 76.9068 103.936 76.3415 103.936ZM93.6045 106H97.5085V122.304C97.5085 123.456 97.2738 124.501 96.8045 125.44C96.3352 126.389 95.6952 127.2 94.8845 127.872C94.0738 128.555 93.1458 129.077 92.1005 129.44C91.0552 129.813 89.9565 130 88.8045 130C87.6845 130 86.6072 129.771 85.5725 129.312C84.5378 128.853 83.6205 128.224 82.8205 127.424C82.0312 126.635 81.4285 125.733 81.0125 124.72L84.5805 123.104C84.7938 123.691 85.1138 124.203 85.5405 124.64C85.9778 125.088 86.4792 125.435 87.0445 125.68C87.6098 125.936 88.1965 126.064 88.8045 126.064C89.4232 126.064 90.0152 125.979 90.5805 125.808C91.1565 125.637 91.6738 125.387 92.1325 125.056C92.5912 124.736 92.9485 124.341 93.2045 123.872C93.4712 123.413 93.6045 122.891 93.6045 122.304V120.048C93.1032 120.752 92.4738 121.323 91.7165 121.76C90.9592 122.197 90.0845 122.416 89.0925 122.416C87.9405 122.416 86.8632 122.197 85.8605 121.76C84.8578 121.323 83.9725 120.72 83.2045 119.952C82.4472 119.173 81.8498 118.277 81.4125 117.264C80.9858 116.251 80.7725 115.163 80.7725 114C80.7725 112.837 80.9858 111.749 81.4125 110.736C81.8498 109.723 82.4472 108.832 83.2045 108.064C83.9725 107.285 84.8578 106.677 85.8605 106.24C86.8632 105.803 87.9405 105.584 89.0925 105.584C90.0845 105.584 90.9592 105.803 91.7165 106.24C92.4738 106.667 93.1032 107.232 93.6045 107.936V106ZM89.1405 118.656C89.9618 118.656 90.6872 118.448 91.3165 118.032C91.9565 117.605 92.4578 117.04 92.8205 116.336C93.1832 115.621 93.3645 114.843 93.3645 114C93.3645 113.147 93.1778 112.368 92.8045 111.664C92.4418 110.96 91.9405 110.395 91.3005 109.968C90.6712 109.541 89.9512 109.328 89.1405 109.328C88.3405 109.328 87.6098 109.541 86.9485 109.968C86.2872 110.384 85.7592 110.944 85.3645 111.648C84.9698 112.352 84.7725 113.136 84.7725 114C84.7725 114.864 84.9698 115.648 85.3645 116.352C85.7592 117.056 86.2872 117.616 86.9485 118.032C87.6098 118.448 88.3405 118.656 89.1405 118.656ZM108.023 122.416C106.551 122.416 105.207 122.037 103.991 121.28C102.785 120.523 101.82 119.509 101.095 118.24C100.38 116.96 100.023 115.547 100.023 114C100.023 112.827 100.231 111.733 100.647 110.72C101.063 109.696 101.633 108.8 102.359 108.032C103.095 107.253 103.948 106.645 104.919 106.208C105.889 105.771 106.924 105.552 108.023 105.552C109.495 105.552 110.833 105.931 112.039 106.688C113.255 107.445 114.22 108.464 114.935 109.744C115.66 111.024 116.023 112.443 116.023 114C116.023 115.163 115.815 116.251 115.399 117.264C114.983 118.277 114.407 119.173 113.671 119.952C112.945 120.72 112.097 121.323 111.127 121.76C110.167 122.197 109.132 122.416 108.023 122.416ZM108.023 118.512C108.801 118.512 109.5 118.304 110.119 117.888C110.737 117.472 111.223 116.923 111.575 116.24C111.937 115.557 112.119 114.811 112.119 114C112.119 113.168 111.932 112.411 111.559 111.728C111.196 111.035 110.7 110.485 110.071 110.08C109.452 109.664 108.769 109.456 108.023 109.456C107.255 109.456 106.561 109.664 105.943 110.08C105.324 110.496 104.833 111.051 104.471 111.744C104.108 112.437 103.927 113.189 103.927 114C103.927 114.843 104.113 115.605 104.487 116.288C104.86 116.971 105.356 117.515 105.975 117.92C106.604 118.315 107.287 118.512 108.023 118.512ZM128.496 117.184L132.016 119.088C131.28 120.091 130.358 120.896 129.248 121.504C128.139 122.112 126.928 122.416 125.616 122.416C124.144 122.416 122.8 122.037 121.584 121.28C120.379 120.523 119.414 119.509 118.688 118.24C117.974 116.96 117.616 115.547 117.616 114C117.616 112.827 117.824 111.733 118.24 110.72C118.656 109.696 119.227 108.8 119.952 108.032C120.688 107.253 121.542 106.645 122.512 106.208C123.483 105.771 124.518 105.552 125.616 105.552C126.928 105.552 128.139 105.856 129.248 106.464C130.358 107.072 131.28 107.888 132.016 108.912L128.496 110.8C128.123 110.373 127.68 110.043 127.168 109.808C126.667 109.573 126.15 109.456 125.616 109.456C124.848 109.456 124.155 109.669 123.536 110.096C122.918 110.512 122.427 111.067 122.064 111.76C121.702 112.443 121.52 113.189 121.52 114C121.52 114.8 121.702 115.547 122.064 116.24C122.427 116.923 122.918 117.472 123.536 117.888C124.155 118.304 124.848 118.512 125.616 118.512C126.171 118.512 126.699 118.395 127.2 118.16C127.702 117.915 128.134 117.589 128.496 117.184ZM144.646 106H148.79L140.038 130H135.894L138.79 122L133.03 106H137.302L140.742 116.656L144.646 106Z" fill="white"/>
<defs>
<linearGradient id="paint0_linear_6062_70" x1="104" y1="0" x2="104" y2="160" gradientUnits="userSpaceOnUse">
<stop stop-color="#EA2B16"/>
<stop offset="1" stop-color="#FF3B26"/>
</linearGradient>
<radialGradient id="paint1_radial_6062_70" cx="0" cy="0" r="1" gradientTransform="matrix(130.131 86.6667 -6.55499 100.101 58.5327 -16.6667)" gradientUnits="userSpaceOnUse">
<stop stop-color="white"/>
<stop offset="1" stop-color="white" stop-opacity="0"/>
</radialGradient>
<linearGradient id="paint2_linear_6062_70" x1="105.108" y1="29.7391" x2="130.295" y2="71.2043" gradientUnits="userSpaceOnUse">
<stop stop-color="white" stop-opacity="0.8"/>
<stop offset="1" stop-color="white"/>
</linearGradient>
<linearGradient id="paint3_linear_6062_70" x1="105.108" y1="29.7391" x2="130.295" y2="71.2043" gradientUnits="userSpaceOnUse">
<stop stop-color="white" stop-opacity="0.8"/>
<stop offset="1" stop-color="white"/>
</linearGradient>
</defs>
</svg>
