<svg width="104" height="104" viewBox="0 0 104 104" fill="none" xmlns="http://www.w3.org/2000/svg">
<rect width="103.156" height="103.156" fill="white"/>
<g clip-path="url(#clip0_464_986)">
<path d="M66.6282 63.9493V41.0257C66.6282 39.4431 65.3454 38.1603 63.7628 38.1603H63.6186C62.8587 38.1603 62.13 38.4624 61.5928 38.9997L38.8132 61.7793C38.2759 62.3166 37.9737 63.0453 37.9737 63.8052V81.142H23.6465V63.8052C23.6465 59.2454 25.4578 54.8723 28.682 51.6481L51.4615 28.8685C54.6858 25.6443 59.0589 23.833 63.6186 23.833H63.7628C73.258 23.833 80.9555 31.5304 80.9555 41.0257V63.9493C80.9555 73.4445 73.258 81.142 63.7628 81.142H43.7046V66.8148H63.7628C65.3454 66.8148 66.6282 65.5319 66.6282 63.9493ZM23.6465 23.833H48.0028L33.6756 38.1603H23.6465V23.833Z" fill="url(#paint0_linear_464_986)"/>
</g>
<defs>
<linearGradient id="paint0_linear_464_986" x1="52.301" y1="23.833" x2="52.301" y2="81.142" gradientUnits="userSpaceOnUse">
<stop stop-color="#55E091"/>
<stop offset="1" stop-color="#00AA4A"/>
</linearGradient>
<clipPath id="clip0_464_986">
<rect width="57.309" height="57.309" fill="white" transform="translate(23.6465 23.833)"/>
</clipPath>
</defs>
</svg>
