<svg width="81" height="81" viewBox="0 0 81 81" fill="none" xmlns="http://www.w3.org/2000/svg">
<rect width="80.2326" height="80.2326" fill="white"/>
<g clip-path="url(#clip0_464_990)">
<path fill-rule="evenodd" clip-rule="evenodd" d="M40.7718 17.7002C49.2929 17.7002 53.5536 17.7 56.7272 19.5321C58.8061 20.7324 60.533 22.4592 61.7333 24.5382C63.5654 27.7117 63.5652 31.9725 63.5652 40.4935C63.5652 49.0146 63.5654 53.2753 61.7333 56.4488C60.533 58.5278 58.8061 60.2546 56.7272 61.4549C53.5536 63.2871 49.2929 63.2868 40.7718 63.2868C32.2508 63.2868 27.99 63.2871 24.8165 61.4549C22.7375 60.2546 21.0108 58.5278 19.8104 56.4488C17.9783 53.2753 17.9785 49.0146 17.9785 40.4935C17.9785 31.9725 17.9783 27.7117 19.8104 24.5382C21.0108 22.4592 22.7375 20.7324 24.8165 19.5321C27.99 17.7 32.2508 17.7002 40.7718 17.7002ZM43.0512 22.2589C32.9804 22.2589 24.8165 30.4227 24.8165 40.4935C24.8165 50.5643 32.9804 58.7282 43.0512 58.7282C53.1219 58.7282 61.2858 50.5643 61.2858 40.4935C61.2858 30.4227 53.1219 22.2589 43.0512 22.2589Z" fill="url(#paint0_linear_464_990)"/>
<path d="M59.0043 40.4943C59.0043 46.7885 53.9017 51.891 47.6076 51.891C41.3135 51.891 36.2109 46.7885 36.2109 40.4943C36.2109 34.2002 41.3135 29.0977 47.6076 29.0977C53.9017 29.0977 59.0043 34.2002 59.0043 40.4943Z" fill="url(#paint1_linear_464_990)"/>
</g>
<defs>
<linearGradient id="paint0_linear_464_990" x1="40.7718" y1="17.7002" x2="40.7718" y2="63.2868" gradientUnits="userSpaceOnUse">
<stop stop-color="#7D6CFF"/>
<stop offset="1" stop-color="#3628A0"/>
</linearGradient>
<linearGradient id="paint1_linear_464_990" x1="47.6076" y1="29.0977" x2="47.6076" y2="51.891" gradientUnits="userSpaceOnUse">
<stop stop-color="#7D6CFF"/>
<stop offset="1" stop-color="#3628A0"/>
</linearGradient>
<clipPath id="clip0_464_990">
<rect width="45.5866" height="45.5866" fill="white" transform="translate(17.9785 17.7002)"/>
</clipPath>
</defs>
</svg>
