<svg width="104" height="104" viewBox="0 0 104 104" fill="none" xmlns="http://www.w3.org/2000/svg">
<rect width="103.156" height="103.156" fill="white"/>
<g clip-path="url(#clip0_464_996)">
<path d="M69.8732 73.7614C75.1976 68.4369 78.1889 61.2154 78.1889 53.6855C78.1889 46.1556 75.1976 38.934 69.8732 33.6096C64.5488 28.2851 57.3272 25.2939 49.7972 25.2939C42.2673 25.2939 35.0458 28.2851 29.7214 33.6096L39.0901 42.9783C40.5685 44.4566 42.9558 44.3828 44.8365 43.4696C46.3682 42.7259 48.0622 42.3288 49.7972 42.3288C52.8092 42.3288 55.6979 43.5253 57.8276 45.6552C59.9574 47.7849 61.1539 50.6735 61.1539 53.6855C61.1539 55.4205 60.7569 57.1146 60.0132 58.6462C59.0999 60.527 59.0261 62.9143 60.5044 64.3927L69.8732 73.7614Z" fill="url(#paint0_linear_464_996)"/>
<path d="M64.9391 78.2916L51.0402 78.2916C49.0322 78.2916 47.1064 77.494 45.6866 76.074L27.4084 57.7958C25.9885 56.376 25.1908 54.4502 25.1908 52.4422L25.1908 38.5433L64.9391 78.2916Z" fill="url(#paint1_linear_464_996)"/>
<path d="M39.3867 78.2914L30.8691 78.2914C27.7331 78.2914 25.1908 75.7493 25.1908 72.6131L25.1908 64.0956L39.3867 78.2914Z" fill="url(#paint2_linear_464_996)"/>
</g>
<defs>
<linearGradient id="paint0_linear_464_996" x1="50.3499" y1="17.835" x2="91.8605" y2="89.7334" gradientUnits="userSpaceOnUse">
<stop stop-color="#75D8FC"/>
<stop offset="1" stop-color="#0072E5"/>
</linearGradient>
<linearGradient id="paint1_linear_464_996" x1="50.3499" y1="17.835" x2="91.8605" y2="89.7334" gradientUnits="userSpaceOnUse">
<stop stop-color="#75D8FC"/>
<stop offset="1" stop-color="#0072E5"/>
</linearGradient>
<linearGradient id="paint2_linear_464_996" x1="50.3499" y1="17.835" x2="91.8605" y2="89.7334" gradientUnits="userSpaceOnUse">
<stop stop-color="#75D8FC"/>
<stop offset="1" stop-color="#0072E5"/>
</linearGradient>
<clipPath id="clip0_464_996">
<rect width="52.9977" height="52.9977" fill="white" transform="translate(25.1914 25.293)"/>
</clipPath>
</defs>
</svg>
