<svg width="92" height="92" viewBox="0 0 92 92" fill="none" xmlns="http://www.w3.org/2000/svg">
<rect width="91.6944" height="91.6944" fill="white"/>
<g clip-path="url(#clip0_464_978)">
<path fill-rule="evenodd" clip-rule="evenodd" d="M41.9146 25.9238C46.8276 25.924 50.8104 29.8187 50.8105 34.6213C50.8105 34.8892 50.7981 35.1559 50.7807 35.4216H58.2739C65.5623 35.4216 68.4243 44.6621 62.36 48.6143L54.4304 53.7811C52.7234 54.894 53.1913 57.4623 55.1866 57.9305C55.8389 58.0834 56.5279 57.9564 57.0786 57.5821L61.6792 54.2641C61.8538 54.1382 62.0644 54.0704 62.2807 54.0704H74.9161C75.4137 54.0704 75.6162 54.7018 75.2093 54.9841L61.8341 64.2631C59.3328 65.9642 56.2061 66.5401 53.2432 65.845C44.1825 63.7192 42.059 52.0614 49.8117 47.0085L55.1026 43.5614H46.9833H41.7873C40.2952 43.5614 38.8868 43.2064 37.647 42.5796C38.9682 43.4687 42.2343 44.458 44.9897 44.6464C45.2352 44.6464 45.634 44.8609 45.1591 45.3432L28.4774 61.8174C28.2862 62.0062 28.0268 62.1122 27.7564 62.1122H17.6336C17.1796 62.1122 16.9523 61.5707 17.2734 61.2541L36.7471 42.055C34.3476 40.4705 32.7697 37.7869 32.7694 34.7432C32.7694 29.8731 36.808 25.9238 41.79 25.9238H41.9146ZM42.095 32.7083C40.9453 32.7083 40.0132 33.3157 40.0132 34.0649C40.0137 34.6826 40.6479 35.2022 41.5148 35.3659C41.5992 35.4016 41.6923 35.4216 41.79 35.4216H42.408C42.4091 35.4155 42.4082 35.4091 42.4093 35.403C43.4094 35.3042 44.1761 34.7442 44.1766 34.0649C44.1766 33.3157 43.2445 32.7083 42.095 32.7083Z" fill="url(#paint0_linear_464_978)"/>
</g>
<defs>
<linearGradient id="paint0_linear_464_978" x1="46.2748" y1="25.9238" x2="46.2748" y2="66.1331" gradientUnits="userSpaceOnUse">
<stop stop-color="#FF6A5A"/>
<stop offset="1" stop-color="#FD3A25"/>
</linearGradient>
<clipPath id="clip0_464_978">
<rect width="58.3035" height="40.2093" fill="white" transform="translate(17.123 25.9238)"/>
</clipPath>
</defs>
</svg>
