<svg width="204" height="70" viewBox="0 0 204 70" fill="none" xmlns="http://www.w3.org/2000/svg">
<g filter="url(#filter0_ii_6062_76)">
<rect width="204" height="70" rx="8" fill="#272727"/>
<rect width="204" height="70" rx="8" fill="url(#paint0_radial_6062_76)" fill-opacity="0.2"/>
<path d="M83.408 24.6H87.904L96.048 47H91.904L90.464 43.032H80.864L79.424 47H75.28L83.408 24.6ZM82.288 39.128H89.024L85.648 29.896L82.288 39.128ZM98.3575 31H102.262V47H98.3575V31ZM100.342 28.936C99.7655 28.936 99.2802 28.7493 98.8855 28.376C98.4908 27.992 98.2935 27.512 98.2935 26.936C98.2935 26.3707 98.4908 25.896 98.8855 25.512C99.2802 25.128 99.7602 24.936 100.326 24.936C100.891 24.936 101.366 25.128 101.75 25.512C102.144 25.896 102.342 26.3707 102.342 26.936C102.342 27.512 102.15 27.992 101.766 28.376C101.382 28.7493 100.907 28.936 100.342 28.936ZM117.605 31H121.509V47.304C121.509 48.456 121.274 49.5013 120.805 50.44C120.335 51.3893 119.695 52.2 118.885 52.872C118.074 53.5547 117.146 54.0773 116.101 54.44C115.055 54.8133 113.957 55 112.805 55C111.685 55 110.607 54.7707 109.573 54.312C108.538 53.8533 107.621 53.224 106.821 52.424C106.031 51.6347 105.429 50.7333 105.013 49.72L108.581 48.104C108.794 48.6907 109.114 49.2027 109.541 49.64C109.978 50.088 110.479 50.4347 111.045 50.68C111.61 50.936 112.197 51.064 112.805 51.064C113.423 51.064 114.015 50.9787 114.581 50.808C115.157 50.6373 115.674 50.3867 116.133 50.056C116.591 49.736 116.949 49.3413 117.205 48.872C117.471 48.4133 117.605 47.8907 117.605 47.304V45.048C117.103 45.752 116.474 46.3227 115.717 46.76C114.959 47.1973 114.085 47.416 113.093 47.416C111.941 47.416 110.863 47.1973 109.861 46.76C108.858 46.3227 107.973 45.72 107.205 44.952C106.447 44.1733 105.85 43.2773 105.413 42.264C104.986 41.2507 104.773 40.1627 104.773 39C104.773 37.8373 104.986 36.7493 105.413 35.736C105.85 34.7227 106.447 33.832 107.205 33.064C107.973 32.2853 108.858 31.6773 109.861 31.24C110.863 30.8027 111.941 30.584 113.093 30.584C114.085 30.584 114.959 30.8027 115.717 31.24C116.474 31.6667 117.103 32.232 117.605 32.936V31ZM113.141 43.656C113.962 43.656 114.687 43.448 115.317 43.032C115.957 42.6053 116.458 42.04 116.821 41.336C117.183 40.6213 117.365 39.8427 117.365 39C117.365 38.1467 117.178 37.368 116.805 36.664C116.442 35.96 115.941 35.3947 115.301 34.968C114.671 34.5413 113.951 34.328 113.141 34.328C112.341 34.328 111.61 34.5413 110.949 34.968C110.287 35.384 109.759 35.944 109.365 36.648C108.97 37.352 108.773 38.136 108.773 39C108.773 39.864 108.97 40.648 109.365 41.352C109.759 42.056 110.287 42.616 110.949 43.032C111.61 43.448 112.341 43.656 113.141 43.656ZM132.023 47.416C130.551 47.416 129.207 47.0373 127.991 46.28C126.785 45.5227 125.82 44.5093 125.095 43.24C124.38 41.96 124.023 40.5467 124.023 39C124.023 37.8267 124.231 36.7333 124.647 35.72C125.063 34.696 125.633 33.8 126.359 33.032C127.095 32.2533 127.948 31.6453 128.919 31.208C129.889 30.7707 130.924 30.552 132.023 30.552C133.495 30.552 134.833 30.9307 136.039 31.688C137.255 32.4453 138.22 33.464 138.935 34.744C139.66 36.024 140.023 37.4427 140.023 39C140.023 40.1627 139.815 41.2507 139.399 42.264C138.983 43.2773 138.407 44.1733 137.671 44.952C136.945 45.72 136.097 46.3227 135.127 46.76C134.167 47.1973 133.132 47.416 132.023 47.416ZM132.023 43.512C132.801 43.512 133.5 43.304 134.119 42.888C134.737 42.472 135.223 41.9227 135.575 41.24C135.937 40.5573 136.119 39.8107 136.119 39C136.119 38.168 135.932 37.4107 135.559 36.728C135.196 36.0347 134.7 35.4853 134.071 35.08C133.452 34.664 132.769 34.456 132.023 34.456C131.255 34.456 130.561 34.664 129.943 35.08C129.324 35.496 128.833 36.0507 128.471 36.744C128.108 37.4373 127.927 38.1893 127.927 39C127.927 39.8427 128.113 40.6053 128.487 41.288C128.86 41.9707 129.356 42.5147 129.975 42.92C130.604 43.3147 131.287 43.512 132.023 43.512ZM152.496 42.184L156.016 44.088C155.28 45.0907 154.358 45.896 153.248 46.504C152.139 47.112 150.928 47.416 149.616 47.416C148.144 47.416 146.8 47.0373 145.584 46.28C144.379 45.5227 143.414 44.5093 142.688 43.24C141.974 41.96 141.616 40.5467 141.616 39C141.616 37.8267 141.824 36.7333 142.24 35.72C142.656 34.696 143.227 33.8 143.952 33.032C144.688 32.2533 145.542 31.6453 146.512 31.208C147.483 30.7707 148.518 30.552 149.616 30.552C150.928 30.552 152.139 30.856 153.248 31.464C154.358 32.072 155.28 32.888 156.016 33.912L152.496 35.8C152.123 35.3733 151.68 35.0427 151.168 34.808C150.667 34.5733 150.15 34.456 149.616 34.456C148.848 34.456 148.155 34.6693 147.536 35.096C146.918 35.512 146.427 36.0667 146.064 36.76C145.702 37.4427 145.52 38.1893 145.52 39C145.52 39.8 145.702 40.5467 146.064 41.24C146.427 41.9227 146.918 42.472 147.536 42.888C148.155 43.304 148.848 43.512 149.616 43.512C150.171 43.512 150.699 43.3947 151.2 43.16C151.702 42.9147 152.134 42.5893 152.496 42.184ZM168.646 31H172.79L164.038 55H159.894L162.79 47L157.03 31H161.302L164.742 41.656L168.646 31Z" fill="white"/>
<path d="M48.7484 46.52C46.9298 47.591 44.8011 48.2 42.5484 48.2C35.7078 48.2 30.1484 42.551 30.1484 35.6C30.1484 28.649 35.7078 23 42.5484 23C44.8011 23 46.9298 23.609 48.7484 24.68C45.0491 26.864 42.5484 30.938 42.5484 35.6C42.5484 40.283 45.0491 44.336 48.7484 46.52Z" fill="#FD3A25"/>
<path d="M48.7484 46.52C46.9298 47.591 44.8011 48.2 42.5484 48.2C35.7078 48.2 30.1484 42.551 30.1484 35.6C30.1484 28.649 35.7078 23 42.5484 23C44.8011 23 46.9298 23.609 48.7484 24.68C45.0491 26.864 42.5484 30.938 42.5484 35.6C42.5484 40.283 45.0491 44.336 48.7484 46.52Z" fill="#FD3A25"/>
<path d="M48.7484 46.52C50.5671 47.591 52.6958 48.2 54.9484 48.2C61.7891 48.2 67.3484 42.551 67.3484 35.6C67.3484 28.649 61.7891 23 54.9484 23C52.6958 23 50.5671 23.609 48.7484 24.68C52.4478 26.864 54.9484 30.938 54.9484 35.6C54.9484 40.283 52.4478 44.336 48.7484 46.52Z" fill="#FD3A25"/>
<path d="M48.7484 46.52C50.5671 47.591 52.6958 48.2 54.9484 48.2C61.7891 48.2 67.3484 42.551 67.3484 35.6C67.3484 28.649 61.7891 23 54.9484 23C52.6958 23 50.5671 23.609 48.7484 24.68C52.4478 26.864 54.9484 30.938 54.9484 35.6C54.9484 40.283 52.4478 44.336 48.7484 46.52Z" fill="#FD3A25"/>
</g>
<defs>
<filter id="filter0_ii_6062_76" x="0" y="0" width="204" height="70" filterUnits="userSpaceOnUse" color-interpolation-filters="sRGB">
<feFlood flood-opacity="0" result="BackgroundImageFix"/>
<feBlend mode="normal" in="SourceGraphic" in2="BackgroundImageFix" result="shape"/>
<feColorMatrix in="SourceAlpha" type="matrix" values="0 0 0 0 0 0 0 0 0 0 0 0 0 0 0 0 0 0 127 0" result="hardAlpha"/>
<feOffset dy="-3"/>
<feComposite in2="hardAlpha" operator="arithmetic" k2="-1" k3="1"/>
<feColorMatrix type="matrix" values="0 0 0 0 0.0313726 0 0 0 0 0.0313726 0 0 0 0 0.0313726 0 0 0 1 0"/>
<feBlend mode="normal" in2="shape" result="effect1_innerShadow_6062_76"/>
<feColorMatrix in="SourceAlpha" type="matrix" values="0 0 0 0 0 0 0 0 0 0 0 0 0 0 0 0 0 0 127 0" result="hardAlpha"/>
<feOffset dy="1"/>
<feComposite in2="hardAlpha" operator="arithmetic" k2="-1" k3="1"/>
<feColorMatrix type="matrix" values="0 0 0 0 1 0 0 0 0 1 0 0 0 0 1 0 0 0 0.3 0"/>
<feBlend mode="normal" in2="effect1_innerShadow_6062_76" result="effect2_innerShadow_6062_76"/>
</filter>
<radialGradient id="paint0_radial_6062_76" cx="0" cy="0" r="1" gradientTransform="matrix(127.628 37.9167 -6.42893 43.794 57.407 -7.29167)" gradientUnits="userSpaceOnUse">
<stop stop-color="white"/>
<stop offset="1" stop-color="white" stop-opacity="0"/>
</radialGradient>
</defs>
</svg>
